<svg width="292" height="307" viewBox="0 0 292 307" fill="none" xmlns="http://www.w3.org/2000/svg">
<path d="M0 0H292V307H0V0Z" fill="white"/>
<path d="M120.029 54.9924C120.97 53.0599 122.132 51.156 123.466 49.6158C125.227 47.5835 127.659 45.5798 129.712 43.8827C130.104 43.5618 130.96 43.3479 131.003 43.2908C131.231 42.9913 130.233 42.0002 129.983 41.715C130.069 41.4083 130.076 41.0233 130.197 40.7309C130.725 39.5258 132.386 38.2137 133.691 38.0355C136.123 37.7075 136.265 39.7611 138.134 39.7825C138.918 39.7896 139.595 39.2762 140.308 39.1407C141.456 38.9197 143.474 38.9767 144.715 38.9696C150.234 38.9268 153.265 39.6042 158.014 42.3638C160.631 43.8827 162.678 45.8294 165.102 47.448C165.173 47.9329 165.822 48.589 166.314 48.6603C166.307 48.8029 166.357 48.8956 166.435 49.0025C166.614 49.2521 167.284 49.794 167.519 50.0721C168.033 50.6854 168.881 51.6124 168.674 52.4324C168.403 53.5163 166.721 53.2097 166.043 52.6392C164.781 51.5839 163.719 50.0009 162.478 48.9384C158.813 45.7866 152.809 42.3639 147.945 42.0715C140.665 41.6365 130.454 46.3642 125.876 52.026C122.368 56.3614 120.842 61.6738 121.776 67.2358C121.797 67.357 121.761 67.5068 121.776 67.6423C122.061 67.6565 122.339 67.6423 122.617 67.6066C123.48 67.4783 124.343 66.9434 125.141 67.3713L124.87 67.1074C125.362 66.9363 125.947 66.9292 126.389 66.8365C126.489 66.8151 126.482 66.6154 126.589 66.5798C127.965 66.1733 131.63 65.5672 132.543 64.954C132.636 64.954 132.721 64.954 132.814 64.954C133.855 64.954 136.051 64.3764 137.15 64.1125C137.527 64.0198 138.162 63.8487 138.462 63.6134C138.569 63.6276 138.747 63.6205 138.868 63.6134C139.296 63.5777 139.167 63.5848 139.403 63.3424H139.538C139.66 63.4208 139.781 63.4922 139.873 63.6134C140.03 63.0572 140.594 63.5492 141.071 63.4779C142.013 63.3353 144.416 62.6222 145.428 62.3085C146.441 61.9947 148.188 60.9893 148.915 60.8039C149.143 60.7468 149.414 60.9679 149.792 60.8894C150.363 60.7611 151.069 60.3333 151.618 60.1479C153.771 59.4277 155.91 58.6718 158.114 57.8946C158.328 57.8233 159.012 57.7163 159.048 57.6877C159.376 57.3811 158.399 57.4952 158.642 57.1529C158.72 57.1387 158.891 57.1743 158.912 57.1529C159.233 57.1529 159.376 57.2456 159.319 56.882C159.362 56.882 159.412 56.882 159.454 56.882C159.875 56.9461 159.675 57.1102 159.733 57.1458C160.018 57.3312 160.225 56.7108 160.132 56.4827C160.196 56.4541 160.331 56.5112 160.403 56.4827L160.538 56.7536C160.873 56.7037 161.102 56.4185 161.522 56.4613L162.285 55.684C162.399 55.6555 162.578 55.7125 162.692 55.684C163.112 55.5771 163.925 55.4844 164.289 55.2562C164.346 55.2205 164.31 55.0779 164.31 55.0066C164.353 54.9923 164.432 55.028 164.446 55.0066C164.731 55.0422 164.745 55.0209 164.717 54.7357C165.893 54.1937 166.364 54.1652 167.505 53.8229C168.175 53.6232 168.967 52.9672 169.573 52.6606C171.726 51.5839 173.794 50.5071 175.891 49.4233C176.09 49.3163 176.639 49.3805 176.782 49.0525C177.003 48.5462 176.647 48.7458 176.304 48.6032C175.962 48.4606 175.277 48.211 175.57 47.7404C175.812 47.3411 177.602 46.9489 178.101 46.9275C178.55 46.9061 180.519 47.1129 180.797 47.3411C182.03 48.3465 179.991 49.8155 179.242 50.3574C176.725 52.1543 173.823 53.937 171.07 55.2633C169.773 55.8908 168.389 56.4613 167.006 56.8962L167.063 57.3098C168.774 59.7557 167.348 62.8718 166.87 65.5102C169.081 64.9112 169.552 67.8918 169.815 69.4962C170.229 72.0561 170.614 75.4932 169.48 77.8748C169.245 78.3668 168.667 78.6735 168.753 79.2938C168.767 79.3865 169.473 80.9125 169.559 81.0195C170.051 81.6327 171.085 81.8324 170.657 82.959C170.528 83.3013 169.316 85.1838 168.995 85.6117C168.632 86.0966 168.125 86.4531 167.755 86.9237C165.651 89.5977 166.107 93.213 164.154 95.9726C163.448 96.9709 162.029 98.012 160.909 98.5111C159.347 99.2028 156.117 98.8677 154.427 98.4755C154.299 98.447 153.5 97.9835 153.686 98.4113C153.707 98.4684 154.342 99.3169 154.406 99.3811C155.44 100.436 160.239 100.95 161.922 101.342C164.389 101.927 167.255 102.597 169.673 103.282C173.88 104.472 177.146 107.61 180.597 110.12L186.18 116.381C186.672 116.402 186.109 115.91 186.038 115.71C185.482 114.085 184.612 113.122 183.841 111.689C183.663 111.361 183.485 110.776 183.292 110.519C183.143 110.32 182.815 110.22 182.779 110.156C182.701 110.013 182.786 109.756 182.722 109.614C182.066 108.302 181.816 107.66 182.109 106.105C182.508 105.706 182.472 104.743 182.793 104.437C183.171 104.066 185.268 103.503 185.318 103.253C185.346 103.096 185.096 102.954 185.075 102.818C185.047 102.618 185.182 102.454 185.118 102.255C185.104 102.212 184.676 101.478 184.633 101.449C184.555 101.392 183.107 101.87 182.793 101.948C182.201 102.084 181.709 102.262 181.203 102.383C180.362 102.576 179.114 102.661 178.315 102.326C177.723 102.084 177.431 101.499 177.303 100.914C177.26 100.715 177.388 100.515 177.345 100.337C177.317 100.23 176.896 99.2527 176.846 99.2171C176.554 99.0245 174.885 99.1957 174.322 98.5825C174.201 98.4541 174.229 98.2045 174.115 98.1189C173.987 98.012 173.744 98.1261 173.637 97.8623C173.459 97.4273 173.438 96.322 173.331 95.7444C173.131 94.6605 172.996 93.5624 172.931 92.6497C172.725 89.9115 172.375 86.2891 172.661 83.6008C172.682 83.4297 172.546 83.23 172.575 83.0945C172.582 83.0375 173.145 82.2103 173.21 82.1319C173.709 81.5757 175.135 81.3118 175.698 81.9322C176.04 81.1763 176.155 80.5346 176.775 79.9142C177.659 79.0372 178.215 79.2582 179.321 79.1013C180.191 78.973 180.355 79.0158 181.217 78.9801C184.162 78.8518 187.086 78.1529 189.938 77.7536C192.577 77.3828 194.973 77.3828 197.518 76.8409C199.158 76.4915 199.871 76.2847 201.604 76.7482C201.889 76.8266 202.831 77.3329 202.909 77.3543C203.422 77.4755 204.299 77.2402 204.863 77.4969C205.205 77.6538 205.305 78.8874 205.391 78.9587C205.426 78.9872 206.104 79.0657 206.225 79.0657C219.21 78.6378 228.993 72.2558 238.406 64.0412C238.691 63.7917 240.324 62.3726 239.96 62.0232C239.925 61.9947 239.532 62.0732 239.318 61.9876C239.269 61.9662 238.72 61.303 238.684 61.2103C238.106 59.6059 239.475 58.3438 240.902 57.9873C240.923 58.1869 241.287 58.1869 241.308 57.9873C241.579 57.9873 241.85 57.9873 242.114 57.9873C242.035 58.4365 242.827 58.4008 243.212 58.572C243.597 58.7431 244.396 59.121 244.595 59.4776C244.987 60.1906 244.795 59.7628 245.13 60.1407C245.23 60.2548 246.185 62.6721 246.242 62.9289C246.314 63.2497 246.264 63.5777 246.278 63.9058C246.364 63.9058 246.463 63.92 246.549 63.9058V64.0412C246.585 64.298 246.485 64.6545 246.549 64.8898C246.585 65.0324 246.87 65.0182 246.934 65.2036C246.998 65.389 246.913 65.7241 246.955 65.7883C246.984 65.8311 247.155 65.7669 247.219 65.7883C247.291 67.3214 247.676 69.2467 248.089 70.7726C248.182 71.1007 248.831 72.5981 248.831 72.7193C248.831 72.8976 248.61 73.0117 248.596 73.2256C248.546 74.0956 249.045 75.6643 249.202 76.52C249.473 77.9675 249.394 79.6646 249.765 80.9553C249.943 81.5757 249.965 82.4884 250.036 83.1444C250.036 83.1872 250.036 83.2371 250.036 83.2799C250.093 83.7933 249.922 84.1071 250.171 84.6276C250.207 84.7061 250.257 84.8416 250.307 84.8986C249.886 85.1696 250.407 85.5689 250.442 85.7044C250.507 85.9326 250.557 86.2677 250.578 86.5102C250.721 87.9506 250.792 89.3553 250.849 90.8171C250.849 90.9098 250.849 90.9954 250.849 91.0881C250.849 91.4803 250.863 91.8368 250.856 92.2361C250.856 92.4928 250.706 92.7781 251.12 92.7068C251.163 93.3271 251.355 93.5696 251.398 93.9831C251.476 94.6463 251.262 95.3665 251.398 96.265C251.669 98.0405 251.833 99.8589 252.075 101.649C252.211 102.69 252.567 103.638 252.582 104.743C252.589 105.492 252.738 105.399 252.738 105.442C252.917 108.48 252.981 112.01 252.496 115.019C252.311 116.181 252.254 117.892 251.106 118.47C249.722 119.162 247.462 118.734 246.064 118.156C245.258 117.821 243.768 116.951 244.652 115.96C245.437 115.09 246.364 116.181 246.913 115.817C246.934 115.803 246.955 115.39 247.212 115.589C247.419 115.753 247.241 116.145 248.089 116.131C248.995 116.117 249.337 114.869 249.444 114.113C249.879 111.018 249.515 108.33 249.38 105.157C249.359 104.729 249.53 103.916 249.501 103.56C249.458 103.061 249.002 102.105 248.988 101.806C248.916 100.208 248.995 98.5896 248.688 96.9638C248.567 96.3363 248.096 95.231 248.032 94.6606C247.989 94.2826 248.36 93.7692 248.296 93.3271C248.26 93.049 247.954 92.8636 247.897 92.5071C247.711 91.3305 247.84 89.6833 247.726 88.5067C247.697 88.1787 247.398 87.9291 247.341 87.5441C247.248 86.8595 247.476 86.0038 247.44 85.4049C247.419 85.0697 247.141 84.5777 247.091 84.1641C246.692 80.8055 246.592 77.4826 245.765 74.1811C245.551 73.3326 245.601 73.1258 245.594 72.3414C245.594 72.2487 245.38 72.2629 245.323 72.1631C244.852 71.3716 245.28 70.9153 245.173 70.0524C244.923 67.9845 244.11 65.0681 243.433 63.1143C243.419 63.0786 243.44 62.2015 243.162 62.5795C243.283 61.5598 241.971 60.5971 241.814 61.303C241.743 61.6096 242.706 61.9519 242.755 62.1373C242.841 62.4582 242.698 63.0215 242.755 63.3852C241.672 64.5546 239.753 66.1091 238.449 67.2215C232.373 72.4127 225.463 77.3828 217.755 79.7645C215.01 80.613 212.828 81.0052 210.004 81.433C209.241 81.5471 208.157 81.9465 207.43 81.9608C206.817 81.975 206.339 81.6113 205.754 81.5543C205.911 83.5723 205.961 85.6402 206.168 87.6653C206.439 90.3251 207.109 93.0847 206.974 95.7587C206.959 96.0154 206.874 96.2436 206.831 96.4932C207.637 96.2079 208.193 96.6643 208.927 96.7499C215.131 97.4843 222.818 98.8962 228.587 101.178C230.476 101.927 232.116 102.661 234.02 103.41C235.924 104.159 237.614 104.8 239.397 105.563C239.782 105.727 240.438 105.77 240.823 105.956C241.7 106.376 243.404 107.638 244.31 108.173C246.221 109.314 247.626 109.849 248.681 111.988C248.731 112.095 248.931 112.102 248.931 112.181C248.959 112.78 248.375 113.942 247.683 113.942C246.25 113.942 246.207 112.958 245.38 112.423C243.989 111.518 242.349 110.669 240.937 109.792C236.88 107.275 231.731 105.742 227.132 103.959C223.353 102.497 220.422 101.741 216.472 100.893C213.441 100.244 210.61 99.431 207.437 99.7091C207.294 99.98 206.831 100.964 206.574 101.057C206.46 101.092 206.275 101.057 206.118 101.1C205.704 101.228 204.727 101.527 204.314 101.592C203.522 101.72 202.538 101.428 201.697 101.599C201.626 102.019 201.825 101.806 202.032 101.863C202.888 102.126 204.813 102.469 205.262 103.217C205.348 103.367 205.291 103.631 205.362 103.717C205.412 103.774 205.711 103.752 205.94 104.016C206.56 104.736 205.89 105.97 205.883 106.826C206.125 107.068 207.273 107.218 207.33 107.268C207.38 107.31 207.366 107.532 207.437 107.624C207.58 107.817 207.886 108.138 207.95 108.323C208.193 109.022 207.786 110.933 208.05 111.853C208.079 111.96 209.227 113.136 209.455 113.543C209.897 114.32 210.004 115.119 209.697 115.981C209.526 116.466 208.692 116.958 208.585 117.293C208.414 117.857 208.87 118.47 208.528 119.126C208.371 119.433 207.922 119.247 208.286 119.889C207.458 119.761 207.879 120.11 207.672 120.695C207.159 122.171 204.877 122.677 203.822 123.583C203.736 123.661 203.537 123.64 203.472 123.697C203.294 123.861 203.38 124.189 203.287 124.36C203.159 124.602 202.709 125.037 202.595 125.316C201.59 127.747 201.961 130.514 201.54 133.01C201.504 133.216 201.305 133.373 201.276 133.566C201.191 134.108 201.561 134.122 201.74 134.443C204.414 139.199 210.717 143.563 214.176 148.112C216.621 151.336 218.796 154.744 221.192 157.981C221.328 158.167 221.477 158.666 221.862 158.652C221.898 158.73 221.955 158.88 221.998 158.923L222.133 159.457C222.112 159.835 222.112 160.285 222.133 160.67C222.133 160.791 222.269 160.905 222.269 160.941C222.297 161.247 222.248 161.575 222.269 161.882C222.069 161.975 222.133 162.246 222.133 162.417C222.133 162.545 222.119 162.695 222.133 162.823L221.862 163.629C221.47 163.607 221.135 164.05 220.786 164.299C220.565 164.463 220.265 164.335 220.379 164.834C220.244 164.855 219.887 164.798 219.844 164.834C219.559 164.805 219.545 164.82 219.574 165.105C219.295 165.262 219.039 165.476 218.768 165.64C218.34 165.911 217.655 166.068 217.556 166.716C217.356 166.823 217.363 166.716 217.149 166.987C216.885 167.002 216.728 167.116 216.743 167.394C216.643 167.437 216.55 167.501 216.472 167.529C215.823 167.786 216.293 167.636 215.93 167.993C215.431 168.478 214.518 169.027 213.912 169.412C213.769 169.497 213.641 169.597 213.505 169.683C212.4 170.382 211.83 170.952 210.945 171.565C210.931 171.58 210.717 171.587 210.539 171.701C210.232 171.893 210.218 171.672 210.132 172.107C210.125 172.15 210.132 172.2 210.132 172.243L206.51 174.753C206.874 175.808 206.332 177.676 206.795 178.611C206.888 178.789 207.088 178.803 207.166 178.946C207.409 179.373 207.059 179.887 207.031 180.379C206.974 181.249 207.187 182.076 207.173 182.946C207.138 185.392 205.989 189.05 203.187 189.456C201.896 189.642 199.023 189.606 197.775 189.235C196.056 188.722 194.502 187.438 193.026 186.447C191.942 185.72 192.377 185.884 191.621 185.021C191.293 184.643 190.922 184.572 190.737 184.386C190.473 184.115 190.466 183.452 190.166 183.174C189.689 182.732 188.74 182.212 188.184 181.72C184.997 178.881 182.266 174.945 179.256 171.872C178.9 171.508 178.337 171.123 177.959 170.745C177.959 170.924 177.959 171.116 177.894 171.287C177.153 173.633 176.39 176.108 176.076 178.489C175.869 180.072 176.126 181.534 175.926 183.046C175.691 184.793 175.384 186.583 175.135 188.315C175.007 189.207 175.477 189.713 175.634 190.497C176.447 194.555 178.123 196.63 180.511 199.881C180.747 200.202 180.761 200.702 181.317 200.759L181.053 200.894C181.995 202.998 182.993 205.151 184.077 207.219C185.425 211.683 185.225 216.382 185.353 221.01C185.41 223.063 185.032 226.108 184.54 228.404C184.348 229.289 183.956 230.843 183.399 231.57C182.708 232.462 181.695 232.155 180.918 231.57C180.861 232.369 181.574 232.683 181.602 233.517C181.617 233.995 181.374 234.316 181.367 234.615C181.253 237.995 181.025 241.411 181.053 244.755C181.053 245.069 181.046 245.383 181.053 245.696C181.061 245.967 181.053 246.238 181.053 246.502C181.053 246.723 181.053 246.951 181.053 247.172C180.597 247.044 180.804 248.071 180.782 248.52C180.747 249.39 180.611 250.381 180.647 251.208C180.654 251.408 180.611 251.593 180.782 251.743C180.782 251.836 180.782 251.921 180.782 252.014C180.561 252.428 180.618 253.141 180.647 253.626C180.661 253.818 180.747 254.788 180.782 254.838C180.654 254.874 180.654 254.995 180.647 255.109C180.64 255.194 180.654 255.287 180.647 255.38C180.64 255.473 180.654 255.558 180.647 255.651C180.618 255.922 180.526 256.186 180.511 256.457C180.497 256.699 180.519 257.184 180.647 257.398C180.597 258.311 180.647 259.302 180.647 260.222C180.476 260.386 180.404 260.771 180.647 260.892C180.576 261.541 180.554 262.126 180.511 262.774C180.476 263.352 180.397 263.395 180.511 263.987C180.526 264.044 180.519 264.243 180.511 264.258C180.497 264.272 180.276 264.201 180.24 264.343C180.183 264.564 180.29 264.878 180.24 265.128C179.977 266.333 179.898 267.581 179.577 268.7C179.556 268.779 179.599 268.9 179.577 268.971C179.549 269.042 179.071 269.998 179.043 270.048C179.028 270.069 178.665 270.433 178.636 270.454C178.615 270.468 178.151 270.704 178.101 270.725C178.044 270.747 177.716 270.854 177.695 270.861C177.588 270.882 177.402 270.868 177.288 270.861C177.274 270.782 177.317 270.64 177.288 270.59C177.431 270.126 177.039 270.212 177.017 270.183C176.925 270.048 176.24 268.914 176.212 268.836C176.04 268.344 175.527 265.313 175.527 264.728C175.527 262.917 176.026 261.077 176.076 259.352C176.076 259.273 176.333 259.287 176.354 259.188C176.404 258.945 176.197 258.639 176.204 258.396C176.24 257.27 176.283 256.079 176.347 254.973C176.368 254.61 176.461 254.196 176.483 253.761C176.483 253.669 176.483 253.583 176.483 253.49C176.504 253.034 176.59 252.599 176.618 252.143C176.632 251.921 176.604 251.693 176.618 251.472C176.625 251.294 176.611 251.116 176.618 250.937C176.632 250.624 176.611 250.303 176.618 250.132C176.618 249.996 176.618 249.861 176.618 249.725C176.618 249.632 176.739 249.354 176.754 249.055C176.775 248.563 176.732 248.064 176.754 247.572C176.754 247.529 176.875 247.301 176.889 247.037C177.046 243.607 177.003 240.163 177.039 236.74C177.039 236.319 176.889 235.756 176.953 235.285C177.074 234.373 177.759 233.674 177.566 232.633C177.331 232.611 177.06 232.676 176.832 232.633C173.759 231.92 170.799 233.218 167.826 233.596C166.414 233.774 165.045 234.009 163.669 234.287C163.17 234.387 162.193 234.965 161.615 235.057C161.23 235.121 160.795 235.015 160.41 235.064C154.092 235.949 148.166 238.202 141.777 239.172C139.695 239.493 137.363 239.906 135.31 240.177C135.139 240.199 134.946 240.156 134.775 240.177C134.09 240.27 133.163 240.384 132.486 240.448C132.351 240.462 132.215 240.434 132.08 240.448C132.058 240.448 131.958 240.32 131.659 240.341C131.388 240.355 130.81 240.448 130.732 240.719C130.646 240.705 130.554 240.719 130.461 240.719C130.033 240.698 129.477 240.726 129.113 240.99C128.978 240.99 128.842 240.99 128.707 240.99C127.152 241.026 124.899 242.217 123.359 242.573C121.469 243.008 119.287 242.837 117.369 243.179C115.929 243.436 114.624 244.363 113.098 243.956C113.019 244.199 113.304 244.27 113.333 244.448C113.354 244.584 113.226 244.734 113.233 244.819C113.24 244.919 113.511 244.876 113.511 244.969C113.511 245.154 113.304 245.254 113.283 245.397C113.105 246.531 112.991 247.664 112.698 248.805C112.292 248.834 112.399 248.969 112.292 249.34C112.27 249.419 112.313 249.54 112.292 249.611C112.049 249.739 111.436 249.996 111.279 250.146C111.058 250.346 110.93 250.93 110.63 251.18C110.331 251.429 109.582 251.7 109.197 251.765C109.033 251.793 108.819 251.736 108.662 251.765C108.448 251.807 108.284 251.864 108.127 251.9C106.951 252.15 105.033 252.699 103.906 252.563C103.813 252.549 103.835 252.335 103.721 252.307C102.908 252.128 100.134 251.636 99.5136 252.028C98.9003 251.636 96.6256 251.094 96.0908 251.472C95.9197 251.593 96.0409 251.964 96.0124 252.164C95.9696 252.164 95.9126 252.157 95.8769 252.164C95.4633 252.292 94.6647 253.847 94.6647 254.317C94.6647 254.36 94.6647 254.41 94.6647 254.453C94.5577 254.517 94.5648 254.624 94.5292 254.724C94.3866 255.13 94.4222 255.515 94.3937 255.936C93.9445 255.843 93.973 256.649 93.8589 257.013C93.7733 257.277 93.645 257.583 93.5879 257.819C93.5238 258.082 93.4524 258.111 93.4524 258.489C93.4524 258.532 93.4524 258.582 93.4524 258.624C93.0175 258.76 93.2528 259.273 93.1815 259.566C93.1672 259.616 93.0745 259.715 93.046 259.837C92.9676 260.165 92.8749 260.614 92.7751 260.913C92.718 261.084 92.7038 261.277 92.6396 261.448C92.6039 261.541 92.333 261.798 92.2331 261.983C92.2046 262.04 92.2616 262.19 92.2331 262.254C91.9622 262.254 91.4915 262.696 91.4273 262.924C91.4202 262.96 91.4273 263.017 91.4273 263.06L90.2151 263.195C90.1723 263.452 90.4789 263.252 90.593 263.359C90.6429 263.409 90.593 263.602 90.6572 263.687C90.7143 263.766 90.8783 263.723 90.8854 263.73C90.8997 263.766 90.9852 264.151 91.0209 264.265C91.0565 264.379 90.971 264.586 91.1564 264.671C91.1207 264.728 91.0066 265.855 91.0209 266.019C90.8925 266.133 90.8925 266.268 90.8854 266.425C90.8711 266.739 90.8854 267.053 90.8854 267.367C90.8854 267.502 90.8854 267.638 90.8854 267.773C90.8854 268.265 90.8711 268.764 90.8854 269.256C90.8854 269.349 90.8854 269.435 90.8854 269.527C90.8997 269.827 91.0138 270.119 91.0209 270.198C91.0352 270.554 91.0066 270.918 91.0209 271.274C91.0209 271.41 91.0209 271.545 91.0209 271.681C91.0209 271.845 91.1492 272.052 91.1564 272.216C91.1635 272.529 91.1564 272.843 91.1564 273.157C91.1564 273.492 91.0494 273.763 91.0494 274.034C91.0494 275.018 91.5557 278.191 89.5377 277.542C88.2756 277.136 88.0474 275.253 87.9333 274.169C87.7336 272.301 87.7122 269.962 87.6623 268.051C87.6623 267.866 87.6623 267.566 87.6623 267.381C87.6623 267.288 87.6623 267.203 87.6623 267.11C87.6623 267.017 87.6623 266.932 87.6623 266.839C87.6623 266.661 87.6623 266.482 87.6623 266.304C87.6623 266.211 87.6623 266.126 87.6623 266.033C87.6766 265.798 87.6124 265.406 87.6623 265.227C87.6623 265.206 87.8762 265.17 87.9261 264.892C88.19 263.509 87.7907 263.673 87.0491 263.074C86.8993 262.953 86.8708 262.724 86.7068 262.603C86.5785 262.511 86.336 262.546 86.3146 262.525C86.2718 262.482 86.4358 262.197 86.4216 262.061C86.3788 261.434 86.0579 261.049 86.0579 260.992C86.1221 260.008 85.9866 259.002 85.9224 258.025C85.573 252.692 88.7533 248.427 90.9139 243.785C91.2918 242.972 91.52 241.903 91.848 241.083C92.283 239.985 93.0032 240.363 92.9105 238.844C93.0959 238.78 93.0317 238.58 93.046 238.437C93.0816 238.145 93.1387 237.902 93.1815 237.632C93.2457 237.175 93.3241 236.933 93.317 236.419C93.317 236.241 93.3241 236.056 93.317 235.884C93.317 235.792 93.3241 235.706 93.317 235.614C93.1387 235.614 92.9605 235.614 92.7751 235.614C92.7608 235.129 93.0104 234.986 92.7751 234.537C92.5398 234.088 91.8837 233.788 91.7696 233.588C91.6626 233.41 91.7197 233.075 91.6983 233.054C91.5914 232.932 90.2722 233.417 90.3506 233.859C90.3078 233.859 90.2579 233.852 90.2151 233.859C89.8942 233.916 89.6019 234.18 89.6803 234.53C89.1526 234.53 89.281 234.651 89.01 235.064C88.9815 235.107 88.7248 235.221 88.7391 235.335C88.5608 235.335 88.3825 235.343 88.2042 235.335C87.1275 235.285 85.8725 235.335 85.3805 234.123C85.3662 234.08 85.2521 233.738 85.245 233.717C85.1951 233.467 85.3092 233.054 85.2521 232.847C85.2022 232.654 84.6746 232.989 84.8386 232.369C85.573 232.505 85.7941 231.585 86.1934 231.128C86.3859 230.9 86.828 230.437 87.0491 230.273C87.9832 229.574 89.4236 229.517 88.4182 227.984C87.9333 227.249 86.6141 226.615 85.9795 226.044C84.9883 225.16 83.9472 223.584 82.8919 222.543C81.4158 221.088 79.8542 219.548 78.3068 218.108C75.8253 215.79 73.351 213.337 70.9122 210.834C67.518 207.34 64.4518 203.682 61.1503 200.145C60.0165 198.926 58.9469 197.685 57.7204 196.573C56.9503 195.874 56.772 195.503 56.1659 194.79C53.8057 191.981 51.8091 189.478 49.7554 186.305C49.1778 185.413 48.4505 184.458 48.0298 183.388C47.8515 182.939 47.3381 181.427 47.2882 181.021C47.2454 180.65 47.4522 180.336 47.4237 180.115C47.4165 180.03 47.1955 180.037 47.1598 179.923C46.8033 178.839 47.1099 174.717 47.4308 173.512C47.659 172.649 48.2651 172.107 48.6502 171.373C49.1422 170.439 49.7483 168.813 50.4186 168.093C50.5255 167.979 50.7609 168 50.9249 167.822C51.1245 167.608 51.153 167.151 51.1887 167.109C51.2101 167.087 51.4311 166.895 51.5951 166.702C51.6094 166.681 51.7306 166.595 51.8661 166.431C52.3438 165.861 52.8573 165.248 53.3493 164.684C53.442 164.577 53.5775 164.492 53.7557 164.278C53.877 164.142 54.1836 164.071 54.1622 163.743C54.4902 163.814 54.3904 163.586 54.4332 163.472C54.4617 163.401 54.5686 163.315 54.5686 163.201C54.8824 163.023 55.3316 162.438 55.6454 162.124C55.7024 162.067 55.8522 162.067 55.895 161.903C56.0875 161.19 54.1765 159.279 53.7771 158.538C52.0087 155.2 50.3045 152.013 47.9656 148.868C47.7089 148.519 47.1242 147.899 47.0315 147.385C46.9388 146.872 47.1598 146.458 47.1598 145.98C47.4522 145.888 47.9228 145.118 48.1011 144.904C48.1296 144.875 48.1581 144.961 48.372 144.633C48.4077 144.576 48.5717 144.533 48.643 144.362C49.2848 144.547 49.4203 143.791 49.7625 143.463C49.898 143.335 50.1547 143.313 50.333 143.157C53.3707 140.361 55.8094 136.931 58.8328 134.086C61.2073 131.854 63.6246 129.152 65.7353 126.528C65.8352 126.407 66.0705 126.364 66.1062 126.3C66.1988 126.136 66.0776 125.836 66.1989 125.651C66.3058 125.487 66.7978 125.501 67.0118 125.251C67.2114 125.023 67.1758 124.652 67.3469 124.374C67.9387 123.426 69.6644 122.349 70.3418 121.044C71.0192 119.739 71.8535 119.454 72.8233 118.477C73.6148 117.679 74.3635 116.509 75.1479 115.76C75.7611 115.183 76.8093 114.641 77.4511 114.02C78.3424 113.165 79.1768 111.617 80.0681 110.862C81.3445 109.771 82.7207 108.886 83.9757 107.745C84.1183 107.61 84.4178 107.681 84.3109 107.218C84.7458 107.146 85.0097 106.933 85.3876 106.683C85.6087 106.533 85.9438 106.533 85.9224 106.148C85.9652 106.148 86.0151 106.148 86.0579 106.148C86.5784 106.084 86.9635 105.899 86.9992 105.342C87.0419 105.328 87.1204 105.357 87.1346 105.342C87.534 105.449 87.37 105.093 87.4056 105.071C87.5981 104.943 87.9761 105.399 88.0759 104.537H88.2114C88.6963 104.423 89.0172 103.995 89.4236 103.731C90.6002 102.961 91.8195 102.326 92.9604 101.57C93.1458 101.449 93.8732 100.829 93.973 100.779C94.408 100.565 95.4134 100.315 95.9768 100.123C97.4813 99.6021 100.277 98.7108 101.76 98.6466C102.002 98.6324 102.18 98.8891 102.409 98.8819C102.573 98.8819 102.779 98.6538 103.072 98.611C104.163 98.4541 105.689 98.6537 106.965 98.4683C108.627 98.2259 110.224 97.6055 111.857 97.306C113.262 97.0493 113.183 97.085 114.509 96.593C114.902 96.4503 116.527 96.1651 116.592 95.9797C116.763 95.4806 116.335 95.4877 116.242 95.3451C115.665 94.4823 114.738 93.7264 114.709 92.6211C114.688 91.8154 115.059 91.9295 115.344 91.5801C115.615 91.2449 115.551 90.703 116.249 90.81C117.39 91.302 118.98 94.0117 119.964 94.3825C120.62 94.632 121.833 92.9563 122.446 92.5641C124.414 91.3091 125.919 90.1254 127.609 88.578C127.773 88.4283 128.55 87.8222 128.564 87.758C129.02 85.4833 126.953 84.9628 125.605 83.8931C123.615 82.3173 121.876 77.4113 121.576 74.937C121.569 74.8514 121.583 74.7587 121.576 74.666C121.483 73.6677 121.54 72.2915 121.712 71.3003C121.712 71.2647 121.826 71.172 121.847 71.0293C121.861 70.9224 121.89 70.794 121.769 70.7441C121.227 70.6015 120.77 70.3733 120.228 70.2164C120.314 69.867 119.965 69.8813 119.694 69.81C119.608 69.7315 119.237 69.4463 119.159 69.4035C119.843 69.3679 119.237 68.9615 118.752 68.9971C118.881 68.6406 118.752 68.3339 118.346 68.4552C118.289 68.2912 118.481 68.1985 118.481 68.1842L119.287 68.4552C119.38 67.9988 118.695 67.7421 118.617 67.6494C118.453 67.464 118.303 67.0433 118.082 66.8436V66.7081C118.025 65.9024 117.989 65.0966 117.947 64.2837L118.068 64.1981L117.947 64.0127C117.932 63.6989 117.818 63.4137 117.811 63.0714C117.811 62.7006 117.939 62.3727 117.947 61.9947C117.947 61.8592 117.954 61.7238 117.947 61.5883C118.125 61.5241 118.075 61.3316 118.082 61.1818C118.096 60.811 118.118 60.3333 118.082 59.9696C118.317 59.8769 118.374 59.6772 118.453 59.4633C118.595 59.0568 119.023 57.7591 119.023 57.4097C119.023 57.3241 119.023 57.2314 119.023 57.1387C119.294 56.9391 119.209 56.5611 119.294 56.3329C119.337 56.2046 119.387 56.0334 119.43 55.9265C119.501 55.7625 119.808 55.3061 119.964 54.9852L120.029 54.9924ZM159.59 57.2813C159.44 57.1315 159.176 57.4025 159.319 57.5523C159.462 57.702 159.732 57.431 159.59 57.2813ZM210.86 167.087C212.293 166.902 213.077 165.633 214.061 164.813C215.459 163.65 217.064 162.723 218.319 161.568C218.454 161.44 219.274 160.962 219.067 160.769C218.696 160.884 218.219 160.47 218.033 160.185C215.502 156.22 212.842 151.849 209.69 148.341C208.057 146.515 206.339 144.889 204.67 143.199C202.182 140.675 199.857 137.965 197.468 135.334C195.579 133.252 193.176 131.013 191.55 128.738C191.393 128.524 191.379 128.196 191.272 128.068C190.944 127.69 191.143 128.089 190.765 127.433C189.625 125.458 187.842 123.747 186.366 122.078C185.966 121.629 185.203 120.41 184.818 120.117C184.654 119.996 184.362 120.003 184.341 119.982C184.305 119.946 184.761 119.226 183.799 119.582C183.998 118.712 183.471 118.976 183.05 118.513C182.793 118.228 182.815 117.928 182.665 117.743C181.866 116.723 180.069 115.539 179.292 114.455C179.071 114.149 179.064 113.749 178.814 113.45C177.709 112.124 174.472 110.641 173.424 109.15C173.281 108.951 173.359 108.694 173.21 108.53C173.06 108.366 170.7 107.688 170.236 107.503C169.601 107.246 168.853 106.64 168.054 106.448C165.908 105.927 162.585 105.471 160.617 104.636C160.431 104.558 160.431 104.294 160.31 104.237C160.061 104.123 160.139 104.423 160.082 104.472C159.954 104.594 157.928 104.045 157.586 103.995C157.372 103.959 157.158 104.094 156.873 104.045C155.069 103.717 153.757 103.61 152.566 102.148C150.976 100.201 149.479 96.3933 150.562 93.9546C150.841 93.32 151.532 93.1702 151.817 92.5213C152.252 92.065 152.573 92.9278 152.673 93.2986C152.737 93.541 152.794 94.7461 152.851 94.8031C154.192 94.9386 155.09 95.9583 156.417 96.1509C157.023 96.2364 158.499 96.3434 159.105 96.3006C160.182 96.2293 161.758 95.3522 162.128 94.2755C160.823 94.4466 159.476 93.9974 158.449 93.1774C158.349 93.0989 157.6 92.3573 157.579 92.3003C157.493 92.065 157.408 91.138 157.415 90.8527C157.422 90.6317 158.014 88.2999 158.078 88.1787C158.121 88.1003 159.034 87.43 159.176 87.3587C160.36 86.8025 161.28 87.537 162.357 87.7865C162.97 87.9292 163.662 87.8364 164.275 88.086C164.596 86.3319 166.221 85.248 167.234 83.9787C168.425 82.4884 167.69 82.902 167.177 81.7539C167.056 81.483 167.099 80.9125 166.835 80.7485C166.507 80.5489 165.544 81.1478 164.403 80.3563C161.266 78.1743 160.873 71.6212 161.85 68.2341C162.128 67.2786 162.806 65.8809 163.462 65.1322C163.704 64.8541 164.367 64.9255 164.417 64.7115C164.46 64.5119 164.389 64.2195 164.446 63.9628C164.731 62.5794 165.401 60.6185 165.188 59.2494C165.138 58.957 164.874 58.0586 164.503 58.0942L155.818 61.4528C155.426 62.8148 156.902 63.2141 157.116 64.3621C157.287 65.2749 157.016 66.3017 156.531 67.0789C155.853 68.1699 153.579 69.8171 153.386 70.9295C153.194 72.0419 153.343 73.1044 152.659 74.1098C152.352 74.5662 152.06 74.4521 151.803 74.666C151.233 75.1438 151.568 75.8782 150.242 75.6643C149.372 75.5217 149.065 74.7373 148.701 74.6375C148.166 74.4877 147.489 75.1366 147.268 75.5716C146.605 76.8765 146.619 79.0514 146.954 80.4348C147.09 80.9981 148.052 81.7754 148.601 81.8752C149.507 82.0463 150.441 81.5043 151.354 81.6113C150.99 84.0928 148.601 84.6347 146.484 83.886C146.341 83.8361 145.599 83.4724 145.435 83.3655C143.959 82.3529 143.624 80.0426 143.688 78.3883C143.76 76.4416 144.508 74.0314 146.177 72.8691C147.382 72.0348 148.972 72.3842 150.284 72.7336C150.57 71.6711 150.127 70.8225 150.612 69.7672C151.233 68.4337 154.114 66.4586 154.299 65.503C154.449 64.7187 153.186 63.5706 153.172 62.6365C150.598 63.264 148.195 64.4548 145.642 65.1964C140.48 66.6867 134.982 67.5923 129.805 69.0113C128.55 69.3536 127.231 70.0239 125.969 70.2878C125.562 70.3733 124.478 70.3091 124.179 70.5159C123.972 70.6585 124.022 72.1845 124.05 72.5411C124.193 74.3095 124.97 76.9407 125.662 78.5309C125.74 78.7163 125.883 78.8375 125.933 78.9373C126.161 79.4293 126.332 79.9356 126.603 80.4205C127.858 82.631 129.306 82.5882 130.596 84.0928C130.846 84.3781 131.124 85.355 131.181 85.3978C131.302 85.4833 131.916 85.0911 132.322 85.1197C132.814 85.1553 133.691 85.5618 134.212 85.6616C134.54 85.7258 134.925 85.6259 135.274 85.6758C135.816 85.7471 135.866 86.1037 136.75 85.7971C137.634 85.4905 137.848 84.6633 138.476 84.157C139.061 83.6864 140.85 82.9305 141.578 83.1444C141.613 83.1516 142.184 83.5081 142.198 83.5366C142.248 83.6222 142.07 83.9787 142.077 84.1855C142.077 84.3139 142.191 84.3923 142.212 84.4565C142.234 84.5278 142.198 84.6419 142.212 84.7275C141.899 84.8986 141.599 85.3122 141.442 85.3978C141.071 85.6046 140.594 85.6188 140.201 85.8755C139.781 86.1465 139.588 86.6528 139.246 86.938C138.191 87.8293 137.064 88.2286 135.681 88.086C135.246 88.0432 134.254 87.8721 133.827 87.7865C132.935 87.594 132.229 86.888 131.309 86.8738C131.096 87.4514 131.63 87.5155 131.552 87.8507C131.138 89.612 129.783 90.1111 128.75 91.2449C128.443 91.5872 128.022 92.3573 127.673 92.7281C126.425 94.0901 125.177 94.6606 123.722 95.7801C123.587 95.8799 123.359 96.1509 123.237 96.2935L132.065 98.4327C135.538 99.1101 139.096 98.34 142.555 98.5753C143.289 98.6252 144.501 98.7821 144.508 99.7305C144.516 101.435 143.139 101.413 141.863 101.527C140.116 101.691 138.134 101.984 136.358 102.084C135.959 102.105 135.517 101.912 135.303 101.941C135.203 101.955 135.281 102.191 135.025 102.226C133.114 102.483 130.732 101.72 128.892 101.342C126.61 100.871 123.623 100.458 121.505 99.5807C121.063 99.3953 119.366 98.2901 119.144 98.3115C118.988 98.3258 117.633 99.2242 117.219 99.3597C114.845 100.108 112.306 100.486 109.889 101.05C109.368 101.171 108.669 101.599 108.006 101.741C105.625 102.255 102.794 102.176 100.334 102.668C99.9058 102.754 99.4351 103.061 98.9146 103.139C97.738 103.31 98.2158 103.039 97.0891 103.667C95.8841 104.337 94.2796 104.907 93.1601 105.727C92.9533 105.877 92.8606 106.205 92.7964 106.241C92.6538 106.319 92.3828 106.212 92.3044 106.291C92.2545 106.341 92.3258 106.569 92.2616 106.64C92.1903 106.726 91.8695 106.711 91.6983 106.826C91.4416 106.99 91.299 107.446 90.9353 107.674C89.8443 108.359 89.0528 108.237 88.1187 109.307C87.7764 109.699 87.0918 110.448 86.6355 110.776C85.7441 111.425 84.9598 111.739 84.1611 112.473C82.1574 114.313 79.9897 115.825 78.0929 117.85C77.8718 118.092 77.5224 118.049 77.4868 118.52C77.4868 118.556 77.4797 118.62 77.4868 118.655C76.6596 118.641 76.9449 118.912 76.8165 119.19C76.8165 119.197 76.7167 119.29 76.681 119.326C76.6026 119.404 75.9537 119.711 75.9038 119.768C75.8324 119.846 75.4331 120.566 75.3333 120.673C75.3048 120.709 75.1265 120.638 74.9268 120.944C74.8698 121.03 74.8413 121.13 74.7914 121.215C74.3635 121.244 73.3795 122.641 73.0443 123.034C72.9445 123.148 72.9231 123.355 72.9088 123.362C72.8161 123.426 72.6878 123.29 72.374 123.633C71.4185 124.66 70.4844 125.708 69.6359 126.82C68.281 128.581 66.5055 130.407 64.9653 132.075C63.7673 133.373 62.5051 134.806 61.0647 136.076C60.1092 136.917 59.3462 137.438 58.5618 138.55C58.0056 139.335 57.6634 139.684 57.043 140.433C55.517 142.272 54.0053 143.805 52.4579 145.574C52.4365 145.602 52.4793 145.681 52.4579 145.709C52.4437 145.731 52.2654 145.745 52.0515 145.98C51.9445 146.102 51.9303 146.237 51.916 146.251C51.8019 146.358 51.752 146.408 51.645 146.522C51.3955 146.779 50.9961 146.572 50.9747 147.057C50.9605 147.349 51.0817 147.364 51.1102 147.464C51.1245 147.513 51.2314 147.556 51.2457 147.599C51.2956 147.735 51.26 147.863 51.3812 148.134C51.4026 148.191 51.4953 148.234 51.5167 148.269C51.6094 148.476 51.6379 148.64 51.7876 148.94C53.6274 152.569 55.9092 155.999 58.1554 159.336C58.897 160.434 59.7384 162.017 60.5371 163.001C60.751 163.265 61.3571 163.643 61.4213 163.743C61.5068 163.886 61.3357 164.1 61.3571 164.135C61.3856 164.178 62.0203 164.392 62.2413 164.599C63.1113 165.404 63.6532 166.624 64.352 167.465C64.8868 168.114 65.828 168.784 66.4484 169.476C66.6695 169.726 66.7978 170.211 67.0759 170.46C68.7516 171.972 71.989 172.307 74.0712 171.551C74.8199 171.28 76.9449 169.497 77.5652 168.856C78.9058 167.479 79.9255 165.911 81.751 164.969C82.0077 164.834 83.8474 164.085 84.0542 164.042C84.8956 163.864 85.5374 163.971 86.0864 164.634C86.3431 164.941 87.591 167.529 87.6623 167.907C87.8192 168.727 87.4698 169.077 87.4484 169.868C87.427 170.76 87.6552 171.622 87.7265 172.485C87.7693 172.934 87.8192 173.384 87.862 173.833C87.8691 173.919 87.8549 174.011 87.862 174.104C87.9689 175.316 88.133 176.557 88.2613 177.805C88.5679 180.814 88.8888 183.41 88.8032 186.419C88.7248 189.2 88.682 192.658 89.3381 195.411C89.3594 195.51 89.609 195.496 89.609 195.575C89.609 195.724 89.445 195.96 89.4664 196.231C89.552 197.4 90.0725 198.384 89.6375 199.632C89.2239 200.816 87.8049 200.823 88.846 202.178C89.0457 202.441 89.8229 202.955 90.0154 203.226C90.208 203.497 90.2436 203.86 90.4362 204.153C92.9747 207.861 95.8555 211.091 98.3513 214.806C100.041 217.323 101.311 220.04 103.008 222.536C103.129 222.707 104.084 223.948 104.163 223.998C104.248 224.055 104.434 224.055 104.526 223.998C104.669 223.912 105.361 222.094 105.568 221.744C106.102 220.839 106.659 220.696 107.543 220.354C107.735 220.282 107.857 220.04 108.006 220.004C108.049 219.997 108.855 220.019 108.905 220.026C109.133 220.069 110.074 220.682 110.167 220.824C110.195 220.874 110.431 221.851 110.431 221.951C110.445 222.536 109.354 224.09 108.89 224.547C108.427 225.003 108.363 225.039 107.921 225.566C107.728 225.794 106.716 226.821 106.844 226.978C106.872 227.014 107.065 226.95 107.115 226.978C107.136 226.992 107.101 227.071 107.115 227.114C107.215 227.349 107.265 227.527 107.386 227.784C108.277 229.709 109.539 230.772 110.538 232.505C110.78 232.918 110.773 233.51 110.965 233.959C111.279 234.694 112.099 235.671 112.42 236.405C112.713 237.082 113.19 240.726 113.525 240.826C115.002 240.698 116.399 239.849 117.854 239.664C120.107 239.371 121.362 239.357 123.594 238.673C130.062 236.697 136.458 236.355 143.211 235.15C144.259 234.965 145.271 234.544 146.141 234.38C148.067 234.016 149.906 233.325 151.789 232.825C157.251 231.378 162.906 230.708 168.403 229.388C171.755 228.583 172.447 227.969 176.219 228.162C176.839 228.19 177.631 228.162 178.23 228.19C178.672 228.219 179.727 228.925 180.183 229.125C179.948 228.419 180.276 227.727 180.319 227.035C180.397 225.559 180.326 223.748 180.462 222.343C180.497 221.965 180.847 221.338 180.954 220.803C181.232 219.42 181.36 215.819 181.125 214.385C180.954 213.33 180.732 212.503 180.59 211.426C180.255 208.895 179.527 206.649 178.287 204.445C177.474 203.005 176.204 201.828 175.292 200.445C174.507 199.261 173.68 197.799 173.046 196.53C172.917 196.28 172.169 195.068 172.14 194.976C172.062 194.683 172.233 194.419 172.197 194.12C172.14 193.663 171.534 192.601 171.455 192.038C171.063 189.335 171.791 186.583 171.848 183.98C171.855 183.652 172.054 182.711 172.126 182.29C172.318 181.135 172.447 180.122 172.661 178.924C172.682 178.817 172.767 178.675 172.796 178.518C173.217 176.314 173.88 174.175 174.379 171.958C174.771 170.218 174.857 169.961 175.755 168.392C175.934 168.078 176.426 167.95 176.433 167.216C176.433 167.173 176.447 167.109 176.433 167.08C176.839 166.987 177.231 166.766 177.645 166.674C177.723 166.659 177.83 166.688 177.916 166.674C178.322 166.617 178.408 166.446 178.857 166.674C179.399 166.952 179.285 167.422 179.527 167.822C180.29 169.084 183.264 171.594 184.448 172.863C186.316 174.874 188.084 177.241 190.138 179.045C190.651 179.502 191.7 180.443 192.384 180.415C192.634 180.407 194.545 178.511 195.072 178.382C199.465 174.468 204.685 171.494 209.491 168.043C209.776 167.836 210.874 167.301 210.881 167.08L210.86 167.087ZM166.656 65.4888V65.6242C166.742 65.5815 166.742 65.5315 166.656 65.4888ZM166.321 66.159C165.23 66.6154 164.353 68.0344 164.182 69.1967C163.904 71.0721 164.225 75.6928 165.159 77.2188C165.423 77.6466 165.851 77.9889 166.129 78.4096C166.264 78.4381 166.578 78.0674 166.642 77.9747C168.318 75.6857 167.747 70.8368 167.07 68.1842C166.885 67.4497 166.15 66.9862 166.328 66.1662L166.321 66.159ZM203.037 79.9071C202.987 79.8144 201.248 79.5006 200.977 79.4792C199.144 79.3224 197.597 79.8286 195.864 79.8928C195.058 79.9213 194.409 79.6932 193.682 79.6718C192.206 79.629 190.117 80.2565 188.633 80.5988C187.571 80.8483 187.507 80.6273 186.58 80.6915C186.052 80.7271 185.56 81.0266 185.082 81.0836C184.519 81.1549 183.899 81.0266 183.349 81.0979C182.558 81.1977 180.091 81.4616 179.549 81.811C179.071 82.1247 179.157 82.8877 179 83.3512C178.401 85.1624 176.875 85.3549 175.199 85.1339C175.213 86.2748 175.185 87.4229 175.199 88.5709C175.213 90.6887 175.256 92.6354 175.976 94.6606C176.133 95.1027 175.841 95.3522 176.454 95.6588C177.574 96.2222 178.643 95.4235 179.649 96.5003C180.811 97.741 178.736 99.1173 180.811 99.21C181.488 99.2385 182.223 98.9247 182.693 98.8819C182.836 98.8677 183.093 99.1315 183.471 99.1386C184.348 99.16 185.695 98.3471 186.58 98.8463C186.694 98.9105 187.385 99.7804 187.407 99.8803C187.557 100.586 187.364 101.884 187.614 102.519C187.728 102.804 188.113 103.866 188.148 103.938C188.191 104.016 189.261 104.793 189.418 105.086C189.496 105.235 189.418 105.456 189.482 105.556C189.689 105.884 191.899 106.555 192.384 106.626C193.382 106.761 194.737 106.405 195.557 105.834C196.377 105.264 197.675 103.888 198.146 103.046C198.295 102.775 198.795 102.062 198.845 101.848C199.073 100.921 197.49 99.5095 198.973 99.0246C200.456 98.5397 202.11 99.0531 203.615 98.8249C204.599 98.6751 205.112 98.3471 205.063 97.3132C204.977 95.4021 204.135 94.14 203.979 92.721C203.943 92.4358 204.242 92.2789 204.228 92.0792C204.2 91.7298 203.672 90.76 203.708 90.1824C203.708 90.104 203.986 90.104 203.993 90.0398C203.993 89.8473 203.772 89.6762 203.75 89.4908C203.651 88.6494 203.964 87.4657 203.85 86.5387C203.779 85.9825 203.43 85.2765 203.323 84.6419C203.08 83.2086 203.444 81.7753 203.045 80.4775C202.995 80.3064 203.094 80.0283 203.016 79.9L203.037 79.9071ZM163.626 89.5764C162.87 89.8972 162.264 90.1112 161.415 89.9757C161.173 89.94 160.567 89.4836 160.282 89.7261C160.16 89.8259 160.096 90.867 160.16 91.0952C160.282 91.4945 161.48 92.1933 161.879 92.3359C162.214 92.4572 162.649 92.3003 162.891 92.6639C163.105 92.6711 163.562 89.9471 163.633 89.5692L163.626 89.5764ZM202.959 108.779C202.189 107.802 203.437 105.521 202.645 104.857C202.388 104.644 201.59 104.594 201.269 104.686C199.622 105.143 199.451 106.505 198.31 107.303C197.989 107.524 195.842 108.765 195.579 108.815C195.03 108.915 194.302 108.772 193.71 108.829C193.454 108.858 193.233 109.057 192.897 109.093C191.336 109.271 189.068 108.858 187.849 107.938C187.364 107.574 187.214 107.225 186.965 106.811C186.779 106.498 186.33 106.334 186.266 106.227C186.166 106.063 186.28 105.735 186.023 105.592L185.432 106.74C185.211 108.073 185.717 108.009 186.023 108.822C186.216 109.343 186.273 110.056 186.637 110.591C187.756 112.224 188.255 113.143 188.919 115.069C189.439 116.566 189.895 117.643 189.175 119.204C189.125 119.311 188.919 119.319 188.911 119.39C188.854 119.846 190.801 121.429 191.208 121.936C191.771 122.642 192.199 123.626 192.712 124.339C194.095 126.257 195.707 127.932 197.133 129.744C197.704 130.464 198.267 131.206 198.951 131.826C199.073 131.419 199.301 130.514 199.28 130.136C199.258 129.815 198.659 129.516 198.887 128.56C198.909 128.46 199.115 128.482 199.144 128.367C199.479 127.169 199.508 125.045 200.035 124.032C200.135 123.839 200.406 123.732 200.47 123.526C200.756 122.527 200.435 122.171 201.504 121.329C201.925 120.994 203.964 119.918 204.143 119.632C204.178 119.568 204.649 118.37 204.663 118.299C204.784 117.572 204.506 116.666 204.549 115.903C204.563 115.817 205.547 115.119 205.626 114.805C205.711 114.448 205.255 114.356 205.098 114.092C204.742 113.493 204.72 112.994 204.535 112.423C204.499 112.302 204.271 112.323 204.271 112.245C204.242 111.824 205.077 109.963 204.799 109.642C204.449 109.628 203.137 108.993 202.966 108.779H202.959ZM58.1269 165.604C58.1269 165.604 58.2124 165.169 57.7988 165.347C57.699 165.39 56.9574 166.31 56.7863 166.488C55.9591 167.365 55.3031 168.164 54.6756 169.155L53.8199 170.453C53.5989 170.553 53.5917 170.646 53.549 170.859C53.5418 170.902 53.549 170.952 53.549 170.995C53.2352 170.995 53.1853 171.138 53.0498 171.373C52.3296 172.599 51.916 173.705 51.5238 175.067C51.4953 175.174 51.3099 175.159 51.2743 175.273C51.096 175.83 51.2956 179.217 51.424 179.908C51.7235 181.598 53.0142 183.909 53.9554 185.463C57.8274 191.859 63.1041 196.138 67.8175 201.743C70.299 204.695 72.5737 207.412 75.3618 210.071C77.7649 212.367 80.2749 214.614 82.5567 217.002C83.9829 218.493 85.68 219.733 87.0562 221.252C87.6766 221.937 88.5679 223.342 89.2739 223.876C89.6447 224.154 91.3133 225.11 91.4701 225.388C91.5486 225.524 91.4487 225.773 91.52 225.873C91.5486 225.909 91.9622 225.987 92.1404 226.123C92.9605 226.743 92.554 227.306 93.7021 226.55C94.2582 226.187 95.0783 225.524 95.6202 225.039C95.9839 224.718 96.8824 223.627 97.0963 223.491C97.5384 223.213 98.5153 223.213 99.0358 223.206C99.1143 222.6 98.5438 222.322 98.3869 222.051C97.8165 221.088 97.1604 219.555 96.483 218.735C96.2905 218.507 95.7343 218.257 95.6059 217.958C95.5275 217.78 95.6773 217.58 95.5774 217.33C95.228 216.46 93.7876 215.141 93.1886 214.321C89.5377 209.266 85.8939 204.181 82.1859 199.076C80.0467 196.124 77.7934 193.179 75.8253 190.105C75.4189 189.478 75.1122 188.023 74.7771 187.253C73.2796 183.816 71.6111 181.449 71.062 177.512C70.9408 176.635 70.9764 175.623 71.1832 174.767C71.0763 174.66 69.9282 175.031 69.6359 175.038C68.8372 175.045 66.313 174.496 65.6783 174.018C65.3432 173.762 65.2576 173.362 64.9938 173.091C63.9812 172.029 62.9187 171.009 62.2413 169.654C61.5211 169.162 60.7153 167.829 60.0878 167.365C59.9523 167.266 59.8953 167.266 59.7456 167.237C59.7028 167.23 59.6529 167.237 59.6101 167.237C59.5459 166.716 58.9612 166.503 58.6617 166.196C58.5476 166.075 58.5119 165.839 58.3978 165.718C58.2838 165.597 58.1483 165.64 58.1269 165.625V165.604ZM81.4087 168.563C80.6172 169.419 79.6474 170.253 78.8487 170.988C78.3353 171.458 78.5136 171.33 78.1785 171.794C78.0929 171.915 77.8433 172.25 77.772 172.328C77.7078 172.407 77.2657 172.828 77.1017 172.999C77.0589 173.041 77.009 173.106 76.9662 173.134C76.8807 173.198 75.9251 173.812 75.861 173.84C75.4973 174.011 74.4206 174.004 74.335 174.468C74.2851 174.739 74.442 175.017 74.4063 175.33C74.2209 177.02 74.3706 176.55 74.6487 178.076C74.77 178.746 74.6844 179.595 74.8769 180.265C75.0338 180.8 75.9822 182.347 76.3173 182.996C79.0841 188.387 81.2518 192.259 85.0881 196.958C85.2022 197.1 86.0722 198.626 86.3859 198.284C86.2861 197.457 85.9652 196.751 85.8868 195.895C85.7584 194.598 85.737 193.271 85.5445 191.931C85.2022 189.535 85.5088 188.308 85.5873 185.969C85.7442 181.163 84.7031 175.223 84.3465 170.367C84.2325 168.813 84.4321 166.909 82.2287 167.679C81.6796 167.872 81.6226 168.321 81.4158 168.549L81.4087 168.563ZM196.506 184.401C197.169 184.793 198.645 185.563 199.372 185.641C199.964 185.706 200.378 185.52 200.827 185.534C201.126 185.542 201.469 185.748 201.797 185.777C203.893 185.962 204.271 185.456 204.414 183.445C204.528 181.812 204.235 179.509 204.136 177.79C204.093 176.992 204.057 176.407 203.18 176.835C202.167 177.327 200.442 178.632 199.558 179.402C198.673 180.172 198.559 180.479 197.597 181.078C197.333 181.242 197.055 181.898 196.662 182.169C196.178 182.497 195.971 182.532 195.436 182.96C195.308 183.067 194.994 183.096 194.98 183.117C194.659 183.588 195.985 183.916 196.242 184.073C196.384 184.158 196.434 184.372 196.499 184.415L196.506 184.401ZM101.432 226.322C100.897 226.016 101.168 226.472 101.139 226.6C100.911 227.684 99.1285 228.575 98.2443 229.068C98.1445 229.125 98.116 229.317 97.9876 229.381C97.7737 229.488 97.2531 229.467 97.1676 229.545C97.1105 229.609 97.1961 229.838 97.0677 229.93C96.8182 230.109 95.8698 230.351 95.5347 230.323C96.1764 231.25 97.0178 231.977 97.2888 233.146C97.517 233.146 97.5811 233.225 97.5455 232.954C97.4956 232.547 97.0749 231.192 97.1818 231.014C97.9662 230.536 98.558 229.83 99.2426 229.239C99.4351 229.075 100.034 228.811 100.241 228.625C100.433 228.454 101.731 227 101.731 226.886C101.731 226.807 101.467 226.322 101.439 226.308L101.432 226.322ZM180.248 229.253V229.388C180.333 229.346 180.333 229.296 180.248 229.253ZM108.456 238.537C108.456 236.89 106.687 233.981 105.76 232.447C105.468 231.963 105.161 231.299 104.797 230.822C103.649 229.296 103.357 230.872 102.665 231.742C102.494 231.955 102.266 232.005 102.116 232.176C102.031 232.269 102.052 232.547 101.974 232.597C101.86 232.669 101.574 232.554 101.482 232.633C101.425 232.683 101.46 232.954 101.332 233.082C101.175 233.239 100.89 233.203 100.761 233.289C100.612 233.382 100.597 233.574 100.426 233.66C99.1856 234.259 98.665 233.567 97.5598 233.289C97.303 233.866 97.9448 234.088 97.9662 234.187C98.0304 234.48 97.9662 234.637 98.0946 235.036C98.8433 237.346 97.7737 239.564 96.6043 241.518C94.9713 244.256 94.0015 247.393 92.554 250.26C92.4185 250.531 91.4059 251.872 91.6341 252.121C91.9122 252.185 91.9407 251.978 92.0691 251.814C92.7109 251.009 93.0959 249.497 93.7092 249.083C93.973 248.905 96.1408 247.693 96.2905 247.686C96.5829 247.664 96.9822 247.921 97.246 248.064C97.4671 248.178 98.1231 248.763 98.1873 248.763C98.6864 248.812 99.7204 248.413 100.583 248.492C101.368 248.563 101.988 249.019 102.637 249.133C103.45 249.276 104.512 249.055 105.396 249.198C105.817 249.269 106.487 249.575 106.78 249.575C107.072 249.575 108.12 249.226 108.734 249.162C108.905 249.14 109.104 249.034 109.268 249.026C109.311 249.026 109.361 249.026 109.404 249.026C109.418 249.026 109.518 249.219 109.675 249.162C109.682 249.076 109.668 248.984 109.675 248.891C109.689 248.763 109.675 248.62 109.675 248.484L109.768 248.32L109.675 248.213C109.689 248.085 109.653 247.935 109.675 247.807C109.689 247.729 109.867 247.686 109.789 247.379C109.746 247.222 109.382 246.709 109.276 246.866C109.347 246.787 109.39 244.919 109.005 244.848C109.005 244.712 109.005 244.577 109.005 244.441H109.411L109.005 243.907C109.026 243.792 108.976 243.543 109.005 243.5C109.019 243.486 109.197 243.536 109.247 243.479C109.375 243.336 108.805 240.541 108.734 240.141C108.712 240.02 108.734 239.871 108.734 239.735C108.734 239.6 109.097 238.887 108.463 238.929C108.463 238.794 108.463 238.658 108.463 238.523L108.456 238.537Z" fill="#0067FF"/>
<path d="M124.87 58.8927C124.87 58.8927 124.885 58.5576 124.97 58.3936C125.655 57.1528 127.83 55.035 129.149 54.4931C129.776 54.2364 130.546 54.0153 131.231 54.215C131.395 54.2649 132.572 55.085 132.743 55.2632C133.106 55.6412 134.083 57.1029 134.276 57.5237C134.625 58.2795 134.39 59.5488 133.884 60.1834C133.285 60.9393 129.448 62.451 128.386 62.7647C127.787 62.7148 126.154 63.4207 125.762 63.3423C125.705 63.328 124.956 62.5793 124.927 62.5294C124.813 62.2799 124.87 62.1016 124.856 61.8591C124.792 60.8894 124.906 59.8697 124.856 58.8999L124.87 58.8927ZM127.623 59.3563C126.967 60.1549 126.81 61.1461 128.136 60.6113C128.642 60.4045 129.862 59.7698 130.375 59.4917C131.267 59.0068 132.094 58.6646 131.495 57.5949C130.817 56.3899 130.09 57.0245 129.334 57.6449C128.949 57.9586 127.929 58.9926 127.63 59.3634L127.623 59.3563Z" fill="#0067FF"/>
<path d="M159.554 138.999C159.604 139.049 160.196 140.162 160.232 140.268C160.381 140.753 160.502 142.45 160.395 142.9C160.374 143 160.16 142.978 160.132 143.085C159.896 144.005 159.654 144.697 158.955 145.417C158.627 145.752 157.372 146.023 157.593 146.793C157.643 146.971 158.955 148.112 159.198 148.291C160.417 149.189 162.135 149.916 163.305 150.851C163.897 151.321 165.601 153.46 166.043 154.123C166.228 154.394 167.248 156.213 167.262 156.391C167.312 157.304 165.872 158.081 164.981 157.717C164.332 157.454 163.312 156.006 162.813 155.478C160.467 153.018 158.213 151.4 155.311 149.767C155.197 149.702 155.14 149.574 155.147 149.453C154.919 149.41 154.998 149.788 155.019 149.916C155.204 150.779 155.711 152.22 155.461 153.061C155.211 153.902 153.899 155.05 153.051 154.437C152.552 154.081 152.324 151.777 152.131 151.057C151.475 148.597 150.569 145.923 149.999 143.62C149.799 142.814 149.307 142.508 150.042 141.716C150.142 141.602 151.218 140.654 151.29 140.604C151.425 140.518 151.675 140.582 151.867 140.447C152.081 140.297 152.117 139.883 152.416 139.648C152.744 139.384 155.211 138.386 155.646 138.336C155.91 138.3 156.595 138.45 156.823 138.415C156.923 138.4 156.901 138.151 156.98 138.144C157.058 138.144 158.342 138.429 158.52 138.486C158.641 138.521 159.518 138.956 159.554 138.999ZM157.037 141.787C156.295 141.588 156.217 141.188 155.311 141.474C154.62 141.688 154.548 142.094 154.213 142.536C154.12 142.657 153.914 142.679 153.85 142.771C153.543 143.192 153.664 145.759 154.013 145.823C154.491 145.681 154.805 144.889 155.062 144.654C155.347 144.39 156.338 144.048 156.645 143.706C157.101 143.199 156.78 142.408 157.044 141.787H157.037Z" fill="#0067FF"/>
<path d="M122.988 145.958C122.845 145.195 122.382 144.218 122.318 143.591C122.289 143.327 122.424 142.856 122.553 142.628C123.023 141.794 126.118 140.482 127.088 140.582C127.43 140.617 129.712 141.295 130.111 141.466C132.728 142.564 134.483 145.43 134.59 148.183C134.618 148.917 134.625 149.745 134.575 150.472C134.404 152.889 131.423 156.476 128.913 156.733C128.828 156.74 128.735 156.733 128.643 156.733C128.429 156.733 128.15 156.569 127.837 156.597C127.651 156.619 127.623 156.711 127.566 156.733C127.131 156.697 126.639 156.783 126.218 156.733C125.919 156.697 125.505 156.426 125.141 156.462C125.056 156.305 124.799 156.069 124.735 155.927C124.378 155.093 123.687 152.668 123.523 151.755C123.409 151.085 123.508 150.073 123.387 149.559C123.366 149.452 123.13 149.474 123.138 149.409C123.145 149.21 123.28 149.003 123.259 148.661C123.259 148.575 123.259 148.482 123.259 148.39C123.245 148.219 123.138 148.026 123.123 147.855C123.123 147.812 123.123 147.762 123.123 147.719C123.102 147.498 123.145 147.27 123.123 147.049C123.081 146.636 123.066 146.4 122.988 145.972V145.958ZM130.304 145.644C129.505 144.931 128.564 144.097 127.445 143.862C126.453 143.655 126.51 144.14 125.683 144.204C125.612 144.268 125.94 145.873 125.94 146.172C125.911 148.661 125.876 148.974 126.453 151.442C126.66 152.319 126.682 153.203 127.038 154.023C128.143 153.752 129.833 153.773 130.668 152.882C132.308 151.135 132.436 147.555 130.725 145.816C130.603 145.694 130.39 145.716 130.304 145.637V145.644Z" fill="#0067FF"/>
<path d="M144.437 141.331C144.523 141.423 144.715 141.452 144.765 141.601C145.286 143.185 143.26 144.261 141.906 144.069C141.742 144.047 141.592 143.869 141.464 143.855C140.273 143.741 139.303 143.762 139.324 145.238C139.339 146.351 140.016 146.322 140.957 146.222C142.248 146.087 144.765 144.917 145.906 145.174C146.205 145.245 146.619 145.595 146.648 145.908C146.648 145.987 146.255 147.278 146.191 147.42C146.041 147.741 144.972 148.561 144.701 148.625C144.523 148.668 144.302 148.518 144.088 148.547C143.218 148.675 142.44 148.682 141.642 148.796C141.036 148.882 139.774 149.324 139.545 149.923C139.374 150.365 139.282 151.877 139.709 152.119C139.859 152.205 142.719 152.191 143.111 152.148C144.073 152.048 146.049 151.228 146.847 151.642C147.339 151.898 147.147 152.526 147.011 152.954C146.541 154.423 145.143 154.651 143.781 154.836C142.326 155.029 138.64 155.35 137.356 155.079C136.864 154.972 136.108 154.494 136.051 153.966C136.044 153.881 136.051 153.032 136.058 152.918C136.151 151.855 136.344 151.855 136.222 150.729C136.101 149.602 136.337 148.148 136.451 147.106C136.536 146.301 136.058 144.668 136.18 143.605C136.23 143.177 136.722 141.965 137.035 141.701C137.221 141.544 138.932 140.903 139.224 140.86C140.558 140.675 142.269 140.881 143.638 140.753C144.052 140.831 144.202 141.067 144.451 141.331H144.437Z" fill="#0067FF"/>
<path d="M111.415 143.264C112.27 142.814 112.891 142.037 113.803 141.681C114.723 142.051 117.797 141.517 118.103 142.543C118.281 143.15 117.839 144.426 117.24 144.711C116.342 145.146 114.409 144.583 114.131 144.761C114.046 144.818 113.518 146.537 113.639 146.758C113.853 147.178 115.971 147.35 116.477 147.3C117.326 147.214 118.182 146.587 118.93 146.508C119.258 146.472 119.487 146.629 119.772 146.622C119.815 146.751 119.922 146.758 120.043 146.758C120.157 147.107 120.278 146.986 120.314 147.293C120.328 147.435 120.342 147.849 120.314 147.963C120.299 148.027 120.143 148.212 120.043 148.633C120.014 148.754 119.914 148.876 119.907 149.04C119.479 149.082 119.522 149.382 119.372 149.574C119.344 149.61 119.016 149.403 119.102 149.981C118.938 149.959 118.731 149.981 118.567 149.981C117.889 150.002 117.461 150.195 116.884 150.252C115.907 150.337 114.894 150.159 113.932 150.509C113.568 152.591 113.946 152.576 115.8 152.683C116.763 152.74 117.782 152.662 118.745 152.626C119.258 152.605 120.984 152.327 121.298 152.405C121.412 152.434 121.633 152.89 121.654 153.018C121.833 154.109 121.383 154.509 120.628 155.143C120.563 155.201 120.599 155.357 120.585 155.365C120.535 155.4 120.171 155.471 120.05 155.5C119.515 155.635 118.987 155.685 118.438 155.635C118.239 155.614 118.003 155.529 117.768 155.5C116.014 155.279 113.154 155.963 111.543 155.065C110.887 154.694 110.816 153.995 110.808 153.297C110.808 153.168 110.994 152.997 111.001 152.862C111.065 150.423 110.352 146.472 110.93 144.29C111.022 143.948 111.407 144.055 111.443 143.257L111.415 143.264Z" fill="#0067FF"/>
<path d="M98.8076 157.218C98.7577 157.182 98.2728 156.555 98.1444 156.398C98.0874 156.327 98.123 156.148 98.0589 156.084C97.9804 156.013 97.795 156.084 97.6809 155.963C97.2602 155.507 97.5241 154.943 97.5312 154.501C97.5312 154.252 97.36 153.995 97.4171 153.717C97.4385 153.61 97.6667 153.688 97.7023 153.432C97.8378 152.405 96.9179 147.057 96.5828 145.923C96.3475 145.146 95.827 144.582 95.8056 143.591C95.7913 142.978 96.8323 141.68 97.5026 142.179C97.9376 142.5 98.6721 144.547 98.8361 145.153C99.3139 146.935 99.6989 149.182 100.084 151.036C100.277 151.948 100.241 154.038 100.982 154.58C101.403 154.886 101.874 154.58 102.33 154.565C104.049 154.53 108.513 154.38 109.796 155.457C110.73 156.241 109.254 157.41 108.377 157.482C107.728 157.539 105.674 157.731 105.161 157.674C104.305 157.582 103.728 157.147 102.601 157.254C102.188 157.296 101.938 157.496 101.66 157.525C100.99 157.589 99.3353 157.617 98.8147 157.218H98.8076Z" fill="#0067FF"/>
</svg>
