<svg width="292" height="307" viewBox="0 0 292 307" fill="none" xmlns="http://www.w3.org/2000/svg">
<path d="M0 0H292V307H0V0Z" fill="white"/>
<path d="M254.078 95.0148C255.108 95.7076 256.349 97.1191 257.438 97.9638C258.038 98.4269 259.302 99.0493 259.794 99.4902C260.061 99.7273 260.183 100.676 260.357 101.068C261.673 104.084 264.081 104.929 266.196 107.196C267.863 108.986 269.66 112.02 270.023 114.45C270.386 116.881 269.894 118.177 269.445 120.422C269.405 120.634 269.475 120.93 269.445 121.16C268.942 121.208 269.249 121.26 269.149 121.456C268.219 123.297 265.292 125.876 263.344 126.658C262.699 126.917 261.68 127.024 261.032 127.302C260.039 127.728 259.85 128.24 258.435 128.251C256.542 128.269 255.008 128.054 253.107 128.832L250.236 130.022C249.869 129.777 248.328 130.455 247.906 129.622C247.509 128.844 248.139 128.399 246.69 128.844C247.002 129.614 247.357 130.025 246.987 130.907C247.709 131.066 248.509 130.281 249.121 130.322C249.602 130.351 250.036 130.874 250.532 131.055C250.525 131.152 250.532 131.252 250.532 131.352C250.629 131.363 250.732 131.344 250.829 131.352C251.018 131.919 251.162 131.63 251.566 131.941C253.341 133.315 254.378 134.612 256.982 134.738C257.66 134.771 258.235 134.475 258.994 134.634C259.335 134.705 261.254 135.772 261.595 136.02C262.936 136.99 265.47 139.854 266.341 141.247C266.626 141.703 266.956 142.67 267.374 142.725C267.386 142.774 267.363 142.826 267.374 142.874C267.823 144.711 268.89 147.156 269.138 148.864C269.216 149.398 269.038 150.139 269.149 150.602C269.701 152.892 269.745 155.414 269.738 157.941C269.738 158.138 269.738 158.334 269.738 158.53C269.738 158.912 269.745 159.334 269.738 159.712C269.734 159.945 269.594 160.453 269.59 160.894C269.59 161.02 269.579 161.02 269.59 161.19C269.597 161.335 269.568 161.505 269.59 161.635C269.405 161.805 269.449 162.005 269.442 162.224C269.423 162.791 269.256 164.136 269.294 164.514C269.323 164.828 269.712 164.914 269.753 165.399C269.842 166.447 269.408 167.385 269.579 168.819C269.66 169.497 269.705 169.259 269.738 169.411C269.927 170.278 269.812 171.593 269.275 172.32C269.005 172.686 268.319 172.979 268.286 173.031C268.16 173.242 268.578 175.091 268.638 175.509C268.842 176.869 269.201 178.062 269.442 179.359C269.531 179.829 269.664 180.292 269.738 180.689C269.805 181.044 269.808 181.441 269.886 181.871C270.09 183.015 269.99 183.893 270.409 185.116C271.083 187.08 272.176 189.047 272.98 190.966C272.939 191.996 273.158 193.437 272.728 194.389C272.165 195.641 269.201 195.83 268.123 196.442C268.982 198.49 268.69 200.747 268.712 202.929C268.749 206.786 268.938 210.009 268.593 213.888C268.453 215.462 268.56 216.488 268.571 217.989C268.59 220.067 266.278 217.496 265.97 216.592C265.378 214.862 266.293 211.524 266.352 209.575C266.411 207.627 265.93 205.567 265.896 203.666C265.859 201.651 265.963 199.191 266.044 197.153C266.056 196.879 266.282 196.193 266.189 196.064C266.141 195.997 264.637 195.693 264.574 195.756C264.574 196.657 264.74 197.679 263.97 198.331C263.658 198.594 263.232 198.609 262.951 198.794C262.74 198.935 262.706 199.183 262.54 199.306C261.473 200.091 261.362 199.754 260.228 199.909C259.094 200.065 256.567 201.747 255.934 202.707C254.822 204.389 254.956 205.681 254.656 207.486C254.274 209.794 253.804 212.091 253.452 214.406C253.07 215.381 251.181 215.54 250.844 214.284C250.377 212.539 251.307 207.901 251.685 205.989C252.359 202.584 252.696 203.114 254.6 200.632C254.715 200.484 254.885 200.443 254.819 200.187C254.6 200.165 254.396 200.291 254.182 200.28C248.973 200.009 243.608 200.517 238.418 200.776C238.369 200.776 238.318 200.776 238.269 200.776C237.795 200.524 236.791 200.532 236.35 200.776C236.058 200.78 235.754 200.754 235.465 200.776C235.209 200.795 234.968 200.85 234.728 200.925C234.116 200.787 233.764 200.75 233.101 200.776C232.812 200.787 232.542 200.925 232.508 200.925C232.312 200.928 232.116 200.925 231.916 200.925C231.471 200.932 230.971 200.925 230.586 200.925C230.341 200.925 230.093 200.925 229.848 200.925C229.833 200.925 229.815 200.78 229.552 200.776C221.901 200.724 214.188 201.217 206.575 201.354C192.252 201.61 178.036 202.28 163.71 202.97C149.698 202.781 135.72 204.955 121.76 204.611C114.917 204.892 108.123 204.533 101.306 204.766C100.569 204.655 99.9721 204.544 99.2385 204.766C99.1385 204.766 99.0422 204.766 98.9421 204.766C96.5155 204.766 94.1778 204.989 91.7807 205.067C86.8496 205.23 82.2519 204.959 77.369 205.504C76.4761 205.604 74.846 205.404 73.9383 205.315C73.2122 205.244 72.4971 204.992 71.7562 205.063L73.9716 206.76C76.2168 208.708 78.0544 212.48 77.9654 215.484C77.9395 216.355 76.8948 221.138 76.0982 221.279C76.0464 221.29 75.072 221.171 75.0275 221.142C74.5941 220.882 75.0016 218.385 75.0127 217.844C75.0535 215.57 74.7978 213.969 73.8531 211.902C72.9084 209.835 68.37 205.574 66.0359 205.092C64.7281 204.822 63.2129 205.744 62.4163 204.133C62.0421 203.381 62.3422 203.088 62.2978 202.492C62.2163 201.484 61.5309 200.536 61.5605 199.231C61.5901 197.753 62.3867 195.975 62.4422 194.623C62.4682 193.982 62.0347 193.622 62.6534 193C62.9609 192.689 63.8316 192.526 64.0576 192.822C64.1243 192.911 64.0316 193.181 64.1242 193.344C64.1798 193.448 64.6429 193.67 64.6651 193.789C65.1949 196.516 63.1202 199.357 64.8133 202.036C66.1693 202.006 67.5253 201.929 68.8886 201.951C69.3036 201.958 69.7445 202.095 70.215 202.117C78.0618 202.473 85.9753 201.992 93.8443 201.806C106.907 201.502 119.952 201.866 133.004 201.217C154.355 200.158 175.721 199.224 197.15 198.435C212.613 198.25 228.218 197.624 243.745 197.231C243.941 197.227 244.138 197.235 244.338 197.231C245.123 197.209 245.916 197.246 246.702 197.231C248.069 197.205 249.58 197.335 250.918 197.238C251.622 197.186 252.451 196.831 252.996 196.794C254.515 196.69 256.119 196.727 257.672 196.46C258.153 196.379 261.473 195.597 261.673 195.471C262.454 194.982 261.069 192.174 261.328 191.322C260.891 191.129 260.335 191.633 260.076 191.625C260.002 191.625 260.013 191.333 259.905 191.314C259.739 191.285 258.279 191.21 258.005 191.207C250.869 191.029 243.649 191.218 236.51 191.325C236.41 191.325 236.313 191.325 236.213 191.325C236.117 191.092 235.572 191.092 235.476 191.325C235.376 191.325 235.28 191.325 235.18 191.325C234.954 191.081 234.231 191.077 233.998 191.325C232.923 191.336 231.816 191.292 230.749 191.325C230.493 191.333 230.263 191.47 230.156 191.474C229.959 191.481 229.763 191.466 229.563 191.474C228.844 191.499 227.977 191.333 227.348 191.622C227.051 191.622 226.755 191.622 226.462 191.622C226.369 191.622 226.247 191.622 226.166 191.622C225.969 191.622 225.773 191.622 225.573 191.622C225.473 191.622 225.377 191.622 225.277 191.622C214.132 191.581 203.096 192.111 191.959 192.329C183.857 192.489 175.847 192.155 167.722 192.218C155.641 192.311 143.485 193.393 131.382 194.015C127.832 194.197 125.613 193.804 122.22 193.674C114.495 193.381 106.589 193.759 98.8829 193.989C93.7888 194.141 88.7094 194.445 83.6375 194.849C79.8586 195.152 76.0538 195.282 72.286 195.467C70.7707 195.541 66.9251 195.171 65.6506 194.404C64.9986 194.011 64.2576 192.863 65.2098 192.377C65.8359 192.055 65.8989 192.403 66.4027 192.474C66.9399 192.548 69.4333 192.926 69.7 192.737C69.9816 192.54 69.6704 191.155 69.6926 190.662C69.7741 189.021 70.5076 188.198 72.1674 187.965C73.5567 187.772 73.9716 188.48 75.1831 188.858C75.3758 188.917 76.7688 189.269 76.854 189.262C77.2578 189.225 77.7432 187.939 78.0729 187.62C79.1362 186.594 81.4924 186.857 82.7743 187.324C83.5041 187.587 84.2192 188.306 85.0602 188.584C86.3532 189.014 88.6687 189.306 89.995 189.095C90.6248 188.995 91.5918 188.265 92.2513 188.102C93.5183 187.791 96.6341 187.591 97.7196 188.317C98.0752 188.554 98.0382 189.095 98.4939 189.251C98.5013 188.813 98.2271 188.28 97.9122 187.987C97.4565 187.561 95.3262 186.624 95.1151 186.268C95.0965 186.235 95.1002 185.538 95.1077 185.501C95.1188 185.427 95.693 185.172 95.5411 184.82L91.4028 183.856C90.4099 183.304 89.1799 183.186 88.1982 182.63C87.346 182.148 83.1077 178.54 82.4001 177.762C80.8737 176.087 80.3106 174.242 79.1176 172.509C78.7212 171.931 78.0655 171.364 77.6283 170.745C74.6718 166.536 73.3826 161.709 71.0708 157.211C70.9633 157.004 70.6151 156.255 70.3594 156.315C70.2594 156.337 68.9664 157.315 68.6997 157.467C67.5623 158.119 66.6657 158.519 65.6877 159.479C64.6059 160.546 65.6692 161.283 66.0952 162.183C67.1474 164.402 67.7068 167.322 68.6182 169.556C69.2295 171.056 70.3113 173.69 71.1782 174.972C72.8973 177.514 76.0982 179.229 78.4026 181.193C79.3177 181.974 80.0587 183.968 80.3625 185.142C80.8774 187.12 78.662 186.209 77.9432 184.901C77.7876 184.62 77.7802 184.294 77.6394 184.023C76.9133 182.626 74.0494 180.763 72.7305 179.77C70.2261 177.881 69.0405 175.839 67.8291 173.001C67.6179 172.505 67.7179 171.69 67.0214 171.827L62.872 180.863C62.1459 182.063 60.4935 184.364 60.1082 185.672C59.5303 187.639 59.7007 191.266 59.6822 193.341C59.6377 198.909 60.2823 206.993 58.5188 212.15C58.2002 213.084 58.241 212.943 57.5556 213.48C57.1518 213.514 56.659 213.513 56.3738 213.184C56.3071 213.11 56.0737 212.509 56.07 212.38C56.044 211.194 56.6627 209.375 56.8146 208.086C56.9369 207.041 56.9776 205.963 56.9628 204.911C56.0033 206.452 53.3469 206.059 51.865 205.504C51.213 205.259 50.7906 204.844 50.2793 204.577C50.0163 204.444 49.6717 204.522 49.4346 204.389C48.5751 203.899 49.2457 202.34 49.2864 201.591C49.6013 196.038 49.0419 190.444 49.8903 184.912C50.1756 183.052 50.8647 182.208 52.769 181.882L58.6633 182.16C59.0709 182.123 59.1079 181.611 59.3228 181.385C62.2052 178.388 63.2647 173.305 65.3246 169.767C65.9396 168.715 66.4472 169.067 66.0693 167.659C65.6654 166.155 64.7244 163.695 63.939 162.402C63.8649 162.28 63.6722 161.335 63.4648 161.872C63.424 161.979 63.4833 162.183 63.3796 162.354C62.6794 163.543 60.6343 165.606 59.5414 166.496C53.9471 171.045 47.8712 174.024 41.4878 177.251C41.3692 177.31 40.4875 177.862 40.4467 177.91C40.3467 178.032 40.1355 179.307 40.117 179.574C39.9651 181.596 39.9614 183.682 39.8206 185.701C39.8206 185.75 39.8206 185.801 39.8206 185.85C39.3835 192.559 36.1677 201.847 33.804 208.271C32.3925 212.113 29.9547 215.525 28.5839 219.3C28.4024 219.797 28.5098 220.493 27.9652 220.749C27.1538 221.131 26.524 220.519 26.3832 219.741C26.324 219.408 26.4685 217.759 26.5574 217.422C26.6759 216.97 27.9504 214.873 28.2616 214.251C31.959 206.797 35.2155 198.038 36.8271 189.873C37.0791 188.587 37.1235 187.291 37.3087 185.998C36.5307 186.035 36.6975 186.639 35.7638 186.591C33.8707 186.491 31.1847 186.131 29.3249 185.775C28.8618 185.687 26.8241 184.709 26.5462 185.135C26.4684 185.253 26.5166 185.59 26.4092 185.805C23.9381 190.766 23.4046 195.967 22.9378 201.391C22.5858 205.493 22.182 209.609 21.6263 213.673C21.504 214.558 21.1261 217.222 19.7294 216.199C19.2922 215.877 19.1255 214.821 19.1255 214.288C19.1255 212.539 19.6108 210.861 19.9517 209.194C20.3073 207.434 20.1628 205.578 20.3147 203.796C20.8149 197.905 21.6411 191.481 23.9788 186.042C24.2122 185.501 24.4716 184.834 24.8902 184.442C24.7346 184.275 24.3419 184.327 24.1529 184.219C23.7158 183.456 23.8121 182.686 24.0047 181.856C24.1826 181.085 25.5571 177.836 25.9831 177.188C26.5092 176.395 28.2431 175.55 28.2653 177.017C27.3428 178.881 26.4203 180.744 25.8423 182.745C25.9535 182.845 26.0757 182.923 26.2165 182.967C26.8945 183.178 28.3653 183.471 29.1174 183.612C31.0661 183.982 33.1075 184.201 35.0896 184.216C35.3341 184.308 37.368 184.894 37.4532 184.809C37.4125 183.771 37.5348 182.738 37.6014 181.708C37.6385 181.148 37.5644 180.574 37.6014 180.011C37.6274 179.611 38.0497 178.57 37.7533 178.377C37.6533 178.31 35.9157 178.195 35.5008 178.118C34.5264 177.94 33.5447 177.643 32.5777 177.421C32.4369 177.217 32.1553 177.025 31.9849 177.273H31.8367C31.5515 176.984 31.607 176.828 31.0995 176.828C31.0513 176.828 30.9994 176.825 30.9513 176.828C31.018 176.51 30.7846 176.502 30.5845 176.387C28.5432 175.198 27.9874 175.206 26.8575 172.868C26.4166 171.96 25.9053 170.578 25.457 169.541C24.8865 168.226 24.6642 165.614 22.9711 165.214C22.382 165.073 21.8485 166.399 21.8226 166.892C21.7893 167.526 22.608 169.8 22.997 170.375C23.8714 171.664 24.5457 171.16 25.5348 171.827C26.3832 172.401 26.6648 173.142 26.2128 174.046C25.9424 174.591 25.9461 173.916 25.9275 174.906C25.9164 175.476 25.0791 176.265 24.7679 176.776C22.9415 179.781 19.596 184.605 18.8736 187.872C18.5179 189.488 18.5327 191.155 18.2363 192.774C17.6176 193.333 16.9248 191.085 16.8989 190.644C16.8693 190.162 17.01 188.669 17.0804 188.147C17.6806 183.638 21.1002 180.296 22.8229 176.239C22.3339 176.262 21.8337 176.154 21.3521 176.317C21.0372 176.425 18.1067 178.447 17.8659 178.744C16.7025 180.17 16.1802 182.319 15.3651 183.927C14.6834 185.272 13.5868 186.494 12.9977 187.909C12.4939 188.217 12.1012 188.169 12.0271 187.546C11.8233 185.842 12.8162 185.057 13.4719 183.66C14.1277 182.263 14.6019 180.559 15.3095 179.292C15.9171 178.203 17.1731 177.025 18.2363 176.384C18.1511 176.18 17.4806 176.139 17.2583 176.11C16.5543 176.017 15.191 176.061 14.6352 175.776C14.1425 175.524 14.1499 175.072 13.9054 174.806C13.4238 174.279 12.5124 174.542 12.4976 173.509C12.4753 171.786 14.676 171.523 15.8652 171.141C16.5358 170.923 16.9285 170.534 17.6399 170.478C18.855 170.382 19.8924 170.771 21.0372 171.067C20.3888 169.652 19.5775 167.937 19.922 166.333C19.9961 165.988 21.0038 164.202 21.2595 163.976C22.0856 163.235 23.6787 163.35 24.6049 163.884C26.5018 164.969 26.587 167.022 27.365 168.804C27.7948 169.789 28.8469 172.186 29.4582 172.842C29.6027 172.998 30.3696 173.99 30.44 174.039C30.603 174.15 30.9846 174.128 31.2217 174.257C31.5663 174.446 31.8478 174.902 32.3591 175.187C33.9818 176.099 35.5786 176.239 37.331 176.569C37.5718 176.613 38.5499 177.051 38.6203 176.977C38.6425 176.951 38.5721 176.702 38.6573 176.58C38.8648 176.287 40.0059 175.276 40.343 175.08C44.7851 172.538 50.057 170.756 54.2694 167.733C54.7325 167.4 55.229 166.777 55.6069 166.34C58.2114 165.414 59.3376 163.61 60.9233 161.579C61.1344 161.313 61.8013 160.861 61.9569 160.501C62.0644 160.257 61.868 160.305 61.7569 160.264C61.127 160.038 60.1453 159.957 59.6451 159.345C59.5266 159.205 59.5043 158.886 59.3487 158.69C58.404 157.467 57.4222 156.244 56.7887 154.814C56.4442 154.033 56.2552 153.032 55.9811 152.299C55.592 151.273 54.6584 150.595 55.3327 149.439C55.5661 149.035 55.9625 148.946 56.3923 149.079C56.9776 149.261 59.0005 154.573 59.6155 155.574C59.7525 155.796 60.0675 155.955 60.2305 156.181C61.4271 157.852 60.7121 157.871 63.0313 158.245C63.2351 158.278 63.4129 158.486 63.6537 158.493C64.6207 158.519 65.3098 157.448 65.9618 156.967C66.8287 156.326 69.8297 154.444 69.9038 153.384C69.9186 153.188 68.6441 150.165 68.4478 149.761C66.9733 146.745 64.4466 142.792 61.5531 140.973C61.4049 140.88 61.3605 140.692 61.2641 140.632C60.2712 140.065 58.9264 140.443 57.8927 140.769C53.8545 142.055 48.375 148.62 45.4149 151.854C43.3513 154.11 41.3396 156.533 39.8021 159.093C39.2686 159.975 37.9015 161.661 37.142 162.639C35.6897 164.51 34.6005 166.247 33.2149 168.241C32.8593 168.752 30.2844 172.216 30.0473 172.32C29.3286 172.649 29.0174 171.412 29.0507 170.875C29.1322 169.63 30.0881 168.841 30.7031 167.944C30.8179 167.777 30.8364 167.518 30.9365 167.37C31.118 167.103 31.3514 166.899 31.5292 166.633C31.6256 166.485 31.7256 166.34 31.8256 166.188C32.5555 165.073 33.5928 163.628 34.1893 162.494C34.5042 162.498 34.5931 162.309 34.7561 162.102C35.6601 160.957 36.5159 159.431 37.3754 158.219C38.3128 156.893 39.628 155.589 40.2467 154.073C40.6394 153.84 41.3507 153.532 40.3949 153.336C39.3019 153.11 38.6128 153.043 38.0719 151.891C37.331 150.317 37.2643 149.161 37.883 147.575C37.9534 147.397 37.9756 147.308 38.0312 147.131C38.0423 147.09 38.235 147.001 38.1794 146.834L38.1053 146.69L38.0312 146.834C37.9571 146.819 37.82 146.827 37.7348 146.834C37.6385 146.842 37.5348 146.823 37.4384 146.834C37.3162 146.608 36.3085 146.164 36.2566 146.097C36.0084 145.756 35.36 144.004 35.2155 143.518C34.6932 141.759 34.6116 139.725 34.6561 137.894C34.6672 137.461 34.9969 137.209 35.0636 136.853C35.2118 136.046 35.1674 134.645 35.3971 133.93C35.4156 133.871 36.0454 133.304 36.2158 132.982C36.5307 132.393 36.5974 131.689 36.8716 131.126C37.1643 130.522 38.9796 128.899 39.5761 128.366C39.7836 128.18 42.9882 126.143 43.192 126.072C45.3741 125.324 47.5489 124.872 49.4346 123.346L50.4349 122.164C50.6609 122.156 50.6165 122.112 50.7313 122.016C50.8351 121.927 50.8573 121.738 50.8795 121.719C51.35 121.338 51.3982 121.426 51.765 120.834C52.0169 120.426 52.3244 119.807 52.5022 119.355C52.6801 118.903 52.6912 118.755 52.7986 118.322C52.8727 118.018 52.8838 117.685 52.9468 117.436C53.9397 113.483 54.4769 110.149 58.1891 107.83C58.3595 107.722 59.7637 106.989 59.8526 106.97C60.1304 106.915 60.5713 107.085 60.638 107.033C60.7343 106.963 61.19 105.666 61.5197 105.255C62.4645 104.069 64.6466 103.247 66.0878 102.876C68.8331 102.176 73.1084 101.406 75.8833 101.817C78.1248 102.15 80.5662 103.862 82.6483 104.507C84.0969 104.959 85.9086 104.721 86.9348 106.129C87.0312 106.263 88.0685 108.26 88.0907 108.382C88.1315 108.593 88.0981 108.786 88.0129 108.982C87.1904 110.327 86.9904 111.983 86.042 113.228C85.9382 113.361 85.6715 113.406 85.6307 113.476C85.5381 113.632 85.6085 114.069 85.5344 114.339C85.4603 114.61 85.1825 115.21 85.1713 115.321C85.1454 115.595 85.501 115.595 85.6455 115.847C86.631 117.573 86.016 118.329 85.8938 120.019C85.8345 120.874 85.953 122.171 85.8382 122.949C85.6529 124.216 85.238 125.309 85.1528 126.739C85.075 128.003 85.6011 129.692 84.4896 130.577C83.4745 131.385 82.4075 130.425 81.3442 130.314C80.7366 130.251 80.3625 130.574 81.1331 130.829C82.0778 131.137 83.7301 131.1 84.0821 132.174C84.1562 132.404 84.0821 132.619 84.1191 132.797C84.2081 133.263 84.3711 133.689 84.1044 134.156C83.619 134.627 82.7299 136.172 82.2408 136.498C81.9407 136.698 78.4471 137.987 77.9692 138.098C76.2649 138.491 74.3347 138.139 72.5972 138.187C73.0529 138.695 73.7234 139.069 74.205 139.532C75.8129 141.084 77.0096 142.588 76.7318 144.982C76.6021 146.104 75.5092 147.042 74.3681 146.979C74.783 147.423 74.1717 148.105 74.2273 148.372C74.2829 148.638 75.135 148.638 75.4647 148.909C75.8204 149.198 76.1427 149.961 76.4316 150.306C77.4838 151.554 77.6765 151.743 78.4767 153.136C80.0957 155.963 86.1605 156.381 89.028 155.807C89.6653 155.678 90.3358 155.222 91.0583 155.251C90.4359 153.607 90.7137 151.891 90.9434 150.191C91.388 146.912 92.0956 143.37 93.5294 140.369C94.2444 138.876 95.0521 137.442 95.9968 136.035C96.0894 135.894 96.0487 135.649 96.0783 135.605C96.5636 134.897 98.9792 133.986 99.8461 133.978C100.346 133.975 101.51 134.412 101.743 134.393C101.999 134.375 102.751 133.856 103.14 133.726C103.762 133.515 104.585 133.286 105.24 133.245C105.277 133.308 105.326 133.352 105.389 133.393C105.455 133.437 105.689 133.463 105.833 133.541C105.952 133.604 106.2 133.582 106.33 133.704C108.071 136.324 108.875 140.025 110.768 142.496C111.042 142.851 111.613 143.185 111.894 143.504C112.435 144.119 113.932 146.171 114.654 146.371C115.881 146.708 116.095 144.619 116.492 143.981C116.755 143.559 117.129 143.459 117.355 143.177C118.1 142.262 118.196 141.244 118.611 140.191C118.9 139.465 119.537 138.935 119.419 138.12L118.47 139.017C117.94 139.576 117.97 140.643 116.985 140.488C116.499 140.41 116.61 140.002 116.61 139.595C115.899 139.847 114.936 139.943 114.18 139.899C112.835 139.817 111.831 139.373 110.783 138.558C109.164 137.305 108.856 136.038 108.019 134.379C107.3 132.956 105.8 131.833 104.962 130.048C104.848 129.807 104.103 128.077 104.081 127.962C103.996 127.551 104.336 126.817 104.188 126.61C104.147 126.55 103.662 126.484 103.477 126.361C102.547 125.735 102.677 125.005 102.247 124.19C101.402 122.586 100.669 121.582 100.576 119.593C100.539 118.807 101.121 117.766 101.072 117.525C101.039 117.351 99.1126 115.384 98.7643 114.821C96.9119 111.82 96.8637 108.348 98.9977 105.651C99.8128 104.618 101.146 104.295 102.269 103.747C102.814 103.48 103.673 102.813 104.121 102.647C105.066 102.295 106.037 102.484 107.067 101.75C107.504 101.439 107.804 100.946 108.082 100.635C108.204 100.498 109.171 100.253 109.419 100.009C109.571 99.8607 109.568 99.5939 109.731 99.4013C110.079 98.9975 113.817 97.597 114.48 97.5007C115.062 97.4155 116.533 97.4229 117.133 97.4896C118.026 97.5897 121.442 99.4198 122.086 100.072C122.794 100.791 123.505 101.947 123.776 102.813C123.968 103.436 124.309 103.043 124.891 103.173C125.787 103.373 128.373 104.844 128.947 105.622C130.485 107.693 130.626 110.771 129.407 113.013C128.884 113.969 126.495 115.743 126.399 116.066C126.217 116.662 126.632 117.618 126.669 118.259C126.828 120.908 126.01 123.69 125.495 126.239C125.232 127.536 125.013 128.847 124.746 130.14C125.313 129.873 125.939 130.044 126.554 129.955C127.658 129.796 129.296 128.918 130.559 128.64C132.337 128.251 134.871 127.721 136.65 127.495C137.987 127.325 137.876 127.691 138.695 128.373L142.285 127.221C143.971 127.28 147.442 126.046 148.824 127.121C149.016 127.269 149.054 127.495 149.165 127.591C151.751 129.814 153.425 132.382 155.73 134.916C156.863 136.161 158.186 137.305 159.412 138.472C160.394 139.41 161.205 140.58 162.35 141.37L163.765 139.395C164.666 138.628 165.725 137.857 166.937 138.558C167.196 138.709 167.337 139.124 167.559 139.306C168.222 139.854 169.126 140.388 169.756 140.988C170.386 141.588 171.171 142.314 170.686 143.177C169.986 143.785 168.033 146.742 167.344 146.956C167.152 147.016 166.829 147.023 166.626 147.001C166.27 146.964 166.533 146.664 166.266 146.693C166.411 148.116 167.667 148.909 166.626 150.376C166.403 150.691 165.74 151.069 165.692 151.224C165.584 151.554 166.007 152.714 165.877 153.306C165.747 153.899 165.132 154.54 164.699 154.94C164.562 155.066 164.269 155.063 164.132 155.266C163.732 155.844 163.873 157.615 162.724 158.067C162.458 158.089 160.75 158.341 160.601 158.389C160.494 158.423 159.494 159.582 159.179 159.694C158.971 159.808 157.893 160.083 157.849 160.138C157.823 160.168 158.119 160.612 158.145 160.875C158.171 161.138 158.138 161.39 157.997 161.613C157.775 161.613 157.026 162.983 156.915 163.265C155.752 166.184 156.848 166.859 154.507 169.797C152.692 172.071 150.902 173.794 148.842 175.876C148.642 176.076 147.99 176.458 147.953 176.621C147.861 177.058 149.109 177.392 149.38 177.614C150.347 178.407 151.476 180.996 152.003 182.156C152.147 182.478 152.521 182.73 152.614 183.023C152.803 183.634 152.773 184.731 152.825 185.394H154.966C155.637 185.394 157.686 186.294 158.064 186.876C158.508 187.561 158.386 188.628 157.849 189.232L165.384 189.084C165.459 189.01 164.662 187.706 164.543 187.495C164.373 187.183 164.395 187.402 164.203 186.868C163.862 185.916 163.502 185.194 163.169 184.357C162.402 182.441 162.002 180.852 161.472 178.888C161.157 177.721 160.127 174.98 160.209 173.946C160.401 171.582 163.38 171.856 165.077 172.227C165.225 171.408 165.896 170.786 166.333 170.16C166.47 169.963 166.481 169.652 166.64 169.434C167.24 168.618 168.83 168.17 169.297 167.211C169.412 166.974 169.334 166.788 169.374 166.629C169.426 166.414 169.482 166.344 169.523 166.04C169.549 165.851 169.497 165.636 169.523 165.451C169.704 164.128 170.16 163.221 171.149 162.276C171.308 162.124 171.809 161.72 171.983 161.631C172.235 161.505 173.935 161.124 174.231 161.101C175.802 160.975 176.947 161.224 178.17 162.202C178.536 162.494 179.27 163.535 179.681 163.654C180.596 163.924 181.426 162.302 182.775 162.998C183.89 163.576 183.734 165.421 183.879 166.392C184.068 167.629 184.486 168.726 184.305 170.03C184.957 169.837 185.62 169.93 186.28 169.863C186.606 169.83 187.098 169.597 187.258 169.585C187.824 169.545 188.54 169.789 189.325 169.734C189.573 169.715 189.603 169.585 189.621 169.585C191.048 169.478 192.793 169.367 194.2 169.585C194.215 169.585 194.308 169.7 194.497 169.734C196.108 170.034 198.624 170.771 199.287 172.405C199.502 172.931 199.469 175.539 199.38 176.169C199.187 177.569 196.723 183.593 195.827 184.686C194.786 185.957 194.867 186.098 194.097 187.424C193.815 187.913 192.974 188.432 192.945 189.084L202.918 188.865C203.407 188.717 203.003 187.424 202.84 187.172C202.559 186.739 200.925 187.028 200.195 186.124C199.787 185.62 200.11 185.012 199.895 184.649C199.791 184.475 199.198 184.357 198.924 184.142C198.48 183.797 198.528 183.527 198.328 183.141C198.239 182.975 197.95 183.082 198.042 182.667C198.05 182.634 198.468 182.404 198.491 182.223L204.685 181.689C204.4 179.826 205.285 178.251 207.282 178.144C208.738 178.066 209.853 179.225 211.483 177.925C212.013 177.499 212.25 177.269 212.858 176.828C213.084 176.665 213.121 176.254 213.54 176.161C214.092 176.039 214.948 176.743 215.477 176.973C215.681 177.058 215.718 177.065 215.922 177.121C216.096 177.169 216.355 177.262 216.515 177.269C216.563 177.269 216.618 177.277 216.663 177.269C216.978 177.969 218.178 176.94 218.508 176.676C218.956 176.317 219.301 175.728 219.83 175.487C221.209 174.861 223.002 174.594 224.495 174.461C224.124 173.679 223.106 170.767 224.591 170.652C226.099 170.534 225.917 173.012 225.677 174.02C225.999 173.809 226.243 173.501 226.67 173.461C227.381 173.394 230.274 174.339 230.871 174.765C231.201 174.998 231.508 175.58 231.979 175.913C232.356 176.184 234.239 177.121 234.594 177.114C235.187 177.099 235.732 176.558 236.395 176.965C236.45 176.999 236.891 177.529 236.902 177.566C236.969 177.825 236.928 178.851 236.902 179.192C236.869 179.64 236.758 180.1 236.606 180.518C237.088 180.452 237.539 180.644 238.01 180.674C238.284 180.692 238.614 180.796 238.525 180.374H238.673C238.758 180.515 238.847 180.696 239.04 180.681C241.1 180.633 243.178 180.718 245.231 180.652C246.457 180.611 248.08 180.144 249.165 180.67C249.184 180.807 249.473 180.93 249.439 181.296C249.387 181.841 248.724 182.304 248.724 182.371C248.728 182.486 249.473 182.549 249.091 183.182C248.802 183.66 246.802 184.557 246.25 184.92C245.697 185.283 244.686 186.179 244.597 186.813C244.56 187.083 244.508 187.843 244.727 187.995C245.023 188.198 250.977 188.065 251.91 188.065C254.622 188.076 257.794 187.858 260.48 188.05C261.347 188.113 262.277 188.295 262.858 188.995C263.195 189.403 263.629 191.233 263.755 191.866C263.859 192.374 263.821 192.989 263.951 193.515C265.389 193.515 266.585 193.759 267.997 193.367C268.345 193.27 269.875 192.696 270.112 192.537C270.349 192.377 270.349 192.214 270.394 191.948C270.009 190.614 269.56 189.295 269.116 187.98C268.797 187.035 268.193 185.909 267.949 185.012C267.526 183.482 267.608 181.548 267.297 179.903C267.215 179.477 266.934 179.081 266.897 178.899C266.652 177.599 266.778 176.517 266.756 175.287C266.745 174.65 266.652 174.061 266.6 173.435C266.507 173.327 264.492 173.853 264.162 173.879C263.158 173.957 262.069 173.813 261.058 173.879C260.776 173.898 259.757 174.372 259.65 173.931C259.483 173.261 259.768 172.331 260.506 172.145C261.525 171.89 263.347 172.09 264.444 171.949C264.874 171.894 265.307 171.656 265.711 171.519C266.1 171.482 266.559 171.701 266.448 171.223C266.496 171.216 266.548 171.23 266.596 171.223C267.13 171.138 267.749 171.419 267.797 170.549C267.812 170.263 267.634 170.078 267.634 170.041C267.6 169.33 267.563 168.741 267.5 168.033C267.111 163.873 267.271 159.23 267.193 154.974C267.193 154.925 267.193 154.874 267.193 154.825C267.193 154.725 267.193 154.629 267.193 154.529C267.185 154.285 267.193 154.036 267.193 153.792C267.193 153.77 267.334 153.595 267.341 153.347C267.404 150.691 266.159 146.793 265.126 144.337C265.033 144.119 264.918 143.937 264.829 143.748C264.781 143.644 264.729 143.552 264.681 143.452C263.707 141.433 262.843 140.454 261.276 138.798C260.854 138.35 258.664 136.79 258.183 136.716C257.145 136.557 255.604 136.701 254.426 136.498C251.973 136.068 250.699 134.03 248.661 132.834C248.154 132.804 247.561 133.178 247.157 133.249C246.105 133.434 243.052 133.563 242.434 134.29C242.215 134.545 241.922 135.375 241.922 135.701C241.922 136.416 242.345 137.843 242.193 138.621C242.133 138.917 241.444 140.358 241.237 140.61C240.437 141.588 239.588 140.888 238.736 140.81C236.873 140.636 234.931 140.666 233.06 140.651V144.122C233.06 144.233 232.49 146.019 232.397 146.264C232.049 147.186 231.63 147.942 230.552 148.038C230.089 146.812 230.845 145.8 230.982 144.7C231.156 143.307 230.989 139.662 230.026 138.591C229.244 137.724 228.318 139.61 227.625 139.895C226.51 140.354 225.262 140.262 224.195 140.573C220.89 141.536 217.007 143.074 213.984 144.696C213.51 144.952 212.851 145.048 212.324 145.4C211.798 145.752 211.38 146.364 210.898 146.779C211.358 147.319 212.947 147.579 212.654 148.527C212.554 148.85 211.598 149.042 211.283 149.02C210.839 148.99 207.671 147.586 207.178 147.279C206.438 146.819 205.556 145.841 204.819 145.323C203.492 144.393 201.895 143.607 200.565 142.633C198.554 141.158 196.979 138.891 194.941 137.398C194.671 138.054 194.919 138.924 194.79 139.513C194.764 139.625 194.545 139.599 194.53 139.684C194 142.729 193.341 143.396 191.14 145.382C190.892 145.604 190.04 146.164 189.844 146.404C189.718 146.56 189.655 146.797 189.614 146.99L189.329 146.845C189.173 147.397 189.721 147.423 189.873 147.627C189.951 147.734 190.422 148.475 190.507 148.616C190.799 149.109 190.392 148.842 191.037 149.409C193.322 151.41 195.419 154.496 197.668 156.596C198.38 157.259 203.048 161.446 203.503 161.553C203.774 161.616 204.026 161.442 204.3 161.479C204.73 161.535 205.148 161.702 205.578 161.765C206.137 160.034 205.178 160.623 204.726 160.253C204.515 160.083 203.911 158.249 203.978 157.882C204.015 157.671 204.689 156.648 204.867 156.396C205.637 155.303 207.193 153.907 208.242 153.047C209.546 151.973 211.465 150.895 212.988 150.039C215.859 148.42 218.286 147.168 221.616 146.697C222.557 146.564 224.132 146.297 225.014 146.256C226.584 146.182 228.944 147.245 230.334 148.023C231.252 148.538 232.705 149.402 233.068 150.387C233.201 150.48 233.938 149.754 234.009 149.639C234.213 149.305 234.176 148.809 234.32 148.616C234.357 148.568 235.217 147.912 235.28 147.875C235.832 147.56 236.865 147.583 237.495 147.579C237.725 147.838 238.421 147.949 238.825 148.316C238.962 148.442 239.136 148.935 239.455 149.094C240.448 149.594 242.337 149.587 243 150.083C243.389 150.376 243.534 151.273 243.79 151.699C244.597 153.055 246.338 153.573 247.542 154.518C247.883 154.785 249.228 156.222 249.417 156.267C249.773 156.348 250.899 155.929 251.421 156.178L254.93 157.471C254.782 155.707 254.63 154.088 254.634 152.302C254.634 152.202 254.634 152.106 254.634 152.006C254.634 150.984 254.619 149.879 254.634 148.905C254.656 147.479 254.496 142.37 256.971 144.578C256.919 145.649 256.542 146.723 256.542 147.797C256.538 150.828 256.504 154.044 256.849 157.03C257.09 159.13 257.145 159.334 259.205 159.92C261.128 160.468 262.74 160.586 264.04 162.398C264.688 163.302 265.181 165.473 264.97 166.555C264.848 167.188 263.799 167.263 263.407 166.944C263.199 166.773 262.795 164.647 262.44 164.069C262.002 163.354 260.091 162.139 259.265 162.098C258.035 162.039 258.479 162.554 257.005 161.672C256.416 161.32 255.493 160.912 255.089 160.635C253.696 159.679 254.037 159.719 252.311 158.982C251.147 158.486 249.076 156.922 249.017 159.245C251.481 159.797 254.026 161.816 255.193 164.076C256.064 165.758 255.708 167.244 256.178 169C256.434 169.956 258.268 171.879 258.286 172.434C258.316 173.238 257.601 173.572 256.912 173.401C256.493 173.298 255.252 172.36 254.63 172.094C253.696 171.693 252.703 171.475 251.673 171.505C251.736 171.849 252.307 172.005 252.422 172.197C252.829 172.886 252.437 174.613 252.118 175.343C251.77 176.15 250.799 177.451 250.043 177.921C249.602 178.195 247.88 178.61 247.361 178.559C246.598 178.484 245.486 177.592 244.586 177.262C244.505 177.232 244.427 177.151 244.29 177.114C242.756 176.688 239.714 176.206 238.451 175.343C238.31 175.246 237.514 174.276 237.499 174.202C237.262 173.138 237.688 171.619 237.788 170.538C237.851 169.871 237.721 169.145 237.803 168.485C237.917 167.544 238.695 166.562 238.38 165.592C238.025 165.569 237.825 165.892 237.525 165.992C236.48 166.344 234.772 165.769 235.131 164.41C234.624 164.606 233.06 163.876 233.06 164.632V167.514C233.516 167.507 233.664 166.97 234.087 166.84C234.594 166.685 235.739 166.725 236.121 167.111C236.624 167.618 236.476 169.215 235.735 169.519C235.031 169.808 233.99 169.923 233.357 169.434C233.405 170.667 233.864 172.112 233.642 173.338C233.627 173.427 233.231 174.398 233.183 174.435C233.075 174.517 232.801 174.42 232.764 174.454C232.664 174.454 232.568 174.454 232.468 174.454C231.193 174.472 231.693 173.22 231.578 172.312C231.282 169.919 230.875 168.263 230.841 165.736C230.834 165.321 230.567 164.984 230.767 164.558C231.052 163.947 231.69 163.673 232.319 163.591C232.29 162.628 231.571 162.987 230.989 162.554C229.793 161.668 230.426 159.705 230.182 159.371C230.093 159.249 229.585 159.193 229.333 159.038C229.03 158.849 228.363 158.1 228.229 158.075C228.022 158.037 227.788 158.352 227.396 158.323C226.736 158.267 227.203 157.311 225.81 157.523C225.721 157.537 225.11 157.741 225.088 157.771C224.954 157.956 225.44 159.668 225.503 160.06C225.569 160.472 225.473 160.905 225.554 161.335C225.877 163.043 226.992 165.173 226.699 166.914C226.466 168.289 224.213 170.701 222.865 170.986C222.172 171.134 220.571 171.041 219.86 170.897C219.779 170.878 218.882 169.782 218.626 169.734C218.408 169.693 217.978 170.23 217.608 170.304C215.04 170.797 213.028 170.667 210.817 169.13C210.587 168.97 210.042 168.318 209.902 168.244C209.116 167.829 207.116 167.485 207.249 166.225C207.279 165.951 207.512 165.658 207.486 165.525C207.434 165.273 206.727 165.125 206.504 164.947C206.445 164.899 205.804 164.117 205.737 164.013C205.611 163.813 205.589 163.398 205.563 163.376C205.471 163.295 204.281 163.68 203.87 163.673C202.166 163.643 201.369 162.294 200.028 161.598C199.773 161.387 200.436 161.476 200.25 161.301C200.165 161.22 199.691 161.038 199.48 160.857C199.339 160.735 199.232 160.568 199.069 160.416C199.017 160.368 198.972 160.316 198.92 160.268C198.246 159.642 197.694 159.186 197.001 158.641C196.753 158.445 196.638 158.219 196.116 157.904C195.968 157.815 195.886 157.7 195.671 157.608C195.697 157.311 195.493 157.197 195.375 157.019C194.793 156.118 194.527 155.926 193.897 155.248C192.23 153.44 189.881 151.261 188.488 149.279C188.295 149.001 187.884 147.923 187.821 147.879C187.584 147.716 186.546 148.046 185.917 147.201C185.076 146.075 185.339 144.685 186.187 143.652C186.039 143.252 185.528 143.144 185.327 142.989C183.634 141.662 182.556 141.477 180.748 140.625C177.959 139.306 172.031 136.764 171.586 133.449C171.538 133.093 171.816 132.808 171.642 132.389C171.468 131.97 170.519 132.111 170.297 130.614C170.119 129.399 170.041 128.151 171.586 128.214C171.29 127.347 170.549 125.305 170.701 124.453C170.775 124.046 171.605 123.527 171.968 123.486C172.283 123.449 172.546 123.631 172.842 123.635C173.457 123.638 174.213 123.412 174.835 123.861C174.943 123.938 175.928 124.924 176.014 125.042C176.84 126.146 176.866 128.199 178.674 128.366C178.548 126.898 177.266 126.335 176.629 125.317C176.351 124.868 175.569 123.301 175.432 122.819C175.161 121.86 175.121 119.852 176.306 119.578C177.006 119.415 177.977 119.374 178.533 119.867C180.219 121.36 180.819 123.223 182.145 124.824C182.842 125.661 184.005 126.876 184.801 127.632C185.02 127.84 185.798 128.573 186.009 128.643C186.257 128.721 186.372 128.24 186.428 128.069C186.824 126.843 186.361 126.432 186.346 125.342C186.335 124.468 186.524 123.227 187.235 122.675C188.173 121.945 189.366 121.975 190.466 122.267C192.107 122.705 192.752 123.394 193.145 125.057C193.196 125.276 193.445 126.402 193.456 126.535C193.508 127.047 192.559 129.384 192.456 130.107C192.263 131.429 192.448 132.585 192.982 133.789C193.074 134.001 193.674 135.079 193.774 135.138C194.034 135.29 194.786 134.827 195.371 135.094C196.405 136.194 197.646 137.053 198.757 138.061C199.472 138.709 200.139 139.639 200.936 140.306C202.459 141.588 204.244 142.374 205.852 143.522C207.064 144.385 208.057 145.549 209.483 146.097C210.135 145.286 211.039 144.044 211.935 143.518C212.476 143.203 213.399 143.066 213.981 142.755C214.562 142.444 214.981 141.866 215.622 141.588C217.519 140.762 220.282 139.758 222.272 139.08C224.261 138.402 226.696 138.376 227.762 136.446C227.944 136.116 228.815 134.167 228.622 133.982C227.203 133.841 225.606 133.645 224.41 132.8C222.465 131.422 222.794 129.973 222.542 127.873C222.416 126.839 221.838 125.183 222.416 124.231L222.713 124.083V123.935C222.802 123.983 224.432 124.201 224.706 124.224C226.129 124.327 227.681 124.15 229.144 124.235L230.397 123.642C229.789 123.838 229.204 123.683 228.674 123.694C226.633 123.746 224.702 123.931 222.672 123.46C222.435 123.405 222.194 123.242 222.053 123.045C221.746 122.612 222.035 121.986 221.531 122.016C221.687 121.015 221.235 120.178 221.246 119.307C221.294 116.314 222.891 112.176 222.55 109.256C222.45 108.404 222.009 107.841 222.113 106.87C222.12 106.789 222.376 105.611 222.402 105.544C222.479 105.336 223.213 104.481 223.157 104.44C222.435 104.644 222.164 103.599 221.983 103.028C221.012 99.983 220.764 97.4378 222.357 94.5517C222.62 94.0738 223.85 93.481 224.387 93.1809C227.811 91.2618 231.204 90.7061 235.05 90.2541C237.362 89.9836 237.117 89.8577 239.499 90.243C242.315 90.695 245.186 90.9765 247.95 91.8398C250.069 92.5029 252.211 93.7552 254.041 94.9852L254.078 95.0148ZM265.603 110.971C264.918 109.93 264.214 108.893 263.318 108.015C261.484 106.214 259.472 105.462 258.309 102.98C258.038 102.406 258.001 101.698 257.627 101.15C257.22 100.55 255.826 99.82 255.193 99.3013C251.125 95.9595 248.75 94.096 243.352 93.1179C238.966 92.3214 234.657 91.6582 230.293 92.8808C228.8 93.2995 227.27 93.8959 225.914 94.5591C225.399 94.811 224.291 95.1519 223.998 95.6669C222.813 97.7416 223.235 100.242 223.832 102.45C223.913 102.747 224.328 103.599 224.684 103.299C224.762 103.232 224.376 101.721 224.384 101.313C224.387 101.054 224.513 100.29 224.573 100.013C224.78 99.0679 226.54 95.6298 227.244 95.0778C227.518 94.8629 228.611 94.5443 228.681 94.9703C228.692 95.037 228.385 96.0929 228.329 96.2374C228.051 96.9561 226.521 99.2716 226.469 99.6903C226.429 100.016 226.292 101.372 226.31 101.598C226.347 102.021 227.073 102.432 226.899 103.006C227.781 102.458 228.622 102.858 229.559 102.858C228.989 100.394 231.667 96.6783 234.075 96.3708C234.635 96.3004 236.473 96.5041 235.991 97.2488C235.876 97.4266 233.887 98.0676 233.494 98.2973C232.871 98.664 231.601 100.165 231.504 100.902C231.452 101.294 231.623 101.558 231.593 101.861C231.538 102.487 230.819 102.958 232.149 103.139C232.957 103.251 234.283 103.114 235.072 103.34C235.272 103.399 235.387 103.647 235.572 103.703C236.343 103.947 237.069 104.295 237.91 104.188C238.488 104.114 238.466 103.651 238.958 103.317C240.885 102.017 245.253 101.287 247.465 102.006C247.813 102.121 248.898 102.51 248.765 102.925C248.735 103.014 247.179 103.669 247.039 103.688C246.598 103.751 245.527 103.317 244.979 103.31C244.127 103.295 241.252 103.988 240.529 104.44C240.377 104.536 240.27 104.432 240.34 104.773C240.833 104.821 241.404 104.703 241.882 104.784C242.856 104.947 243.619 105.829 244.475 106.033C245.064 106.174 246.027 106.1 246.542 106.329C247.413 106.718 249.462 108.756 250.232 108.993C252.437 109.671 254.948 108.741 257.294 110.208C257.642 110.427 257.835 110.968 258.22 110.979C258.023 112.335 257.716 111.927 256.842 112.161C256.679 112.205 256.793 112.505 256.671 112.453C256.504 112.383 256.186 111.898 255.912 111.738C254.741 111.049 253.055 110.908 251.722 110.979C251.796 111.49 252.248 111.661 252.318 112.227C252.414 112.991 252.081 113.217 252.014 113.724C251.999 113.824 252.04 114.917 252.074 114.969C252.192 115.143 253.066 115.139 253.426 115.251C255.83 115.999 258.268 119.978 258.224 122.416C258.205 123.479 257.542 124.083 256.66 123.242C256.171 122.779 255.493 120.489 254.941 119.641C254.826 119.463 253.863 118.125 253.637 118.359C253.774 118.881 253.707 119.63 253.6 120.171C253.274 121.801 250.429 126.598 249.136 127.673C248.932 127.843 248.169 127.836 248.828 128.11C250.625 128.851 251.292 127.699 252.796 127.199C253.611 126.928 256.634 126.261 257.438 126.228C258.027 126.202 258.587 126.454 259.287 126.306C260.22 126.109 263.273 124.739 264.114 124.19C264.737 123.783 265.385 122.801 265.952 122.26C266.074 122.141 266.356 122.134 266.57 121.916C267.293 121.178 267.404 118.833 267.526 117.851C267.563 117.544 267.815 117.325 267.819 116.962C267.826 116.532 267.085 113.665 266.893 113.154C266.585 112.342 266.052 111.664 265.6 110.975L265.603 110.971ZM123.761 109.79C123.979 109.845 124.839 109.975 124.924 110.105C125.08 110.345 124.798 110.946 124.857 111.279C124.898 111.509 125.146 111.535 125.224 111.683C125.576 112.379 125.891 113.139 125.98 113.924C129.155 112.283 127.977 106.329 124.65 105.651C124.972 106.296 124.205 107.396 123.609 107.055C123.157 106.796 122.516 104.821 122.242 104.288C121.286 102.417 120.871 101.784 118.937 100.794C115.362 98.9678 113.387 99.8348 110.394 102.106C109.242 102.98 108.667 103.995 107.208 104.536C106.211 104.903 105.059 105.092 104.051 105.514C103.629 105.692 101.65 106.726 101.387 106.981C100.42 107.934 100.228 110.286 100.45 111.594C100.595 112.446 101.25 113.246 101.58 113.887C101.747 114.217 102.606 116.403 102.877 116.44C103.077 116.469 103.473 116.251 103.87 116.284C105.259 116.406 106.415 117.833 107.586 116.577C108.971 115.091 109.553 112.187 111.064 110.897C111.472 110.549 112.954 109.797 113.484 109.623C114.651 109.238 116.258 109.327 117.111 108.3C117.514 108.382 117.655 108.185 117.848 108.152C118.404 108.059 118.574 107.985 119.178 108.152C119.897 108.348 120.43 108.941 121.164 109.193C121.938 109.456 122.927 109.556 123.757 109.779L123.761 109.79ZM67.9106 126.183C67.9106 126.106 68.244 125.861 68.2144 125.528C68.207 125.435 67.9513 125.457 67.8661 125.261C66.9399 123.149 68.0069 121.541 69.9816 120.793C72.9973 119.652 74.2347 120.085 76.9948 117.914C77.343 117.64 78.3322 117.096 78.4804 116.725C78.6027 116.421 78.0988 115.625 78.8509 115.321C79.3436 115.121 80.0068 115.862 80.4292 115.958C81.511 116.21 83.5894 115.276 83.582 114.006C83.5746 112.876 81.9741 109.964 82.1186 109.449C82.3075 108.763 83.2671 108.86 83.7746 109.219C84.3415 109.619 84.4489 110.334 84.7453 110.908C84.8009 111.02 84.8045 111.386 85.0528 111.12C85.1158 111.053 85.6048 109.486 85.6085 109.393C85.6196 109.067 84.9268 107.967 84.6749 107.733C83.8265 106.955 82.804 107.081 81.9148 106.8C78.9621 105.855 75.8426 103.758 72.7009 103.751C71.056 103.751 68.9479 104.581 67.3882 104.758C66.0841 104.91 65.2653 104.584 63.9686 105.329C63.6722 105.499 62.7979 106.426 62.6756 106.692C62.5571 106.944 62.6016 107.256 62.483 107.533C62.2163 108.163 60.4676 108.652 59.7637 109.06C58.2817 109.919 56.8591 111.435 56.2107 113.083C55.0956 115.914 55.1808 120.115 53.1431 122.423C52.7578 122.86 50.9795 124.735 50.6276 125.005C49.1642 126.135 47.0895 126.58 45.4223 127.113C44.4998 127.406 41.447 129.007 40.6505 129.581C40.506 129.685 38.6944 131.426 38.6166 131.544C37.8237 132.785 37.3162 134.645 37.0309 136.083C36.7308 137.587 36.5011 139.121 36.5863 140.662C36.5937 140.788 36.5937 140.918 36.7345 140.958C36.7197 141.114 36.9271 142.759 36.979 142.992C37.0383 143.259 37.7385 144.708 37.9089 144.882C38.3535 145.334 40.18 144.9 40.5097 145.537C40.7394 145.986 39.7539 147.653 39.5872 148.316C39.0352 150.535 39.8391 152.099 42.288 151.606C43.4032 150.128 44.8777 148.957 46.1188 147.608C47.0969 146.545 48.012 145.185 49.0642 144.122C50.0015 143.174 51.5353 142.185 52.2503 141.106C53.2728 140.792 54.0027 139.917 54.9585 139.454C55.4179 139.232 56.596 138.984 56.8294 138.743C56.9295 138.743 57.0258 138.743 57.1258 138.743C57.6334 138.728 57.5704 138.509 58.0113 138.298C58.6819 138.309 59.1783 138.076 59.734 138.057C62.4423 137.961 64.0279 138.998 65.6914 140.88C66.6917 142.014 68.2922 144.122 69.0072 145.4C69.4481 146.186 69.6333 147.275 70.1297 148.046C70.3891 148.446 70.5521 148.461 70.5743 148.49C70.9634 149.083 71.2968 149.75 71.1634 150.483C71.6265 150.861 72.0896 149.742 72.1341 149.383C72.16 149.19 72.2082 148.083 72.1971 147.897C72.1822 147.612 71.9155 147.419 71.9007 147.308C71.8784 147.116 72.097 146.753 72.0489 146.423C71.9859 145.982 71.1449 145.356 72.0933 144.904C72.512 144.704 73.7309 145.767 74.5682 145.03C74.8645 144.767 74.6533 143.655 74.5459 143.266C73.9939 141.299 71.934 140.325 70.7188 138.965C69.6037 137.717 67.9587 134.619 67.6809 132.989C67.2696 130.551 67.8772 128.506 67.9106 126.187V126.183ZM248.773 110.812C248.735 110.779 248.813 110.39 248.543 110.079C248.339 109.841 245.531 108.041 245.216 107.941C244.597 107.745 243.823 107.737 243.149 107.496C242.652 107.322 242.015 106.815 241.559 106.722C240.944 106.596 240.222 106.737 239.559 106.655C236.554 106.277 233.616 104.933 230.519 104.766C229.359 104.703 226.64 104.907 225.603 105.329C224.662 105.711 224.354 106.563 224.239 107.515C224.213 107.726 224.213 107.774 224.454 107.73C224.758 107.67 225.28 107.233 225.74 107.093C228.37 106.27 233.627 106.915 236.354 107.5C238.951 108.056 244.501 109.334 246.468 110.979C246.991 111.416 247.287 112.038 247.88 112.376C248.58 112.772 249.58 113.08 250.31 113.494C250.729 113.569 250.525 112.683 250.451 112.465C250.406 112.331 249.402 110.92 249.306 110.879C249.121 110.797 248.821 110.871 248.769 110.823L248.773 110.812ZM238.121 113.924C238.158 113.895 238.373 113.969 238.414 113.92C238.455 113.872 238.31 113.598 238.347 113.461C238.584 112.576 238.699 111.942 238.895 111.079C238.988 110.668 239.244 110.464 239.303 110.086C237.991 110.242 236.899 109.36 235.765 109.119C235.168 108.993 232.308 108.315 231.993 108.311C231.382 108.311 230.645 108.482 229.915 108.467C229.13 108.452 228.563 107.959 228.077 108.756C228.326 108.045 227.17 108.36 226.707 108.471C226.584 108.5 226.607 108.745 226.507 108.752C225.358 108.823 225.588 109.201 224.865 109.467C224.676 109.538 224.269 109.467 224.235 109.497C224.139 109.586 224.269 111.657 224.235 112.079C224.01 114.761 222.739 118.526 223.943 121.019C224.776 122.749 226.014 122.097 227.562 122.056C228.544 122.03 231.141 122.242 231.782 121.401C231.971 121.152 231.89 120.926 231.919 120.874C232.182 120.452 233.194 120.767 233.249 120.726C233.364 121.775 234.013 121.163 234.294 121.526C234.972 122.393 232.46 124.438 231.819 124.835C230.222 125.824 228.815 125.935 226.988 125.88C226.325 125.857 224.413 125.213 224.239 126.272C224.647 128.629 224.139 130.996 226.784 131.993C228.229 132.541 229.604 132.215 231.026 132.7C231.134 133.089 230.837 133.378 230.741 133.723C230.582 134.282 230.934 135.916 231.201 136.438C231.326 136.683 231.664 136.883 231.834 137.131C232.46 138.05 232.534 138.824 233.783 138.876C234.75 138.917 235.906 138.743 236.862 138.735C237.973 138.728 239.077 138.735 240.177 138.876C240.374 138.039 240.029 137.224 240.037 136.298C240.04 135.857 240.137 135.216 240.192 134.753C240.429 132.826 240.522 132.367 242.519 131.833L246.546 131.133C246.238 130.774 245.594 130.952 245.26 130.718C245.12 130.622 244.768 130.036 244.479 129.803C243.086 128.673 242.756 128.755 241.811 127.036C241.759 126.939 241.552 126.943 241.526 126.824C241.459 126.528 241.493 125.743 241.589 125.442C241.996 124.153 244.553 123.686 244.994 122.642C245.034 122.549 245.349 120.937 245.357 120.778C245.39 120.185 244.519 118.889 243.938 118.837C242.848 118.737 240.833 121.649 239.099 120.267C238.64 119.9 238.929 117.837 238.862 117.11C238.821 116.688 238.632 116.355 238.569 115.999C238.555 115.91 238.44 115.799 238.421 115.703C238.403 115.606 238.44 115.495 238.421 115.406C238.317 114.917 238.232 114.421 238.125 113.928L238.121 113.924ZM123.468 113.331C123.42 113.154 123.509 112.839 123.431 112.561C123.19 111.698 122.397 111.686 121.664 111.827L117.94 110.371C117.881 110.371 117.2 111.127 117.107 111.19C116.907 111.327 114.399 111.746 113.865 111.931C112.146 112.527 112.417 113.872 111.627 115.013C111.505 115.188 110.857 115.532 111.057 115.699C111.439 116.017 112.691 114.076 113.08 113.958C113.769 113.75 114.428 114.006 114.306 114.813C113.88 114.873 113.728 115.462 113.35 115.851C112.869 116.343 111.835 117.244 111.15 116.744C110.99 116.629 111.035 116.054 110.686 116.14C110.516 116.184 109.682 117.681 109.468 117.918C108.916 118.529 107.367 119.5 106.541 119.544C105.422 119.604 105.666 119.078 105.137 118.733C105.033 118.663 103.844 118.237 103.766 118.244C102.325 118.363 103.066 120.778 103.406 121.649C103.67 122.33 104.17 122.879 104.414 123.594C104.581 124.075 104.651 125.165 104.844 125.491C104.933 125.643 105.337 125.635 105.592 125.961C105.996 126.476 106.189 127.799 106.47 128.48C106.896 129.514 109.456 133.334 110.283 134.008C111.212 134.768 113.406 135.794 114.562 135.905C115.466 135.99 118.574 135.231 119.478 134.831C120.486 134.386 122.686 130.781 123.016 129.651C123.824 126.884 125.006 121.367 124.639 118.592C124.572 118.085 124.224 117.599 124.135 117.173C123.853 115.854 123.883 114.821 123.472 113.335L123.468 113.331ZM245.268 112.839C245.131 112.728 245.042 112.446 244.856 112.294C243.845 111.457 242.171 111.112 240.933 110.679C241.066 112.072 240.34 113.224 240.489 114.595C240.618 115.791 241.452 117.129 240.933 118.359C242.656 117.874 243.645 116.395 245.66 117.107C246.705 117.473 247.672 119.148 247.591 120.211C247.572 120.467 247.391 120.648 247.372 120.804C247.265 121.804 247.365 123.297 246.539 124.038C245.883 124.624 244.994 124.965 244.408 125.602C244.316 125.702 244.045 125.709 244.023 125.835C243.927 126.458 245.427 128.184 246.168 128.269C248.187 126.109 251.814 122.171 251.425 119.022C251.333 118.259 250.71 117.451 249.943 117.325L250.24 116.958C249.45 116.803 250.303 115.477 250.24 115.41C250.051 115.41 249.865 115.369 249.695 115.291C248.435 114.717 246.294 113.676 245.268 112.846V112.839ZM251.27 115.402H250.829V115.695H251.27V115.402ZM76.9244 129.14C76.8948 128.703 77.1615 128.195 77.6246 128.128C77.9692 128.077 78.1803 128.366 78.4841 128.395C79.2584 128.466 80.0328 128.321 80.8108 128.562C81.0219 128.095 81.8704 127.469 82.0223 127.069C82.1334 126.773 81.774 126.491 82.1593 126.172C82.4261 125.95 83.0929 126.239 83.4189 126.335C83.5931 125.376 83.2226 125.713 82.8706 125.409C82.1778 124.805 82.189 122.908 82.3853 122.053L80.6811 123.238C77.8543 122.771 81.1442 119.837 82.163 119.837H84.3044C84.5526 119.033 84.8379 117.27 84.4526 116.532C84.2562 116.154 84.0006 116.895 83.7079 117.099C83.2448 117.425 81.7036 117.87 81.1257 117.914C80.7255 117.944 79.7993 117.736 79.7438 117.777C79.6956 117.811 79.5474 118.281 79.377 118.455C77.0652 120.815 74.7978 121.149 71.9637 122.345C71.056 122.727 69.8778 123.097 69.6852 124.201C69.4666 125.45 70.2816 125.135 70.2742 125.969C70.0816 126.739 69.8037 127.632 69.6741 128.403C69.6592 128.492 69.6778 128.603 69.6741 128.699C69.6666 128.895 69.6815 129.092 69.6741 129.288C69.6481 129.296 69.3999 129.536 69.3777 129.584C69.3629 129.622 69.3851 129.681 69.3777 129.733C69.3703 129.781 69.3814 129.833 69.3777 129.881C69.3444 130.211 69.3481 130.729 69.3777 131.063C69.4555 131.937 70.2372 134.719 70.6077 135.52C70.7151 135.753 71.356 136.672 71.5228 136.672C71.5783 136.672 71.7525 136.383 71.9044 136.316C72.8306 135.92 74.4755 136.075 75.4758 135.912C75.913 135.842 76.3687 135.36 76.9652 135.494C77.0837 135.52 77.0022 135.768 77.2801 135.801C79.4918 136.09 80.5032 134.019 82.0889 133.056C81.2146 132.53 80.0846 132.626 79.1769 132.274C78.2692 131.922 77.7506 131.378 77.3616 130.47C77.2208 130.14 77.1171 129.651 77.0652 129.288L76.917 129.14H76.9244ZM178.492 122.727C178.129 122.275 177.755 121.849 177.321 121.46C176.999 121.397 177.099 121.608 177.095 121.83C177.095 122.227 177.81 124.035 178.04 124.435C178.44 125.128 179.615 125.839 179.904 126.45C179.955 126.565 180.478 128.225 180.482 128.321C180.489 128.614 180.118 129.836 179.915 130.066C179.804 130.188 178.651 130.733 178.529 130.733C178.27 130.729 176.606 129.851 176.365 129.655C176.165 129.492 175.465 128.366 175.298 128.065C174.565 126.754 174.506 125.213 172.52 125.305C172.372 125.457 172.746 126.828 172.861 127.106C172.909 127.221 173.579 128.347 173.628 128.403C174.043 128.895 175.662 129.751 176.306 130.377C176.503 130.57 177.277 131.526 177.258 131.722C177.229 132.063 176.817 132.663 176.462 132.659C175.806 132.656 175.143 131.448 174.576 131C174.235 130.729 172.424 129.547 172.068 129.799C171.546 130.67 172.642 131.037 173.183 131.504C173.435 131.718 173.642 132.148 173.802 132.252C174.28 132.571 175.469 132.841 176.01 133.186C176.347 133.4 177.733 134.953 178.047 135.353C178.744 136.238 178.514 136.957 177.318 136.824L177.244 137.116C178.388 137.705 179.522 138.372 180.689 138.917C182.527 139.776 184.335 140.251 186.009 141.573C187.135 142.462 187.113 143.444 188.328 144.13L189.132 145.241C189.477 144.885 189.944 144.274 190.292 143.963C190.703 143.596 191.833 142.903 192.048 142.54C192.144 142.374 192.807 139.991 192.867 139.665C192.937 139.273 193.093 137.383 192.974 137.116C192.856 136.85 192.189 136.394 191.952 136.072C190.77 134.467 190.266 131.767 190.548 129.81C190.614 129.347 191.003 128.762 191.114 128.306C191.411 127.087 191.518 125.843 190.866 124.746C190.259 123.727 189.306 124.124 188.325 124.112C187.962 125.687 188.669 127.284 188.102 128.836C188.047 128.988 187.532 130.118 187.484 130.177C186.917 130.881 185.672 131.122 184.89 130.611C184.046 130.059 182.438 128.166 181.734 127.302C180.578 125.887 179.629 124.15 178.485 122.719L178.492 122.727ZM157.597 140.217C157.226 139.78 156.908 139.284 156.493 138.884C155.759 138.176 154.766 137.513 154.051 136.746C152.132 134.682 150.569 131.774 148.509 130.025C148.083 129.666 147.49 129.573 147.253 128.91C145.23 128.892 143.511 128.955 141.518 129.388C140.632 129.581 139.955 130.07 138.98 129.881C139.114 130.433 139.021 131.37 139.158 131.844C139.258 132.193 139.817 132.7 139.947 133.419C140.04 133.923 140.032 135.579 140.447 135.872C140.607 135.983 142.848 136.161 143.263 136.231C143.356 136.142 142.507 134.301 142.522 133.804C142.522 133.726 142.759 133.715 142.867 133.538C143.037 133.249 142.8 132.671 143.559 133.056C144.23 133.397 144.6 135.231 144.886 135.868C145.682 137.657 147.29 139.762 148.979 140.784C150.298 141.584 152.829 142.474 153.273 144.17C153.625 145.512 151.799 147.056 151.095 148.127C149.654 150.309 148.253 153.495 149.761 155.955L151.069 154.307C151.058 153.825 152.266 152.217 152.28 152.091C152.303 151.884 152.125 151.617 152.121 151.369C152.117 150.728 152.777 150.05 153.429 150.298C154.022 151.08 154.533 151.58 155.037 152.447C155.122 152.595 155.352 152.621 155.374 152.732C155.589 153.721 154.978 155.103 155.081 155.941C155.122 156.263 155.859 157.619 156.126 157.863C156.519 158.226 157.638 158.66 158.012 158.215C158.049 158.171 158.334 157.189 158.33 157.134C158.319 156.9 158.016 156.77 158.056 156.433C158.082 156.23 158.686 155.229 158.875 155.163C160.209 154.699 160.461 156.5 160.794 156.604C162.039 156.982 161.65 155.166 161.791 154.696C161.82 154.599 162.476 153.544 162.535 153.499C162.776 153.321 163.065 153.595 163.191 153.507C163.236 153.477 163.554 152.617 163.58 152.484C163.71 151.839 163.439 151.158 163.658 150.494C163.817 150.009 164.488 149.42 164.514 149.131C164.521 149.053 163.98 147.834 163.914 147.712C163.206 146.449 161.998 144.478 160.99 143.47C160.857 143.337 160.827 143.163 160.546 143.174C160.546 143.122 160.438 142.955 160.398 142.877C160.012 142.133 158.523 141.462 158.13 140.566C157.971 140.473 157.749 140.273 157.589 140.221L157.597 140.217ZM132.037 144.207C132.289 142.611 134.023 141.847 135.427 141.47C136.476 141.184 136.839 141.221 137.961 140.751C138.306 140.606 138.817 140.858 138.954 140.11C139.036 139.665 138.443 138.291 138.306 137.717C137.809 135.653 137.283 132.593 136.487 130.681C136.42 130.522 136.135 130.192 135.957 130.166C134.783 130.014 130.915 130.763 129.674 131.137C128.147 131.596 126.858 132.611 125.091 132.245C125.209 133.074 124.969 133.882 124.939 134.675C124.839 137.253 124.794 141.495 125.239 143.915C125.458 145.093 125.817 146.323 126.124 147.46C126.339 148.253 126.65 149.005 126.862 149.676C126.876 149.72 126.851 149.776 126.862 149.824C127.321 151.676 127.699 153.74 128.299 155.552C128.521 156.23 128.851 156.863 129.151 157.504C129.44 157.378 129.425 155.615 129.566 155.111C129.714 154.581 130.27 153.818 130.374 153.258C130.511 152.528 130.426 151.825 130.629 151.002C130.878 149.991 131.522 148.916 131.737 147.901C131.8 147.597 131.685 147.156 131.748 146.801C131.826 146.338 132.486 144.682 132.034 144.207H132.037ZM176.725 136.312C175.88 135.19 175.606 135.094 174.513 134.312C174.387 134.223 173.665 133.249 173.554 133.797C173.453 134.297 174.22 134.716 174.435 134.975C174.702 135.297 174.858 135.749 175.184 136.005C175.639 136.364 176.499 136.542 177.025 136.82C177.136 136.605 176.799 136.416 176.721 136.312H176.725ZM97.7566 150.409C98.116 149.746 99.2682 147.757 99.835 147.39C100.065 147.238 101.35 146.982 101.658 147.016C102.54 147.112 103.214 148.353 103.229 149.161C103.236 149.483 102.68 151.191 102.528 151.554C102.325 152.039 102.362 151.828 102.184 152.543C102.091 152.914 101.691 153.206 101.958 153.67C102.777 154.151 103.644 153.447 104.37 153.255C105.214 153.029 106.1 152.955 106.896 152.606C107.133 152.225 105.437 148.735 105.222 148.042C104.429 145.5 104.188 142.629 103.807 140.002C103.692 139.213 103.251 138.243 103.377 137.346C103.443 136.879 103.921 136.372 103.595 135.783C103.469 135.557 103.292 135.701 103.243 135.879C103.069 136.546 103.129 137.524 103.073 138.22C103.04 138.643 102.795 139.362 102.799 139.71C102.799 139.769 103.295 139.999 103.373 140.729C103.125 142.362 103.662 144.659 103.366 146.193C103.299 146.538 102.688 146.956 102.38 146.986C101.465 147.068 101.573 143.622 101.532 142.977C101.502 142.496 101.269 141.91 101.287 141.473C101.31 140.973 101.847 140.391 101.832 140.143C101.825 140.032 101.61 139.869 101.602 139.691C101.528 138.346 101.513 137.109 101.147 135.786C99.6794 135.931 98.3012 136.164 97.4565 137.479C94.6445 141.859 92.97 147.142 92.5847 152.402C92.5551 152.799 92.4624 154.596 92.8144 154.681C93.3627 154.814 95.0669 153.41 95.5374 153.066C96.0413 152.699 96.7489 152.406 97.1639 151.81C97.4343 151.421 97.5454 150.795 97.7529 150.406L97.7566 150.409ZM111.35 146.423C110.609 144.882 109.82 144.848 108.956 143.57C108.034 142.207 107.615 140.788 106.989 139.336C106.793 138.88 105.974 136.883 105.811 136.676C105.755 136.605 105.626 136.475 105.589 136.527C105.326 137.609 105.552 138.328 105.778 139.365C106.307 141.781 106.467 144.674 107.285 147.016C107.526 147.701 108.171 148.483 108.326 149.076C108.545 149.917 108.56 150.817 108.96 151.695C109.379 152.617 110.798 153.214 110.768 154.466C110.761 154.703 110.535 155.103 110.631 155.263C110.805 155.555 112.372 156.148 112.735 156.341C113.309 156.644 113.484 157.1 114.376 157.211C115.803 157.385 118.296 156.815 119.571 156.263C119.745 156.189 120.045 156.078 120.245 155.981C120.901 155.67 121.308 154.744 121.404 154.04C121.542 153.047 121.093 151.78 121.149 150.802C121.386 146.73 121.927 144.248 121.264 139.988C121.216 139.673 121.371 138.146 120.923 138.935C119.823 140.869 119.585 143.537 117.589 144.83C117.652 146.197 116.462 147.149 115.873 148.298C115.558 148.609 114.288 148.853 113.861 148.731C113.613 148.657 112.517 147.705 112.302 147.471C111.894 147.027 112.172 146.719 111.353 146.427C111.527 146.786 111.79 147.59 111.994 147.853C112.239 148.168 113.009 148.527 113.324 148.783C113.454 148.89 113.387 149.113 113.521 149.239C113.695 149.405 114.565 149.857 114.806 149.831C114.903 149.82 116.007 148.668 116.158 148.494C116.792 147.768 117.574 146.649 118.059 145.815C118.4 145.23 118.422 144.159 119.33 144.207C119.322 146.419 117.648 148.227 116.399 149.92C115.829 150.691 115.777 151.473 114.643 151.71C113.369 151.976 112.572 150.683 111.742 149.876C111.461 149.602 110.749 149.198 110.549 148.927C109.842 147.979 109.419 145.745 111.35 146.427V146.423ZM147.109 141.844C146.72 141.555 145.86 140.855 145.571 140.503C145.16 140.006 143.993 137.594 143.5 137.572C143.233 137.557 142.881 137.798 142.581 137.805C142.085 137.817 141.451 137.602 140.903 137.709C141.17 139.05 142.096 140.136 141.199 141.547L140.903 141.696V141.844C140.844 141.851 140.18 142.325 139.869 142.433C138.18 143.018 136.357 143.196 134.723 143.937C134.508 145.304 133.956 146.593 133.516 147.897C132.901 149.709 132.508 151.295 131.997 153.103C131.863 153.581 130.722 156.485 130.855 156.615C130.893 156.648 131.637 156.544 131.722 157.004C130.826 158.375 131.104 159.753 130.844 161.268L131.152 166.214C131.482 166.158 131.737 166.025 132.097 166.07C133.504 166.236 134.03 167.025 134.92 167.84C136.998 169.745 136.946 170.382 138.113 172.775C138.417 173.398 139.099 173.757 139.132 174.487L142.403 168.67C143.381 167.633 144.108 166.11 144.945 164.94C145.26 164.499 146.408 163.68 146.208 163.065C146.127 162.82 145.708 162.861 145.627 162.45C145.389 161.25 146.768 160.772 146.886 162.079C147.127 161.598 147.82 160.609 147.935 160.16C148.05 159.712 147.838 159.382 148.035 158.797C148.153 158.449 148.746 157.763 148.716 157.597C148.694 157.474 147.59 156.055 147.375 155.533C146.523 153.466 147.498 150.361 148.583 148.49C148.731 148.235 149.305 147.731 149.465 147.494C149.709 147.127 151.213 144.941 151.176 144.785C151.091 144.404 150.102 143.648 149.75 143.407C148.872 142.811 147.99 142.496 147.105 141.844H147.109ZM167.893 142.329C167.674 142.066 165.936 140.855 165.651 140.866C165.233 140.877 164.132 142.574 163.825 142.974L165.599 145.882L166.092 146.423C166.259 145.893 166.359 145.263 166.622 144.771C166.952 144.148 168.511 143.074 167.893 142.333V142.329ZM187.31 146.112C187.354 146.182 187.836 146.327 187.887 146.049C187.947 145.738 187.554 145.326 187.369 145.093C187.258 145.26 187.247 146.004 187.31 146.112ZM123.172 147.457C123.172 147.605 123.175 147.753 123.172 147.901C123.161 148.194 123.198 148.498 123.172 148.787C123.153 148.979 123.19 149.183 123.172 149.376C123.079 150.361 122.923 150.339 123.023 151.591C123.035 151.736 123.016 151.887 123.023 152.036C123.038 152.299 123.172 152.314 123.172 152.332C123.231 153.184 122.986 154.021 122.883 154.777C122.779 155.533 123.016 156.496 122.283 157.13C121.386 157.908 120.245 157.756 119.152 158.108C118.585 158.289 117.248 158.697 116.592 158.827C115.74 158.993 114.428 158.927 113.495 158.982C113.261 158.997 112.969 158.79 112.776 158.845C112.52 158.916 112.431 159.649 112.242 159.945C111.902 160.479 111.25 160.564 111.205 160.612C111.153 160.668 111.39 161.639 110.905 162.013C110.131 162.609 110.535 162.735 110.027 163.491C109.79 163.843 108.945 164.736 108.597 165.014C106.752 166.485 104.699 166.473 102.491 165.925C102.954 167.288 104.288 167.24 105.329 167.592C108.556 168.685 112.046 169.07 115.432 169.604C117.726 169.963 120.308 169.574 122.653 169.923C123.194 170.004 123.205 170.356 123.246 170.349C124.542 170.204 124.65 168.318 125.243 167.507C125.876 166.64 127.621 166.181 128.558 166.825C128.814 167.003 128.688 167.348 129.088 167.248C128.899 166.473 128.981 165.421 128.799 164.691C128.744 164.469 128.336 164.558 128.232 164.414C128.181 164.339 127.751 162.917 127.68 162.676C127.258 161.157 127.084 159.438 126.68 157.915C125.758 154.462 124.446 150.928 123.624 147.457C123.583 147.29 123.753 147.008 123.727 146.812C123.694 146.549 123.364 146.112 123.253 145.83C123.12 145.83 123.183 147.216 123.179 147.457H123.172ZM231.46 151.465C229.47 150.291 226.74 148.316 224.328 148.509C222.342 148.664 218.619 149.287 216.841 150.18C216.3 150.45 215.714 151.035 215.177 151.324C212.932 152.543 210.079 153.518 208.271 155.352C207.827 155.803 206.326 157.478 206.575 158.086C206.808 158.66 208.471 159.242 208.546 159.82C208.631 160.498 206.741 164.047 208.983 163.002C209.401 162.806 209.412 162.165 210.139 162.079C211.587 161.905 211.695 163.565 210.887 164.391C210.565 164.721 208.998 165.151 209.846 165.755C210.19 165.999 210.346 165.94 210.65 165.706C210.809 165.584 211.891 164.213 212.032 163.987C214.177 160.568 215.362 156.23 217.689 152.814C218.493 151.632 222.127 150.028 223.517 149.768C225.151 149.461 227.903 149.346 228.337 151.406C228.452 151.95 228.177 152.621 228.24 152.829C228.311 153.066 229.281 153.532 229.481 153.81C229.848 152.684 231.197 152.458 231.46 151.469V151.465ZM101.306 149.376C99.6942 149.202 99.3904 151.547 98.6458 152.551C97.9011 153.555 94.6631 156.281 93.5146 156.578C93.1107 156.682 92.6736 156.559 92.2513 156.644C91.8289 156.73 91.0768 157.167 90.5507 157.308C88.476 157.86 87.1201 158.119 84.9787 158.089C83.6116 158.071 82.3371 157.871 81.0293 157.46C77.4134 156.322 77.4468 154.874 75.4536 152.258C75.2461 151.984 74.1606 150.443 74.0272 150.417C73.4789 150.754 73.1751 151.247 72.6305 151.654C72.4638 151.78 72.0785 151.873 72.06 151.899C71.934 152.069 72.3416 152.803 72.3008 153.114C72.2563 153.455 71.7117 154.203 71.7487 154.611C71.7562 154.703 72.5009 155.729 72.6676 156.067C73.4011 157.563 74.2755 159.356 74.9275 160.898C75.424 162.065 75.7907 163.361 76.2094 164.558C76.6836 164.825 77.0504 164.295 77.6209 164.18C81.3961 163.428 85.2417 162.906 89.0021 162.261C91.5696 161.824 93.811 160.924 96.4821 161.209C97.5788 161.324 100.565 162.265 101.628 162.713C102.073 162.902 102.362 163.284 102.773 163.491C104.155 164.176 106.096 164.48 107.519 163.787C107.982 163.561 108.723 163.109 108.326 162.52C107.975 161.991 107.052 162.231 106.719 162.179C106.048 162.079 104.855 161.983 104.729 161.235C104.466 159.686 108.338 160.475 109.134 160.383C108.708 160.068 108.16 159.342 107.66 159.19C107.208 159.053 104.988 159.668 105.752 158.334C106.004 157.897 108.037 157.159 108.549 157.26C109.06 157.36 109.779 158.334 110.246 158.675L111.053 159.86C111.005 158.441 110.427 157.041 108.871 156.789C108.071 156.659 106.837 157.663 106.4 156.763C105.826 155.589 107.493 155.166 108.223 154.737C108.404 154.629 108.63 154.822 108.541 154.399C106.878 154.318 101.38 156.567 100.198 155.429C99.5868 154.84 100.198 153.04 100.465 152.306C100.843 151.273 101.58 150.617 101.302 149.376H101.306ZM245.805 156.022C245.76 155.811 244.738 155.011 244.664 154.996C244.305 154.911 243.953 155.029 243.504 154.851C242.585 154.492 241.956 153.225 241.533 152.388C241.4 152.121 241.43 151.721 241.278 151.576C240.844 151.169 238.518 151.058 237.595 150.269C237.402 150.105 237.276 149.746 237.136 149.661C236.965 149.561 236.269 149.446 236.206 149.52C236.165 149.565 236.272 149.909 236.176 150.08C236.072 150.257 235.117 150.732 234.92 150.898C233.564 152.054 231.73 153.329 230.856 154.888C230.486 155.548 229.463 157.456 230.715 157.489C231.212 156.741 231.819 156.074 232.338 155.337C232.642 154.907 232.668 154.229 233.479 154.103C234.631 153.929 233.935 155.618 233.649 156.204C233.316 156.889 232.449 157.571 232.275 158.226C232.075 158.99 231.908 160.331 232.286 161.042C233.22 159.479 233.023 157.204 234.653 156.022C235.157 155.655 236.513 155.144 236.647 156.018C235.35 156.57 234.979 157.886 234.579 159.123C234.453 159.512 233.942 160.983 233.987 161.253C234.024 161.479 234.246 161.627 234.279 161.865C234.335 162.268 233.901 163.05 234.939 162.961C235.717 162.895 236.643 161.987 237.006 161.331C237.454 160.52 237.362 159.286 238.047 158.678C238.899 157.923 240.029 158.786 239.585 159.405C239.525 159.486 239.188 159.46 239.051 159.608C238.914 159.757 238.592 160.757 238.488 161.042C238.31 161.535 238.099 162.213 237.747 162.665C237.343 163.187 236.458 163.343 236.958 164.28C237.132 164.402 239.077 163.706 239.359 163.532C239.788 163.265 240.211 162.657 240.603 162.38C240.866 162.191 241.315 162.117 241.567 161.928C242.804 161.001 244.153 159.412 245.779 159.153C246.372 159.06 247.261 159.657 247.435 158.753C247.491 158.467 247.487 157.426 247.409 157.163C247.294 156.77 246.242 156.022 245.812 156.026L245.805 156.022ZM221.62 154.74C222.187 154.281 223.724 153.481 224.428 153.192C224.773 153.051 226.262 152.699 226.299 152.551C226.544 151.643 224.55 151.713 224.047 151.78C223.169 151.899 219.912 153.284 219.423 153.951C219.078 154.418 218.397 155.763 218.119 156.341C216.541 159.594 215.488 162.898 213.417 165.97C213.132 166.392 212.584 166.825 212.406 167.177C212.321 167.344 212.173 167.27 212.417 167.47C213.147 168.081 216.404 168.726 217.063 167.837C217.111 167.774 217.645 166.562 217.696 166.403C218.478 164.054 218.504 161.12 219.29 158.838C219.616 157.889 220.901 155.329 221.62 154.744V154.74ZM228.815 155.433C227.922 155.5 227.336 154.529 226.418 154.581C225.992 154.607 223.513 155.603 223.165 155.874C223.013 155.992 222.772 156.381 222.642 156.57C220.586 159.549 220.964 163.046 220.216 166.403C219.986 167.433 218.819 168.244 220.197 168.856C220.668 169.063 222.328 169.137 222.805 168.993C223.08 168.911 224.417 167.451 224.499 167.14C224.791 166.003 223.902 163.543 223.687 162.265C223.502 161.157 223.087 159.012 223.068 157.997C223.035 155.859 227.018 155.063 228.374 156.322L228.818 155.437L228.815 155.433ZM152.87 156.174C152.718 156.055 152.229 156.745 152.14 156.874C148.95 161.498 146.679 166.955 143.067 171.408L139.428 178.625C140.736 177.729 142.674 177.525 144 176.765C144.597 176.421 145.638 175.224 146.238 174.724C148.339 172.968 153.259 169.122 153.87 166.399C153.988 165.877 153.844 165.343 153.918 164.821C154.018 164.117 154.929 162.046 155.278 161.305C155.415 161.012 155.982 160.368 155.982 160.086C155.637 159.916 155.23 159.786 154.911 159.568C154.566 159.334 153.273 157.734 153.103 157.348C152.995 157.104 152.984 156.255 152.877 156.17L152.87 156.174ZM253.933 169.467C253.581 168.355 253.844 166.892 253.448 165.595C252.885 163.747 249.899 160.931 247.95 160.89C246.987 160.868 246.95 161.416 245.909 160.753C245.786 160.675 245.812 160.475 245.798 160.468C245.472 160.272 243.608 162.465 243.052 162.806C242.66 163.043 242.208 162.82 242.041 163.428C241.9 163.943 242.256 164.18 242.259 164.669C242.267 166.096 242.152 165.932 242.552 167.403C242.719 168.018 242.697 168.622 243.141 169.252C243.378 169.585 244.997 170.886 245.383 170.997C246.072 171.193 247.602 170.819 248.346 170.615C248.991 170.438 249.543 170.089 250.084 169.915C250.214 169.874 250.432 169.782 250.529 169.767C250.747 169.734 251.029 169.778 251.266 169.767C251.462 169.756 251.662 169.767 251.859 169.767C252.007 169.767 252.155 169.76 252.303 169.767C252.4 169.771 252.503 169.756 252.6 169.767C252.629 169.767 252.7 169.923 252.803 169.897L252.896 169.767C253.196 169.86 253.463 169.919 253.781 169.915C253.881 169.915 253.978 169.915 254.074 169.915C254.182 169.663 253.956 169.556 253.926 169.474L253.933 169.467ZM146.516 162.965C146.623 162.757 146.423 162.572 146.371 162.672C146.264 162.88 146.464 163.065 146.516 162.965ZM136.32 179.807C136.146 179.481 135.761 179.34 135.631 179.166C134.79 178.04 132.434 174.05 132.334 172.79C132.286 172.171 132.345 171.015 133.138 171.393C134.275 173.657 135.309 176.013 136.857 178.014L137.354 178.181C137.409 177.632 138.725 176.147 138.695 175.754C138.687 175.669 138.376 175.598 138.261 175.435C137.48 174.339 136.709 171.931 136.176 171.312C135.913 171.008 134.542 169.493 134.331 169.319C133.942 168.996 132.597 168.281 132.111 168.274C131.378 168.263 131.511 168.504 131.189 168.726C130.685 169.078 130.396 169.493 130.107 169.682C128.696 170.612 127.625 168.552 127.017 168.8C125.587 169.378 126.98 170.419 126.058 171.253C125.057 172.157 124.754 171.931 123.709 172.305C123.52 172.371 123.501 172.616 123.412 172.668C123.227 172.772 122.675 172.938 122.612 173.049C122.579 173.112 122.268 174.35 122.268 174.42C122.279 174.983 123.161 175.806 122.038 176.391C120.997 176.932 120.393 175.387 120.356 174.557C120.319 173.646 121.015 172.646 120.952 171.686C120.426 171.727 119.93 171.564 119.408 171.53C117.155 171.393 115.569 171.564 113.213 171.223C110.201 170.786 105.581 170.586 103.125 169.2C102.803 169.019 102.214 169.07 101.932 168.837C101.862 168.778 100.846 167.474 100.798 167.388C100.632 167.099 100.55 166.814 100.591 166.481C100.669 165.858 101.198 165.721 101.302 165.188C100.943 165.195 100.791 164.799 100.554 164.677C99.2533 164.021 95.8042 162.661 94.4297 162.817C93.9962 162.865 93.6516 163.161 93.1885 163.128C93.0663 165.569 92.1549 168.744 92.7699 171.13C93.1219 172.49 94.5297 173.346 95.7967 173.716C101.191 175.291 106.77 176.469 112.128 178.069C114.828 178.877 117.966 180.296 120.882 179.959C121.371 179.903 121.749 179.544 122.283 179.659C121.96 179.162 121.056 178.588 121.901 178.17C122.746 177.751 123.124 178.829 123.59 179.459C123.716 179.629 123.713 179.914 123.846 180.092C123.998 180.3 125.22 181.289 125.461 181.278C125.654 181.27 126.406 180.826 126.432 180.626C126.684 178.562 125.687 177.788 125.165 176.113C124.983 175.535 124.502 173.083 124.935 172.779C125.465 172.408 125.672 172.994 125.791 173.42C126.161 174.717 126.002 175.421 126.743 176.751C127.658 178.396 127.71 177.795 127.766 179.863C127.803 181.252 130.222 182.423 130.403 180.448C130.481 179.622 129.933 179.155 129.718 178.499C129.403 177.54 128.647 175.18 128.829 174.294C128.87 174.087 128.873 173.839 129.159 173.887C130.326 174.087 130.496 176.224 130.944 177.125L133.96 182.752C134.219 182.941 135.579 181.285 135.731 180.981C135.779 180.881 135.827 180.856 135.879 180.685C136.476 180.5 136.724 180.544 136.324 179.8L136.32 179.807ZM91.6992 163.558C89.4949 164.432 86.468 164.636 84.0747 165.017C81.8888 165.366 79.6956 165.684 77.5172 166.07C77.3653 166.247 78.4397 167.955 78.636 168.274C79.64 169.874 80.8219 171.038 81.7999 172.716C82.8521 174.52 82.8447 174.783 84.46 176.262C84.9268 176.691 85.4566 177.143 86.0086 177.595C87.9463 179.181 89.8246 180.922 92.2883 181.656C92.8551 181.826 93.559 181.785 94.137 182.026C94.3963 181.73 93.9332 181.408 93.8406 181.141C93.5294 180.259 93.1663 178.277 93.333 177.377C93.4294 176.862 94.1147 175.906 94.7186 175.965C95.8894 176.084 95.2521 177.562 95.2744 178.255C95.3225 179.622 95.8745 180.611 95.1447 181.989C95.0224 182.219 94.7742 182.089 94.8039 182.315C97.1268 182.852 99.9906 183.034 101.899 184.605C103.014 185.524 103.395 186.565 104.055 187.761C104.922 187.239 106.037 187.758 106.774 187.569C107.619 187.357 107.56 186.672 108.023 186.15C109.101 184.931 112.35 184.138 113.617 185.261C113.773 185.398 113.732 185.642 113.861 185.783C114.039 185.979 114.828 186.883 114.94 186.939C115.814 187.387 117.14 186.776 117.703 186.968C118.726 187.32 120.634 189.34 119.63 190.44L121.845 190.736C121.864 190.162 122.416 188.91 122.886 188.599C123.687 188.069 124.565 188.439 125.465 188.369C126.721 188.269 127.977 187.924 129.177 187.798C129.692 187.743 131.47 187.913 131.674 187.635C131.796 187.469 131.985 186.509 132.134 186.176C132.308 185.783 132.915 184.927 132.915 184.605C132.915 184.453 131.708 181.974 131.596 181.874C131.322 181.622 131.204 182.3 131.078 182.456C129.966 183.808 128.388 182.838 127.536 181.726C127.217 182.975 125.624 183.152 124.613 182.726C124.335 182.608 123.387 181.189 123.257 181.167C120.615 182.497 117.529 181.974 114.784 181.178C111.898 180.341 109.049 179.359 106.148 178.584C102.176 177.525 98.1567 176.732 94.1815 175.628C93.7443 175.506 92.418 175.009 92.0993 174.757C90.8953 173.813 90.6063 172.308 90.5211 170.871C90.3729 168.392 90.8212 166.11 91.7103 163.847L92.1549 163.406C91.9141 163.317 91.8326 163.502 91.7103 163.55L91.6992 163.558ZM182.716 170.056C182.515 169.478 182.282 165.851 181.897 165.773C179.296 167.614 178.366 164.817 176.462 163.969C175.206 163.41 173.554 163.461 172.442 164.295C171.786 164.784 171.116 165.484 171.334 166.362C172.961 165.706 177.662 166.27 177.388 168.637C177.192 170.334 175.854 169.015 175.061 168.763C174.372 168.544 172.679 168.459 172.049 168.744C170.708 169.356 170.582 169.382 169.486 170.349C168.293 171.397 168.078 170.975 167.118 172.709C166.922 173.061 165.677 175.572 165.718 175.732C165.847 176.232 166.637 175.521 167.037 175.435C168.356 175.157 168.482 176.039 168.522 177.143C168.911 177.195 169.186 177.006 169.256 176.621L169.563 172.942C169.845 171.723 170.927 169.7 172.249 169.411C173.146 169.215 173.605 170.178 173.25 170.941C173.672 170.904 173.82 170.493 174.28 170.408C174.613 170.345 174.858 170.519 175.084 170.486C175.795 170.382 176.566 170.115 177.318 170.06C179.122 169.926 180.941 170.426 182.708 170.056H182.716ZM249.35 172.127C247.646 172.234 245.905 173.172 244.219 172.605C243.423 172.338 241.581 170.526 241.181 169.763C240.848 169.126 240.848 168.007 240.192 167.548L239.748 172.646C239.885 172.916 239.825 173.805 239.981 173.92C240.103 174.009 242.53 174.917 242.845 175.013C243.786 175.295 245.246 175.365 246.135 175.713C246.59 175.891 248.235 177.314 248.369 177.288C249.099 176.791 250.721 174.287 250.506 173.561C250.291 172.835 248.817 173.383 249.347 172.127H249.35ZM173.105 171.686C171.768 171.838 171.594 172.99 171.479 174.124C171.449 174.413 171.634 174.68 171.601 174.969C171.534 175.565 171.168 177.766 170.953 178.166C170.693 178.651 170.29 178.851 169.912 179.118C169.823 179.181 169.793 179.366 169.701 179.418C169.608 179.47 168.485 179.922 168.419 179.929C167.993 179.992 166.614 178.644 166.903 178.029C166.514 177.91 166.666 178.236 166.5 178.318C165.696 178.707 165.736 178.199 165.318 178.062C165.095 177.988 164.832 178.055 164.543 177.947C163.61 177.599 163.502 175.995 163.658 175.154C163.765 174.561 164.684 173.998 164.684 173.301C164.262 174.016 162.202 173.679 162.061 174.424C162.024 174.62 162.246 175.465 162.298 175.761C162.928 179.318 164.225 182.856 165.473 186.328C165.566 186.587 165.792 187.15 165.91 187.369C166.099 187.713 166.596 188.128 166.611 188.18C166.666 188.399 166.551 189.051 166.611 189.11C166.722 189.225 169.345 189.114 169.793 189.117C175.247 189.132 180.741 189.473 186.191 189.258C187.621 189.202 189.047 189.147 190.477 189.11C191.292 188.487 192.33 187.172 192.793 186.257C193.045 185.761 193.108 185.146 193.382 184.627C193.726 183.971 194.319 183.638 194.664 183.104C195.786 181.356 197.52 176.777 197.476 174.72C197.468 174.387 197.257 173.301 197.042 173.083C196.827 172.864 195.493 172.275 195.13 172.186C192.333 171.49 190.103 172.131 187.365 172.264C184.816 172.39 182.227 172.29 179.678 172.412C178.185 172.483 175.88 172.998 174.513 172.857C173.765 172.779 173.246 172.442 173.105 171.682V171.686ZM23.8825 173.605C23.8454 173.561 22.9452 173.061 22.8896 173.046C22.3524 172.905 21.4188 172.953 20.7482 172.823C20.1443 172.705 18.3104 172.131 17.8992 172.138C17.6399 172.142 16.9063 172.583 16.5766 172.72C16.1987 172.879 15.2651 172.946 16.3172 173.257C17.3694 173.568 21.2187 174.261 22.1671 174.172C22.5673 174.135 23.2527 173.987 23.6639 173.894C23.8454 173.853 24.1122 173.861 23.8825 173.605ZM235.161 178.633C235.087 178.555 233.905 178.51 233.653 178.44C231.552 177.873 230.504 176.539 228.566 175.695C228.114 175.498 227.574 175.017 227.129 175.076C226.566 175.15 226.106 175.98 225.754 176.084C225.295 176.221 224.55 176.065 224.021 176.121C223.669 176.158 222.868 176.236 222.572 176.287C221.961 176.391 219.905 177.002 219.497 177.362C219.304 177.532 219.215 177.825 219.06 177.958C218.586 178.37 217.633 179.111 217.03 179.192C216.537 179.259 214.318 177.729 213.814 177.74C213.34 177.751 212.525 178.992 212.176 179.199C212.087 179.251 210.479 179.9 210.387 179.922C208.983 180.215 208.06 179.307 206.489 179.726C205.923 179.877 205.678 181.6 206.145 181.711C210.198 181.119 214.31 181.319 218.404 181.144C221.99 180.989 225.58 180.626 229.178 180.541C231.089 180.496 233.009 180.581 234.92 180.552C235.268 180.47 235.161 178.951 235.157 178.633H235.161ZM141.492 180.103C142.137 179.759 143.015 179.559 143.708 179.288C144.111 179.133 144.749 178.925 145.038 178.629C143.952 178.777 142.707 179.207 141.674 179.618C141.429 179.714 141.507 179.948 141.492 179.959C141.155 180.181 139.732 180.444 139.121 180.767C137.365 181.685 134.612 184.853 133.782 186.657C133.642 186.965 133.33 187.643 133.653 187.872C134.26 188.302 134.038 187.476 134.182 187.057C134.727 185.49 139.958 180.926 141.488 180.107L141.492 180.103ZM149.176 180.841C149.05 179.926 147.905 180.033 147.183 180.103C144.197 180.392 139.951 183.449 137.772 185.431C137.539 185.642 136.265 187.002 136.472 187.191C137.865 187.224 139.221 186.78 140.61 186.679C142.222 184.423 143.796 182.482 146.475 181.467C147.275 181.163 148.331 180.859 149.176 180.841ZM150.195 182.63C149.887 182.363 148.739 182.945 148.353 183.049C147.798 183.201 147.912 183.015 147.279 183.334C145.727 184.123 144.363 184.79 143.559 186.45C145.515 186.646 147.342 185.746 149.272 185.62C149.794 185.587 150.913 186.094 150.887 185.268C150.876 184.92 150.361 182.771 150.195 182.626V182.63ZM233.097 183.056C226.388 183.045 219.604 183.623 212.928 183.764C210.639 183.812 208.427 183.942 206.13 184.086C204.504 184.19 202.814 184.127 201.184 184.234C201.132 185.19 202.562 185.001 203.211 185.235C204.87 185.827 204.352 187.532 204.974 188.825C205.819 188.762 206.782 188.562 207.612 188.521C213.762 188.217 219.934 188.591 226.084 188.38C227.7 188.324 230.426 188.354 231.916 188.076C232.064 188.069 232.212 188.084 232.36 188.076C232.638 188.058 232.92 187.928 232.953 187.928C233.149 187.928 233.346 187.928 233.546 187.928C233.62 187.928 233.946 188.072 234.283 188.076C237.054 188.11 239.836 188.072 242.608 188.054C242.893 187.965 242.771 186.705 242.886 186.265C243.163 185.22 244.69 183.73 245.657 183.201C245.698 182.96 245.457 183.064 245.29 183.056C242.645 182.923 238.903 182.993 236.35 183.204C236.254 183.212 236.15 183.212 236.054 183.204C236.013 183.06 235.883 183.067 235.757 183.056C235.057 183.004 234.257 183.056 233.542 183.056C233.394 183.056 233.246 183.056 233.097 183.056ZM54.5399 203.736C55.3142 203.814 56.1922 203.681 56.9777 203.736C56.822 202.699 57.1258 201.536 57.1295 200.569C57.1332 199.346 56.9554 198.131 56.9702 196.86C56.9888 195.101 57.3592 193.159 57.137 191.392C57.0925 191.029 56.4812 191.244 57.1258 190.94C57.1851 188.965 57.0258 186.776 57.7075 184.912C56.6405 184.131 55.2549 184.501 54.0916 184.534C53.4025 184.557 52.7356 183.927 52.4578 185.116C52.0317 186.931 52.0021 190.199 51.9465 192.137C51.8613 195.067 52.1799 198.287 51.9576 201.158C51.8761 202.236 51.1092 202.558 52.4392 203.173C52.8986 203.385 54.0434 203.685 54.5362 203.736H54.5399ZM97.9048 185.42C97.9196 185.505 97.8529 185.616 97.9307 185.694C98.0122 185.776 98.9977 186.213 99.2274 186.387C100.061 187.024 100.461 188.858 100.124 189.851C100.194 189.94 101.869 188.876 102.191 188.962C102.38 188.747 100.921 186.857 100.639 186.602C99.9721 185.998 98.7643 185.664 97.9048 185.42C97.8678 185.198 97.8122 184.875 97.4602 185.127C97.4898 185.375 97.7233 185.372 97.9048 185.42ZM114.539 188.443C113.747 187.898 113.48 187.569 112.895 186.909C112.309 186.25 110.435 186.394 109.797 186.894C109.308 187.28 108.619 188.621 108.289 188.784C108.097 188.88 106.937 189.206 106.685 189.247C106.137 189.332 104.922 189.18 104.514 189.288C104.385 189.321 103.358 190.225 102.969 190.407C102.58 190.588 101.969 190.529 101.75 190.881C103.18 190.903 104.666 190.929 106.115 190.888C108.967 190.81 111.824 190.407 114.676 190.373C115.703 190.362 117.44 190.655 118.329 190.555C118.459 190.54 118.593 190.429 118.741 190.436C118.641 189.543 117.589 188.765 116.748 188.662C115.907 188.558 115.217 188.902 114.539 188.436V188.443ZM155.048 187.387C154.085 186.809 147.479 187.806 145.997 187.928C144.119 188.08 142.114 187.898 140.251 188.091C138.854 188.235 137.309 188.743 135.942 188.951C133.197 189.369 129.844 189.217 126.891 189.469C126.287 189.521 123.59 189.462 123.398 189.699C123.342 189.766 122.99 190.696 123.031 190.733C123.572 190.87 124.268 190.595 124.731 190.614C128.621 190.751 131.863 190.844 135.809 190.584C142.218 190.166 148.75 189.825 155.166 189.258C155.863 189.195 156.604 189.299 157.304 189.258C157.363 189.206 156.967 188.269 156.86 188.154C156.819 188.113 155.926 187.52 155.87 187.506C155.559 187.428 155.355 187.643 155.174 187.639C155.089 187.639 155.1 187.413 155.052 187.387H155.048ZM71.1634 190.369C71.03 190.988 71.2597 191.988 71.1634 192.659C71.9599 192.659 72.8121 192.396 73.5938 192.359C79.2214 192.066 84.7675 191.796 90.2988 191.333L97.6751 191.04C97.9456 190.951 97.3898 190.177 97.2787 190.103C96.7785 189.769 95.3596 189.699 94.726 189.336C91.6473 189.821 88.3723 191.703 85.238 190.477C83.5857 189.829 81.4294 187.869 79.6215 188.939C78.7397 189.462 79.1695 190.358 77.658 190.673C77.1726 190.773 75.2646 190.584 74.8163 190.436C74.6904 190.395 74.683 190.206 74.5829 190.169C73.7864 189.862 71.4635 188.939 71.156 190.377L71.1634 190.369Z" fill="#0067FF"/>
<path d="M201.777 150.117C201.847 150.313 202.059 150.509 202.073 150.561C202.136 150.776 202.314 151.617 202.37 151.891C202.466 152.377 202.677 153.725 202.659 154.159C202.64 154.592 202.136 156.155 201.677 156.293C200.147 156.745 200.595 155.822 200.595 154.992C201.455 154.818 201.118 153.644 201.003 153.025C200.962 152.799 200.747 152.654 200.74 152.629C200.729 152.58 200.751 152.528 200.74 152.48C200.125 149.698 198.306 147.031 198.369 144.433C198.372 144.2 198.498 143.993 198.528 143.767C198.924 143.7 199.139 143.926 199.291 144.256C199.98 146.264 201.069 148.12 201.773 150.117H201.777Z" fill="#0067FF"/>
<path d="M237.236 143.763V143.911C237.21 144.092 237.273 144.337 237.236 144.5C237.165 144.811 236.739 145.608 236.499 145.83C236.465 145.859 235.828 146.241 235.761 146.274C235.298 146.486 234.935 146.656 234.431 146.423C234.361 146.204 233.161 145.611 233.398 144.604C233.424 144.492 233.635 144.5 233.646 144.474C233.687 144.355 233.505 144.203 233.676 143.981C233.713 143.929 234.661 143.296 234.739 143.259C236.143 142.644 236.799 143.8 237.24 143.766L237.236 143.763Z" fill="#0067FF"/>
<path d="M245.216 142.581C245.438 142.567 245.92 142.541 246.101 142.581C246.153 142.593 246.968 143.048 247.002 143.089C247.139 143.252 247.131 143.419 247.135 143.615C247.135 143.663 247.142 143.715 247.135 143.763C247.135 143.782 247.024 143.949 246.987 144.06C246.464 145.742 245.19 146.194 243.589 145.538C243.356 145.442 243.482 145.23 243.441 145.093C243.304 144.604 243.349 144.682 243.441 144.208C243.545 143.671 243.46 143.645 243.886 143.174C243.941 143.111 244.301 142.744 244.33 142.73C244.43 142.678 245.049 142.593 245.216 142.581Z" fill="#0067FF"/>
<path d="M120.619 116.758C120.871 116.703 121.041 116.736 121.282 116.766C124.539 117.159 124.472 121.519 122.875 123.598C121.619 125.235 119.83 124.939 119.252 122.934C118.87 121.608 119.07 118.237 120.004 117.181C120.182 116.981 120.345 116.814 120.619 116.758ZM121.986 118.503C121.953 118.477 121.167 118.652 121.134 118.681C120.96 118.833 120.675 120.378 120.812 120.571C121.323 120.115 121.753 120.23 122.286 120.571C122.416 120.389 122.16 118.629 121.986 118.503Z" fill="#0067FF"/>
<path d="M115.54 122.986C115.14 123.397 114.688 123.916 113.995 123.897C111.135 123.819 112.25 117.377 113.817 116.91C114.595 116.68 115.796 116.773 116.288 117.48C117.155 118.733 116.811 121.419 115.996 122.634C115.862 122.834 115.662 122.856 115.536 122.986H115.54ZM114.747 118.21C114.317 117.899 113.61 120.177 113.717 120.278L115.34 120.426C115.273 119.989 115.455 119.281 115.318 118.899C115.232 118.659 114.717 118.592 114.747 118.214V118.21Z" fill="#0067FF"/>
<path d="M119.582 130.218C120.79 131.893 117.177 132.393 116.155 132.4C115.206 132.408 113.265 131.022 113.884 129.97C114.314 129.236 115.032 129.755 115.703 129.736C116.455 129.714 118.211 129.099 118.741 129.362C118.933 129.459 119.03 129.788 119.185 129.959C119.296 130.081 119.515 130.129 119.582 130.222V130.218Z" fill="#0067FF"/>
<path d="M116.84 126.166C115.977 124.124 119.193 124.691 118.718 126.088C118.467 126.825 117.381 126.032 116.84 126.166Z" fill="#0067FF"/>
<path d="M123.761 115.254C122.831 115.336 121.315 115.128 121.397 113.928C122.353 113.776 123.568 114.213 123.761 115.254Z" fill="#0067FF"/>
<path d="M226.451 112.743C228.222 112.272 228.237 113.387 228.893 114.662C229.074 114.703 229.941 113.717 230.738 113.776C231.164 114.147 229.83 115.273 230 115.399C231.204 115.01 231.727 115.54 232.438 116.433C232.705 115.91 232.097 114.988 231.704 114.654C231.545 114.521 231.256 114.547 231.201 114.491C231.101 114.384 231.227 114.006 231.182 113.925C232.757 112.609 233.883 114.458 233.99 115.992C234.064 117.044 233.883 118.633 232.957 119.241C232.794 119.348 232.505 119.341 232.364 119.537C232.312 119.545 232.223 119.526 232.216 119.537C231.182 119.437 230.508 118.381 229.778 117.759C229.652 117.652 229.463 117.655 229.407 117.618C229.293 117.533 229.196 117.189 228.967 117.174C228.941 117.307 229 117.515 228.967 117.618C228.781 118.122 228.503 118.296 228.229 118.652C228.111 118.804 228.04 118.878 228.081 119.096C227.911 119.111 227.814 119.237 227.785 119.245C227.644 119.271 227.522 119.385 227.488 119.393C226.373 119.574 224.784 119.645 224.35 118.318C224.176 117.785 224.136 115.18 224.243 114.599C224.28 114.406 224.688 113.762 224.828 113.632L225.125 113.484C225.195 113.454 225.391 113.517 225.421 113.484C226.666 113.506 225.462 114.588 225.718 115.255L226.488 115.132C226.762 115.036 227.344 115.855 227.488 115.699C227.54 115.644 227.062 114.436 226.94 114.258C226.662 113.858 226.047 113.676 226.014 113.632C225.825 113.387 226.566 113.217 226.455 112.75L226.451 112.743Z" fill="#0067FF"/>
<path d="M180.222 135.916C179.755 135.186 181.196 134.434 181.789 134.342C183.438 134.082 186.276 135.605 187.372 136.816C187.913 137.413 188.999 139.113 188.036 139.703C187.246 140.188 186.62 138.61 186.117 138.072C185.372 137.276 183.879 136.227 182.775 136.094C182.23 136.027 180.53 136.394 180.222 135.916Z" fill="#0067FF"/>
<path d="M234.039 111.502C233.746 111.324 233.683 110.879 233.105 110.746C232.364 110.576 231.519 111.005 231.486 110.146C231.434 108.846 233.868 109.375 234.505 109.935C235.265 110.598 235.324 112.284 234.039 111.502Z" fill="#0067FF"/>
<path d="M228.633 110.111C228.826 110.452 228.785 111.152 228.259 111.23C228.088 111.256 226.232 110.893 226.158 110.815C226.091 110.745 226.158 110.234 226.229 110.082C226.558 109.381 228.348 109.604 228.633 110.111Z" fill="#0067FF"/>
</svg>
