<svg width="292" height="307" viewBox="0 0 292 307" fill="none" xmlns="http://www.w3.org/2000/svg">
<path d="M0 0H292V307H0V0Z" fill="white"/>
<path d="M156.663 58.9717C157.518 59.1559 159.978 59.5611 160.568 59.8705C161.371 60.2904 161.26 60.8576 162.969 61.3733C163.109 61.4175 163.271 61.6385 163.573 61.6753C163.883 62.353 164.693 62.7434 165.039 63.3696C168.583 69.808 169.805 80.9979 168.664 88.2614C168.516 89.2117 167.618 89.9042 167.772 90.9723C167.868 91.6206 168.671 92.0331 169.002 92.7698C169.385 93.6096 169.584 95.0019 169.584 95.9448C169.584 96.5415 169.452 97.4844 169.282 98.0517C168.759 99.7828 166.8 101.035 166.638 101.566C166.35 102.494 166.417 104.254 166.203 105.337C165.938 106.649 164.988 109.411 165.054 110.531C165.113 111.466 166.667 112.682 167.242 113.779C168.87 116.903 168.067 120.741 166.903 123.879C168.015 124.373 169.776 125.249 170.277 126.406C170.461 126.826 170.225 127.29 170.365 127.518C170.468 127.695 170.918 127.695 171.08 128.049C171.706 129.419 171.831 134.133 171.993 135.931C172.155 137.728 172.288 139.54 172.295 141.338C172.583 141.662 177.408 138.229 178.034 137.912C178.616 137.618 179.743 137.61 180.111 137.286C180.458 136.984 180.966 133.065 181.231 132.093C182.005 129.235 183.375 126.605 184.318 123.909C184.796 122.524 185.371 118.693 186.1 118.023C187.264 116.947 195.154 114.332 195.147 113.831C194.535 112.512 193.496 111.429 192.819 110.148C189.798 104.394 189.445 97.6097 189.452 91.2965C189.452 89.9115 188.855 88.4161 189.128 86.9354C188.833 86.6481 184.332 88.092 183.765 86.1251C183.043 83.6499 186.181 84.1803 186.727 82.2797C184.76 82.4713 182.771 81.241 184.715 79.5172C185.202 79.0826 186.226 79.0458 186.424 78.2207C179.249 80.3497 181.968 77.1894 183.721 72.8062C183.522 72.6442 181.003 72.8284 180.502 72.5926C179.389 72.0696 178.793 70.4268 179.905 69.5944C181.283 68.5631 183.198 70.6699 184.259 70.0438C184.384 69.9701 185.835 67.7601 185.887 67.6201C187.169 64.4746 183.515 65.0124 183.382 63.0381C183.272 61.3438 184.185 61.4543 184.929 60.6366C185.172 60.364 185.128 59.8484 185.29 59.6642C186.078 58.7581 187.883 59.2738 188.62 59.1706C189.732 59.0233 190.638 58.7655 191.824 58.6771H192.723C194.557 58.8097 194.049 58.7581 195.729 58.375C199.095 57.6089 202.572 57.0785 205.858 56.0325C207.405 55.5389 209.018 54.3234 210.948 54.1834C212.421 54.0803 213.548 54.9569 214.852 55.0453C217.556 55.2369 217.858 55.1485 220.466 56.6144C223.368 58.2498 226.838 61.0565 226.374 64.6735C228.856 63.5832 234.587 65.2407 236.495 66.8761C236.923 67.2444 237.284 68.2168 237.821 68.703C239.074 69.8154 241.6 71.0972 241.939 72.7252C242.131 73.6608 241.593 73.7565 242.345 74.9941C243.685 77.2041 246.956 79.7014 247.634 81.7272C248.466 84.2245 247.531 84.0919 247.177 85.9409C246.728 88.2614 247.391 94.0369 243.95 93.8674C242.809 93.8085 242.381 92.3646 241.1 92.4825C243.273 94.4346 243.98 96.9614 242.521 99.6208C240.879 102.626 239.553 102.302 237.402 103.739C236.591 104.276 236.834 105.602 234.786 104.652C233.91 106.501 234.064 108.579 232.982 110.361C234.727 109.89 236.127 110.045 237.851 110.457C239.044 110.737 246.271 113.765 247 114.376C247.575 114.862 248.319 116.203 248.938 116.8C249.461 117.308 250.286 117.573 250.875 118.17C255.273 122.59 256.407 130.413 258.08 136.211C261.129 146.833 263.546 155.732 263.31 166.989C262.514 169.64 263.251 173.729 262.293 176.197C262.058 176.801 259.472 179.563 258.824 180.256C258.006 181.11 255.855 182.215 256.179 183.482C256.312 184.005 257.586 185.523 257.984 186.208C258.22 186.613 258.426 187.762 258.581 187.866C258.772 187.991 261.247 188.256 261.689 188.234C263.222 188.168 264.01 187.357 265.822 187.681C266.942 187.88 267.509 188.757 268.157 188.963C268.85 189.184 269.851 188.75 271.06 189.354C271.973 189.81 272.275 190.805 272.4 190.886C272.688 191.055 273.196 190.65 273.564 190.775C274.662 191.166 273.373 192.197 273.1 193.022C269.689 203.372 267.804 214.26 264.452 224.647C263.966 226.15 263.199 228.433 261.932 229.34C256.783 233.023 249.652 235.594 244.311 239.064C241.77 240.714 239.28 243.204 236.606 244.581C234.61 245.605 227.236 249.369 225.593 249.502C225.166 249.539 224.414 249.141 224.289 249.229C224.149 249.325 223.773 251.366 222.867 251.587C221.475 251.926 219.744 250.121 218.631 249.613C213.047 247.078 205.887 245.664 200.031 242.666C199.493 242.393 197.946 241.045 197.688 241.111L197.202 241.833C195.824 245.944 194.97 250.74 193.607 254.769C192.937 256.751 191.434 256.847 190.027 257.804C184.428 261.598 179.087 265.952 173.798 269.827C172.686 270.644 168.597 273.687 167.61 273.856C165.857 274.165 162.269 273.466 160.568 272.825C158.483 272.044 157.29 271.514 155.087 270.792C152.361 269.908 150.107 267.315 147.742 265.804C142.836 262.674 136.994 260.08 132.633 256.574C130.969 255.241 129.333 254.504 127.646 253.126C127.374 252.898 126.887 252.92 126.689 252.751C125.841 252.014 125.775 249.473 126.328 248.515C126.431 248.338 128.987 246.025 129.318 245.797C130.718 244.817 133.171 244.021 134.77 243.196C135.168 242.99 135.72 242.121 136.435 241.789C140.803 239.793 143.735 239.461 148.037 236.559C149.164 235.8 150.159 234.857 151.389 234.224C151.374 232.971 151.404 231.41 151.58 230.179C152.383 224.492 153.525 218.901 154.527 213.288C154.777 211.903 154.976 205.008 157.68 205.671C158.94 205.98 157.407 210.113 157.267 210.923C156.317 216.581 155.47 222.246 154.461 227.947C154.196 229.45 153.341 230.695 153.952 232.095L156.273 228.257C156.663 227.343 157.857 223.026 157.849 222.327C157.842 221.627 156.708 221.244 157.076 220.065C157.503 218.702 159.426 218.032 160.722 217.966C162.844 217.848 167.875 220.765 170.188 221.715C171.956 222.437 173.99 222.857 175.581 223.535C179.831 225.34 184.008 227.468 188.2 229.391C188.229 227.778 189.511 227.328 190.704 226.629C195.485 223.844 201.364 221.472 206.432 218.923C210.889 216.676 215.508 214.57 219.729 211.785C222.3 210.091 225.298 207.866 227.714 205.943C229.232 204.728 230.05 202.893 232.26 202.665C234.47 202.437 236.031 204.698 237.895 205.626C239.236 204.728 240.54 203.52 241.903 202.702C246.013 200.227 250.3 198.974 254.522 196.993C257.461 195.608 259.781 193.442 262.448 191.696C263.546 190.974 264.835 190.856 265.734 190.031C264.245 189.884 262.75 190.768 261.328 190.82C259.391 190.886 257.232 189.766 255.656 189.715C254.08 189.663 251.553 191.225 250.853 188.529C249.844 189.877 246.079 193.037 244.525 193.324C241.129 193.95 238.455 191.88 235.604 192.219C233.674 192.448 231.633 193.575 229.681 194.039C228.871 194.23 227.641 194.061 226.875 194.304C226.234 194.503 223.957 197.199 222.97 197.914C218.381 201.236 217.106 198.893 212.348 198.179C208.465 197.597 204.421 197.67 200.436 196.868C199.102 196.602 197.327 195.704 195.832 195.46C193.519 195.085 189.725 195.681 188.185 193.715C187.795 193.214 186.808 190.473 186.668 190.355C186.218 189.965 185.312 190.812 184.87 190.79C183.117 190.702 179.087 187.556 177.673 186.274C176.487 185.199 175.728 183.976 174.675 182.812C174.933 185.243 172.251 185.714 170.66 186.768C167.212 189.052 165.791 189.854 162.962 192.89C162.365 193.53 160.921 194.12 160.877 194.96C160.84 195.645 161.378 196.868 161.385 197.685C161.422 200.168 159.72 203.026 157.842 204.588C157.54 204.838 154.527 206.768 154.321 206.812C153.312 206.997 152.155 206.076 150.777 206.238C149.857 206.341 149.503 207.056 148.744 207.07C146.851 207.114 143.271 205.604 146.122 203.858C145.65 203.925 145.142 203.181 144.788 203.262C144.486 203.328 142.321 206.547 141.783 206.886C141.142 207.291 140.427 207.033 140.147 207.21C140.015 207.291 139.234 209.413 138.004 209.273C138.158 209.671 139.58 209.789 139.993 209.833C141.252 209.965 142.888 210.105 144.147 210.157C145.672 210.223 151.529 209.789 152.273 210.474C153.017 211.159 152.442 212.507 151.683 212.603C149.046 212.927 145.967 212.227 143.315 212.463C139.241 211.07 135.226 211.564 131.013 210.702C129.65 210.422 126.689 209.766 125.473 209.332C123.27 208.551 123.889 207.387 126.129 207.439C127.587 207.475 132.376 209.155 132.891 208.831C133.134 208.676 134.534 205.803 134.394 205.663C133.12 205.28 126.585 205.214 126.114 204.47C125.598 203.652 126.696 202.879 127.396 202.724C128.707 202.437 132.81 202.695 134.18 203.019C134.711 203.144 135.374 203.836 135.447 203.836C135.624 203.836 136.715 202.253 137.09 201.899C137.466 201.545 139.978 199.836 139.499 199.357C137.606 199.652 135.3 199.844 133.392 199.844C130.387 199.844 127.366 199.858 124.324 199.416L120.014 199.704C119.624 199.961 117.804 207.49 117.407 208.669C115.484 214.341 112.707 220.603 109.208 225.413L104.95 232.419L111.403 232.124C115.756 233.627 119.558 233.399 124.066 234.194C129.517 235.152 134.622 236.824 140.258 236.957C141.068 236.979 141.709 236.515 142.586 236.691C144.449 237.052 143.455 238.378 142.321 239.005C137.775 241.502 126.593 237.664 121.539 236.728C116.78 235.852 110.423 235.005 105.679 235.137C104.331 235.174 101.951 235.94 101.06 235.284C98.4302 233.354 103.565 228.817 104.78 227.004C109.163 220.448 112.545 212.912 115.005 205.369C115.683 203.284 116.589 197.641 117.966 196.462C119.506 195.151 121.804 196.374 123.469 196.573C123.992 196.632 124.707 196.293 125.503 196.381C126.453 196.484 127.064 197.199 127.934 197.287C129.112 197.413 131.462 197.221 133.031 197.28C135.565 197.376 138.092 197.096 140.575 197.766C140.899 197.715 143.588 193.354 144.066 192.661C144.545 191.969 147.271 189.118 146.711 188.551C144.044 188.705 144.958 189.685 144.28 191.372C143.956 192.175 143.426 192.669 142.652 193.03C140.619 191.313 142.254 190.547 142.46 189.228C142.667 187.91 141.621 188.529 141.002 188.403C138.608 187.91 136.287 187.328 133.937 186.746C133.635 186.672 133.223 186.761 133.657 187.033C135.285 188.028 134.505 189.14 132.737 189.147C128.957 189.162 124.582 188.389 120.744 188.219C117.237 188.064 112.559 187.637 109.274 187.659C108.449 187.659 107.882 188.182 107.211 188.19C106.541 188.197 105.767 187.645 105.134 187.711C104.574 187.77 102.703 189.501 102.04 189.98C101.443 190.407 100.375 190.621 99.933 191.026C98.0398 192.742 98.7543 193.111 95.6382 194.54C95.0563 194.805 93.2367 195.807 92.8168 195.704C92.4264 195.608 92.2201 194.731 91.7266 194.4C90.1427 193.354 84.824 192.58 84.2863 190.12C84.1463 189.486 84.3673 188.293 84.1758 187.976C84.0432 187.755 82.4004 187.549 82.1647 186.827C81.8774 185.972 82.4152 185.28 82.4225 184.624C81.2807 185.464 79.1444 184.926 77.7816 184.609C77.3911 184.521 76.9123 184.381 77.0154 183.88C77.3027 182.503 80.8461 183.807 81.9216 183.409C82.2163 183.482 82.4225 184.359 82.4225 184.624C83.3139 183.969 83.3655 183.033 84.0653 182.208C85.045 181.059 86.7246 180.624 87.5276 179.21C87.8296 179.18 89.3029 178.525 89.0304 178.311C88.2569 178.156 87.535 178.753 86.9235 178.908C82.2826 180.131 77.2438 180.16 72.4187 181.081C71.6378 181.228 70.4149 182.171 69.7888 181.766C68.949 181.213 70.356 180.3 70.7833 180.05C73.45 178.48 80.6914 178.458 84.0358 177.98C85.2881 177.795 89.7744 176.455 90.5332 176.963C90.7542 177.11 90.7468 177.7 90.9973 177.722C92.257 177.854 96.5664 175.571 97.2589 174.377C97.6125 173.773 97.6346 172.97 97.9735 172.381C100.235 168.454 103.292 164.852 105.296 160.771C105.635 160.079 106.696 158.193 105.826 157.574C105.185 157.117 102.533 158.561 101.841 158.826C93.8776 161.847 85.7449 162.981 77.5974 165.839C76.8018 166.119 76.0578 166.65 75.2769 166.974C73.2732 169.692 72.345 172.948 70.8348 175.909C69.03 179.445 67.2105 183.136 65.3172 186.628C63.564 189.877 60.5437 193.192 58.9451 196.19C58.7536 196.551 58.5326 196.757 58.6504 197.251C60.3227 197.383 61.8476 196.595 63.4387 196.182C67.4315 195.151 71.2547 194.665 75.2548 193.877C76.8165 193.567 84.382 191.46 85.2587 192.72C85.9953 193.774 84.6914 194.274 83.8516 194.665C81.207 195.873 80.4851 194.967 78.4077 195.203C77.0965 195.35 74.3708 196.654 72.8459 196.882C69.7004 197.361 68.9269 197.162 65.634 198.083C64.6542 198.356 63.2988 198.194 62.2527 198.761C62.2012 199.247 62.9157 199.122 63.1809 199.475C63.8218 200.352 63.0041 201.015 64.6542 202.061C64.6911 202.083 64.6837 202.356 64.8016 202.356C64.9121 202.282 64.8973 202.105 64.9489 202.061C65.8845 204.381 68.2491 205.17 69.8993 206.577C71.1148 207.615 72.1019 208.868 73.3616 209.877C74.3561 210.673 75.6747 211.277 76.6692 211.984C77.4722 212.551 78.0468 213.104 79.0707 213.789C84.5736 217.45 90.1575 221.052 95.6456 224.64C97.0526 225.561 100.301 227.984 99.7415 229.804C98.9385 232.448 86.5036 237.215 83.6601 238.673C81.6711 239.69 79.6895 241.546 77.9731 242.599C76.102 243.749 73.45 243.815 71.4389 244.787C69.0668 245.929 67.0042 249.008 63.8439 249.171C63.6671 249.178 60.7647 248.183 60.6247 248.088C60.3374 247.896 60.4626 247.299 60.1385 247.012C59.8365 246.754 59.1808 246.776 58.8272 246.511C54.9966 243.66 52.293 239.852 48.8307 236.824C42.4218 231.233 35.5487 226.201 28.8893 221.303C28.7641 221.214 28.683 221.074 28.5873 221.001C28.2779 220.772 28.0127 220.153 27.3865 220.102C27.2171 219.66 27.0329 219.527 26.7824 219.203C26.6056 218.967 26.5025 218.695 26.1784 218.599C25.8469 217.627 24.6387 217.671 24.6387 216.043C24.6387 214.827 25.3238 214.341 26.2668 213.73C31.4087 210.385 38.2523 209.133 43.8951 207.321C48.0572 205.98 52.6466 203.512 56.7646 201.855C58.0169 201.354 60.1974 201.7 59.8291 199.667C59.4018 199.232 53.7369 202.385 54.12 198.643C54.3852 196.05 61.4645 190.009 62.238 186.893C60.5437 186.79 58.621 187.328 56.9782 187.365C56.0279 187.387 54.8419 186.805 54.0242 187.077C53.1328 187.379 53.1991 189.781 51.3354 190.414C49.7589 190.945 45.3905 191.851 43.7625 191.873C40.6685 191.91 40.3959 190.157 38.1123 189.383C37.1104 189.044 35.8065 189.169 34.9078 188.676C34.2743 188.33 34.2006 187.659 33.766 187.335C33.0956 186.834 32.0201 186.525 31.3718 185.891C29.788 186.385 25.4712 187.482 24.0789 186.886C22.8192 186.348 22.5908 185.059 23.7769 184.197C24.9629 183.335 26.8856 183.888 28.2779 183.74C27.6738 182.606 26.9592 181.434 26.5541 180.204C24.845 174.996 25.0365 168.41 25.5669 163.003C25.589 162.804 25.5448 162.598 25.5669 162.399C26.5393 153.493 28.3663 144.66 29.4344 135.761C30.0016 131.047 31.0845 123.702 34.7237 120.306C38.7385 116.557 45.1474 115.267 49.6779 112.188C49.9947 111.363 52.1457 110.818 52.2857 110.214C52.3372 109.993 51.2985 107.717 51.4017 107.083C48.816 107.938 44.5655 107.496 42.5323 105.588C41.221 104.357 41.8545 100.608 42.1639 98.8915C42.2818 98.2285 43.0185 96.9025 42.9301 96.4531C42.8417 96.0037 42.0608 95.7312 41.8545 95.1418C41.5525 94.2652 41.4936 92.7182 41.1694 91.6206C39.5414 86.1693 38.0755 79.9077 41.4273 74.7142C42.8417 72.5337 49.3538 67.0456 51.77 66.1247C53.2728 65.5501 55.0113 65.8522 55.9027 65.4544C56.4257 65.2186 57.3686 63.8558 58.0316 63.377C65.6487 57.9109 75.0706 57.1743 83.7927 60.4156C87.8591 61.9257 92.7653 67.3402 96.9642 67.3844C99.2847 67.4065 102.143 65.3733 101.561 69.646C101.281 71.7234 100.611 74.5521 99.7488 76.4896C99.5573 76.9168 98.6659 77.543 98.5923 78.4049C98.5112 79.3552 99.3363 80.8359 98.6807 82.0145C101.325 83.7236 103.705 86.0514 102.71 89.4327C102.511 90.1104 99.8814 94.2136 99.4026 94.6925C98.9238 95.1713 96.8611 95.5691 96.7727 95.6796C96.7432 95.7238 97.0674 96.3426 97.0821 96.7183C97.2221 101.256 96.5296 107.032 94.327 111.113C93.9439 111.82 93.1041 112.77 92.5737 113.411C96.9127 115.054 100.051 118.546 103.329 121.735C103.314 122.664 104.228 124.711 104.257 125.271C104.478 129.441 105.959 131.268 106.615 134.981C106.769 135.857 106.975 139.378 106.386 139.865C106.276 139.96 105.686 139.865 105.473 139.725C104.751 139.224 104.972 136.837 104.758 135.931C104.338 134.155 103.248 132.196 102.688 130.487C102.585 130.185 101.878 125.868 101.288 126.332C101.369 126.973 100.456 128.896 100.117 127.651C99.6383 125.868 101.856 124.439 100.589 122.516C97.4652 119.71 94.8426 116.704 90.9162 114.914C88.9567 116.512 82.5109 118.686 88.8094 119.054C91.0709 119.186 91.8665 118.752 94.3638 119.57C95.2478 119.857 101.126 122.192 99.7783 123.621C99.491 123.931 93.1557 121.183 91.7413 120.999C90.1575 120.785 85.1408 120.409 84.5883 122.096C84.0726 125.603 83.417 129.22 83.5054 132.719C83.2476 134.229 81.1186 134.413 80.0873 133.551L76.7944 129.028C75.3948 129.249 73.9067 133.065 73.0448 134.222C72.7428 134.634 72.1019 134.737 71.8146 135.172C70.8938 136.564 71.6746 144.255 71.8367 146.318C72.0061 148.506 71.6304 150.539 72.507 152.712L85.7596 156.963C86.6878 158.171 86.5478 159.261 86.1132 160.594L93.4725 158.48C93.3399 156.609 92.6769 154.406 92.559 152.609C92.3896 150.016 93.5167 144.933 94.2165 142.244C94.8426 139.835 96.3233 137.684 96.176 134.9C96.1097 133.684 94.6806 129.146 96.6327 128.734C97.723 128.505 97.3326 131.135 97.3841 131.739C98.2976 131.334 99.0048 129.802 99.933 129.632C100.346 129.559 100.508 129.647 100.382 130.082C100.176 130.789 99.3805 131.747 99.0932 132.704C98.7028 133.986 98.6586 135.4 98.2608 136.682C97.3326 139.695 95.5425 142.59 95.8813 145.868C99.0858 143.239 99.1595 144.763 96.9348 147.371C96.5443 147.835 95.0047 148.955 94.9752 149.08C94.7911 149.824 95.2846 158.119 95.5867 158.487C96.5885 157.861 98.2387 157.81 99.1742 157.419C99.8814 157.125 100.677 156.336 101.392 156.034C103.042 155.327 104.802 154.885 106.423 154.104C106.504 150.797 107.079 147.511 107.3 144.211C107.498 141.25 107.307 138.237 107.609 135.202C107.889 132.336 108.508 126.435 109.178 123.85C109.672 121.949 111.624 121.065 112.994 120.152C113.458 119.842 113.76 119.268 114.239 118.988C115.3 118.361 116.92 118.428 117.819 117.463C115.69 117.234 117.046 114.361 117.679 113.109C118.534 111.415 119.882 110.162 121.392 109.05C120.397 108.35 119.285 103.076 119.02 102.884C118.865 102.774 118.541 103.356 118.232 103.407C116.744 103.68 114.261 101.241 113.016 100.475C112.316 101.801 113.046 102.973 112.994 104.181C112.957 105.094 111.889 110.671 111.064 110.685C109.65 109.44 110.6 107.783 110.622 106.346C110.696 102.523 110.843 100.969 111.491 97.2929C111.86 95.2155 111.145 93.2486 113.303 91.5911C114.718 90.5082 115.314 91.5027 115.425 88.8728C115.491 87.3848 115.049 88.0552 114.519 87.4143C113.186 85.8231 113.421 81.0863 113.694 79.0458C114.983 69.1966 119.248 59.5316 128.442 54.7212C133.326 52.165 140.803 52.6364 145.753 54.9496C147.706 55.863 150.475 58.5739 152.531 58.7065C154.409 58.8244 154.461 58.5297 156.597 58.9865L156.663 58.9717ZM153.356 62.574C149.304 62.1909 146.542 58.0067 142.239 57.0122C129.539 54.0656 118.151 67.6717 117.031 79.2962C116.898 80.6517 117.222 81.9703 116.994 83.3184L117.893 82.8691C119.241 81.3957 121.613 76.9463 123.005 75.9592C124.073 75.2004 125.37 75.252 125.053 76.7842C122.519 81.0127 118.048 84.5781 117.289 89.6242C120.604 87.3038 125.024 87.3848 128.957 86.4198C136.575 84.5486 142.203 83.0606 146.682 76.1949C147.521 74.9131 148.877 70.4931 150.52 71.856C151.941 73.0346 150.114 79.1268 149.304 80.6222C148.626 81.8819 145.444 86.1914 144.251 86.6923C143.786 86.8839 142.932 87.1417 142.519 86.766C142.623 86.243 142.821 85.6978 143.123 85.2632C143.234 85.1085 145.65 82.8764 144.184 83.3111C143.455 83.5321 142.239 84.8949 141.392 85.3295C137.127 87.5395 131.44 88.5119 126.821 89.6905C125.002 90.1546 123.182 90.7292 121.333 91.1197C121.075 91.6427 120.943 92.2026 120.884 92.7772C120.53 96.2468 120.758 101.706 121.937 104.947C122.652 106.906 125.024 111.444 126.792 112.409C127.499 112.792 128.272 112.483 128.339 112.527C128.538 112.66 128.722 113.698 129.51 113.919C130.298 114.14 132.155 113.359 133.333 113.367C135.263 113.367 137.26 113.772 138.689 115.164C139.123 115.584 139.028 116.122 139.411 116.402C139.713 116.623 141.039 116.962 141.466 116.991C142.667 117.072 146.667 116.557 148.037 116.343C149.753 116.078 152.825 115.555 153.938 114.133C154.372 113.58 154.358 112.954 154.638 112.579C159.065 106.649 159.544 105.116 161.518 97.978C162.122 95.8048 164.553 91.5175 162.041 89.9336C162.225 89.0496 160.892 85.9851 163.242 87.0828C163.971 87.4216 164.398 88.615 165.047 89.0349C165.341 86.1398 166.196 82.5007 165.872 79.6425C165.422 75.6424 163.846 68.9756 161.128 66.0511C160.708 65.5943 156.479 62.7508 156.118 62.6477C155.315 62.4119 154.196 62.6698 153.326 62.5887L153.356 62.574ZM198.432 61.0712C197.482 61.167 196.767 61.5943 195.883 61.6753C194.432 61.8152 187.581 61.8594 187.014 62.574C188.914 64.7766 189.688 65.97 188.156 68.6736C187.728 69.4323 186.277 70.832 186.174 71.2003C185.946 71.9738 186.24 72.9315 186.049 73.786C185.931 74.3385 184.266 76.3864 184.612 76.7032C185.401 76.4085 189.032 76.2612 189.371 76.0549C189.71 75.8487 189.953 73.5355 191.854 72.681C194.425 71.5245 193.607 73.6608 193.931 73.9923C194.859 74.9352 197.622 71.0972 199.935 74.6037C200.031 74.751 199.751 75.3404 200.539 75.2078C200.502 75.252 200.539 75.8855 200.539 76.1065C200.509 77.5135 200.893 76.8137 201.143 77.0052C201.246 77.0863 201.357 77.2704 201.445 77.3073C202.454 77.6903 201.909 77.4767 202.646 77.3073C204.023 76.9831 203.699 76.8211 204.451 76.4085C208.237 74.3385 206.933 77.7861 209.858 78.6922C210.491 78.8911 212.141 78.0439 212.716 77.6093C213.836 76.7695 214.668 74.9426 216.193 73.8744C219.346 71.6644 219.493 77.8082 219.906 79.4288C220.016 79.8561 220.849 82.4639 220.944 82.5965C221.578 83.4216 224.061 82.4934 225.504 82.847C229.335 83.7825 233.011 91.6059 234.499 95.0387C234.993 95.3997 237.011 92.3131 237.49 91.8711C239.052 90.4272 241.726 89.6463 243.803 90.081C243.56 89.3075 243.133 87.8489 243.206 87.0975C243.287 86.2798 244.135 85.8525 244.105 85.0054C244.017 82.707 242.293 81.3736 241.114 79.8487C239.346 77.5651 235.427 71.9444 232.915 70.913C232.238 70.6331 231.56 70.7731 230.897 70.5226C230.418 70.3458 229.998 69.7049 229.46 69.5576C228.385 69.2703 225.77 69.6091 224.782 70.1469C224.038 70.5447 223.773 71.9075 223.059 71.4508C222.108 70.8394 222.661 68.5778 222.44 68.3126C222.219 68.0474 219.405 68.2389 219.479 66.9277C219.537 65.8153 222.808 67.2224 221.431 64.0621C220.517 61.9626 218.285 59.62 216.075 58.8981C215.449 58.6918 212.37 58.0583 211.869 58.1246C211.368 58.1909 210.749 58.7507 210.167 58.8318C209.357 58.9423 208.745 58.4634 207.729 58.7876C206.867 59.0601 205.799 60.4377 204.524 60.6955C202.616 61.0786 200.259 60.2977 198.432 61.0639V61.0712ZM63.203 64.0768C59.2103 64.9019 58.179 68.3421 56.5878 69.0272C56.0058 69.2776 55.3502 69.1008 54.7756 69.3218C51.4459 70.6036 48.3445 72.5853 45.9577 75.2299C41.4936 80.1655 44.7202 87.9299 45.7736 93.5359C47.9099 92.8877 51.8289 93.1013 51.8068 96.0921C51.7847 98.6778 49.0075 96.9982 48.0425 97.1308C46.0682 97.4034 44.2634 104.048 47.4974 104.608C48.2782 104.741 49.1107 104.232 50.1052 104.365C50.4661 104.409 53.4791 105.485 53.9063 105.691C55.5049 106.457 55.9322 108.203 57.214 109.293C58.4073 110.302 62.3116 112.468 63.7923 112.932C65.8403 113.566 75.299 115.481 77.1701 115.481C79.1886 115.481 84.2936 113.794 86.1869 112.778C86.9898 112.35 90.2385 110.302 90.6731 109.757C90.8941 109.477 91.9991 106.877 92.1391 106.413C93.8408 100.623 93.1925 88.836 90.9825 83.3332C90.5332 82.2208 91.0267 80.9537 89.2514 80.2318C88.2053 79.8045 87.6381 80.8874 86.4815 80.939C84.8388 81.0053 82.2384 79.8414 80.8019 80.0182C79.4685 80.1876 78.4372 81.7199 77.4206 82.3681C75.8883 83.3479 70.3413 83.8414 68.4333 83.6425C66.5254 83.4436 63.4608 81.6388 62.4443 80.0182H62.0023C61.3614 81.6904 59.2913 83.0311 58.8346 84.8212C58.2084 87.2743 59.4092 88.3277 58.179 91.0681C56.9487 93.8085 56.713 94.6483 55.8511 97.4623C55.3207 99.1861 53.2286 105.065 50.7166 102.877C49.5306 101.838 51.4901 99.5765 51.9247 98.3463C52.4477 96.873 52.5509 95.245 53.0518 93.7569C54.0389 90.8176 54.5251 91.0607 54.8051 87.7237C54.8714 86.9575 55.6375 84.195 55.9322 83.4142C56.6099 81.6241 59.9028 77.4546 62.0023 79.4215C62.2969 79.0163 60.9046 76.9168 62.68 76.0402C64.7205 75.0383 64.2638 77.2041 65.0005 78.3091C66.8937 81.1526 73.3984 80.8064 76.1977 79.6425C77.2512 79.2005 78.474 77.543 79.6011 77.3367C81.5238 76.9831 84.5957 77.8008 86.1427 77.5135C86.9456 77.3662 87.6602 76.7032 88.6031 76.7106C90.268 76.7253 94.0102 80.1434 94.8721 79.9813C95.0784 79.9445 95.2404 79.753 95.373 79.5909C95.5867 77.9703 98.4007 73.4398 97.6272 72.2096C96.8537 70.9793 92.3748 70.7362 90.8794 69.9406C90.2606 69.6091 89.7007 68.6515 89.0304 68.1874C86.7394 66.5962 84.6693 65.1229 82.1426 64.1063C81.5533 63.8705 80.8461 63.2812 80.0357 63.2075C79.881 63.1928 79.5127 63.1707 79.4317 63.2075C78.3782 62.6624 77.0817 62.2572 75.9104 62.0952C75.6968 62.0657 75.5495 62.3088 75.5274 62.3014C75.4316 62.2941 75.3285 62.3088 75.2253 62.3014C71.8588 61.9994 69.5015 61.7637 66.1423 62.6845C65.3835 62.8908 63.7776 63.539 63.203 64.1063V64.0768ZM198.13 77.904C197.541 74.3459 195.758 76.4306 193.695 76.6369C193.15 76.6885 192.635 76.3349 192.303 76.3791C191.972 76.4233 192.156 76.9758 192.119 77.0052C190.94 77.8745 189.526 77.5062 189.423 77.6093C189.379 77.6461 189.386 78.3828 189.187 78.7216C188.929 79.171 188.31 79.6425 188.215 79.8635C187.92 80.5633 189.099 80.1434 189.57 80.6001C191.323 82.2871 187.669 84.5486 188.215 85.1159C189.135 84.9906 189.71 83.8709 190.786 83.9298C191.228 83.9519 192.001 84.6444 192.089 85.0275C192.237 85.6389 191.574 85.9557 191.522 86.4787C191.471 87.0017 191.832 87.5321 191.699 88.4382C191.566 89.3443 190.881 89.3075 190.896 89.7495C191.095 96.4457 193.636 107.466 198.13 112.461C198.292 112.638 198.27 113.05 198.646 113.374C199.876 114.42 202.469 115.076 200.436 113.61C199.515 112.947 198.904 112.829 198.432 111.555C198.02 110.442 197.261 106.98 198.705 106.575C200.922 105.956 200.443 107.393 201.217 108.173C202.233 109.197 205.46 109.507 206.845 109.153C208.642 108.696 212.841 104.726 212.495 108.313C212.289 110.428 210.58 114.302 208.348 115.017L205.342 115.761C209.106 116.571 212.171 115.768 215.78 114.929C216.48 114.767 217.21 114.929 217.976 114.722C219.221 114.383 226.337 111.621 227.206 111.032C227.737 110.671 227.928 110.494 227.884 109.757L228.333 110.354C228.517 109.897 229.49 109.588 229.615 109.374C230.587 107.739 231.545 105.514 232.797 104.011C233.018 103.746 233.004 103.26 233.298 102.995C233.947 102.413 234.867 102.884 235.376 102.678C235.604 102.582 239.361 100.166 239.582 99.9596C242.16 97.6023 240.245 93.2044 237.814 95.186C236.746 96.0553 236.937 97.7496 234.772 98.4863C233.866 98.7957 232.716 97.234 232.274 96.4899C230.344 93.2486 228.517 87.4585 224.856 85.5726C222.742 84.4823 222.027 85.7273 220.51 85.7199C218.911 85.7126 218.528 83.3184 218.432 82.0735L216.613 76.3864C215.353 76.8432 214.904 78.1986 214.042 78.9205C213.769 79.1489 210.727 80.8064 210.447 80.8874C210.329 80.9243 209.998 80.9095 209.843 80.8874C209.453 80.8359 207.324 79.7824 206.867 79.5099C206.41 79.2373 205.769 78.2723 205.489 78.2502C205.246 78.2354 204.311 79.031 203.78 79.1857C202.845 79.4583 201.865 79.1563 201.128 79.6867C200.73 79.6498 199.633 79.4067 199.331 79.2226C198.756 78.8837 198.889 77.9924 198.123 78.1839C198.123 78.0881 198.137 77.9776 198.123 77.8818L198.13 77.904ZM95.9329 83.3332C95.7929 83.2006 94.9752 83.068 95.0636 83.753C95.1668 84.6149 95.7561 85.3442 95.9329 86.1988C96.3454 88.232 96.4559 90.6924 96.5591 92.7845C96.5591 93.0497 97.1779 92.9834 97.3031 92.9245C97.4873 92.8435 99.8299 90.1178 99.9404 89.8526C100.832 87.6942 99.5278 85.7347 97.6788 84.7475C97.2515 84.5192 96.5517 84.6002 96.2497 84.3718C95.8887 84.0993 96.0213 83.4142 95.9403 83.3332H95.9329ZM118.165 93.2634C117.51 92.7919 114.298 96.5415 114.357 97.3003C114.394 97.7644 118.909 101.3 119.094 101.057C119.189 100.077 118.755 99.1714 118.769 98.199C118.784 97.0424 119.403 95.4439 119.101 94.361C119.079 94.2947 118.232 93.3076 118.173 93.2707L118.165 93.2634ZM162.977 101.05C164.737 100.24 164.082 98.4274 164.17 96.8435L162.977 101.05ZM163.868 103.761C163.249 103.798 162.35 103.54 161.916 104.055C161.967 104.954 159.47 109.242 159.662 109.463C160.155 110.022 160.177 108.844 160.7 108.829C161.503 108.807 162.255 109.146 162.962 109.463L163.868 103.753V103.761ZM163.846 114.604C163.779 114.56 162.932 115.172 162.52 114.273C162.107 113.374 162.689 112.498 162.063 111.724C161.739 111.319 158.999 109.846 158.763 110.067C158.35 112.682 155.875 114.214 154.556 116.372C155.875 116.299 156.243 117.721 156.877 118.192C157.415 118.59 158.387 118.686 158.969 119.024C159.691 119.444 164.384 122.73 164.767 122.391C165.039 120.925 165.253 119.253 165.047 117.757C164.988 117.33 163.978 114.7 163.846 114.604ZM202.196 111.695C204.185 113.588 208.208 113.919 208.944 110.663C206.815 111.989 204.237 111.65 201.887 111.26C201.401 111.577 202.042 111.547 202.196 111.695ZM44.8749 144.336C43.9098 140.078 42.8196 136.461 40.9558 132.476C41.4052 132.004 42.186 131.982 42.6796 132.402C43.3058 132.94 44.8896 137.058 45.2506 138.089C46.8049 142.553 48.897 150.907 47.0406 155.371C46.8638 155.799 46.1272 156.344 46.1272 156.506C46.1272 156.823 48.8086 160.58 48.1972 161.751C50.0462 162.244 52.0573 162.436 53.6043 161.036C55.748 159.091 59.4239 155.298 62.0317 154.134C62.8273 153.78 67.4167 152.307 68.1755 152.167C68.9342 152.027 69.9066 152.233 70.717 152.152C70.8275 151.121 70.2087 150.303 70.1129 149.301C70.0024 148.137 70.437 147.172 70.4002 146.31C70.3707 145.692 69.8698 145.088 69.8403 144.461C69.6193 139.982 69.7225 133.249 70.4297 128.874C70.5033 128.402 71.0706 127.555 71.0116 127.511C70.437 127.01 70.4149 128.085 70.216 128.122C68.9342 128.373 68.6764 127.334 66.9526 128.712C65.5456 129.831 66.3191 129.846 66.0539 130.818C65.7887 131.791 65.4498 134.148 63.8365 133.161C63.6376 133.043 62.459 129.662 61.936 128.903C60.7499 127.165 58.8272 125.308 58.0611 123.164C57.6928 122.148 56.8825 117.301 56.8677 116.218C56.853 115.533 57.3171 114.708 57.155 114.177C56.993 113.647 55.9837 113.477 55.527 113.08C55.0703 112.682 54.6577 111.444 53.7737 111.621C53.1918 111.739 51.4974 113.639 50.8566 114.104C44.5507 118.656 36.8379 119.01 33.6039 127.209C31.9022 131.518 32.1748 134.133 31.6149 138.443C30.2374 148.977 25.9647 168.447 28.8451 178.245C29.8543 181.678 32.8231 184.941 36.1675 186.252C36.5653 186.407 36.941 186.458 37.3535 186.414C36.1159 184.845 35.6518 182.871 34.7605 181.051C34.4069 180.329 33.3829 179.291 33.2209 178.687C32.8673 177.331 33.2651 175.585 33.8397 174.333C34.1859 173.567 34.8415 173.206 34.952 172.985C35.9833 170.878 36.6316 168.565 38.1197 166.591C38.5543 166.016 39.8729 165.928 38.7827 164.86C38.2817 164.366 36.1233 164.565 35.6297 164.86C35.2098 165.103 33.184 170.517 32.4032 170.495C30.7899 170.443 33.1251 165.39 32.8525 165.088L30.753 165.383C30.4289 163.04 33.1693 162.834 33.7586 161.176C35.0404 161.132 35.313 160.042 36.1601 159.371C37.2725 158.952 39.3352 157.287 40.396 158.591C41.8177 160.344 39.232 160.182 38.348 160.506C37.8103 160.705 36.7642 161.53 36.4622 162.075C38.93 161.508 41.2947 163.195 40.9926 165.847C40.9337 166.407 40.4917 166.259 40.2781 166.664C39.2247 168.69 35.2835 174.989 35.2246 176.654C35.2025 177.265 35.2909 177.663 35.4824 178.23C35.8949 179.482 38.4438 183.917 39.2689 185.265C40.0939 186.613 41.7072 189.589 43.4089 189.567C44.2413 189.56 48.153 188.551 49.0812 188.226C49.398 188.116 49.4937 188.013 49.6853 187.924C49.7884 187.873 49.8768 187.696 49.9873 187.622C50.0978 187.541 50.1862 187.416 50.2893 187.32C50.3335 187.276 50.6871 187.409 50.8271 187.254C50.9818 187.092 50.8418 186.797 50.8934 186.716C51.3133 185.958 51.689 185.191 51.7921 184.315C51.1733 184.411 50.2378 184.175 49.6926 184.315C49.4348 183.475 48.595 182.937 48.1309 182.12C45.6778 177.788 44.8233 173.523 45.1843 168.543C45.4789 164.462 47.3795 162.9 44.8896 158.613C43.6078 156.41 43.6373 157.419 42.0903 157.213C41.582 157.147 41.1621 156.712 40.2412 156.653C38.046 156.506 35.8949 156.97 33.8986 156.985C31.7254 156.999 33.6187 155.357 35.1951 154.951C38.0828 154.207 41.0884 154.473 43.9761 154.266C42.6796 147.032 40.3665 138.936 35.9833 132.955C35.5266 132.329 34.1491 131.474 34.3553 130.678C34.6795 129.448 36.639 131.187 37.0662 131.651C39.2026 133.971 41.0221 138.097 42.1713 141.043C42.5912 142.111 42.8932 143.18 43.3721 144.351C43.5194 144.704 43.5489 144.896 43.3721 145.25H44.2708C44.2929 145.449 44.2266 145.706 44.2708 145.854H43.9688L43.6741 146.001L43.9688 146.148C44.1235 147.29 44.6244 148.8 44.8675 150.053C44.9559 150.517 45.1622 150.62 45.1695 150.657C45.2506 151.106 45.1032 151.695 45.1695 152.159C45.1916 152.299 45.3242 152.425 45.4716 152.462C45.4863 152.557 45.4716 152.66 45.4716 152.764C45.5158 153.706 44.978 155.342 45.7662 155.769C45.6041 154.974 45.9725 154.215 46.024 153.493C46.0461 153.147 45.7736 152.867 45.7736 152.764C45.7736 151.924 45.9725 151.946 45.7736 150.959C46.2671 150.31 45.7883 149.699 45.7736 149.456C45.7515 149.058 45.8178 148.646 45.7736 148.255C45.5894 146.598 45.199 145.795 44.8749 144.351V144.336ZM119.094 116.977C121.112 117.072 123.587 115.12 125.539 115.481C126.224 115.606 126.865 116.763 127.204 115.334C126.387 114.56 125.237 114.354 124.353 113.676C123.801 113.256 122.954 111.827 122.851 111.879C122.718 111.938 122.578 112.269 122.416 112.291C122.025 112.336 121.598 112.151 121.392 112.218C120.751 112.424 119.484 116.166 119.094 116.984V116.977ZM228.422 176.138C228.746 175.563 228.422 173.029 229.062 172.116C229.497 171.49 231.037 171.342 231.803 170.952C232.657 170.517 233.468 169.817 234.226 169.464C235.022 169.095 236.613 168.977 237.225 168.528C237.534 168.3 237.225 167.725 237.424 167.276C237.667 166.701 238.33 166.407 238.543 165.965C239.413 164.182 239.626 155.644 240.046 153.036C241.055 146.708 246.065 137.588 248.974 131.599C250.684 128.085 253.151 126.303 250.566 122.111C247.98 117.919 239.774 112.571 234.948 112.181C234.602 112.151 234.249 112.166 233.91 112.181C234.234 114.022 234.536 114.575 234.116 116.446C233.217 120.498 230.234 125.139 229.468 129.235C229.202 130.671 229.998 132.55 228.201 133.102C226.889 133.507 226.484 131.879 225.652 131.106C224.819 130.332 218.602 127.209 218.02 127.548C217.593 129.131 215.788 129.831 215.574 131.415C217.261 131.931 219.014 132.365 220.812 132.314C221.092 132.299 221.033 132.903 220.989 133.073C220.944 133.242 218.889 135.224 218.58 135.481C217.711 136.211 216.841 136.925 215.692 137.102C215.154 137.183 213.666 137.014 213.497 137.161C213.372 137.264 212.93 139.894 212.9 140.321C212.686 143.297 212.311 148.926 212.554 151.717C212.716 153.522 213.526 155.224 213.725 157.154C213.887 158.738 213.526 162.171 214.344 163.453C214.874 164.285 216.701 164.418 217.232 165.67C217.622 166.598 217.622 167.902 217.954 168.889L218.278 175.6C219.125 175.114 220.112 175.431 220.996 175.165C221.504 175.011 221.968 174.355 222.447 174.252C222.801 174.178 224.782 174.407 225.217 174.525C226.514 174.871 225.88 177.604 226.845 178.002C228.105 178.517 227.191 177.243 227.42 176.793C227.626 176.403 228.341 176.3 228.436 176.138H228.422ZM231.184 113.072L227.56 115.371C226.676 117.632 225.011 120.77 223.508 122.671C222.72 123.665 220.311 124.874 221.357 125.92C221.475 126.037 224.009 127.408 224.37 127.562C224.731 127.717 226.801 128.439 227 128.277L231.737 115.547C232.046 114.619 231.346 113.927 231.191 113.072H231.184ZM62.0023 117.883C64.4332 121.264 66.0392 123.385 69.7225 125.64C70.3192 126.008 71.2916 126.863 71.7778 126.317C72.5144 125.168 73.9214 123.872 74.6286 122.84C74.8054 122.583 75.0485 122.546 74.9233 122.089C74.7318 121.927 72.9269 122.104 72.4629 122.001C70.2381 121.492 63.9839 119.017 62.3043 117.581C61.5971 116.977 61.0962 116.181 60.5068 115.474C60.4111 116.608 61.5824 117.286 62.0096 117.875L62.0023 117.883ZM129.061 118.531C129.134 118.413 131.396 117.396 131.632 117.345C132.935 117.072 136.567 118.03 136.818 116.822C137.068 115.614 133.436 115.967 132.788 116.107C131.411 116.395 126.578 118.627 125.694 119.614C124.869 120.527 122.792 124.211 122.269 125.419C117.745 135.923 118.35 147.85 114.725 158.753C114.062 160.756 111.86 163.092 113.679 165.228C114.077 165.699 119.175 169.176 119.594 169.235C120.073 169.302 120.228 168.919 120.294 168.528C120.839 165.191 120.663 161.36 120.898 158.009C120.979 156.867 121.311 155.533 121.385 154.347C121.458 153.161 120.979 149.404 121.871 148.609C122.099 148.403 123.735 148.115 123.867 147.909C123.911 147.85 123.558 147.364 123.727 147.04C123.933 146.642 124.604 146.576 124.729 146.369C125.134 145.706 125.355 140.948 125.105 140.041C125.009 139.695 123.558 139.393 123.948 137.942C124.339 136.491 126.188 137.087 126.762 136.528C128.258 135.062 129.341 128.004 132.177 128.078C132.862 128.093 134.578 129.551 134.991 127.894C135.101 127.437 133.761 125.603 133.392 125.374C132.619 124.903 130.416 125.065 130.048 124.513C129.724 124.034 130.092 123.164 129.856 122.745C129.724 122.509 128.862 122.583 128.707 121.617C128.663 121.345 128.987 118.663 129.068 118.531H129.061ZM201.364 119.754C201.261 119.614 199.957 119.157 199.478 118.781C198.27 117.831 197.843 116.527 196.782 115.776L187.949 119.732C187.92 123.253 185.585 126.251 184.288 129.448C183.787 130.686 182.041 135.246 182.638 136.218C182.866 136.586 183.743 136.682 184.141 137.124C185.01 138.089 184.17 138.686 186.697 138.318C186.638 135.489 185.084 132.992 185.194 130.207C186.513 129.986 186.712 131.459 187.596 132.012C187.566 130.944 184.104 125.389 187.308 126.421C188.848 126.914 190.925 133.89 190.019 135.143C189.216 136.255 188.502 133.662 187.898 133.515C188.222 135.327 188.664 137.132 187.294 138.62C188.34 138.575 192.185 139.238 192.73 139.946C193.71 141.227 192.266 142.752 191.868 143.946C190.778 147.246 189.334 150.745 188.421 154.023C187.979 155.6 188.237 158.421 186.749 158.583C185.261 158.745 185.246 157.92 185.334 156.638C185.622 152.425 188.87 147.047 189.872 142.841C190.145 141.692 189.909 141.316 188.612 141.117C186.992 140.874 186.41 141.544 185.283 141.868C184.774 142.016 184.126 141.831 183.603 141.994C183.08 142.156 182.682 142.929 182.167 143.268C176.244 147.099 170.557 150.915 164.84 154.944C164.671 155.062 162.026 157.707 161.916 157.876C161.26 158.885 160.288 166.488 159.86 168.447L157.245 178.304C159.595 178.539 159.89 178.679 161.606 177.11C162.21 176.565 162.991 175.313 163.433 175.033C165.886 173.464 171.441 171.644 174.343 170.318C174.564 170.215 176.089 169.338 176.148 169.25C176.266 169.088 175.301 166.215 175.264 165.523C175.212 164.543 175.736 163.224 175.588 162.591C175.507 162.244 174.564 162.208 174.41 161.574C174.358 161.36 174.631 159.88 174.734 159.74C174.903 159.497 178.645 159.077 179.316 159.062C187.5 158.9 196.229 161.117 204.303 162.046C206.734 162.325 209.202 162.421 211.633 162.679C211.265 160.638 211.574 158.193 211.309 156.241C211.125 154.9 210.197 153.574 210.123 151.99C209.961 148.668 210.344 144.093 210.418 140.579C210.44 139.563 211.198 137.426 211.066 136.719C210.852 135.555 206.071 137.551 207.184 134.016C207.567 132.8 208.878 134.111 209.482 134.325C211.92 135.209 211.257 134.325 212.244 132.314C211.154 132.874 208.127 130.752 207.898 130.811C207.751 130.848 206.572 132.586 205.909 133.043C205.696 133.19 203.456 134.362 203.316 134.384C201.217 134.715 202.373 131.57 202.358 130.664C202.344 130.023 202.064 129.448 202.034 128.859C201.968 127.415 201.894 120.505 201.364 119.761V119.754ZM59.2987 118.487C59.1145 121.492 60.5584 124.085 62.1127 126.494C62.6947 127.393 64.1828 128.13 64.1091 129.61C64.2933 129.758 66.6138 126.214 67.7114 126.605L64.2122 123.496C62.6432 121.485 60.8752 120.174 59.6007 117.89C59.3724 117.477 59.4387 116.542 58.702 116.387L59.2987 118.494V118.487ZM138.63 122.995C138.549 122.936 138.306 121.875 137.127 122.096L138.328 123.297C138.048 125.058 137.355 125.47 137.171 126.214C137.053 126.693 137.517 127.437 137.304 128.424C137.061 129.581 135.86 130.236 135.926 131.415C138.821 132.159 143.006 131.953 145.65 130.48C146.461 130.03 149.989 126.516 150.468 125.684C150.917 124.91 151.079 123.857 151.485 123.098C152.553 121.124 154.321 119.57 153.643 116.999C150.461 117.919 148.162 120.652 145.142 121.868C144.022 122.317 139.484 123.614 138.615 123.01L138.63 122.995ZM123.904 117.883C123.433 117.942 120.722 118.663 120.596 118.781C120.493 118.877 121.105 121.389 121.208 121.485C121.687 121.927 121.76 121.257 121.893 121.102C122.718 120.159 123.256 118.943 123.911 117.883H123.904ZM72.5218 129.905C72.2713 130.693 71.8956 131.445 71.9251 132.306C72.6544 132.196 72.6544 130.811 72.8238 130.502C73.7004 128.881 75.1664 127.503 75.9031 125.772C79.8295 123.916 78.8276 129.559 81.5312 131.106C82.2457 126.818 82.0468 122.479 83.94 118.487C83.7633 118.347 80.0873 119.879 79.7558 120.159C77.3396 122.17 73.4647 126.973 72.5218 129.905ZM223.972 118.789C222.948 119.01 222.543 119.938 221.482 120.358C219.346 121.19 216.819 121.411 214.639 121.927C212.775 122.369 211.309 123.503 209.254 122.84C209.696 123.894 210.145 124.851 210.801 125.794C211.618 126.973 213.084 127.872 213.475 129.139C213.57 129.448 213.202 129.706 213.902 129.596C215.066 128.026 216.23 125.964 217.644 124.623C218.609 123.71 219.95 123.378 220.974 122.546C222.197 121.544 223.059 120.048 223.972 118.781V118.789ZM134.121 119.687L131.867 119.363L129.62 119.982L131.551 120.107L134.121 119.687ZM108.279 159.968C108.117 160.241 106.998 161.692 107.079 161.766C107.941 161.854 108.132 160.756 108.581 160.263C109.141 159.644 109.694 159.01 110.489 158.686C111.042 158.465 111.918 158.767 112.213 158.266C112.508 157.765 113.546 153.633 113.782 152.697C114.342 150.539 115.756 145.205 115.756 143.246C115.756 141.979 113.937 136.962 113.384 135.459C113.215 134.995 110.401 129.89 112.478 130.951C113.244 131.341 114.733 134.008 115.138 134.907L116.375 138.023C116.147 137.36 116.699 136.27 116.611 135.806C116.53 135.386 114.976 133.058 114.666 132.38C114.401 131.813 112.832 128.358 113.082 128.107C115.366 128.078 115.86 130.796 116.898 132.24C117.097 132.52 116.913 132.771 117.591 132.616C117.591 129.271 119.307 126.023 120.898 123.15C119.418 122.87 118.777 121.367 118.799 119.997C118.291 119.466 112.279 123.061 111.955 124.122C111.499 128.527 110.394 132.866 110.092 137.286C109.804 141.478 110.011 145.994 109.804 150.222C109.745 151.371 109.112 153.456 109.2 154.406C109.259 155.091 110.209 155.769 110.04 156.764C109.959 157.257 108.655 159.379 108.287 159.983L108.279 159.968ZM206.491 121.242C206.248 120.962 203.338 120.358 203.611 121.713L204.451 131.106C205.217 132.012 207.64 127.157 208.075 126.73C207.375 125.905 206.778 121.559 206.499 121.242H206.491ZM163.573 147.04C163.824 146.075 164.207 145.191 164.391 144.1C164.524 143.342 164.745 139.334 164.951 139.187C165.209 139.01 166.358 138.826 166.682 138.9C167.956 139.194 165.695 146.664 165.68 147.938C167.978 146.016 169.614 144.727 169.614 141.478C169.614 140.623 169.275 139.879 169.275 139.091C169.275 136.97 169.651 135.069 169.282 132.918C168.008 133.109 167.92 140.697 166.446 137.714C164.973 134.73 167.743 130.723 168.686 127.813L156.818 121.5C157.15 123.975 155.75 124.844 154.94 126.531C154.512 127.415 154.424 128.535 153.923 129.419C150.711 135.143 141.989 137.831 135.772 137.441C133.996 137.33 131.86 137.08 130.652 135.651C130.239 135.157 130.423 134.48 129.93 134.428C130.092 135.526 127.521 138.531 127.521 138.782V144.344C128.943 143.872 129.716 143.636 131.271 143.747C136.398 144.123 151.919 149.765 156.369 152.454C157.496 153.139 158.66 155.246 160.28 155.32C161.488 154.789 163.19 148.565 163.581 147.047L163.573 147.04ZM152.155 126.597C148.825 131.791 143.573 134.48 137.311 133.78C134.777 133.5 135.47 133.014 134.247 131.739C131.838 129.22 131.16 131.467 130.217 133.817C132.14 133.434 132.7 135.047 134.563 135.327C138.843 135.975 146.276 134.391 149.591 131.4C150.218 130.833 151.684 128.94 152.118 128.211C152.42 127.71 152.354 127.084 152.457 126.899C153.363 125.293 154.829 123.724 154.859 121.787C153.739 123.253 153.149 125.043 152.155 126.597ZM210.145 128.41C208.893 128.262 208.893 128.852 210.145 128.704V128.41ZM248.223 178.392C248.812 179.151 251.442 183.998 251.774 184.005C254.19 180.808 257.409 178.429 259.73 175.136C260.555 166.149 260.636 157.117 258.986 148.24L253.417 128.704C251.56 130.789 250.89 133.529 249.726 135.982C246.426 142.973 243.413 147.983 242.595 155.902C242.484 156.955 241.925 158.082 242.146 159.062C243.015 158.222 243.199 157.073 244.09 156.196C245.144 155.165 246.919 154.627 248.149 153.648C249.114 152.881 250.882 150.097 252.039 150.369C254.035 150.841 249.947 155.055 249.218 155.614C247.95 156.587 246.86 156.778 245.593 158.001C244.967 158.605 243.089 161.508 242.897 161.618C242.507 161.847 241.755 161.714 241.689 161.766C241.586 161.854 242.123 163.858 241.689 164.469C243.855 162.171 247.31 162.937 250.124 162.488C250.625 162.406 251.199 161.942 251.818 161.839C253.07 161.626 255.546 161.802 255.73 163.467C255.936 165.375 253.976 163.777 252.658 163.858C251.612 163.924 250.433 164.609 249.313 164.742C247.523 164.955 245.321 164.307 243.788 165.228C246.404 165.655 249.188 165.346 251.509 166.819C252.591 167.504 254.205 169.029 252.938 170.178C251.98 170.451 249.424 167.519 248.076 167.246C245.822 166.79 242.801 167.291 240.481 167.18C240.208 168.049 241.203 167.733 241.365 168.256C241.6 169.036 240.915 169.419 240.886 169.736C240.827 170.436 242.124 170.989 242.58 171.541C244.415 173.729 246.499 176.204 248.201 178.392H248.223ZM211.648 130.509C211.994 130.2 210.469 128.667 210.145 129.006C209.659 129.529 211.11 130.988 211.648 130.509ZM218.565 133.515C215.869 133.515 214.403 131.592 213.755 135.312C215.42 135.85 217.423 134.782 218.565 133.515ZM122.099 176.801C122.055 177.353 121.849 177.928 121.797 178.606C121.753 179.195 121.797 179.814 121.797 180.41C121.797 180.433 121.539 180.499 121.547 180.565L121.782 180.875C122.048 181.103 122.46 180.948 122.696 181.015C122.991 181.096 123.219 181.25 123.595 181.317C123.867 181.368 124.213 181.272 124.493 181.317C129.481 182.061 136.913 183.843 142.542 185.051C144.464 185.464 144.656 185.744 146.895 185.965C147.426 186.016 148.184 186.738 148.781 186.37C148.899 186.296 148.943 185.84 149.135 185.67C150.63 184.337 152.825 181.272 154.122 179.534C155.485 177.707 154.689 178.687 155.212 176.712C156.14 173.213 157.908 168.948 158.682 165.456C159.22 163.04 159.256 160.042 159.956 157.559C158.947 157.802 158.232 157.147 157.385 156.97C156.766 156.845 156.037 157.051 155.367 156.882C154.1 156.572 152.148 155.43 150.939 155.445C150.844 155.342 150.755 155.224 150.637 155.143C149.702 154.458 149.334 154.767 148.531 154.539C146.188 153.883 144.361 153.773 142.151 153.257C136.28 151.887 133.429 148.8 126.799 149.53C126.46 149.566 126.151 150.112 125.561 150.045C124.766 149.964 124.427 148.727 123.595 150.789C123.351 154.893 123.315 159.018 123.064 163.106C122.792 167.607 122.453 172.234 122.084 176.786L122.099 176.801ZM82.4373 158.163C81.347 158.038 80.1241 158.09 79.0633 157.773C76.846 157.117 72.4113 154.944 70.275 154.826C69.1479 154.767 64.6469 155.777 63.4977 156.196C59.2545 157.758 56.271 162.731 52.0794 164.344C51.6301 164.521 51.166 164.233 50.6724 164.395C50.3483 164.506 49.1254 165.375 48.9486 165.685C48.7718 165.994 47.8878 170.436 47.8878 170.93C47.8878 171.747 48.3445 172.801 48.4477 173.67C48.676 175.578 48.6024 177.309 49.3906 179.195C50.2083 179.792 53.0371 175.762 53.5969 175.136C56.3447 172.094 57.0372 171.342 59.0556 167.674C59.5271 166.819 61.5382 164.3 62.4737 165.648C63.3135 166.863 60.4258 169.353 63.8513 169.103C67.7408 168.815 63.1146 163.953 65.4425 163.865C66.9968 163.806 68.2197 167.659 67.8734 168.977C67.2768 171.276 66.2012 171.865 63.947 171.976C62.7978 172.027 60.4111 171.254 59.9764 171.769C59.7996 171.976 59.807 172.506 59.4681 172.897C58.0537 174.525 55.608 175.755 55.667 178.142C55.7112 179.895 55.8143 181.044 55.3134 182.871C55.2176 183.232 55.0629 183.586 54.7903 183.858L64.1091 183.88L70.717 171.836C70.1203 171.408 67.9177 172.572 67.7114 171.526C67.5272 170.598 69.1331 169.957 69.4573 169.375C69.8993 168.594 70.3044 165.309 69.9582 164.476C69.5162 163.43 67.3946 163.29 68.0134 161.464C69.6414 161.073 70.275 162.591 71.6157 162.966C71.7483 162.031 70.8569 160.668 72.1314 160.307C73.7741 159.843 74.5181 162.988 74.7907 162.981C75.1369 162.981 76.8239 162.465 76.7355 161.913C76.5219 160.653 72.7501 159.386 74.7981 157.883C75.9252 157.058 76.5955 158.2 77.5385 158.392C78.2677 158.539 80.603 158.723 81.4207 158.745C81.8995 158.753 82.3047 158.694 82.4299 158.163H82.4373ZM82.7393 161.169L79.7337 160.867V162.37C80.0652 162.694 82.5478 161.95 82.7393 161.169ZM110.983 161.471C107.867 162.767 107.69 166.208 107.963 169.147C108.139 171.04 110.622 174.51 112.191 175.725C113.325 176.602 117.554 179.048 118.814 178.171C119.094 177.98 119.587 172.344 119.646 171.438C118.637 170.863 117.296 170.694 116.302 170.186C116.11 170.09 116.081 169.707 115.874 169.589C114.718 168.933 112.979 168.152 112.007 167.202C110.077 165.309 111.241 161.78 110.976 161.471H110.983ZM213.688 167.092C212.333 167.843 212.068 166.392 211.648 166.134C210.742 165.574 205.379 165.574 203.721 165.346C197.357 164.469 190.889 162.819 184.45 162.075C183.367 161.95 179.279 161.567 178.498 161.758C177.717 161.95 178.284 163.526 178.27 163.99C178.255 164.454 177.946 164.941 177.99 165.515C178.019 165.965 178.469 169.147 178.609 169.28C178.697 169.361 179.492 169.213 179.876 169.361C180.561 169.626 184.133 171.335 184.45 171.703C184.804 172.108 185.216 173.397 185.216 173.95C185.216 175.033 184.502 175.563 184.31 176.506C186.424 175.954 191.183 177.199 190.189 180.131C189.894 181 189.187 180.934 189.113 181.022C188.664 181.604 189.636 181.655 189.843 181.928C191.434 184.042 190.631 186.716 187.913 187.033C189.415 190.179 189.843 192.352 193.806 192.705C199.051 193.169 204.355 193.309 209.401 194.842C210.204 195.063 209.534 194.083 209.46 194.031C209.062 193.737 207.743 193.656 207.029 193.309C206.005 192.816 203.441 191.564 203.287 190.429C203.22 189.936 203.559 189.449 203.515 189.007C203.39 187.843 202.469 187.482 203.53 186.267C204.591 185.051 204.185 185.14 204.893 184.035C205.703 182.775 211.825 180.882 213.372 180.794C214.219 180.742 215.221 181.236 216.149 181.022C215.618 179.519 215.979 177.95 215.81 176.403C215.641 174.856 215.147 172.941 214.948 171.254C214.764 169.655 215.25 168.16 214.337 166.598C213.615 166.318 213.799 167.04 213.674 167.106L213.688 167.092ZM105.878 164.771C105.171 164.624 105.392 164.86 105.2 165.162C103.859 167.254 102.983 168.233 105.878 169.28V164.771ZM104.67 172.285C104.891 172.027 104.323 170.274 103.469 170.488C103.388 170.753 104.184 172.86 104.67 172.285ZM238.948 170.524C236.554 170.745 234.543 172.042 232.503 173.162C232.142 173.361 231.302 173.449 231.228 173.537C231.074 173.729 231.199 175.018 230.889 175.438C231.309 176.16 231.825 175.512 232.51 175.593C232.974 175.644 236.326 177.744 236.878 178.171C240.827 181.272 241.461 185.626 240.208 190.326C242.05 190.142 243.089 191.32 244.82 190.282C245.166 190.075 247.361 188.47 247.59 188.241C250.131 185.729 247.995 182.606 246.345 180.123C245.726 179.188 244.525 177.729 243.759 176.698C242.234 174.62 240.378 172.683 238.948 170.532V170.524ZM182.203 174.09C182.329 173.537 182.034 173.501 181.702 173.243C181.165 172.815 177.732 171.158 177.187 171.129C176.804 171.114 175.146 173.537 173.791 173.191C173.938 175.165 174.748 173.832 176.347 173.766C177.341 173.729 181.769 174.473 182.211 174.083L182.203 174.09ZM107.344 172.926C107.152 172.808 106.754 172.926 106.482 172.889C105.959 174.473 107.086 175.6 107.314 176.712C107.69 178.532 107.661 182.289 107.366 184.145C107.263 184.808 106.754 185.162 106.777 185.81L118.195 185.516L118.497 180.705C117.112 180.676 113.723 180.256 112.618 179.519C112.051 179.143 110.806 177.206 110.195 176.528C109.664 175.946 108.847 175.578 108.272 174.841C107.889 174.348 107.425 172.985 107.329 172.926H107.344ZM100.765 187.917C102.357 187.512 104.294 185.353 104.603 183.792C104.942 182.105 104.935 177.103 104.206 175.607C104.147 175.482 102.541 173.545 102.43 173.464C101.826 173 101.097 173.302 100.485 173.67C98.4523 174.886 100.618 175.504 101.318 176.69C103.101 179.725 101.178 184.676 100.765 187.917ZM171.986 174.694L167.183 175.902C166.851 176.366 168.988 178.09 169.275 178.532C170.188 179.954 170.925 182.37 170.49 184.013C171.979 183.379 172.995 181.81 173.187 180.226C173.393 178.51 171.905 176.44 171.993 174.694H171.986ZM185.356 182.812C183.456 182.576 181.15 182.989 179.198 182.812C178.771 177.84 184.944 181.7 187.014 179.21C184.325 178.429 181.496 178.635 178.844 177.611C177.209 176.978 177.901 175.836 175.441 176.197C175.028 176.256 174.925 176.02 174.991 176.646C176.111 178.591 177.054 183.136 179.043 184.337C179.522 184.624 179.971 184.256 180.465 184.374C183.021 184.963 184.87 185.744 187.456 184.602C189.474 183.711 186.314 182.93 185.364 182.812H185.356ZM223.626 176.845C222.875 176.381 219.847 178.245 218.565 177.096C217.438 180.624 219.213 179.261 219.773 179.63C221.136 180.521 219.147 181.965 218.278 182.37C216.105 183.394 214.639 182.893 212.48 183.188C211.007 183.387 209.976 184.145 208.65 184.617C209.055 185.516 210.521 184.845 211.162 184.934C212.355 185.103 213.585 185.707 214.815 185.818C216.377 185.958 219.029 184.941 219.169 186.716C217.445 187.534 216.156 187.807 214.211 187.622C212.075 187.416 210.55 187.092 208.2 187.026C207.353 187.004 206.351 186.237 205.644 187.18C205.504 187.939 206.211 187.541 206.683 187.63C209.349 188.109 211.994 189.199 214.27 189.663C215.537 189.921 216.885 189.729 218.329 190.112C218.874 190.26 223.353 192.042 221.07 192.705C220.105 192.985 218.388 191.74 218.27 191.829C218.234 191.858 218.153 192.403 217.828 192.742C216.547 194.098 213.688 194.591 211.95 193.936C211.832 194.076 212.863 195.925 213.055 196.057C213.423 196.322 217.873 197.295 218.41 197.265C219.243 197.214 221.932 195.475 222.624 194.842C223.67 193.884 224.377 192.565 225.306 191.512C225.917 190.827 227.073 190.599 227.265 189.567C227.457 188.536 226.713 187.173 228.097 187.07C229.254 186.989 230.138 189.412 229.932 190.407C229.821 190.915 229.276 191.247 229.387 191.829C231.972 190.628 234.742 189.854 237.534 189.243C239.28 185.56 236.886 180.713 233.549 178.79C230.212 176.867 231.118 179.062 229.261 179.821C228.134 180.285 225.313 180.388 224.569 179.283C224.289 178.871 223.884 176.992 223.633 176.838L223.626 176.845ZM99.1742 178.09C97.7893 176.351 94.5038 178.9 93.1631 179.563C92.3822 179.946 90.6216 179.961 90.2532 180.86C90.0028 181.464 90.6658 181.294 91.0046 181.317C92.2791 181.383 94.3638 180.882 95.6603 180.558C96.5296 180.344 99.41 178.672 98.9238 180.506C98.607 181.685 94.2018 182.657 93.0673 182.768C91.7634 182.9 87.8738 182.525 87.1224 183.077C86.8278 183.291 86.9014 183.961 86.9456 184.005C87.3729 184.425 97.2294 184.263 98.6659 185.81C99.0637 184.278 100.102 179.239 99.1816 178.083L99.1742 178.09ZM165.636 177.442C165.334 177.265 162.026 179.298 161.894 179.497C161.628 179.91 162.336 180.771 162.387 181.457C162.549 183.468 160.081 186.075 158.807 187.534C158.962 189.081 159.934 190.591 160.42 192.123L164.067 188.713C166.269 185.567 169.113 184.293 167.47 179.954C167.367 179.689 165.768 177.515 165.636 177.434V177.442ZM52.9855 179.806C52.6761 179.453 50.7903 181.213 51.1881 181.906C52.6614 181.597 53.0739 181.493 52.9855 179.806ZM159.639 181.029C159.558 180.919 157.245 180.123 157.113 180.123C155.757 180.108 154.66 182.709 153.96 183.556C152.575 185.236 150.866 186.525 150.004 188.617L146.144 193.619C146.659 193.648 147.16 193.648 147.661 193.486C151.124 192.33 156.406 186.93 158.468 183.843C158.851 183.269 160.045 181.589 159.639 181.022V181.029ZM129.915 185.516C126.585 184.845 123.101 184.425 120 183.107V185.508C123.027 185.206 126.026 186.51 129.024 185.965C129.341 185.906 129.996 185.943 129.915 185.508V185.516ZM254.617 184.911C254.19 185.7 251.17 186.805 251.317 187.46C251.56 188.573 254.418 187.004 255.229 187.173C256.046 186.687 254.463 185.648 254.617 184.911ZM98.3639 187.018C94.1723 186.267 89.9954 186.061 85.7449 185.818C85.1113 186.341 87.3876 187.092 87.5571 187.158C88.5442 187.534 90.0322 187.932 91.0783 188.145C91.9844 188.337 94.8426 187.843 93.7156 189.737C92.8389 191.21 87.255 188.499 86.9456 188.831C86.5184 189.287 87.3434 190.436 87.8665 190.761C88.2643 191.004 93.1336 192.948 93.4798 192.971C96.7653 193.147 97.8335 189.604 98.3565 187.033L98.3639 187.018ZM217.062 191.527C216.141 191.497 215.206 191.608 214.285 191.453C213.077 191.247 212.193 190.4 211.368 190.164C210.668 189.965 207.213 189.155 206.668 189.125C205.121 189.044 205.651 190.075 206.572 190.753C208.922 192.499 211.692 192.529 214.521 192.425L217.07 191.527H217.062ZM150.947 203.851C153.717 204.463 153.798 205.125 156.162 203.203C158.829 201.044 159.639 198.783 158.615 195.431C158.269 194.282 157.547 193.751 157.326 193.111C157.069 192.367 157.186 191.166 156.649 190.326C156.17 190.481 156.067 191.122 155.617 191.541C152.612 194.363 147.661 194.378 145.672 199.328C145.518 199.718 145.238 200.359 145.982 200.241C147.956 198.26 152.199 194.437 155.028 194.245C157.157 194.105 156.523 196.101 155.219 196.919C153.724 197.855 151.765 198.444 150.195 199.637C149.613 200.079 149.12 200.809 148.545 201.295C150.276 201.663 154.144 197.405 155.485 199.159C156.825 200.912 154.033 201.464 152.774 202.216C152.494 202.385 150.497 203.461 150.947 203.844V203.851ZM269.049 193.332C263.87 193.508 260.614 197.619 256.334 199.696C252.054 201.774 247.523 202.842 243.302 205.295C242.794 205.59 239.53 207.652 239.39 207.844C239.103 208.249 237.998 212.389 237.46 213.582C234.33 220.573 230.978 226.047 228.613 233.59C227.84 236.051 226.786 239.439 226.16 241.959C225.88 243.093 225.77 244.463 225.482 245.635C225.792 245.929 229.261 244.485 229.895 244.191C231.523 243.447 233.91 242.533 235.309 241.789C237.475 240.633 239.663 238.283 241.659 236.949C245.24 234.563 249.498 232.78 253.218 230.548C255.597 229.119 257.726 227.233 260.253 226.01C260.724 224.89 261.129 223.719 261.454 222.548C264.054 213.302 265.792 203.755 268.761 194.694C268.909 194.245 269.115 193.825 269.049 193.332ZM142.195 200.286C141.311 199.785 139.131 202.96 138.622 203.696C137.878 204.757 140.074 205.457 140.435 205.229C140.589 205.133 142.659 202.54 142.718 202.363C142.888 201.803 142.593 200.514 142.203 200.293L142.195 200.286ZM42.466 217.98C42.7091 216.772 44.0203 215.991 45.1548 215.409C50.6429 212.588 55.6301 211.476 61.3835 207.895C62.6358 207.114 62.9157 205.619 65.0078 206.555C64.1386 205.995 61.7223 202.636 61.0078 202.695L28.9556 216.028C28.6315 216.242 28.5873 216.507 28.683 216.868C28.9703 217.936 32.8894 219.66 33.9133 220.374C34.8268 221.015 35.6003 222.496 36.4916 223.203C37.1988 223.763 38.7311 224.242 39.1657 224.581C43.1216 227.689 47.1953 231.24 50.8713 234.658C55.0555 238.548 57.8622 242.349 63.1146 244.949C63.5566 245.17 63.9691 245.789 64.3154 245.87C65.7445 246.209 69.2657 243.41 70.717 242.762C72.4039 242.01 74.5697 241.826 76.1388 240.971C77.6121 240.176 79.3727 238.327 80.9566 237.377C84.4557 235.277 88.7799 233.958 92.2643 232.154C92.9642 231.793 93.443 230.931 94.1355 230.717C94.7837 230.518 95.4688 230.688 96.0434 230.518C98.9606 229.664 93.1189 227.159 92.7505 226.872C88.2643 223.395 83.0045 218.334 77.3248 216.455C77.2364 216.426 77.1186 216.477 77.0228 216.455C76.8239 215.837 76.1756 215.616 75.822 215.255C74.0835 213.479 72.8312 212.713 71.0116 211.203C70.135 210.474 67.5198 207.343 66.3707 207.424C66.2086 207.431 65.0447 209.288 64.2049 209.803C61.7444 211.306 56.271 213.067 53.2802 214.356C52.0941 214.872 50.8492 215.336 49.6705 215.859C49.5306 215.918 49.4422 216.131 49.3685 216.161C48.4698 216.559 47.5637 216.978 46.6649 217.361C45.8841 217.693 44.6907 217.627 44.2634 218.562C43.9172 218.378 42.7459 218.967 42.4586 217.958L42.466 217.98ZM147.647 203.851H146.748V204.448H147.647V203.851ZM138.932 206.26C138.225 206.474 137.289 205.288 136.825 205.494C136.118 205.803 135.344 207.844 135.33 208.661C135.477 208.824 138.085 207.299 138.401 207.078C138.748 206.835 139.057 206.842 138.932 206.26ZM226.978 224.588C227.427 224.566 228.282 224.971 228.436 224.868C228.539 224.794 229.659 222.754 229.644 222.629C229.615 222.282 227.67 221.907 228.399 220.168C228.952 218.85 230.433 218.466 231.737 218.533C232.017 216.647 237.232 208.706 236.532 207.52C236.319 207.151 233.424 205.604 232.849 205.656L221.865 213.781C221.188 214.798 232.635 217.118 226.337 220.809C222.123 223.277 217.136 225.214 213.305 228.212C212.134 229.126 211.758 230.526 210.02 230.305C208.804 230.15 206.204 227.667 205.173 226.717C204.392 225.995 203.603 225.229 203.073 224.293L190.307 230.909C193.835 232.036 196.723 234.629 200.502 235.144C200.907 236.058 199.463 236.846 200.23 237.377L221.991 245.03C222.595 244.905 222.801 242.069 222.757 241.436C221.173 242.651 218.197 243.594 218.919 240.456C219.199 239.24 219.854 239.609 220.259 239.233C220.871 238.673 221.217 237.738 222.388 237.575C223.56 237.413 223.25 238.401 223.965 238.732C223.722 237.612 225.247 234.776 225.188 234.106C225.173 233.907 222.572 232.367 225.07 230.938C225.924 230.452 226.44 231.579 226.676 229.863C226.786 229.052 225.88 229.863 225.092 229.708C225.04 229.701 224.385 229.074 224.37 229.03C223.324 225.774 226.204 226.371 226.978 224.603C226.212 224.64 225.644 225.266 224.952 225.435C222.852 225.951 222.123 224.131 223.685 222.665C225.829 220.654 228.296 221.583 226.97 224.603L226.978 224.588ZM222.963 217.487C222.322 217.067 219.965 215.542 219.456 215.689C215.427 217.884 211.375 219.977 207.412 222.297C206.97 222.555 205.475 222.71 205.946 223.373C205.961 223.402 206.314 223.328 206.535 223.601C210.639 228.515 210.44 225.914 214.69 223.572C217.733 221.892 221.416 220.433 224.569 218.872C224.797 217.958 223.84 218.341 223.28 217.973C223.103 217.855 223.059 217.546 222.963 217.487ZM162.667 221.885C160.229 221.317 161.142 221.73 160.266 223.682C161.835 224.08 161.452 222.621 162.667 221.885ZM180.701 229.701C180.833 229.082 180.376 229.015 180.016 228.736C177.533 226.783 172.921 225.428 169.886 224.595L174.734 227.41L180.701 229.701ZM191.485 238.386C191.618 238.297 191.994 237.17 191.522 237.067C188.428 235.94 185.209 235.034 182.152 233.811C177.99 232.146 173.901 229.951 169.85 228.08C167.92 227.189 165.857 226.57 163.993 225.516C163.374 225.362 163.669 225.627 163.544 225.914C162.785 227.697 162.365 228.979 161.857 230.842C161.717 231.358 161.216 231.8 161.164 232.272C161.002 233.848 162.291 233.745 163.072 234.253C166.726 236.633 170.483 238.518 174.196 240.559C175.47 241.259 177.283 242.784 178.771 242.938C179.294 242.997 179.154 242.437 179.419 242.342C180.671 241.9 182.13 242.224 182.668 240.537C183.102 239.167 181.71 237.922 182.196 236.316C180.295 236.051 181.29 239.469 179.957 240.537C179.603 240.817 177.99 241.384 177.548 241.384C175.345 241.406 174.284 237.693 175.898 238.57C176.082 238.673 176.259 239.064 176.494 239.174C178.13 239.933 177.57 237.649 177.702 236.78C177.769 236.345 178.211 236.036 178.248 235.8C178.373 235.063 176.973 234.865 176.818 234.312C176.119 231.859 179.787 233.553 180.686 234.069C181.069 234.29 181.386 234.975 181.784 235.041C182.203 235.115 182.741 234.68 183.478 234.865C183.758 234.931 185.482 236.036 185.68 236.286C186.734 237.575 185.71 237.87 185.592 238.658C185.489 239.366 185.209 242.054 186.196 240.743C187.124 239.506 185.644 237.494 187.529 236.964C189.415 236.434 190.233 239.196 191.485 238.386ZM193.629 240.522C193.217 242.172 192.053 244.029 191.655 245.612C190.97 248.316 192.045 251.565 187.773 250.732C187.058 250.592 186.506 249.73 185.791 249.406C181.828 247.601 177.4 246.533 173.12 244.345C168.84 242.158 164.899 239.196 160.531 237.097C159.227 236.47 157.798 236.08 156.516 235.38C154.63 237.178 151.897 237.774 149.658 239.071C147.418 240.367 145.525 242.283 143.146 243.373C140.162 244.743 137.245 245.671 134.335 247.484C132.773 248.456 130.983 249.347 130.232 251.167L136.435 255.793C142.689 258.806 148.214 263.344 154.196 266.585C155.19 267.123 157.069 268.095 158.1 268.39C159.006 268.655 165.231 269.996 165.798 269.959C167.323 269.856 168.767 268.537 169.982 267.801C175.308 264.574 179.964 260.78 185.076 257.053C186.292 256.161 189.305 254.806 190.196 253.753C191.353 252.39 191.699 249.649 192.215 247.955C192.951 245.517 193.644 244.323 193.902 241.524C193.931 241.185 194.182 240.441 193.644 240.515L193.629 240.522ZM214.661 245.929C213.246 244.39 210.418 243.513 208.348 243.233C209.961 244.78 212.569 245.318 214.661 245.929ZM185.209 245.325C184.885 243.587 183.264 243.594 181.909 244.132L185.209 245.325Z" fill="#0067FF"/>
<path d="M210.057 213.368C207.139 214.363 204.266 215.497 201.386 216.565C200.723 216.808 199.95 216.676 199.331 216.911C195.412 218.399 189.681 222.304 186.122 223.239C184.642 223.63 182.977 223.195 181.481 223.409C180.546 223.541 179.632 224.3 178.829 224.226C177.415 224.109 175.956 221.891 174.837 220.985C170.638 217.56 166.358 213.243 162.225 210.156C160.973 209.221 157.886 208.639 159.801 206.222C160.855 204.896 161.584 205.67 162.527 205.582C167.625 205.095 172.944 201.309 177.643 199.114C179.271 198.355 182.955 197.309 184.126 196.58C184.708 196.219 184.465 195.651 184.833 195.416C186.498 194.34 193.231 197.979 195.095 198.922C198.601 200.683 203.139 203.099 206.226 205.523C208.045 206.944 209.511 208.911 211.324 210.355C211.655 211.637 210.675 212.403 210.064 213.361L210.057 213.368ZM173.489 204.749C175.08 204.101 176.737 203.71 178.292 203.092C179.102 202.767 182.424 200.904 182.697 200.874C183.537 200.786 183.559 202.031 183.257 202.65C182.852 203.475 180.892 203.674 180.399 204.447C181.887 204.233 183.434 203.607 184.811 203.003C185.526 202.694 188.436 200.44 188.789 201.92C189.143 203.401 184.981 205.427 183.78 205.884C183.168 206.119 178.999 207.467 178.741 207.445C178.174 207.394 178.262 205.81 178.292 205.353C177.312 205.456 174.218 207.062 173.489 206.716C172.479 206.23 172.966 205.397 173.489 204.749C170.645 205.913 168.074 207.799 165.076 208.506C167.529 210.377 169.805 213.081 172.141 214.959C173.054 215.689 174.189 216.101 175.058 216.786C175.846 217.405 179.168 220.624 179.662 220.69C181.43 220.101 183.537 220.69 185.216 220.241C186.896 219.792 189.887 217.803 191.611 217.022C196.008 215.033 200.355 213.523 204.87 211.954C207.839 210.922 206.992 210.252 205.04 208.506C200.171 204.16 192.568 201.721 186.778 198.797C185.356 198.635 177.341 202.289 175.691 203.202C174.955 203.607 174.012 204.101 173.489 204.756V204.749Z" fill="#0067FF"/>
<path d="M89.3472 203.246C89.7744 203.305 90.2533 203.887 91.0047 203.872C91.6971 203.858 92.0802 203.261 92.6474 203.246C94.8206 203.173 97.2074 204.049 98.7912 204.108C99.4173 204.13 100.323 203.607 100.92 203.681C101.178 203.71 104.25 205.39 104.5 205.662C105.966 207.246 105.244 209.751 103.764 211.055C104.898 210.878 105.274 212.057 105.274 213.014C105.266 215.099 103.277 216.69 101.443 217.302C97.9735 218.466 91.1299 218.93 87.8296 217.228C85.3618 215.961 84.802 214.362 84.8388 211.659C84.8388 211.534 85.2734 211.121 85.1408 210.34C85.0451 209.78 84.6399 209.331 84.2421 208.955C84.2789 208.771 84.1979 208.521 84.2421 208.351C84.7946 206.2 85.1703 206.819 86.3342 205.78C86.7099 205.441 86.7394 204.992 86.9456 204.749C87.0709 204.602 87.1151 204.3 87.2477 204.145C87.3066 204.071 87.8075 203.563 87.8517 203.541C88.1169 203.401 89.0599 203.202 89.3545 203.239L89.3472 203.246ZM102.526 207.791C102.46 207.681 100.36 206.657 100.242 206.627C98.8943 206.274 94.2975 205.979 92.8389 206.046C92.3012 206.068 91.6971 206.554 90.9899 206.576C90.2827 206.598 88.1538 205.832 88.1317 207.607C88.1317 208.263 90.6732 209.537 91.3583 209.803C93.7156 210.701 96.839 211.401 99.2479 210.605C100.154 210.311 103.277 209.007 102.519 207.791H102.526ZM103.093 213.088C103.285 212.852 103.587 211.224 103.469 211.062C98.607 215.35 92.9936 213.39 87.5497 211.666C87.0856 214.598 90.2164 215.298 92.5074 215.571C94.7985 215.843 97.0085 215.563 99.2553 214.812C99.7194 214.657 102.961 213.25 103.093 213.088Z" fill="#0067FF"/>
<path d="M131.389 229.671C130.637 230.791 128.692 229.295 128.214 229.192C125.215 228.559 120.965 228.573 117.952 228.013C117.038 227.844 113.274 226.658 114.291 225.199C114.666 224.669 118.556 226.231 119.572 226.363C122.445 226.732 125.348 226.481 128.302 227.247C129.127 227.461 132.273 228.345 131.381 229.671H131.389Z" fill="#0067FF"/>
<path d="M134.409 214.952C133.451 215.047 132.383 216.005 131.55 216.152C130.652 216.314 127.256 216.189 128.442 214.701C128.582 214.524 129.915 214.694 129.908 214.075C128.538 213.272 126.828 213.206 125.421 212.697C124.957 212.528 124.537 211.975 123.963 211.754C123.278 211.497 119.425 211.055 120 209.714C120.515 209.014 121.436 209.228 122.18 209.331C125.377 209.788 129.245 212.417 132 213.331C133.053 213.685 134.571 213.139 134.409 214.952Z" fill="#0067FF"/>
<path d="M140.958 230.348C141.886 230.194 142.932 230.834 143.897 230.908C145.348 231.019 147.625 229.98 147.934 232.278C148.317 235.166 145.393 233.435 143.816 233.074C143.021 232.89 142.328 233.074 141.415 232.772C139.89 232.286 139.013 230.68 140.958 230.348Z" fill="#0067FF"/>
<path d="M131.094 222.459C130.556 223.233 127.536 222.062 126.689 221.951C126.026 221.87 122.202 222.592 122.733 220.853C123.226 219.233 132.795 220.021 131.094 222.452V222.459Z" fill="#0067FF"/>
<path d="M145.393 221.148C147.809 220.522 151.234 222.283 148.457 224.242C147.463 223.447 145.665 223.889 144.781 223.108C143.846 222.275 144.288 221.435 145.4 221.148H145.393Z" fill="#0067FF"/>
<path d="M144.427 228.706C142.166 226.931 146.925 225.664 148.405 226.99C151.175 229.458 145.997 229.944 144.427 228.706Z" fill="#0067FF"/>
<path d="M149.702 217.421C150.446 218.666 148.442 218.96 147.492 218.909C146.94 218.879 146.645 218.084 146.719 217.568C146.807 216.986 149.422 216.949 149.702 217.428V217.421Z" fill="#0067FF"/>
<path d="M74.8277 148.572C75.8148 148.329 76.7725 149.868 75.6159 150.59C73.6048 151.85 73.568 148.888 74.8277 148.572Z" fill="#0067FF"/>
<path d="M74.0616 141.67C74.3783 141.169 75.8074 141.242 76.0726 142.141C76.7283 144.366 72.8829 143.526 74.0616 141.67Z" fill="#0067FF"/>
<path d="M74.3637 136.565C75.2109 136.027 76.7726 136.948 75.9917 138.046C75.0856 139.335 73.0966 137.368 74.3637 136.565Z" fill="#0067FF"/>
<path d="M79.9549 190.695C82.3711 193.052 74.4373 192.367 73.5754 192.433C70.5919 192.669 67.5937 194.032 64.706 193.929C63.8441 192.956 67.9325 191.277 68.5734 191.093C69.3101 190.879 72.3083 190.673 73.2586 190.606C74.15 190.547 79.5792 190.326 79.9549 190.687V190.695Z" fill="#0067FF"/>
<path d="M99.8666 163.872V164.771C98.1649 164.8 96.5369 165.345 94.872 165.64C91.4097 166.251 90.5847 166.775 87.4023 167.791C84.9713 168.565 82.393 168.874 80.0283 169.883C79.9325 169.294 80.0799 169.073 80.4703 168.675C81.3469 167.754 85.2439 167.003 86.7025 166.495C87.417 166.244 88.2052 165.5 89.2808 165.169C92.5589 164.159 96.4706 164.38 99.8592 163.879L99.8666 163.872Z" fill="#0067FF"/>
<path d="M91.4541 170.488V171.387C86.5184 171.586 81.8627 171.748 77.1849 173.494C76.3083 172.197 78.7319 171.431 79.6822 171.166C80.0505 171.063 82.7246 170.488 82.894 170.488H91.4614H91.4541Z" fill="#0067FF"/>
<path d="M79.7337 187.917H74.4739C74.2971 187.917 73.8625 187.239 74.0246 187.018C74.2529 186.708 80.8166 185.139 79.7337 187.917Z" fill="#0067FF"/>
<path d="M80.9346 175.593C79.7043 174.355 85.7671 172.971 86.0396 174.245C86.2827 175.394 81.7375 175.365 80.9346 175.593Z" fill="#0067FF"/>
<path d="M70.312 101.854C69.9878 102.215 68.4335 103.364 67.9768 103.578C60.9637 106.863 59.5862 94.0893 63.8072 92.1961C64.264 91.9898 68.2051 91.4152 68.684 91.4889C72.7356 92.1224 72.6767 99.246 70.312 101.854ZM69.2143 94.7376C69.1186 94.6345 68.3377 94.9512 67.9768 94.8775C66.9012 94.6565 66.5476 93.4926 65.0154 94.5976C63.7188 95.5258 64.1608 97.2938 64.1093 98.6493C65.1553 97.9715 65.8183 96.8297 66.9528 96.233C67.7263 95.8278 69.1333 95.7247 69.2143 95.6363C69.2438 95.6068 69.2438 94.767 69.2143 94.7376Z" fill="#0067FF"/>
<path d="M89.2367 89.7492C94.2091 93.1378 88.9567 104.718 81.6932 98.6333C79.0707 96.4455 79.4612 94.5007 80.7208 91.6645C81.2144 90.5522 82.3194 88.239 83.7706 88.4158C84.22 88.4674 84.5147 88.9683 84.9714 88.9904C85.5386 89.0199 86.0616 88.6368 87.0119 88.7768C87.6381 88.8726 88.6915 89.3735 89.2293 89.7418L89.2367 89.7492ZM87.756 90.9205C86.5626 90.0218 85.8922 91.1047 84.9935 91.1562C84.4484 91.1931 83.2992 90.67 83.0634 90.8395C82.9529 90.9205 81.8774 93.2483 81.8479 93.3883C81.7006 94.1692 81.9069 95.1195 81.8332 95.9298C82.0837 96.2097 87.5718 92.6443 88.7431 93.2262C88.9052 93.0715 88.0433 91.1341 87.7486 90.9205H87.756Z" fill="#0067FF"/>
<path d="M73.4943 108.637C74.9013 107.208 75.8295 109.639 76.4262 109.911C77.5165 110.42 80.2789 109.403 81.3324 108.814C82.1648 108.35 85.686 104.475 86.0544 106.921C86.4595 109.609 79.3066 112.335 77.126 112.446C75.1002 112.549 71.5348 110.619 73.4869 108.637H73.4943Z" fill="#0067FF"/>
<path d="M59.6746 90.7586C57.9066 89.0127 63.24 84.9242 64.7355 86.7438C65.9289 88.2024 63.6747 88.9022 62.9233 89.4989C62.0614 90.1766 60.9638 92.033 59.6746 90.7586Z" fill="#0067FF"/>
<path d="M78.9088 103.673C78.6657 103.429 78.5846 102.774 78.2458 102.391C77.8848 101.986 77.3618 101.824 77.126 101.566C76.08 100.387 77.9658 98.7148 79.5938 100.144C81.5239 101.838 80.4336 105.183 78.9088 103.68V103.673Z" fill="#0067FF"/>
<path d="M85.3545 83.0755C86.5994 82.6998 90.2164 84.0479 89.5166 85.4181C88.8978 86.6336 88.0875 85.6023 87.3803 85.4328C86.7246 85.2782 85.6418 85.2119 85.1556 84.9614C84.2421 84.4899 84.4189 83.3555 85.3618 83.0755H85.3545Z" fill="#0067FF"/>
<path d="M41.5672 127.798C41.5672 127.194 41.4641 126.582 41.7219 126C42.5691 124.122 48.5655 121.787 50.584 120.741C51.3354 120.35 53.1991 118.921 53.7958 118.833C54.3925 118.744 55.2471 119.739 54.8714 120.505C54.2084 121.846 46.1714 124.77 44.3592 125.941C43.3426 126.597 42.7975 127.842 41.5672 127.805V127.798Z" fill="#0067FF"/>
<path d="M39.7623 180.705C40.4548 180.653 40.9484 181.191 41.4198 181.596C41.9355 182.038 45.1326 185.692 45.3315 186.119C45.7661 187.062 44.4254 188.285 43.6593 187.784C43.4604 187.651 41.2209 184.314 40.9631 183.865C40.7495 183.489 39.5855 180.904 39.7623 180.712V180.705Z" fill="#0067FF"/>
<path d="M49.3685 184.903C49.7368 184.844 50.1862 184.932 50.5693 184.888C50.6135 185.382 50.5177 185.905 50.584 186.391C50.4072 186.546 50.1715 186.929 49.9873 186.995C49.56 187.157 48.3961 187.481 47.8878 187.614C46.8344 187.894 45.0001 188.218 45.9136 186.42C46.0683 186.118 48.8823 184.969 49.3611 184.895L49.3685 184.903Z" fill="#0067FF"/>
<path d="M146.505 92.7044C147.212 92.2919 148.501 93.0506 149.282 92.9475C150.166 92.8296 150.38 91.5626 151.89 91.5994C157.474 91.7394 157.157 100.992 151.683 102.539C147.153 103.821 144.759 101.117 144.936 96.7119C144.972 95.7837 145.739 93.1538 146.505 92.7044ZM149.208 94.6566C149.061 94.5608 149.26 94.0378 149.002 94.1409C148.302 94.7302 147.764 95.2312 147.949 96.2404C148.928 96.2183 149.967 96.4098 150.866 96.7855C151.927 97.2275 152.339 98.0894 153.363 98.3472C153.672 97.0286 153.989 94.1114 152.015 94.1188C151.168 94.1188 150.033 95.187 149.216 94.6566H149.208Z" fill="#0067FF"/>
<path d="M134.32 91.5399C137.827 93.6983 136.162 102.199 132.169 102.568C126.762 103.061 125.097 93.4478 128.626 92.4018C129.156 92.2471 129.827 92.4386 130.305 92.2765C131.609 91.8272 132.692 90.5454 134.328 91.5472L134.32 91.5399ZM130.217 95.039C130.143 94.9654 130.269 94.0372 129.76 93.8456C128.854 94.2213 128.699 97.389 129.458 97.4405C129.554 97.4405 130.158 96.9985 130.659 96.9838C131.307 96.9691 133.9 97.9709 134.114 97.7499C134.173 95.7904 134.615 92.9985 131.69 93.9782C131.035 94.1992 130.644 95.481 130.21 95.0464L130.217 95.039Z" fill="#0067FF"/>
<path d="M153.658 73.0938C153.923 73.2484 154.453 73.1601 154.785 73.4694C155.986 74.6113 155.197 78.162 155.529 79.79C156.221 83.1197 159.72 87.6723 161.474 90.5305C162.726 92.5711 161.592 93.2857 159.757 92.1291C158.623 91.4145 157.068 88.2174 156.663 87.9817C156.258 87.746 155.514 87.8565 154.947 87.5986C154.38 87.3408 151.971 86.0295 151.882 85.536C152.258 84.1068 153.916 84.2837 154.858 85.1308C155.234 84.6667 153.032 81.0497 152.833 80.3941C152.332 78.7366 152.273 74.2798 153.658 73.1085V73.0938Z" fill="#0067FF"/>
<path d="M144.582 108.924C144.671 108.976 145.186 109.963 145.179 110.162C145.12 111.421 142.527 113.175 141.378 113.491C138.637 114.25 131.838 112.541 134.91 108.873C137.481 111.046 139.632 112.504 142.689 110.059C143.175 109.676 143.499 108.283 144.59 108.917L144.582 108.924Z" fill="#0067FF"/>
<path d="M140.346 101.403C143.013 100.608 143.551 105.234 141.444 105.823C140.074 106.206 140.582 104.372 140.376 103.665C140.236 103.193 138.534 101.948 140.346 101.403Z" fill="#0067FF"/>
<path d="M241.505 124.093C241.019 123.651 240.783 122.84 240.009 122.435C239.45 122.141 237.586 121.905 237.497 121.787C236.636 120.527 239.582 119.15 241.372 120.174C242.315 120.711 246.109 125.5 245.888 126.435C245.483 128.188 242.153 124.682 241.505 124.1V124.093Z" fill="#0067FF"/>
<path d="M195.368 120.667C195.773 120.645 196.804 120.402 196.929 121.043C197.312 122.995 191.161 123.93 189.784 123.812C188.701 123.724 188.384 123.061 189.113 122.236C189.74 121.529 194.263 120.719 195.368 120.667Z" fill="#0067FF"/>
<path d="M252.724 220.588C251.442 222.002 248.717 222.231 247.118 221.119C246.514 220.699 245.166 218.732 245.056 218.047C244.724 216.043 247.545 214.032 249.38 214.105C249.895 214.128 252.975 216.058 253.196 216.536C253.675 217.568 253.505 219.719 252.724 220.581V220.588ZM250.721 217.376C249.35 217.199 247.185 216.522 248.488 218.555C249.792 220.588 251.199 217.877 250.721 217.376Z" fill="#0067FF"/>
<path d="M52.9856 220.381C56.9488 218.385 62.1865 215.43 66.0982 213.81C67.5347 213.213 70.0762 211.968 69.2143 214.664C70.2972 214.222 72.4777 214.244 71.4758 215.88C71.0854 216.513 64.6912 218.554 63.7998 219.777C62.6064 219.939 61.7445 220.609 60.4922 220.374L61.6929 218.723C60.8016 218.48 59.6524 219.593 58.761 219.998C53.8622 222.223 48.9266 224.359 44.0646 226.642C42.1125 226.016 44.8381 224.491 45.7737 223.983C47.2838 223.158 49.0371 222.362 50.5841 221.582C50.9819 221.383 51.387 221.184 51.7848 220.978C51.9837 220.874 52.1826 220.779 52.3889 220.676C52.5952 220.572 52.7867 220.477 52.993 220.374L52.9856 220.381Z" fill="#0067FF"/>
<path d="M71.3136 225.193C67.2104 227.145 62.9083 228.663 58.7683 230.534C57.9506 230.88 56.3299 230.423 56.6172 229.304C56.8824 228.272 60.3815 227.69 61.4718 227.219C63.9765 226.136 66.9231 224.589 69.5088 223.381C71.262 222.563 76.625 219.388 78.0762 219.447C78.9381 219.484 79.3874 219.889 79.0928 220.78C78.8423 221.532 72.4849 224.626 71.3136 225.186V225.193Z" fill="#0067FF"/>
<path d="M71.6158 228.5C73.5311 227.424 75.5054 226.098 77.5165 225.229C77.9364 225.052 80.8904 223.954 81.0746 223.991C81.4208 224.057 81.6934 224.801 81.4945 225.155C81.3619 225.383 77.6712 227.52 77.0303 227.895C72.5514 230.555 68.3377 232.117 63.7041 234.253C62.3339 234.879 56.9562 238.076 56.1238 238.12C54.9231 238.187 54.4221 236.846 55.2987 236.286C55.7628 235.991 56.912 235.903 57.575 235.638C62.9453 233.479 66.6949 231.247 71.6232 228.5H71.6158Z" fill="#0067FF"/>
<path d="M78.8277 232.101C82.1353 230.621 85.0451 229.103 88.4559 228.057C89.5682 227.718 90.3786 226.112 90.8427 228.492C88.6032 229.759 86.5627 230.135 84.2348 231.055C81.6418 232.087 79.1076 233.405 76.5146 234.466C74.4888 233.707 78.1058 232.426 78.8203 232.101H78.8277Z" fill="#0067FF"/>
<path d="M65.6045 219.778C65.9876 219.24 67.9397 218.246 68.6469 217.863C69.1773 217.568 72.3892 215.999 72.706 215.97C73.0964 215.933 73.5752 216.169 73.9877 216.198C74.4592 218.084 72.6912 218.474 71.3137 219.174C70.9748 219.344 70.4149 219.638 70.1129 219.778C69.8698 219.889 69.5162 219.948 69.2142 220.08C68.4922 220.375 63.6597 222.541 65.6045 219.778Z" fill="#0067FF"/>
<path d="M77.3249 228.499C78.8056 227.741 81.708 225.825 83.2329 225.575C83.5129 225.531 83.8149 225.722 84.0874 225.796C84.4116 225.87 84.279 226.194 84.1022 226.4C83.8886 226.65 81.2218 227.925 80.6399 228.197C80.1242 228.433 77.6564 229.708 77.4796 229.693C76.7135 229.649 77.3323 228.617 77.3323 228.499H77.3249Z" fill="#0067FF"/>
<path d="M160.597 240.795C160.685 240.905 162.505 241.112 162.969 241.274C165.643 242.231 167.5 244.81 164.288 246.497C163.492 246.909 162.689 246.99 161.842 246.637C161.275 246.394 161.378 245.488 160.575 245.635C161.312 247.359 160.317 250.445 158.085 249.79C157.15 249.517 155.264 246.887 155.463 245.797C155.905 243.366 158.394 244.044 159.971 245.031C159.801 243.764 159.087 242.799 159.374 241.429C158.409 241.318 158.748 242.475 157.857 243.064C155.323 244.736 151.713 240.309 153.96 237.664C154.94 236.508 155.367 237.347 156.302 237.465C156.774 237.524 157.245 237.318 157.606 237.384C157.827 237.428 160.214 238.725 160.302 238.843C160.811 239.506 160.42 240.567 160.604 240.795H160.597ZM157.864 240.22C157.894 239.145 156.405 239.233 155.765 238.718C155.75 240.434 156.347 240.346 157.864 240.22ZM163.868 244.125C163.787 243.071 162.711 242.445 161.768 242.622C161.746 244.338 162.358 244.243 163.868 244.125Z" fill="#0067FF"/>
<path d="M159.86 252.057C159.971 252.109 161.547 253.641 161.614 253.744C162.608 255.232 162.041 258.599 159.934 258.408C158.748 258.304 157.437 256.698 156.059 256.75C156.582 257.553 157.459 258.157 157.717 259.144C158.52 262.15 155.661 263.66 153.253 262.106C152.472 261.605 149.739 258.069 150.35 257.347C151.44 257.479 151.927 258.732 152.781 259.269C153.113 259.483 154.969 260.242 155.153 260.043C156.074 259.1 151.904 257.494 151.374 257.354C151.374 254.761 154.343 255.674 155.75 256.743C154.416 253.921 156.965 250.592 159.853 252.05L159.86 252.057Z" fill="#0067FF"/>
<path d="M152.663 241.517C153.886 242.681 154.159 245.797 152.155 246.379C153.864 247.477 155.44 248.213 155.183 250.6C154.814 253.974 148.096 252.935 148.251 249.06C148.273 248.42 148.936 248.464 149.061 248.243C149.68 247.138 149.216 246.217 151.256 246.526C151.374 245.348 148.877 244.147 148.84 243.97C148.641 242.902 149.658 243.042 149.753 242.917C149.82 242.828 148.612 241.738 149.282 240.802C149.879 239.963 152.103 240.987 152.663 241.517ZM152.752 249.547C152.531 249.23 150.564 248.736 150.048 248.943C150.181 250.136 153.614 250.784 152.752 249.547Z" fill="#0067FF"/>
<path d="M176.988 252.95C180.111 256 178.564 260.471 174.122 258.07C172.501 257.193 169.982 253.65 170.932 251.941C171.021 251.778 172.45 250.777 172.708 250.762C173.702 250.696 176.236 252.228 176.98 252.95H176.988ZM175.588 255.55C175.986 255.197 173.739 253.443 173.186 253.753C172.708 254.187 175.146 255.941 175.588 255.55Z" fill="#0067FF"/>
<path d="M183.316 250.224C183.817 250.828 183.883 252.75 183.552 253.443C183.124 254.334 181.43 254.467 180.561 254.327C179.552 254.165 176.465 251.837 175.728 251.041C174.358 249.553 175.242 247.174 177.143 247.189C178.012 247.196 182.786 249.583 183.309 250.216L183.316 250.224ZM181.298 252.242C181.423 251.623 180.996 251.542 180.605 251.284C180.215 251.027 177.231 249.399 177.091 249.538C176.878 250.754 180.885 252.603 181.29 252.242H181.298Z" fill="#0067FF"/>
<path d="M146.925 244.86C149.009 246.377 147.448 250.908 144.95 249.98C143.499 249.442 141.201 247.74 141.761 245.921C142.586 243.261 145.002 243.46 146.917 244.86H146.925ZM145.194 246.576C145.098 246.421 143.86 246.119 143.742 246.23L144.796 247.725C145.51 247.939 145.304 246.753 145.194 246.576Z" fill="#0067FF"/>
<path d="M142.836 253.451C142.888 253.392 142.748 252.906 142.91 252.641C143.006 252.493 144.324 251.742 144.56 251.69C147.639 251.035 149.916 257.643 146.299 257.657C145.149 257.657 141.753 254.954 141.459 254.062C140.965 252.574 142.77 253.517 142.836 253.444V253.451Z" fill="#0067FF"/>
<path d="M167.691 244.479C168.605 244.206 171.308 245.385 172.001 246.07C175.065 249.112 167.831 251.654 166.712 248.051C166.41 247.079 166.586 244.803 167.691 244.471V244.479Z" fill="#0067FF"/>
<path d="M163.19 248.382C164.406 248.029 166.719 249.362 167.485 250.283C169.098 252.221 168.111 254.821 165.459 253.812C165.12 253.679 162.041 251.241 161.923 251.042C161.356 250.121 162.328 248.64 163.19 248.39V248.382Z" fill="#0067FF"/>
<path d="M140.332 248.435C142.424 250.954 139.691 254.195 136.95 252.567C136.53 252.317 135.44 250.394 135.366 249.923C135.042 247.816 138.652 246.424 140.324 248.435H140.332Z" fill="#0067FF"/>
<path d="M212.252 102.251C212.053 102.214 210.204 101.249 209.99 101.058C208.591 99.7466 207.928 93.647 209.549 92.6378C210.256 92.1958 211.545 92.6378 212.061 92.5494C213.166 92.3726 213.151 91.0171 215.331 91.8127C218.963 93.1461 219.53 97.8312 217.07 100.608C216.097 101.706 213.681 102.502 212.259 102.259L212.252 102.251ZM215.751 94.8478C214.514 93.5954 213.873 94.5826 213.062 94.3984C211.95 94.1479 211.648 91.9674 211.051 95.9454C212.488 95.9012 213.954 95.8128 214.963 96.9915C215.213 97.2861 215.648 98.8552 216.156 98.3543C216.709 97.8018 216.473 95.5844 215.751 94.8551V94.8478ZM212.252 99.8497C212.451 99.474 211.773 98.8036 211.655 98.951C211.456 99.3267 212.134 99.997 212.252 99.8497Z" fill="#0067FF"/>
<path d="M221.571 89.9269C219.449 89.9564 219.361 87.1792 216.908 87.356C216.274 87.4002 214.455 88.7041 215.42 86.634C216.878 83.5253 222.624 86.5825 221.571 89.9343V89.9269Z" fill="#0067FF"/>
<path d="M247.825 159.474C246.963 160.063 246.256 161.294 245.114 161.743C244.039 162.17 243.007 162.074 243.95 160.859C246.094 158.096 248.267 156.947 250.985 154.973C252.105 154.163 252.761 152.756 254.16 153.043C256.127 153.448 252.834 156.336 252.061 156.94C250.757 157.956 249.173 158.538 247.825 159.467V159.474Z" fill="#0067FF"/>
<path d="M209.85 168.985C209.99 170.009 209.025 170.702 208.163 171.004L199.522 170.444L182.977 166.311C182.38 164.411 182.911 164.035 184.723 164.204C189.003 164.61 194.852 167.262 199.25 168.013L209.843 168.985H209.85Z" fill="#0067FF"/>
<path d="M192.119 172.889C196.185 172.881 200.237 173.603 204.274 173.795C205.504 173.854 210.764 173.412 211.213 174.075C211.523 174.539 211.486 175.644 210.852 175.85C210.609 175.931 207.795 176.13 207.287 176.13C204.318 176.152 199.198 175.666 196.171 175.29C194.469 175.077 192.2 175.077 192.112 172.889H192.119Z" fill="#0067FF"/>
<path d="M209.401 177.095C209.556 177.117 210.248 177.412 210.454 177.545C210.02 177.957 209.563 178.583 208.966 178.767C207.456 179.232 203.566 179.047 201.887 178.9C200.347 178.686 195.832 179.799 197.681 177.095C201.327 177.456 205.88 176.609 209.401 177.095Z" fill="#0067FF"/>
<path d="M204.436 180.402C204.547 180.889 204.267 181.014 203.994 181.308C202.587 182.87 198.027 182.192 195.942 182.575C194.97 182.752 194.174 183.725 193.762 183.725C192.789 183.725 192.568 181.964 193.084 181.375C193.835 180.528 202.756 180.469 204.429 180.402H204.436Z" fill="#0067FF"/>
<path d="M201.091 186.76C201.202 186.945 201.202 187.711 201.091 187.888C200.642 188.58 193.482 188.808 193.622 186.422C193.894 186.046 200.878 186.414 201.091 186.76Z" fill="#0067FF"/>
<path d="M192.502 192.035C192.303 191.969 191.449 190.996 192.001 190.606C192.554 190.215 198.145 189.317 198.734 190.488C199.081 191.998 193.548 192.374 192.502 192.042V192.035Z" fill="#0067FF"/>
<path d="M200.127 90.0373C204.075 92.5051 201.57 101.537 196.591 100.874C194.182 100.549 193.747 93.949 194.277 92.2326C194.484 91.5696 197.165 89.9563 197.813 89.7574C198.712 89.4922 199.338 89.5438 200.127 90.0299V90.0373ZM199.626 97.4408C201.998 92.2399 196.664 87.6579 195.729 95.0392C198.241 93.8385 198.432 95.938 199.626 97.4408Z" fill="#0067FF"/>
<path d="M203.537 83.0178C203.537 83.2167 203.537 83.4156 203.537 83.6219C203.537 84.0197 203.537 84.4249 203.537 84.8227C201.983 84.7858 201.18 82.6274 199.441 82.5169C198.72 82.4727 197.01 83.3199 196.9 81.9644C196.731 79.7839 200.377 79.7029 201.887 80.911C202.432 81.3456 203.206 82.8484 203.53 83.0252L203.537 83.0178Z" fill="#0067FF"/>
<path d="M204.34 104.092C205.71 103.739 206.056 106.192 204.59 106.752C203.515 106.221 203.029 104.439 204.34 104.092Z" fill="#0067FF"/>
<path d="M222.683 224.978C223.589 225.715 223.464 226.842 222.632 227.601C222.167 228.021 221.387 227.969 221.276 228.492C224.252 228.64 223.98 232.249 221.35 232.942C220.444 233.177 220.164 233.06 219.707 232.323C218.455 230.312 221.099 228.971 220.672 228.5C219.913 229.052 218.978 228.242 218.86 227.431C218.654 226.032 221.121 223.711 222.69 224.986L222.683 224.978Z" fill="#0067FF"/>
<path d="M214.359 231.203C214.293 231.262 214.374 232.293 213.748 232.853C213.46 233.111 211.56 233.803 211.199 233.788C209.247 233.729 210.042 230.643 212.252 230.127C212.849 229.987 213.696 230.363 213.748 230.304C213.792 230.252 213.711 229.486 214.035 228.934C214.536 228.079 216.532 226.635 217.527 227.284C219.413 228.506 217.306 231.004 215.869 231.387C215.376 231.519 214.506 231.077 214.352 231.21L214.359 231.203Z" fill="#0067FF"/>
<path d="M216.694 231.557C219.029 231.27 219.199 234.518 217.173 235.675C213.548 237.738 212.9 232.021 216.694 231.557Z" fill="#0067FF"/>
<path d="M217.895 236.684C218.499 237.295 218.403 238.938 217.843 239.638C216.613 241.17 215.56 240.249 214.064 240.515C213.784 238.864 216.134 234.909 217.895 236.684Z" fill="#0067FF"/>
<path d="M205.718 235.94C203.817 234.282 207.552 231.049 208.974 232.831C210.395 234.614 207.169 237.214 205.718 235.94Z" fill="#0067FF"/>
<path d="M210.676 234.562C213.453 233.988 213.733 238.327 210.897 238.437C208.348 238.54 208.996 234.908 210.676 234.562Z" fill="#0067FF"/>
<path d="M221.489 233.369C224.112 232.839 223.81 236.397 221.268 237.082C218.727 237.767 218.587 233.958 221.489 233.369Z" fill="#0067FF"/>
<path d="M58.982 205.369C59.122 205.531 58.982 206.29 58.8494 206.555C58.5253 207.188 51.5197 210.938 50.6799 211.019C48.8235 211.196 50.8051 208.765 51.4755 208.198C52.5584 207.291 56.1238 205.244 57.413 205.111C57.6708 205.089 58.9305 205.302 58.982 205.369Z" fill="#0067FF"/>
<path d="M195.125 204.455C194.874 209.258 189.916 209.678 186.749 211.549C184.008 213.17 182.329 215.696 180.207 217.332C178.844 218.385 177.688 217.847 178.454 216.175C178.564 215.925 181.069 213.214 181.46 212.875C182.24 212.197 186.859 208.691 187.53 208.418C188.708 207.947 189.961 207.91 191.132 207.217C192.554 206.378 193.312 204.411 195.125 204.455Z" fill="#0067FF"/>
<path d="M201.961 207.815C202.3 207.771 202.646 207.668 202.955 207.889C204.222 210.541 200.878 210.585 199.338 211.226C198.174 211.704 192.31 214.99 191.824 212.714C191.64 211.837 195.08 211.1 195.839 210.732C197.71 209.826 199.721 208.124 201.961 207.822V207.815Z" fill="#0067FF"/>
</svg>
