<svg width="292" height="307" viewBox="0 0 292 307" fill="none" xmlns="http://www.w3.org/2000/svg">
<path d="M0 0H292V307H0V0Z" fill="white"/>
<path d="M71.1184 76.2748C67.8015 62.2751 82.3675 55.6461 94.142 57.2298C98.2674 57.7832 102.298 59.6789 104.405 63.3878C105.273 64.9184 106.253 68.5155 105.527 70.1168C105.326 70.5524 103.998 71.4473 103.998 71.6592C103.998 71.7475 104.754 72.2656 104.937 72.7719C105.94 75.5448 107.221 78.5708 108.124 81.2023C109.723 85.8591 106.076 86.9953 104.264 90.3804C103.379 92.0406 103.219 95.3904 101.838 96.6679C99.9849 98.3811 95.4817 98.7991 93.0973 98.2457C88.6826 97.2154 81.2225 90.3098 78.9267 86.4184C78.3778 85.4882 77.764 82.8861 77.6164 82.7683C77.5161 82.6918 76.8787 82.8095 76.6013 82.7683C77.6223 84.7876 77.7581 86.5008 76.7725 88.579C76.1882 89.8153 75.4032 90.2686 74.1992 90.7925C74.5887 91.6285 76.5069 92.6352 76.8433 93.0826C76.92 93.1886 76.6662 93.7479 76.9613 94.1482C78.5962 96.3795 80.3254 98.4459 81.0514 101.213C82.0075 100.689 82.0901 99.4467 82.7571 98.646C83.7309 97.4803 88.7653 95.3256 89.2079 97.6746C89.4381 98.8756 86.3691 100.347 85.649 101.189C84.687 102.314 84.6929 104.192 82.7511 104.468L90.6716 129.195C91.8343 129.289 92.8671 129.93 93.9826 130.16C98.2379 131.031 101.443 130.484 105.545 130.584C110.75 130.708 114.197 132.179 119.461 130.148C122.92 128.812 124.077 128.417 127.712 127.446C128.509 127.234 129.011 126.51 129.654 126.31C132.587 125.409 134.688 128.317 133.361 131.031C132.764 132.244 131 132.674 131.383 134.352C136.164 135.335 146.61 132.385 142.591 140.922C141.116 144.054 139.77 143.695 137.309 144.878C134.936 146.02 133.65 147.457 130.858 147.351C124.555 147.109 119.662 145.42 113.5 147.427C112.178 147.857 110.874 148.763 109.469 149.046C111.429 150.459 113.483 152.92 114.451 155.175C115.419 157.429 114.905 159.508 116.145 161.338C118.122 159.119 117.467 155.345 115.784 153.167C114.923 152.054 111.37 150.948 113.601 149.582C115.436 148.451 117.945 150.106 119.06 151.613C121.273 154.592 121.745 159.331 119.402 162.375C118.753 163.216 116.475 164.317 116.375 164.476C116.192 164.771 116.31 166.572 116.322 167.155C116.457 173.66 117.278 179.954 117.36 186.447C117.384 188.213 117.313 189.991 117.349 191.757C117.396 194.354 117.266 196.973 117.396 199.57C117.862 199.799 118.37 199.911 118.883 199.958C121.037 200.164 127.937 199.405 130.026 198.775C130.734 198.563 134.328 197.026 134.777 196.685C136.382 195.449 136.919 191.763 138.23 190.398C139.009 189.585 140.384 189.62 140.968 188.696C139.947 188.255 138.289 186.818 137.545 185.959C137.35 185.735 136.884 185.317 136.86 185.276C136.689 184.934 136.542 184.134 136.506 183.727C136.07 178.606 139.741 175.403 142.414 171.517C145.052 167.685 147.626 163.782 150.222 159.914C150.659 159.266 152.329 157.724 152.601 157.088C152.931 156.323 150.789 156.264 150.293 155.81C149.29 154.892 149.426 151.66 149.609 150.347C149.986 147.639 154.372 141.051 156.372 138.985C158.898 136.371 165.343 135.235 168.861 135.04C169.752 134.993 170.62 134.976 171.434 135.4C171.245 130.56 176.469 131.679 179.579 130.025C183.592 129.471 185.841 129.471 188.556 126.339C195.538 118.286 198.636 108.43 203.677 99.4055C204.155 98.5518 205.418 97.9749 205.341 96.7974C202.626 97.6334 202.119 95.0195 200.69 93.3593C194.753 95.4964 192.628 96.6444 189.925 90.1449C189.04 88.0138 188.385 85.6707 187.47 83.3688C186.478 80.8785 186.827 79.3184 187.617 76.887C188.255 74.9148 188.444 75.1503 188.733 72.872C188.804 72.3245 189.353 70.2522 189.258 70.1521C189.187 70.0815 187.924 70.1757 187.387 69.4515C187.281 69.3103 186.295 66.8553 186.325 66.7081C186.431 66.1665 187.747 64.9479 188.231 64.5063C193.614 59.6082 202.183 56.1936 209.189 59.3197C212.394 60.7444 216.142 64.5181 217.346 67.756C221.636 65.931 225.756 65.672 229.209 69.2455C232.785 72.9544 230.755 76.7399 231.386 81.2494C231.67 83.2982 233.753 86.436 232.649 87.8136C232.16 88.4259 229.639 88.6673 228.843 88.5966C225.715 88.3199 223.755 80.5018 220.592 79.3773C219.76 80.0779 220.208 81.1376 219.913 82.109C219.494 83.4924 218.302 85.706 216.909 86.2888C215.835 86.7363 214.725 86.1829 213.922 87.0601C215.18 89.5091 219.954 88.9028 218.709 92.0112C221.111 91.5755 223.879 92.9119 225.567 94.5662C234.485 103.273 243.084 120.599 246.283 132.662C247.21 136.159 247.322 142.394 242.677 142.929C243.125 143.659 243.792 144.224 244.182 145.007C245.144 146.95 245.911 153.785 245.716 156.034C245.35 160.179 243.202 163.399 241.992 167.179C246.897 166.961 256.004 170.587 254.162 176.763C253.92 177.575 252.262 179.153 252.268 179.312C252.273 179.524 254.044 180.283 253.891 181.102C256.399 197.515 259.728 213.764 262.879 230.048C262.903 230.159 262.856 230.277 262.879 230.389C262.968 230.848 263.133 231.296 263.222 231.755C263.328 232.291 263.493 232.762 263.564 233.121C263.658 233.627 263.83 234.08 263.906 234.487C264.868 239.491 266.775 247.297 266.993 252.101C267.07 253.755 266.509 253.82 265.618 254.986C265.075 254.992 264.319 255.333 264.249 255.327C264.136 255.315 264.018 255.339 263.906 255.327C263.428 255.262 262.401 254.78 261.51 254.644C258.347 236.753 254.227 219.068 251.276 201.136C250.485 196.314 249.505 191.304 248.886 186.435C248.673 184.746 248.189 182.744 248.839 181.19C248.024 181.349 245.752 181.467 245.734 182.373C245.71 183.433 247.021 187.46 247.304 189.038C249.559 201.654 250.102 214.47 251.961 227.098C252.639 231.696 253.731 236.306 254.587 240.88C254.587 242.34 249.482 244.919 248.307 240.315C244.79 226.545 244.282 210.243 242.37 196.049C241.762 191.546 240.948 187.048 240.275 182.556C237.631 182.167 235.04 183.292 232.531 183.539C230.649 183.721 228.648 183.792 226.747 183.922C221.92 184.251 217.021 184.151 212.199 184.269C212.323 184.675 212.571 184.987 212.553 185.452C212.482 187.695 211.815 191.251 211.461 193.612C209.608 205.993 207.342 218.415 205.347 230.73C205.329 230.842 205.365 230.96 205.347 231.072C205.27 231.531 205.081 231.979 205.005 232.438C204.503 235.387 204.143 238.955 203.559 241.757C202.88 244.995 198.436 244.766 197.609 242.016C197.397 241.304 198.058 237.836 198.206 236.759C198.908 231.708 199.752 226.527 200.555 221.505C200.59 221.287 200.519 221.04 200.555 220.822C200.661 220.151 200.785 219.457 200.897 218.774C200.985 218.25 201.139 217.679 201.239 217.066C201.599 214.87 202.231 212.498 202.608 210.231C203.423 205.351 204.468 200.523 205.294 195.655C205.636 193.618 206.214 185.411 207.047 184.416C207.354 184.045 207.879 184.086 208.097 183.751C208.085 183.286 203.399 183.103 202.614 182.897C203.417 184.787 203.476 187.154 203.269 189.185C202.65 195.349 200.46 202.284 199.274 208.43C198.087 214.576 197.391 220.41 196.104 226.28C195.113 230.813 193.75 236.094 192.433 240.556C191.259 244.542 189.595 248.504 188.249 252.437C186.585 253.461 183.445 254.061 183.415 251.383C183.392 249.01 186.567 241.51 187.364 238.578C187.623 237.63 187.671 236.671 187.877 235.846C191.164 222.824 193.838 208.836 196.346 195.608C197.007 192.122 197.108 187.795 197.881 184.499C198.087 183.621 198.937 182.679 199.864 182.544L196.346 181.455C189.778 178.046 194.334 173.007 199.522 171.612C199.622 171.17 199.168 171.205 198.843 171.105C197.798 170.793 192.622 169.422 192.026 169.945C191.902 170.051 191.92 170.976 191.672 171.382C191.465 171.723 190.663 171.988 190.261 172.453C185.699 177.781 182.949 180.531 180.004 187.16C178.747 189.985 176.693 194.984 176.114 197.904C175.754 199.723 176.203 202.001 175.89 203.561C175.731 204.35 174.916 204.58 174.928 205.204C174.928 205.498 176.008 208.813 176.215 209.048C176.781 209.696 178.186 209.76 178.947 210.42C179.195 210.638 182.607 215.306 182.713 215.612C183.014 216.466 183.474 219.374 183.445 220.31C183.344 223.837 180.96 225.391 177.867 226.38C176.221 226.904 173.482 227.004 172.201 227.869C170.921 228.735 169.61 231.449 168.696 232.432C168.648 232.479 168.176 232.626 167.669 233.115C167.256 233.515 166.305 234.575 165.957 234.822C164.706 235.699 160.675 237.577 159.199 237.813C156.679 238.219 150.706 237.047 149.709 234.463C149.373 233.598 149.355 231.243 149.709 230.389C150.382 228.729 155.823 222.812 157.399 220.811C158.839 218.98 159.666 217.932 161.017 215.706C161.383 215.1 162.091 214.823 162.445 214.058C163.366 212.056 161.731 209.089 162.192 206.628C162.392 205.575 163.655 205.84 163.561 204.756C161.259 203.832 154.85 204.238 154.366 201.089C154.224 200.17 155.7 198.492 154.844 197.221C154.684 196.979 150.895 195.431 150.211 195.19C150.612 197.227 149.591 197.185 148.847 198.086C147.266 200 145.141 201.854 144.858 204.303C144.804 204.78 145.17 205.31 145.023 205.875C144.834 206.575 141.057 212.098 140.289 212.798C136.471 216.266 132.788 215.736 128.12 215.359C125.204 215.124 122.861 215.424 120.105 213.787C119.491 213.422 119.06 212.522 118.464 212.351C117.626 212.109 116.558 212.551 115.79 211.95C116.357 213.652 115.442 214.205 113.914 214.682C113.943 215.53 114.734 215.824 115.053 216.778C116.003 219.598 115.035 221.717 116.988 224.578C117.372 225.138 117.484 225.22 118.015 225.603C118.133 225.685 118.222 225.885 118.358 225.944C118.452 225.985 118.594 225.915 118.7 225.944H119.042C119.503 227.045 120.158 227.757 121.12 228.487C123.569 230.342 126.68 231.714 128.952 233.315C130.752 234.581 135.267 239.938 132.635 241.898C132.44 242.04 128.751 243.712 128.285 243.882C127.287 244.247 126.52 244.542 125.405 244.383C124.201 244.212 120.724 242.764 119.296 242.263C117.868 241.763 116.711 240.727 114.929 240.815C111.399 238.56 106.819 238.113 103.638 235.517C104.028 238.566 104.848 241.569 105.308 244.607C105.421 245.372 105.279 246.149 105.391 246.914C105.751 249.411 107.032 254.303 106.937 256.475C106.76 260.626 101.95 259.224 100.982 255.415C100.014 251.606 100.02 246.602 99.4891 242.558C99.2354 240.615 98.291 237.748 98.1789 235.976C98.1081 234.881 98.8399 233.686 98.1966 232.915C98.0786 232.779 95.0981 231.437 94.9151 231.431C94.7676 231.425 92.1707 232.055 92.0586 232.155C91.3444 232.767 92.2533 235.464 92.336 236.37C92.4186 237.33 92.8022 241.946 92.6251 242.458C92.5071 242.805 90.9903 243.812 90.6303 243.912C86.9061 244.96 87.6085 236.894 87.5554 234.981C87.5258 233.951 87.0596 232.997 87.1717 231.908C87.2485 231.196 87.9272 230.46 87.88 230.389C87.8682 230.366 87.5731 230.436 87.3547 230.236C86.735 229.677 86.2215 228.752 85.6726 228.323C82.2554 225.668 77.5574 223.701 74.0221 220.811C69.3478 216.984 69.2061 215.13 72.0686 209.984C74.7658 205.127 78.5017 202.802 80.9806 199.063C82.4206 196.885 83.0522 193.706 85.1414 191.946C84.9054 191.451 84.3919 191.569 84.1204 191.434C83.8961 191.322 83.8548 191.175 83.4358 191.092C83.1466 190.297 83.0994 189.544 83.0935 188.702C83.0817 186.906 83.3945 185.064 83.0935 183.233C73.426 182.603 63.5874 182.626 53.9672 184.075C53.4243 184.398 54.044 185.794 54.0145 186.477C53.9731 187.395 53.7194 188.172 53.6367 189.038C52.5626 200.788 50.91 212.504 49.6116 224.143C48.8679 230.813 48.1479 237.471 48.1479 244.206C47.0383 246.808 43.6093 246.514 42.7712 243.835C43.3378 240.692 42.8243 237.477 43.025 234.31C43.3201 229.541 44.5005 224.614 45.0317 219.91C46.3714 207.965 47.3688 195.943 49.1925 184.086L43.3673 183.227C42.1869 195.455 40.6288 207.665 40.6229 219.951C39.0766 231.937 38.9703 244.2 37.182 256.151C36.8338 258.465 33.21 259.525 32.2421 257.358C31.4984 255.698 32.5903 252.225 32.7437 250.358C34.473 229.812 35.559 209.154 37.542 188.69C37.5539 188.578 37.5302 188.461 37.542 188.349C37.548 188.278 37.8431 187.89 37.8844 187.324C37.9434 186.536 37.8194 185.717 37.8844 184.934C37.8962 184.822 37.8667 184.705 37.8844 184.593C37.9021 184.463 38.4628 184.104 38.2267 183.568C37.6837 183.504 37.0345 183.651 36.5151 183.568C35.4468 183.392 34.3668 182.986 33.092 183.227C31.888 182.821 29.3855 181.09 29.0373 179.907C28.813 179.124 29.657 176.41 30.0465 175.58C30.7371 174.108 32.6611 172.695 34.1484 172.159C35.7597 171.576 37.5125 171.918 38.687 171.564C40.0504 171.152 37.548 168.621 37.1289 167.761C36.639 166.755 36.0843 165.218 35.6475 164.111C35.435 163.581 35.618 162.763 35.4291 162.457C35.3052 162.257 33.629 161.892 33.0802 161.215C32.8913 160.979 31.3804 157.653 31.3804 157.441V151.289C31.3804 150.459 31.7168 148.94 31.7227 147.704C32.2598 147.48 32.2598 146.22 31.7227 145.997C32.0827 144.984 32.1595 145.255 32.4073 143.948C33.7471 136.942 35.2403 131.361 37.1053 124.55C37.6483 122.56 38.1263 120.511 38.6339 118.886C38.8169 118.291 39.0471 117.196 38.9172 116.614C39.0648 116.567 39.3835 116.731 39.5428 116.567C39.6845 116.425 40.1094 114.07 40.3573 113.44C40.6701 112.657 41.4255 110.591 41.6557 110.126C42.6414 108.124 50.2077 99.6351 51.8838 98.3105C55.4781 95.4669 59.3439 92.8766 63.0681 90.3157C64.5082 89.3266 69.3832 84.5816 70.2862 87.5664C70.6226 88.6849 69.7786 88.6496 69.7373 89.621C70.239 89.568 70.9531 89.7858 71.3721 89.5445C71.5256 89.4561 73.4024 86.8069 73.4496 86.6362C73.6385 85.9121 73.1014 85.1232 73.1309 84.3284C73.1604 83.4807 73.851 82.8213 73.8392 82.2679C73.8333 81.9382 71.4902 77.9232 71.1007 76.2983L71.1184 76.2748ZM101.047 65.2128C100.351 64.1708 99.5482 62.9168 98.2556 62.3575C93.6108 60.3323 87.5022 61.0388 82.7571 62.434C80.8743 62.9874 77.3272 64.8596 76.2413 66.5256C75.4268 67.7796 74.512 70.8409 74.5297 72.3245C74.5415 73.184 75.3737 77.2697 75.7632 77.9585C76.6898 79.601 76.9377 78.1469 77.1915 77.9879C80.9392 75.5977 86.4576 79.0594 90.2585 79.6599C90.9136 75.8921 88.718 74.3085 93.1976 72.507C94.8679 71.8358 101.472 70.2816 102.21 69.0277C102.499 68.5449 102.003 66.5904 101.773 65.9958C101.525 65.36 101.195 65.4306 101.041 65.2069L101.047 65.2128ZM215.557 82.0089C216.708 80.4076 215.599 74.0494 214.867 72.0831C214.076 69.9578 211.048 66.0723 209.236 64.7183C204.32 61.0506 196.96 62.6813 192.345 66.0311C192.245 66.9495 193.348 67.1143 193.897 67.7207C195.502 69.481 198.613 74.2496 200.578 75.062C202.402 75.8156 204.963 75.2033 206.822 76.3513C208.682 77.4993 210.57 81.8146 212.453 82.3503C213.084 82.5328 215.209 82.4975 215.557 82.0089ZM226.582 78.3235C226.801 75.0502 228.099 73.0427 224.646 71.2059C223.23 70.4524 219.146 69.9755 219.158 72.2774C219.158 73.3547 219.96 74.7265 219.742 75.9333C222.775 75.1091 224.54 76.2336 226.588 78.3235H226.582ZM105.704 84.1341C105.409 80.1485 101.933 77.0048 102.623 72.8602L93.7347 75.6036C94.0475 77.67 94.4784 82.056 92.094 83.0215C88.7003 84.3932 85.7789 81.9853 82.4974 81.1611C78.9916 80.2781 76.6485 79.7011 79.8415 83.8104C81.1871 85.5412 88.1397 91.8699 89.9929 93.1415C92.4717 94.837 94.5551 95.1549 97.4884 95.0725C97.5238 95.0725 97.6713 95.3315 98.1612 95.2785C98.5979 95.2314 101.124 94.4014 101.289 94.1659C101.691 93.6066 101.75 90.2862 102.375 88.8321C103.001 87.378 104.724 85.4823 105.71 84.1341H105.704ZM193.024 72.8602C192.982 72.8249 192.304 72.7307 192.345 73.031C193.153 75.5801 190.049 78.141 190.439 80.3958C190.598 81.3142 191.755 82.7389 192.168 83.7986C193.336 86.7834 193.567 93.4771 198.495 90.4393C199.085 90.0743 205.252 84.1518 205.435 83.7044C207.118 79.6599 202.107 80.2015 199.805 79.5892C197.503 78.977 196.199 77.517 194.741 75.7567C194.257 75.168 193.148 72.9721 193.018 72.8602H193.024ZM209.124 85.8414C208.445 85.2762 204.715 90.0625 203.653 90.4511C205.896 92.0759 205.878 93.8421 205.707 96.4324C207.849 94.9018 210.151 92.5175 212.896 92.3291C211.296 90.4629 207.69 88.8085 209.13 85.8414H209.124ZM113.925 193.465C113.813 185.017 113.3 177.051 112.562 168.692C112.025 162.592 112.597 158.283 108.732 153.038C107.964 152.001 107.05 151.089 106.2 150.135C101.85 150.759 97.5415 151.76 93.1563 152.001C88.7712 152.243 83.182 151.748 78.9149 150.329C75.8576 149.317 74.3113 148.01 72.6942 145.266C68.6041 138.331 65.2872 129.972 61.8346 122.619C61.0024 120.847 59.5151 120.046 59.7984 117.779C59.9695 116.413 61.1263 116.101 62.3008 116.667C64.2603 117.614 66.8276 125.132 67.9785 127.428C70.3098 132.085 73.5677 139.167 76.377 143.318C77.2859 144.66 78.7319 145.737 80.2959 146.232C88.3226 148.758 97.9487 148.028 106.076 146.173C108.442 145.632 110.526 144.06 112.833 143.347C114.114 142.953 116.658 143.494 117.006 141.699C117.177 140.804 116.847 135.429 116.322 135.052C116.097 134.893 114.716 135.435 114.108 135.417C113.099 135.382 112.149 134.493 110.85 135.052C110.603 135.276 111.789 137.754 111.866 138.326C112.108 140.098 110.414 145.261 108.112 144.113C106.914 143.518 107.799 142.541 107.77 141.711C107.699 139.674 107.463 138.155 107.179 136.2C107.126 135.835 107.575 134.858 107.427 134.711C106.926 134.193 97.5061 134.293 95.6411 133.998C94.1361 133.763 91.7162 133.121 90.4768 132.327C89.9575 132.809 89.9161 133.474 89.4676 134.046C89.1194 134.493 85.1237 138.184 84.8345 138.308C84.5454 138.432 83.9611 138.155 83.7958 137.961C81.8245 135.594 86.5697 132.35 86.8176 130.713C87.1363 128.553 84.5395 124.096 83.7781 121.918C80.6855 113.087 78.4781 99.8823 71.142 93.5242C69.8494 92.3997 67.8546 92.5881 69.755 89.9566L62.5959 94.9371C54.4571 101.425 46.6547 107.571 43.0368 117.785C41.7147 121.506 40.493 126.057 39.4366 129.907C37.6306 136.495 33.6822 150.971 35.258 157.347C35.3701 157.8 36.1315 158.972 36.6509 158.925C39.773 157.217 43.1548 156.087 46.3655 154.586C52.1258 151.895 57.9039 148.781 63.6996 146.256C65.4466 145.496 68.734 143.895 70.4691 144.431C71.1302 144.637 71.9033 145.196 71.6909 145.991C71.4666 146.832 69.0527 148.139 68.1379 148.628C63.8589 150.906 59.0016 152.337 54.7109 154.345C49.4817 156.788 44.6952 160.338 38.9585 161.715C38.8464 161.874 39.7966 165.024 39.9737 165.459C40.0917 165.748 40.2097 165.919 40.316 166.142C41.461 168.521 42.1161 169.233 44.4238 170.24C52.8341 173.908 65.1692 172.577 74.3704 171.935C78.3306 171.659 82.6803 171.776 86.611 170.823C88.5646 170.346 89.621 169.221 91.3385 168.191C91.4507 168.215 91.5746 168.168 91.6808 168.191C92.6488 168.403 93.6757 168.715 94.4193 168.874C94.679 170.028 92.6901 171.3 92.6842 171.771C92.6724 172.877 94.0829 172.718 94.4193 173.225C95.8476 175.373 95.523 178.7 95.7886 181.002C96.2785 185.27 96.8155 189.532 97.152 193.818C97.5533 198.928 97.2818 203.025 98.4445 208.077C98.7514 209.401 98.0786 210.82 99.6426 211.662C102.9 213.416 108.159 211.703 111.712 211.933C113.418 211.615 112.757 207.935 112.91 206.634C113.394 202.431 113.978 199.587 113.931 195.184C113.931 194.842 113.931 194.501 113.931 194.159C113.931 193.93 113.931 193.706 113.931 193.477L113.925 193.465ZM242.978 138.408C243.326 137.849 242.588 134.958 242.358 134.169C239.189 123.472 233.375 110.715 226.081 102.237C224.823 100.777 221.076 96.7327 219.24 96.5914C218.437 96.5266 217.334 97.1153 216.472 97.1271C215.109 97.1507 214.141 96.5502 212.465 96.8563C206.102 98.0338 203.594 109.049 200.153 113.611C197.899 119.286 193.301 126.157 189.087 130.578C188.491 131.208 188.172 132.085 187.387 132.65C185.51 134.01 175.312 134.952 175.217 135.57L177.153 143.948C185.428 143.742 193.508 141.817 201.605 140.351C204.408 139.415 204.987 137.089 206.586 135.07C207.808 133.522 209.567 131.755 210.653 130.242C212.624 127.493 214.212 123.825 216.543 121.07C217.523 119.905 218.815 119.022 220.438 119.334C221.158 123.154 217.906 124.973 216.041 127.764C214.548 130.001 213.557 132.574 211.874 134.705C213.527 135.364 214.359 136.977 216.006 137.937C219.706 140.103 224.086 138.143 228.14 138.102C229.911 138.084 232.354 138.278 234.302 138.32C235.618 138.349 242.447 139.285 242.99 138.426L242.978 138.408ZM128.308 131.284C126.072 131.126 123.847 131.938 121.84 132.856C121.014 133.233 120.435 134.375 119.066 134.022C120.536 136.889 121.409 139.527 119.751 142.558C122.814 143.571 126.007 143.165 129.182 143.23C130.097 143.247 131.012 143.736 131.891 143.595C132.77 143.453 135.78 141.11 136.748 140.557C137.651 140.045 139.54 140.304 138.755 138.802C136.565 138.885 134.393 138.337 132.245 138.125C130.899 137.996 128.238 138.514 127.293 137.601C125.777 136.136 127.323 132.715 128.314 131.29L128.308 131.284ZM212.665 141.41C211.391 139.997 209.998 138.661 209.638 136.742L206.716 141.346L212.541 144.607C212.152 143.489 213.828 143.059 213.917 142.723C214.088 142.058 212.996 141.781 212.665 141.41ZM173.163 144.601C172.679 143.465 172.26 138.437 171.239 138.143C170.838 138.025 163.697 139.479 162.988 139.744C162.693 139.856 160.421 141.181 160.179 141.381C159.04 142.335 154.979 148.699 154.566 150.129C154.236 151.26 154.318 152.337 154.342 153.485C157.004 149.941 158.273 144.513 163.413 143.918C166.5 143.565 170.142 144.001 173.169 144.601H173.163ZM228.642 142.558C226.346 142.923 223.915 142.664 221.63 142.9C220.627 143.006 217.688 143.359 216.903 143.571C216.744 143.612 215.705 145.219 215.121 145.637C214.666 145.961 213.958 145.926 213.917 145.967C213.781 146.102 215.085 148.722 212.701 149.052C211.19 149.258 210.322 147.68 209.242 147.044C207.625 146.097 205.913 145.608 204.249 144.854C203.818 144.66 203.376 144.024 203.14 144.007C202.833 143.977 202.083 144.637 201.593 144.766C193.655 146.933 184.631 147.533 176.504 148.428C175.996 148.481 175.448 148.946 174.999 148.958C173.966 148.987 173.577 147.627 173.022 147.645C172.367 147.668 171.688 148.045 170.95 148.039C165.597 147.998 164.045 146.52 160.628 151.731C154.413 161.203 147.903 170.652 141.877 180.342C140.644 182.326 139.05 182.314 141.901 184.516C144.173 186.265 148.281 188.861 150.813 190.315C151.792 190.88 156.88 193.553 157.594 193.482C162.829 189.762 165.196 183.786 168.885 178.759C170.478 177.664 171.635 175.915 173.004 174.667C173.73 174.008 177.442 171.417 177.625 171.076C177.909 170.528 177.383 170.623 177.153 170.534C175.843 170.022 174.362 169.698 173.37 168.491C172.774 167.761 171.564 165.348 172.733 164.83C175.276 163.705 175.595 165.807 176.858 166.819C177.141 167.043 180.01 168.521 180.193 168.521C180.694 168.521 184.236 166.184 185.41 165.872C194.712 163.37 212.541 170.905 222.982 171.27C226.151 171.382 233.08 168.727 236.073 167.22C239.448 165.512 241.148 162.045 241.916 158.36C242.376 156.14 241.567 149.847 240.818 147.674C240.605 147.062 239.98 146.603 239.767 145.991C239.555 145.378 239.596 143.553 239.207 143.3C238.398 142.776 231.097 142.794 229.675 142.906C232.939 146.026 233.399 151.389 230.702 155.033C230.011 155.963 225.709 160.285 224.558 159.284C223.2 155.981 228.288 154.209 228.913 151.195C229.698 147.392 226.854 146.373 226.966 144.76C227.031 143.859 228.365 143.377 228.654 142.564L228.642 142.558ZM186.52 169.893C186.142 169.486 181.403 172.271 180.712 172.813C177.649 175.215 173.488 179.071 170.968 181.873C168.654 184.44 167.12 188.943 164.783 191.757C163.909 192.805 156.939 198.799 158.102 199.952C160.604 200.429 169.073 203.261 171.033 201.577C171.234 201.401 171.906 197.132 172.03 196.314C172.095 195.908 171.729 195.378 171.782 195.06C171.83 194.772 172.497 194.736 172.762 194.265C173.323 193.288 173.299 191.71 173.683 190.733C175.294 186.647 178.328 179.86 180.895 176.404C182.365 174.426 184.537 172.895 186.089 171.011C186.272 170.787 186.992 170.399 186.526 169.893H186.52ZM249.529 176.039C249.446 172.63 243.143 171.835 240.511 171.729C232.992 171.423 229.362 175.344 222.988 175.503C220.716 175.562 217.499 174.985 215.209 174.573C213.734 174.308 208.156 172.554 207.212 172.724C206.84 172.795 206.71 173.56 206.356 173.79C204.084 175.238 200.991 175.638 198.501 176.551C198.518 177.728 203.429 178.229 204.538 178.382C217.056 180.13 231.31 178.776 243.84 177.363C245.663 177.157 247.646 176.162 249.529 176.033V176.039ZM92.3478 172.618C92.3478 172.618 92.4776 171.894 92.1825 171.941C91.25 172.477 91.9523 173.007 92.3478 172.618ZM91.3208 173.301C87.4137 174.561 83.2646 175.421 79.145 175.709C69.3124 176.392 55.9385 176.892 46.4717 174.49C45.9524 174.361 43.5798 173.902 43.267 173.961C42.9542 174.019 42.8833 174.732 42.5469 175.02C41.4787 175.933 40.316 175.209 39.112 175.344C37.5421 175.521 32.9385 176.251 33.4225 178.558C35.9013 179.842 38.8346 178.935 41.4905 179.112C46.6311 179.453 49.5585 180.26 54.882 179.824C64.7029 179.024 73.6798 179.194 83.6128 179.259C84.6929 179.265 91.0493 178.829 91.3208 179.106C91.4271 179.218 91.2441 180.436 91.3208 180.819H92.3478C92.6901 178.211 91.5451 175.833 91.3208 173.301ZM88.9246 182.532H88.417C87.88 182.891 87.8209 183.268 87.8977 183.898H88.9187V182.532H88.9246ZM88.5823 185.264C88.8302 184.781 88.3639 184.351 88.2459 184.587C87.998 185.07 88.4643 185.499 88.5823 185.264ZM148.363 193.618C146.581 192.44 144.71 191.392 143.034 190.05C142.591 191.964 141.305 194.577 140.23 196.308C139.54 197.415 138.607 198.333 137.557 199.105C138.088 199.788 139.9 201.212 140.75 200.953C141.051 200.865 143.807 196.979 144.521 196.32C145.914 195.025 147.177 194.148 149.196 194.489C149.196 194.23 148.552 193.747 148.363 193.618ZM83.3295 203.126C83.5656 203.308 83.6482 203.744 83.9965 204.003C84.6162 204.462 87.278 206.464 87.7383 206.452C88.0216 206.446 90.3647 203.626 90.4709 203.367C90.7424 202.713 89.3141 194.395 88.7476 194.154C88.3521 195.496 86.7881 196.002 86.0326 196.909C85.7021 197.303 82.7925 201.607 82.5859 202.007C81.8541 203.402 82.8869 202.79 83.3295 203.131V203.126ZM133.425 200.994C132.918 200.7 132.369 201.695 131.826 201.925C130.227 202.613 122.336 203.797 120.606 203.703C119.467 203.638 118.151 203.19 117.006 203.025C116.977 204.391 115.891 206.287 116.363 207.594C116.422 207.759 118.541 209.078 118.859 209.201C122.235 210.496 127.931 211.556 131.519 211.532C133.018 211.521 135.987 211.014 137.008 209.831C137.592 209.154 137.663 208.206 138.1 207.506C138.436 206.964 140.03 205.292 139.947 204.909C137.504 203.791 135.828 203.396 133.697 201.648C133.396 201.401 133.455 201.012 133.425 200.994ZM174.539 210.549C174.497 210.508 173.854 210.573 173.547 210.355C171.806 209.095 170.826 205.834 170.437 205.563C170.177 205.38 167.067 206.069 166.317 205.769C166.854 206.976 166.335 211.962 166.707 212.551C167.374 213.599 173.27 212.086 174.32 211.256C174.609 211.026 174.645 210.667 174.533 210.555L174.539 210.549ZM88.1869 209.236C87.9331 208.86 85.1592 208.583 84.4686 208.33C83.8843 208.112 82.0429 206.505 81.7301 206.793C82.1492 208.506 83.365 208.736 84.2975 209.525C85.708 210.714 86.2805 212.021 88.5764 211.574C88.299 211.038 88.3698 209.525 88.181 209.242L88.1869 209.236ZM90.6126 213.982C90.3057 213.758 87.2485 214.947 86.3514 214.929C83.6187 214.87 78.9149 210.261 77.7994 207.812C76.8079 209.148 73.7861 213.617 73.9454 215.112C74.0162 215.795 75.6688 217.437 76.2472 217.902C80.3963 221.205 84.6339 223.466 88.901 226.456C90.1817 227.351 90.8132 228.835 92.5956 229.259C94.9741 229.824 94.1065 229.07 94.6672 227.728C95.0745 226.751 96.5086 225.12 96.3965 224.472C96.2195 223.436 94.8443 223.054 94.4784 222.253C93.9118 221.017 93.7642 216.737 93.2153 215.995C92.8435 215.489 91.8402 215.807 91.3149 215.5C90.7896 215.194 90.7424 214.082 90.6067 213.982H90.6126ZM165.16 229.553C166.53 228.099 168.584 224.661 170.578 223.837C171.664 223.389 174.663 223.307 176.126 222.895C176.705 222.73 178.192 222.282 178.475 221.823C179.272 220.499 177.944 215.147 176.587 214.447C176.061 214.176 172.526 215.783 171.588 215.977C170.891 216.124 169.221 216.372 168.536 216.378C167.793 216.389 166.128 215.718 165.662 216.048C165.396 216.236 163.779 220.699 162.823 221.929C160.822 224.508 157.523 227.163 155.694 229.847C154.596 231.455 153.427 233.015 156.012 233.627C159.312 234.41 163.018 231.82 165.154 229.547L165.16 229.553ZM111.871 214.647L98.5094 215.165L98.8635 217.037C99.6898 216.213 99.7547 214.653 101.272 216.166C102.635 217.526 101.313 219.068 101.75 219.763C101.974 220.122 106.07 222.73 106.737 223.007C107.404 223.283 112.314 224.767 112.55 224.549C111.694 222.736 112.025 221.123 111.842 219.286C111.771 218.562 111.205 217.832 111.216 217.202C111.228 216.466 112.178 215.606 111.871 214.647ZM130.663 239.885C132.345 237.295 124.921 235.311 123.392 234.41C120.707 232.838 118.092 229.865 115.619 228.164C113.146 226.462 113.524 228.658 111.447 228.246C110.52 228.064 105.745 226.227 104.683 225.744C103.916 225.397 101.242 223.436 100.776 223.542C100.15 224.431 97.4707 229 97.872 229.63C98.0196 229.865 102.263 231.59 102.965 231.89C105.804 233.097 108.507 234.834 111.529 235.988C115.011 237.324 119.556 239.014 123.109 240.156C123.681 240.338 126.833 241.304 127.087 241.286C127.282 241.274 130.563 240.044 130.663 239.879V239.885Z" fill="#0067FF"/>
</svg>
