<svg width="292" height="307" viewBox="0 0 292 307" fill="none" xmlns="http://www.w3.org/2000/svg">
<path d="M0 0H292V307H0V0Z" fill="white"/>
<path d="M222.455 213.077C224.358 212.641 224.18 214.28 225.171 215.099C226.162 215.919 229.393 217.491 230.662 218C232.683 218.819 234.785 218.548 236.8 219.308C236.674 221.905 231.124 220.788 229.486 220.26C228.032 219.791 226.208 218.112 224.616 217.683C226.354 219.599 228.851 220.986 231.375 221.614C232.188 221.819 237.976 222.367 234.368 223.775C230.761 225.182 225.792 222.334 223.136 220.108C221.464 218.714 220.566 218.02 221.101 215.78C221.385 215.615 222.369 215.258 222.409 215.192C222.634 214.835 222.35 213.599 222.455 213.071V213.077Z" fill="#0067FF"/>
<path d="M117.695 68.5017C117.675 68.3366 117.966 65.7795 118.026 65.4491C118.515 62.8657 123.655 55.1416 125.895 53.8202C126.88 53.2387 128.201 53.2651 128.782 52.9216C129.992 52.208 130.282 50.0275 133.401 48.8712C141.779 45.779 155.179 51.3094 159.11 59.2911C159.454 59.9848 160.491 63.8303 160.412 64.4977C160.339 65.132 159.474 67.2199 159.117 67.8278C157.439 70.6888 155.523 70.4906 152.668 69.658C151.869 69.4268 149.582 68.2242 149.219 68.2308C148.77 68.2374 147.369 69.8364 146.636 70.2395C144.819 71.2306 142.559 71.1447 141.105 69.5854C139.288 72.7106 134.518 72.5256 133.394 76.0804C134.571 76.2059 135.621 75.5584 136.777 75.5254C137.332 75.5056 139.222 75.9086 139.341 75.8029C139.394 75.7566 139.467 74.9373 139.771 74.4682C139.863 74.3294 141.336 72.889 141.442 72.8296C141.825 72.6314 145.241 71.7658 145.717 71.7261C146.867 71.6402 148.624 72.3538 149.378 73.226C149.622 73.5101 149.642 74.1114 149.9 74.3162C150.019 74.4087 151.961 74.2634 152.351 74.4484C151.664 72.8626 152.8 72.149 154.142 71.5015C155.899 70.6491 157.062 70.4773 158.555 71.9045C159.685 72.9815 159.969 74.8316 159.936 76.3447C159.916 77.3358 159.546 79.6682 159.09 80.5073C158.364 81.8222 156.058 82.3178 155.912 82.7472C155.569 83.778 155.747 86.5267 155.542 87.7953C155.338 89.0639 153.778 94.8255 153.223 95.7638C152.153 97.5874 150.362 96.8276 148.823 97.3165C148.413 97.4487 147.957 97.9178 147.488 98.1424C147.019 98.3671 146.199 98.4199 145.869 98.6908C145.321 99.1401 145.142 101.261 145.367 101.889C145.512 102.312 149.074 104.254 149.741 104.552C155.602 107.175 161.753 109.415 167.574 112.163C168.81 112.745 171.261 113.954 172.12 114.925C174.889 118.037 176.038 125.431 177.333 129.475C178.04 131.688 179.164 133.895 179.699 136.181L181.119 123.667C182.329 118.447 186.234 112.599 190.971 109.97C193.039 108.82 195.669 108.278 197.823 107.347C201.146 105.906 203.869 104.082 206.512 101.625L205.653 96.9597C202.646 97.0786 199.984 97.8385 197.142 96.3981C195.068 95.3475 195.345 93.7221 194.638 92.1297C194.103 90.9338 192.544 88.6741 192.266 87.7358C192.035 86.9495 192.299 86.0575 191.949 85.3439C191.632 84.6898 191.011 84.822 190.661 84.4718C188.81 82.6085 191.929 79.7739 192.418 77.9767C193.475 74.0519 192.147 71.4618 191.335 67.689C190.793 67.5965 190.621 68.1714 190.105 68.2374C187.132 68.6273 188.084 66.2354 187.502 65.5681C186.789 64.7488 183.881 65.8786 184.582 62.1454C184.853 60.7249 188.976 56.179 190.251 55.0888C191.282 54.21 192.451 53.4501 193.627 52.7828C200.585 51.9569 210.152 48.0453 216.925 50.0738C219.27 50.7742 223.288 52.1749 224.629 54.2761C224.973 54.8113 225.125 55.9808 225.429 56.179C225.766 56.397 226.552 56.2979 227.16 56.6085C228.422 57.256 230.021 59.6611 230.292 61.0618C231.408 66.916 229.3 72.6908 227.061 77.9701C226.182 80.0382 225.065 83.0314 223.651 84.7162C223.36 85.0598 222.568 85.3109 222.488 85.7206C222.422 86.0509 222.938 86.5729 222.984 87.0553C223.301 90.3788 223.096 95.5193 225.204 98.3737C230.107 105.014 244.702 105.853 251.422 113.439C252.572 114.734 253.873 116.154 254.944 117.502C257.99 121.328 259.549 125.233 260.897 129.957C260.943 130.109 260.851 130.347 260.897 130.499C262.569 136.426 265.364 145.101 264.287 150.942C264.227 151.253 264.478 151.649 264.313 152.164C264.002 153.129 262 153.638 261.974 153.942C261.901 154.761 263.143 157.952 263.315 159.082C263.527 160.476 263.368 162.095 263.639 163.628C264.386 167.811 265.529 170.711 265.767 175.303C265.813 176.202 266.064 178.667 265.985 179.301C265.833 180.55 264.293 182.096 263.877 183.292C263.084 183.635 260.382 187.474 259.549 188.439C259.41 188.597 259.199 188.756 259.007 188.981C257.791 190.375 256.675 191.961 255.486 193.315C251.396 197.993 246.823 202.658 242.377 207.138C241.623 207.898 239.985 208.908 239.522 209.972C239.311 210.461 239.694 210.322 239.932 210.362C241.498 210.659 243.117 210.521 244.663 210.911C245 209.47 243.625 207.343 244.656 206.239C245.495 205.334 246.836 206.114 247.101 207.118C247.121 207.197 247.087 207.296 247.101 207.389C247.127 207.561 247.087 207.752 247.101 207.931C247.253 209.979 247.101 212.338 247.101 214.426C247.101 214.697 247.101 214.967 247.101 215.238C247.101 215.417 247.101 215.602 247.101 215.78C247.101 216.051 246.79 216.619 246.81 217.267C246.869 219.579 248.872 223.134 245.462 223.795C245.508 228.942 245.231 234.063 245.218 239.21C245.218 239.818 244.927 240.393 244.934 240.961C244.96 243.121 245.416 245.692 245.489 247.852C245.515 248.573 245.634 251.387 245.224 251.671C243.837 252.643 242.601 250.912 242.291 249.696C241.722 247.456 241.683 243.095 241.683 240.69C241.683 239.197 241.894 238.159 241.947 236.759C242.053 234.122 241.762 226.154 243.07 224.35C243.592 223.63 243.705 223.894 244.194 223.63C244.861 223.273 243.619 222.797 243.183 222.255C242.218 221.04 241.729 219.051 240.863 218.079C239.998 217.108 238.135 216.956 237.883 215.509C238.736 214.895 238.399 213.976 240.249 214.637C242.37 215.39 243.09 216.824 244.378 218.489L244.656 212.8C242.78 213.15 240.553 212.245 238.809 212.272C237.917 212.285 238.088 213.62 237.89 214.155C237.85 214.26 237.712 214.399 237.619 214.697C237.533 214.967 237.434 215.232 237.348 215.509C236.991 216.659 237.401 217.61 236 217.822C234.401 218.06 233.701 216.527 233.846 215.133C234.758 206.636 243.916 201.627 249.004 195.614C249.294 195.271 249.215 194.722 249.261 194.663C249.294 194.623 249.942 194.59 250.266 194.313C250.907 193.764 252.175 191.696 252.915 190.87C255.182 188.32 257.62 185.902 259.82 183.292C259.813 183.199 259.827 183.113 259.82 183.021C260.6 182.783 260.626 182.096 260.904 181.666C260.963 181.574 261.102 181.494 261.174 181.395C261.439 181.019 261.538 180.55 261.716 180.312C261.743 180.279 262.192 180.45 262.271 180.14C262.826 177.913 262.093 170.87 261.584 168.392C260.666 163.886 260.183 160.087 259.542 155.534C259.49 155.177 259.714 155.032 259.172 155.151C258.3 155.349 256.325 156.347 255.386 156.783C252.717 158.032 250.325 159.69 247.365 160.265C247.543 160.741 248.006 160.609 248.224 161.183C248.634 162.247 249.248 166.826 249.202 167.982C249.156 169.337 248.369 170.962 246.737 170.566C245.819 170.341 246.328 168.716 246.288 168.266C246.136 166.496 245.707 163.992 245.726 162.287C245.733 161.666 246.017 161.316 246.275 160.807C245.885 160.813 245.317 160.675 245.046 161.064C244.332 162.082 244.497 168.095 244.682 169.575C244.848 170.883 245.343 172.211 245.469 173.533C246.308 173.07 246.638 172 247.299 171.365C248.521 170.202 253.365 167.447 252.777 170.949C252.671 171.583 249.922 173.169 249.09 174.18C246.447 177.385 243.89 182.056 241.947 185.717C241.729 186.126 241.762 186.628 241.676 186.8C241.636 186.879 241.101 187.137 240.863 187.613C240.018 189.318 238.075 192.654 237.883 194.379C236.892 195.799 236.113 197.365 235.128 198.799C233.04 201.852 231.613 203.887 228.138 205.347C227.067 205.796 225.759 206.107 224.616 206.563C222.502 207.409 218.081 209.06 216.581 210.706C216.053 211.287 215.372 212.463 216.423 212.747C217.401 213.012 219.125 211.789 219.991 211.274C221.035 210.659 222.006 209.206 223.261 209.807C223.275 210.065 223.645 210.349 223.486 210.95C223.453 211.062 222.627 212.688 222.449 213.058C221.96 214.089 221.405 214.472 221.094 215.767C217.163 218.053 214.13 221.205 209.511 222.454C207.833 222.909 205.95 222.982 204.252 223.418C201.034 224.238 197.671 225.843 194.195 225.486C193.297 225.394 189.881 224.119 189.432 224.436C190.251 225.619 190.072 227.825 189.973 229.305C189.755 232.55 189.227 235.43 189.438 238.913C189.709 243.406 191.837 249.907 191.579 254.037C191.46 255.907 190.205 257.03 188.916 255.352C188.513 252.814 187.899 250.257 187.535 247.714C187.476 247.284 187.582 246.795 187.535 246.359C186.201 247.284 184.872 246.934 183.478 246.359C178.886 242.494 178.556 238.252 178.067 232.55C177.4 224.773 180.036 218.786 179.976 211.016C179.97 209.8 179.686 208.228 179.679 206.979C179.639 200.061 179.369 193.084 180.498 186.258C180.095 186.404 179.824 187.296 179.646 187.699C177.043 193.54 174.856 199.585 171.618 205.129C173.693 213.943 174.915 222.896 176.712 231.744C177.869 237.432 179.454 243.624 179.699 249.465C179.772 251.169 180.313 255.636 177.631 254.513C176.085 250.185 175.655 245.487 174.816 240.948C174.743 240.571 174.572 240.274 174.545 240.135C173.521 234.512 172.636 228.698 171.836 223.075C171.763 222.553 171.882 221.945 171.803 221.35C171.426 218.687 170.706 216.058 170.442 213.368C165.903 211.935 161.231 211.677 157.624 208.248C154.479 211.499 151.333 214.723 147.898 217.643C148.34 220.187 148.294 222.817 148.558 225.374C148.644 226.213 148.994 227.191 149.1 227.951C149.16 228.387 149.014 230.032 149.1 230.118C149.232 230.244 152.278 229.444 150.693 232.12C150.349 232.702 149.781 232.609 149.642 233.091L152.886 232.556C152.985 234.545 148.413 236.408 147.197 235.127C146.887 234.803 146.966 234.221 146.926 234.182C146.636 233.878 139.784 236.21 138.839 234.287C138.37 232.206 144.515 233.329 145.711 232.008C146.999 230.581 145.942 228.453 145.856 226.874C145.823 226.246 145.896 225.605 145.856 224.978C145.803 224.165 145.896 223.544 145.856 222.81C145.843 222.539 145.876 222.269 145.856 221.998C145.81 221.344 145.4 220.59 145.585 219.83C144.581 220.306 143.781 221.106 142.883 221.727C140.933 223.061 138.006 225.354 136.117 226.332C132.39 228.248 124.937 230.059 120.814 229.867C119.823 229.821 118.957 229.365 117.979 229.312C118.805 233.091 121.058 239.441 119.116 243.036C118.7 243.815 118.356 244.007 117.438 243.934C118.786 246.722 119.816 249.801 115.455 249.597C113.513 249.504 113.11 248.553 111.762 247.456C112.059 248.883 111.993 253.191 111.101 254.242C110.592 254.85 109.608 254.929 109.178 254.222C108.888 253.739 109.238 248.586 109.337 247.608C109.396 247.013 109.951 246.194 109.879 245.731C109.859 245.606 108.445 244.397 108.115 243.908C102.994 236.27 107.533 226.762 105.795 218.476C105.743 218.212 104.976 216.044 104.851 216.044C102.822 217.577 104.077 217.538 104.447 218.747C104.494 218.892 104.414 219.123 104.447 219.289C104.494 219.527 104.414 219.844 104.447 220.101C105.538 228.037 104.414 240.505 103.331 248.632C103.166 249.854 103.027 252.59 101.758 253.013C100.179 253.541 99.9743 252.623 99.9413 251.255C99.7562 244.78 101.772 236.911 102.023 230.27C102.168 226.418 101.335 222.533 102.023 218.753C101.653 218.469 96.3468 220.471 95.3161 220.584C94.3448 220.689 93.4859 220.755 93.0894 219.698C92.6005 218.403 92.1908 215.602 92.0058 214.148C91.9067 213.355 91.8142 212.503 91.7349 211.71C91.7151 211.532 91.7547 211.347 91.7349 211.168C91.5169 208.908 91.7349 206.602 91.1799 204.277C91.1072 203.979 91.1138 203.708 90.757 203.603C90.1029 203.411 86.2904 205.037 85.0747 205.175C83.8589 205.314 82.4516 205.129 81.1763 205.208C82.2467 206.312 81.7908 206.721 81.7181 207.911C81.7181 208.003 81.7247 208.096 81.7181 208.182C81.3812 208.446 81.4076 208.717 81.7181 208.994C80.9583 213.507 80.4759 218.033 80.0861 222.658L80.3636 225.242C81.7247 221.568 81.3944 217.571 82.0089 213.752C82.2335 212.371 82.7423 210.164 83.0793 208.73C83.1057 208.605 83.4162 208.287 83.5087 207.95C83.7532 207.072 83.2708 205.869 84.4073 205.611C84.5857 205.572 85.1672 205.697 85.22 205.777C85.5174 206.219 85.3257 209.582 85.2465 210.349C85.0615 212.027 84.4073 213.705 84.1959 215.39C83.8523 218.139 84.0373 225.486 82.0089 227.284C80.8592 228.301 79.7954 227.429 79.5575 229.431C79.4782 230.078 79.6104 230.805 79.5641 231.466C80.4099 230.376 82.5837 230.277 83.436 229.59C83.8787 229.226 83.7995 228.347 84.5659 227.673C85.5042 226.841 90.0302 224.588 90.387 226.986C90.2945 227.376 88.6295 228.024 88.2396 228.374C87.3807 229.147 86.0658 230.885 85.4777 231.836C84.5395 233.343 83.7796 232.589 82.4582 232.88C81.9031 232.999 81.4604 233.561 80.912 233.772C79.2073 234.433 77.7933 234.168 78.0576 236.607C78.7052 237.34 82.8744 242.17 82.6828 242.58C82.0815 243.895 79.9672 242.632 79.2866 241.899C78.976 241.562 77.5951 238.893 77.1194 239.329C77.0005 240.822 76.2472 242.368 76.0622 243.822C75.864 245.408 76.1085 249.709 74.8795 250.898C73.5646 252.174 72.6462 249.716 73.0558 248.533C71.9392 249.795 69.435 249.788 70.1354 247.641C70.2808 247.205 70.9811 246.762 71.2983 246.101C72.5933 243.399 73.1285 240.168 74.4038 237.432C73.4061 238.159 68.8734 239.507 69.5672 237.082C69.7588 236.408 72.2828 235.734 73.1351 235.219C73.6901 234.882 75.5931 233.587 76.0094 233.224C76.5181 232.781 76.8881 230.865 76.8353 230.125C76.5181 229.775 72.9898 232.642 71.5362 231.499C69.1245 229.609 76.5115 227.991 77.0467 226.947C77.2978 226.451 77.5819 224.191 77.648 223.484C78.0841 218.727 77.866 212.721 79.1412 208.188C79.3659 207.402 80.0002 206.517 80.0927 205.889C80.172 205.34 80.0465 205.532 79.6897 205.479C77.6414 205.208 75.7186 205.268 73.6439 204.752C72.4744 204.462 71.6815 204.085 70.6177 203.583C70.3006 207.349 69.6861 211.274 68.8668 214.961C68.5562 216.342 67.281 221.879 66.574 222.685C65.9727 223.372 65.5961 222.876 65.0543 222.929C64.7306 222.962 64.4332 223.279 64.2548 223.266C64.1028 223.253 63.0457 222.229 62.2991 222.051C61.7242 221.918 61.1031 222.064 60.5283 221.925C59.4711 221.674 58.5064 221.007 57.3501 221.178C57.3832 221.555 57.6144 221.866 57.5087 222.269C57.3237 222.962 54.5156 225.942 53.8218 226.444C53.3989 226.742 52.5003 226.854 52.3285 227.118C51.9188 227.746 51.7999 233.309 51.6612 234.572C51.4761 236.276 51.0136 238.021 50.8551 239.719C50.4586 243.868 51.0401 248.401 49.0975 252.306C48.5293 253.455 47.4853 253.29 46.9963 252.24C46.4545 251.083 47.6901 246.782 47.8751 245.123C48.7209 237.492 48.8861 228.85 50.3463 221.33C50.5049 220.511 50.5577 220.029 51.3969 219.678C51.0467 218.813 43.8513 217.121 42.5694 216.864C40.6863 216.494 39.5829 217.267 39.5432 214.531C39.497 211.228 41.1753 208.492 40.8449 205.347C40.7326 204.29 39.6688 201.792 40.1445 201.112C40.9902 199.916 41.9681 201.938 42.1796 202.631C42.391 203.325 42.391 204.898 42.5826 205.202C42.88 205.664 45.3115 205.889 45.8467 206.543C46.1308 205.644 45.9061 204.667 46.0119 203.728C46.0581 203.312 46.6065 201.753 46.5272 201.673C46.4744 201.627 45.8797 201.746 45.5824 201.402C45.2851 201.059 45.3776 200.121 45.0009 200.028C43.7257 199.724 41.9748 200.345 40.7128 200.332C38.9816 200.312 38.017 199.737 35.8365 199.764C33.3125 199.797 30.8017 199.229 30.022 196.52C29.8568 195.945 29.5661 192.912 29.4406 192.767C29.3679 192.681 28.6477 192.648 28.2975 192.423C27.8878 192.152 26.2624 191.009 26.0444 190.751C25.5422 190.17 25.2383 188.478 25.1458 188.393C25.0533 188.307 23.9499 189.258 23.1173 187.316C22.1989 185.162 22.8861 183.589 22.6218 182.016C22.5887 181.798 21.7231 181.376 21.3928 180.913C18.8093 177.292 18.3864 168.088 19.7938 163.958C23.8573 152.065 29.3084 140.575 33.6693 128.827C34.515 126.548 35.4995 125.2 37.0589 123.416C38.7437 121.48 41.0629 119.273 43.0121 117.588C44.6574 116.167 49.2429 113.293 50.2141 112.064C50.974 111.099 50.789 109.19 52.7646 109.058C52.7778 108.569 51.9783 108.675 51.681 108.523C50.4718 107.888 49.5997 106.904 48.5226 106.131C46.9831 105.021 45.9524 105.351 45.1992 102.959C44.1023 99.4969 47.5316 97.0126 49.0777 94.1384C51.4233 89.7907 54.6807 81.439 55.6784 76.642C56.359 73.3714 56.3062 69.2352 57.218 65.9975C57.8721 63.6784 59.0812 62.5551 61.2815 61.6631C65.6622 59.8923 76.1547 58.2207 80.7997 58.6832C82.5705 58.8616 86.7463 60.3086 88.2132 61.2865C90.3209 62.7005 90.5522 64.3853 91.7415 65.8786C92.3031 66.5856 93.6114 67.319 94.4109 68.3564C95.5936 69.8827 96.4922 71.9111 97.4371 73.5894C97.6948 74.0453 98.0317 74.5343 98.2498 74.9439C98.5141 75.4395 98.9237 76.0275 99.0625 76.2984C99.2409 76.6552 99.4325 77.0253 99.6043 77.3821C102.34 82.9455 102.921 85.7272 102.313 92.0042C101.884 96.4311 101.335 100.951 99.3334 105.001C97.8071 108.093 95.924 110.234 92.5674 111.364C95.6465 112.917 98.3885 114.397 100.688 117.046C101.144 117.568 101.018 118.427 101.765 118.268C101.659 116.385 102.703 114.681 104.745 115.559C104.765 115.143 104.249 115.249 103.965 114.859C102.63 112.989 104.329 112.897 104.474 112.388C104.599 111.945 104.434 111.436 104.685 110.763C105.624 108.258 108.148 107.135 110.592 106.659C113.334 106.118 114.583 106.897 117.061 105.278C117.451 105.021 117.86 104.287 118.006 104.195C118.092 104.142 119.638 103.712 119.902 103.653C120.629 103.501 121.389 103.296 122.135 103.435C122.975 103.594 123.979 104.73 124.098 104.73C124.23 104.73 125.697 102.893 125.822 102.662C126.1 102.166 126.007 101.803 126.126 101.486C127.626 97.4817 127.917 92.916 127.752 88.76C127.752 88.6675 127.758 88.5749 127.752 88.4891C127.692 87.868 127.791 87.2204 127.752 86.5927C127.93 86.6126 128.597 86.6588 128.155 86.3218C126.364 85.6281 124.309 83.0842 123.767 81.2342C123.503 80.3157 123.596 78.8819 123.146 78.1948C122.697 77.5076 121.554 76.946 120.926 75.9483C120.365 75.0497 117.814 69.255 117.728 68.4489L117.695 68.5017ZM155.053 58.4784C151.869 54.3752 148.644 52.578 143.616 51.0979C140.345 50.1332 134.366 49.3602 131.762 52.1022C130.144 53.8069 131.511 53.4039 131.67 54.1175C131.954 55.3927 129.324 55.1548 128.379 55.4786C125.895 56.331 121.171 63.4867 120.682 66.0504C120.49 67.0481 120.272 67.2794 120.53 68.5084C120.814 69.8827 122.4 73.8339 123.127 75.0563C124.243 76.946 125.347 75.4329 126.8 75.2743C128.102 75.1355 129.45 75.5915 130.289 76.609C131.485 74.0057 132.747 72.6842 135.112 71.1513C136.473 70.2659 138.641 69.9884 138.832 67.8146C138.898 67.0415 138.29 65.6209 139.268 65.284C141.528 64.5175 141.839 68.3762 144.468 68.6273C146.669 68.8387 147.091 65.6738 148.724 65.5152C150.356 65.3566 154.789 68.7991 156.514 67.656C157.214 67.1935 158.06 64.9205 158.02 64.0616C157.928 62.0529 156.236 59.9981 155.06 58.4717L155.053 58.4784ZM226.512 71.746C226.757 70.9663 227.378 69.8364 227.53 69.1096C228.052 66.6913 228.468 59.8329 225.693 58.6171C225.092 58.3528 223.288 58.5841 223.03 58.1612C222.891 57.9365 223.056 57.3881 222.918 57.0644C222.733 56.6151 222.032 55.3332 221.755 54.9698C220.902 53.8598 216.31 52.0758 214.883 51.8247C211.5 51.2301 199.911 53.5294 196.131 54.4875C191.843 55.5777 190.026 58.6964 187.192 61.7953C186.531 64.4184 187.991 62.7996 188.751 62.8128C190.297 62.8458 189.194 65.1716 189.425 66.057C190.601 66.3015 191.196 65.1914 192.068 64.7752C195.391 63.1894 200.823 62.4362 204.371 63.4273C208.104 64.4778 206.128 65.9117 206.908 68.4819C207.212 69.4796 207.965 69.2946 208.296 69.6514C210.04 71.5147 210.066 72.7965 211.117 74.8184C212.683 77.838 212.544 76.5099 214.051 75.1157C214.566 74.64 215.035 74.4087 215.683 74.1775C215.868 74.1114 216.125 74.1775 216.224 73.9066C216.383 73.8934 216.634 73.8801 216.766 73.9066C221.874 75.043 221.722 80.0448 218.927 83.5137C221.728 84.6105 223.09 80.3554 224.034 78.3335C225.039 76.1861 225.805 73.9793 226.506 71.7394L226.512 71.746ZM69.7852 76.6222C71.6683 74.4682 72.8576 72.9287 74.4302 70.3056C75.1041 69.1889 79.2139 62.1058 78.7118 61.4583C76.8881 61.901 74.8332 61.7688 72.9303 62.0331C70.3336 62.3899 63.2175 63.8568 61.3079 65.2972C60.0129 66.2817 59.9006 67.9732 59.5834 69.5325C59.0482 72.1556 58.9161 74.8779 58.3346 77.4878C56.5969 85.2779 52.6391 92.7574 48.7209 99.5498C48.2055 100.442 47.0294 102.741 48.1196 103.58C49.1305 104.36 50.9542 100.944 51.3044 100.237C51.9321 98.9816 52.9959 94.9643 53.5311 94.3432C54.2975 93.4578 55.3745 94.0326 55.467 95.1691C55.6652 97.6072 52.7316 103.646 50.5776 105.192C50.8815 105.516 51.1788 105.86 51.5555 106.098C51.8792 106.303 55.3613 107.683 55.5727 107.67C55.7379 107.664 58.3214 106.137 58.361 105.979C58.4139 105.774 58.1232 105.417 58.2685 105.067C58.4403 104.657 59.0416 104.419 59.3654 103.442C59.709 102.404 59.5768 98.9551 60.4358 98.8891C62.3519 98.7371 61.9422 103.118 61.5788 104.301C61.2617 105.325 60.1384 106.051 60.9842 106.943C61.3938 107.373 61.3872 107.3 61.8035 106.957C62.3916 106.474 64.5191 102.774 64.387 101.955C64.3407 101.658 63.2505 101.968 63.0192 100.845C62.788 99.7216 63.343 98.116 63.2902 96.7813C63.158 93.3124 61.863 88.3833 62.2462 84.9475C62.5237 82.4697 65.4838 81.1747 67.0762 79.7343C68.2325 78.6903 68.88 77.653 69.7786 76.6156L69.7852 76.6222ZM83.5219 62.0662C81.4803 60.0047 79.9804 65.72 79.498 66.7045C77.0665 71.627 73.8619 76.761 70.327 80.95C71.5494 80.8179 73.3003 79.8664 74.3179 79.1396C77.5092 76.8799 83.2907 67.2992 83.8127 63.4141C83.8721 62.9846 83.8325 62.3767 83.5219 62.0662ZM89.8188 68.766C89.865 66.3676 88.3717 63.8105 86.0327 63.0837C86.2244 63.751 85.4909 65.2773 85.8015 65.7531C85.861 65.8456 86.5481 65.9711 86.8322 66.2024C87.1956 66.4997 89.5148 69.1162 89.8188 68.766ZM217.037 82.3046C217.255 82.0072 217.916 81.7099 218.24 81.2077C219 80.0382 219.416 77.2962 218.246 76.3513C217.817 76.0011 215.868 75.902 215.465 76.1333C214.949 76.4372 214.07 78.578 213.106 78.7762C208.937 79.6286 208.989 74.303 207.146 72.0235C206.426 71.1315 204.747 70.6954 204.245 69.5061C203.618 68.0062 204.245 66.612 203.869 65.2311C200.089 64.6563 195.88 64.9272 192.438 66.6319C193.211 70.1338 194.123 72.334 194.03 76.0738C194.03 76.2522 194.044 76.4372 194.03 76.6156C194.017 76.794 194.05 76.979 194.03 77.1574C193.997 77.4812 193.852 77.904 193.759 78.241C193.72 78.3996 193.806 78.6507 193.759 78.7828C192.993 80.9038 188.923 84.485 194.301 83.93C194.46 84.9938 194.143 84.7493 193.218 84.7427C193.019 86.9033 195.233 86.0245 196.614 85.562C198.649 84.8814 200.116 83.1437 202.151 83.1173C202.336 83.2098 202.408 83.289 202.693 83.3882V83.93C202.693 84.2537 202.752 84.7493 202.693 85.0136C202.679 85.073 202.494 85.3638 202.422 85.5554C202.237 86.0443 201.576 86.5002 201.609 87.1808C199.732 88.5221 199.29 91.8985 196.198 91.5152C197.407 95.6118 201.464 96.4179 205.19 95.4995C206.981 95.0568 209.009 93.2992 210.826 92.4733C211.811 92.024 212.253 92.3147 211.639 93.286C210.588 94.9379 209.141 95.6118 207.298 96.1206C208.249 97.3628 207.985 98.6446 208.368 100.052C208.778 101.558 209.71 103.065 210.549 104.367C209.174 106.23 207.622 103.97 207.437 103.97C207.272 103.97 205.395 105.814 204.992 106.124C204.516 106.501 202.118 107.855 202.428 108.291C202.448 108.318 202.871 108.344 203.096 108.562C204.728 110.108 206.386 111.39 208.652 111.813C209.115 111.47 203.155 109.507 204.179 107.485C205.005 105.847 206.485 108.047 207.205 108.523C214.454 113.306 223.486 112.289 229.347 106.118C229.796 105.648 230.648 105.496 230.576 104.776C227.364 104.162 223.03 100.574 222.046 97.4685C220.916 93.9203 220.42 89.7709 221.101 86.0906C220.169 86.5861 218.484 85.225 218.028 85.3175C217.143 85.4893 216 87.6499 215.531 87.9539C215.24 88.1455 214.222 88.4098 214.07 88.2512C213.515 87.683 215.147 86.2425 215.438 85.6941C216.046 84.5378 216.139 83.5137 217.05 82.2979L217.037 82.3046ZM90.0897 81.4918L90.4267 78.1749C92.2106 75.9879 89.4884 72.3274 88.0348 70.4113C87.7044 69.9818 85.927 67.8873 85.6297 67.6758C85.3918 67.504 85.3456 67.3124 84.9491 67.4115C83.0065 72.5256 80.205 77.3953 76.2802 81.2143H81.6983C80.8261 79.0207 83.9712 75.3338 85.894 75.2413C87.8167 75.1488 89.2638 76.4901 89.5215 78.393C89.6404 79.2718 89.4355 80.2364 89.5479 81.0822C89.6139 81.5711 89.4554 81.5249 90.0897 81.4852V81.4918ZM100.371 87.7226C100.199 86.1104 99.8884 84.181 99.34 82.6613C98.296 79.7475 95.0584 73.7546 93.3801 71.0258C92.9374 70.3056 92.4948 69.4598 91.7151 69.0435C91.7944 69.7704 91.127 70.3518 91.1733 71.0522C91.2262 71.931 92.4816 73.4044 92.7789 74.3361C93.0366 75.1289 92.845 76.1002 92.9441 76.3645C93.063 76.6817 94.4968 77.8446 94.9131 78.426C96.5253 80.6923 96.0033 82.2253 95.0386 84.6766C94.9064 85.007 94.4638 84.9805 94.4241 85.1986C94.2986 85.8065 94.51 86.4474 94.2986 87.194C94.0871 87.9406 93.0696 88.6675 92.8648 89.2753C91.8539 92.2288 92.0256 94.145 91.9992 97.0456C91.9794 99.1335 90.605 100.997 88.5501 101.473C87.4335 101.73 86.6803 101.261 85.8808 101.294C85.3852 101.314 85.0152 101.743 84.5263 101.79C83.9382 101.843 81.619 101.697 81.4604 101.829C81.0706 102.16 80.9979 106.263 81.4076 106.831C81.7115 107.247 85.0813 108.979 85.7619 109.243C87.2683 109.824 88.8013 109.93 90.2284 110.67L90.4993 110.492C94.0805 105.906 94.662 100.554 94.1135 94.9312C94.0343 94.1384 93.4925 92.883 93.5916 92.1958C93.7303 91.2906 94.7281 91.0857 95.3492 91.7927C96.6244 93.2398 96.7301 99.1071 96.5451 101.083C96.3601 103.058 95.7059 105.278 94.9593 107.076C94.9197 107.3 95.4615 107.234 95.4945 107.208C95.5936 107.122 96.7433 105.259 96.9019 104.955C99.0757 100.904 100.007 95.1162 98.9435 90.6298C98.7321 89.7246 97.0538 86.5597 97.1397 86.2624C97.6948 84.3198 99.862 87.0883 100.371 87.7094V87.7226ZM142.869 74.455C138.971 77.6331 144.323 82.0204 146.47 81.5051C147.257 81.32 147.343 79.2255 147.475 78.7828C147.554 78.5251 147.66 78.3467 147.746 77.9701C147.798 77.7256 147.957 77.468 148.017 77.1574C148.235 76.0408 148.605 74.8052 147.752 73.7612C146.385 72.0895 144.131 73.4242 142.869 74.4484V74.455ZM155.595 80.95C158.496 81.1152 158.013 73.7084 156.54 73.1005C155.945 72.9948 156.13 73.3383 156.163 73.7414C156.362 76.2786 156.428 78.4591 155.595 80.9434V80.95ZM154.241 77.4349C154.089 76.1531 154.697 74.858 154.109 73.6489C153.507 74.3625 153.587 76.1399 153.699 77.0385C153.752 77.4349 153.91 77.8842 154.241 77.4415V77.4349ZM132.317 85.8263C132.668 86.9892 133.705 87.1279 134.346 87.7226C134.987 88.3173 135.601 89.2753 136.13 89.7246C140.114 93.0878 146.213 96.0413 151.492 94.7198C151.499 93.3058 151.875 92.0042 152.344 90.7025C150.217 91.3699 143.927 90.3986 144.752 87.0883C145.063 85.8395 148.406 87.9737 149.047 88.1719C149.86 88.423 152.536 88.7005 153.038 88.0067C153.217 87.7556 153.236 85.7073 153.124 85.5818C153.012 85.4563 151.221 85.3638 151.3 84.3859C151.439 82.7142 154.373 84.0026 154.221 82.1658C154.168 81.4918 153.078 81.0425 152.787 80.0977C152.576 79.4105 152.41 76.4306 152.04 76.1068C151.836 75.9284 150.098 76.1597 149.946 76.3976C149.748 76.7147 149.444 79.4634 149.226 80.1439C148.294 83.104 146.094 84.3859 143.134 82.853C142.162 82.3508 140.259 80.3818 139.658 79.4237C139.367 78.9612 139.262 77.8842 138.872 77.7058C136.493 76.642 134.855 78.0957 132.582 77.4349C132.383 78.3732 132.522 81.6438 130.943 80.5602C130.474 80.2364 130.857 79.2585 129.331 78.7894C129.595 79.1727 130.699 81.2077 130.414 81.4984C127.666 82.2451 124.844 77.4085 129.331 78.7894C128.247 77.2367 125.908 76.9856 125.789 78.9216C125.618 81.7826 129.661 85.4761 132.311 85.8263H132.317ZM87.1164 80.1373C88.2462 79.7145 87.0833 76.8733 86.1649 76.8799C85.8213 76.8799 84.3214 78.3269 84.1298 78.6441C83.0594 80.4016 83.4625 84.4057 84.9359 85.899C86.6803 87.6631 87.559 83.9035 87.3806 82.5821C85.4248 84.9145 83.8193 82.7472 84.1959 80.3488C84.5263 78.2476 86.8917 77.7851 87.1164 80.1439V80.1373ZM93.6048 83.3882C94.3052 81.472 93.8229 78.9744 91.7151 78.2476C91.5565 80.362 91.0808 82.6547 93.6048 83.3882ZM68.1664 82.8464C66.7789 83.2494 66.7657 83.3816 66.8119 84.7427C66.9242 88.0926 68.0144 88.7071 71.1397 89.348H71.4106L72.4942 90.1607C72.4348 90.24 72.5405 90.5439 72.4942 90.7025C72.3555 91.1584 72.1705 91.6342 72.263 92.1231C72.5009 93.3521 75.831 95.7307 76.9939 96.3518C79.2007 97.5279 84.2488 98.9287 86.7067 99.0873C88.3123 99.193 89.5941 99.3516 89.7791 97.5742C90.0038 95.4268 89.7461 96.4443 88.4511 95.9884C86.7133 95.3673 85.1804 93.7617 84.5395 92.0438C84.0439 90.7025 85.1407 89.3744 86.4027 90.1938C86.8058 90.4581 86.6538 90.8479 87.4071 91.0659C88.6559 91.4359 91.1997 91.6936 91.1667 89.8832C90.4399 89.9625 89.4157 89.9096 89.2968 88.9714C89.7923 87.7887 91.4838 88.0067 92.1446 87.2006C92.4419 86.8438 92.8119 85.6016 92.6533 85.258C92.389 84.67 91.2526 84.703 90.9552 84.4057C90.8363 84.2868 90.3143 82.0403 89.5413 82.8397C89.4818 82.8992 89.5941 84.0885 89.4752 84.5378C89.1316 85.8791 87.6449 88.6476 86.1649 88.8128C83.7202 89.0903 83.806 86.9694 82.2269 85.8197C82.0419 85.377 81.6322 83.104 81.282 83.1173C81.2292 83.1173 80.9583 83.5335 80.6742 83.5864C78.1171 84.1084 74.7209 82.9256 72.3357 83.4873C71.8798 83.593 72.0383 84.485 70.9877 84.4916C70.6111 84.4916 70.142 83.5335 69.5011 83.1106C69.2434 82.9389 69.0254 82.7208 68.695 82.668C68.2325 82.5887 68.2457 82.8133 68.1532 82.8397L68.1664 82.8464ZM198.9 86.9099C198.021 86.824 197.301 87.4451 196.535 87.6565C196.138 87.7622 194.077 87.6301 194.341 88.3569C195.286 90.9999 198.16 88.5948 198.9 86.9165V86.9099ZM129.879 95.3013C129.701 97.6072 128.934 101.4 127.851 103.428C127.025 104.974 125.624 106.937 123.655 106.131C123.153 106.699 125.459 109.91 125.684 109.917C125.803 109.917 126.311 109.117 126.774 108.965C128.148 108.509 134.855 111.787 135.581 113.022C136.176 114.033 135.357 115.11 134.392 115.011C133.599 114.932 129.034 111.734 127.58 111.278C127.441 111.232 127.137 111.205 127.183 111.41C129.053 113.267 131.584 114.938 134.207 115.487C139.85 116.67 147.125 114.648 149.649 109.111C148.895 109.712 142.909 113.3 143.742 110.386C143.999 109.487 148.75 107.208 149.787 107.188C151.525 107.155 151.512 107.855 151.148 109.388L149.787 112.355L153.164 107.888C153.164 107.598 148.539 106.045 147.832 105.642C147.164 105.265 145.129 103.257 144.799 103.442C144.759 103.461 144.832 104.016 144.27 104.109C142.255 104.419 142.968 99.9264 143.431 98.823C139.823 98.3473 136.725 95.2748 134.498 92.5922C134.002 91.9976 133.064 91.0858 132.767 90.6695C131.723 89.2291 131.828 87.0883 129.628 87.1742C129.668 89.8039 130.104 92.6781 129.899 95.2946L129.879 95.3013ZM66.2635 95.5722C66.5212 93.6891 67.9021 90.6761 65.4574 89.8898L66.2635 95.5722ZM79.7954 101.539C75.7649 100.726 72.785 98.4001 71.0869 94.6802C70.6177 93.6494 70.7036 91.7993 69.5341 91.3633C67.7369 90.6959 68.7478 91.9249 68.6884 92.9622C68.4505 96.9795 65.9529 104.875 63.4091 108.014C63.0787 108.417 62.3321 108.688 62.233 109.018C62.1537 109.276 63.5478 113.947 63.7262 114.238C65.8009 117.581 71.3644 119.042 75.0513 119.141C76.9212 119.194 78.2426 118.434 80.0729 118.586L78.421 108.159C78.1898 107.095 79.3659 106.838 79.5245 105.992C79.769 104.73 79.3527 102.933 79.7954 101.539ZM214.064 120.211C222.739 120.667 231.639 120.601 240.454 120.753L251.957 118.315C252.129 118.083 250.847 116.603 250.596 116.293C249.129 114.456 247.068 112.487 245.013 111.318C244.696 111.139 242.198 109.996 242.033 109.983C241.57 109.943 240.612 110.65 239.991 110.815C238.399 111.245 230.992 113.379 230.027 112.765C229.122 112.19 230.88 111.555 231.375 111.126L239.502 109.097L234.56 106.6C233.371 106.388 232.531 106.289 231.521 105.576C230.596 108.496 227.569 109.857 225.158 111.403C226.843 111.377 228.805 110.082 230.226 109.164C230.939 108.701 234.745 105.093 233.76 108.093C232.413 112.21 220.817 115.269 216.905 115.348C212.67 115.434 209.729 113.848 206.049 113.181C204.166 112.837 201.873 113.22 200.023 113.075C198.477 112.95 193.825 111.641 192.96 111.945C191.143 112.58 188.355 115.784 186.987 117.225C195.332 118.586 203.71 119.669 212.161 120.204C212.789 120.244 213.43 120.171 214.057 120.204L214.064 120.211ZM119.321 111.007C118.713 110.472 118.449 107.604 117.563 107.763C116.909 107.882 117.319 108.622 117.457 108.945C117.596 109.269 118.852 111.456 119.321 111.007ZM121.488 107.756C121.276 107.578 120.266 108.311 119.889 108.318C119.658 108.642 120.193 109.666 120.55 109.917C120.84 109.56 120.774 108.932 120.966 108.49C121.032 108.338 121.983 108.166 121.495 107.756H121.488ZM59.775 110.194C59.59 109.804 59.1738 108.813 58.6782 108.945C57.7928 110.056 54.5817 110.901 53.8879 111.615C53.617 111.892 53.5311 112.507 53.5509 112.903C55.6124 112.071 57.4757 110.181 59.775 110.194ZM117.424 113.445C117.398 112.983 117.722 112.573 117.563 112.104C117.504 111.919 115.687 109.058 115.528 108.959C115.171 108.741 113.929 109.322 113.367 109.111C114.504 110.729 115.581 112.54 117.424 113.439V113.445ZM178.873 143.495C178.972 142.987 179.93 139.921 179.686 139.709C178.325 139.855 178.358 139.749 177.941 138.619C175.972 133.267 174.803 127.962 173.045 122.662C171.545 118.136 170.924 116.451 166.61 114.212C162.758 112.21 158.522 110.835 154.657 108.84C153.805 111.503 151.413 114.39 149.239 116.154C144.363 120.105 137.689 120.502 131.71 119.332C127.58 118.526 123.133 116.128 121.488 112.091C120.92 112.315 121.329 113.472 120.682 113.868C120.173 114.179 119.274 113.531 119.063 113.723C119.004 113.775 118.911 114.707 118.482 115.176C116.988 116.802 115.442 114.727 114.894 114.826C114.55 114.886 114.22 115.678 113.718 115.83C112.793 116.114 111.92 115.52 111.392 115.652C111.068 115.731 110.533 116.471 110.037 116.749C107.692 118.057 106.522 117.747 104.712 115.883C104.745 116.815 103.932 117.713 104.21 118.665C104.315 119.022 106.02 120.74 106.436 121.592C108.392 125.583 112.013 137.179 112.277 141.467C112.37 142.934 112.145 146.799 110.183 144.374C108.577 136.241 106.463 128.252 103.615 120.482C103.265 120.403 103.291 120.759 103.212 121.017C101.54 126.574 100.899 133.366 99.8289 139.161C99.7827 139.405 99.8752 139.729 99.8289 139.974C99.7893 140.192 99.3928 140.747 99.2871 141.328C98.6793 144.599 97.3776 149.217 97.1265 152.296C96.8556 155.673 98.1771 154.939 100.443 155.475C103.529 156.195 106.331 157.305 109.258 158.303C110.982 158.891 112.806 159.195 114.444 160.014C114.9 155.792 114.808 151.504 114.444 147.288C114.147 143.852 113.586 140.364 113.011 136.941C112.746 135.362 111.524 131.919 112.013 130.651C112.535 129.29 113.579 129.349 114.24 130.565C115.165 133.849 115.72 137.166 116.341 140.516C117.338 145.927 117.695 149.548 117.695 155.138C117.695 155.409 117.695 155.679 117.695 155.95C117.695 157.14 117.9 158.54 117.431 159.611C117.603 159.888 117.808 159.485 117.966 159.472C117.946 159.65 117.993 159.842 117.966 160.014C117.953 160.106 117.993 160.212 117.966 160.285C116.711 164.104 117.286 167.077 117.14 170.976C117.028 174.008 115.938 182.704 117.187 185.023C117.57 185.73 118.898 186.846 119.433 187.646C119.915 188.366 122.05 192.483 121.481 193.044C119.446 193.302 118.647 190.844 117.563 189.522C116.922 188.743 116.043 188.003 115.264 187.362L116.07 193.051C116.024 197.108 115.938 201.178 115.799 205.235C115.588 211.479 114.629 217.875 116.354 224.039C116.433 224.337 116.446 224.535 116.75 224.72C117.325 223.986 117.94 223.749 118.819 223.544C120.926 223.061 123.364 222.916 125.558 222.434C128.327 221.819 133.368 219.903 135.965 220.399C136.751 220.551 137.227 221.225 136.672 221.899C135.951 222.784 126.206 224.462 124.468 225.262C122.069 225.282 119.235 226.444 116.889 225.804V227.158C118.396 226.339 119.79 227.198 121.336 227.171C123.219 227.138 126.635 226.51 128.525 226.081C133.242 225.004 136.824 222.586 140.709 219.857C141.112 219.573 141.574 219.408 142.063 219.044C144.257 217.425 146.814 215.331 148.836 213.501C152.133 210.514 155.549 207.402 157.227 203.213C156.824 203.14 156.249 203.874 156.005 204.158C155.285 204.99 154.333 207.303 153.058 206.351C152.1 205.638 153.758 202.889 154.294 202.176C156.778 198.859 160.062 197.372 162.923 194.828C163.18 194.603 164.575 192.998 164.654 192.773C165.083 191.584 164.7 190.514 164.826 189.45C165.235 185.961 166.55 181.785 166.141 178.316C165.5 172.885 165.876 167.963 165.883 162.465C165.896 157.318 165.691 152.085 165.612 147.03C165.539 142.471 164.991 137.251 165.334 132.805C165.467 131.1 165.757 128.147 168.05 128.616C168.05 130.578 167.786 132.481 167.766 134.45C167.74 137.093 167.938 139.987 168.05 142.696C168.162 145.405 168.671 148.292 168.321 151.087C168.638 151.398 175.893 149.112 176.712 148.378C176.871 148.398 177.096 148.398 177.254 148.378C177.532 148.345 178.14 148.061 178.338 147.836C179.012 147.077 178.285 146.528 178.338 145.94C178.351 145.788 178.589 145.55 178.609 145.398C178.675 144.857 178.787 144.315 178.88 143.773C178.893 143.687 178.86 143.588 178.88 143.502L178.873 143.495ZM204.047 112.084C203.466 111.37 202.514 111.02 201.754 110.459C201.358 110.161 200.4 108.939 200.129 108.912C199.673 108.873 197.123 110.663 196.198 110.465C196.35 111.014 197.07 111.047 197.539 111.152C199.653 111.635 201.933 111.529 204.047 112.084ZM111.471 109.111C111.161 109.19 109.634 109.573 109.581 109.652C109.139 110.274 112.515 113.802 112.958 113.709C114.167 113.458 111.795 111.04 111.597 110.472C111.438 110.022 111.458 109.567 111.471 109.104V109.111ZM133.665 117.238C130.507 116.769 127.012 114.707 124.732 112.5C124.309 112.091 122.4 109.282 122.03 109.652C123.312 114.02 128.419 117.033 132.727 117.502C133.011 117.535 133.738 117.694 133.665 117.238ZM87.6516 112.362C87.559 112.262 85.59 111.939 84.9491 111.681C83.7334 111.192 82.6498 110.393 81.4274 109.93L82.2401 115.071C83.1057 114.185 84.077 115.011 85.2134 114.8C84.6254 113.875 82.7357 113.657 82.5573 112.447C82.3128 110.829 84.0637 112.295 84.8698 112.573C85.3059 112.725 87.4533 113.379 87.6516 113.174C87.678 113.148 87.6846 112.395 87.6516 112.368V112.362ZM107.949 111.007C106.41 111.978 105.683 115.077 108.088 115.097C110.738 115.117 108.234 112.097 107.949 111.007ZM60.3036 112.619C60.3499 112.573 60.4225 111.417 60.1847 111.278C58.4469 112.494 56.4978 113.359 54.694 114.449C54.4032 114.628 53.7227 114.615 53.8218 115.196C53.9407 115.896 54.4627 115.302 54.6609 115.236C56.3524 114.648 57.4889 113.485 59.0416 112.837C59.4381 112.672 60.2574 112.659 60.3036 112.613V112.619ZM140.299 117.502C138.667 117.707 136.691 117.357 135.02 117.502C135.238 117.932 136.619 118.05 137.042 118.057C140.808 118.11 144.587 117.099 147.475 114.661C147.633 114.529 148.387 113.941 148.149 113.709C145.803 115.13 143.127 117.152 140.299 117.502ZM67.6246 200.894C68.0541 197.048 69.5011 193.249 69.7852 189.384C70.1618 184.309 70.2742 177.695 70.0693 172.588C69.5936 160.589 66.4683 149.065 65.1336 137.179C62.1339 135.236 59.6891 133.604 57.4955 130.743C53.6368 125.708 51.5224 120.376 51.1062 113.98C46.6131 117.528 42.2985 121.328 38.6975 125.794C39.6886 128.166 39.5432 130.578 40.7193 132.897C42.5232 136.459 44.3138 139.974 45.9656 143.628L46.5074 139.564C46.5735 136.908 43.7852 131.8 47.3201 130.763C47.591 133.109 48.6945 135.679 48.9125 137.972C49.2297 141.256 48.4698 145.907 48.3971 149.297C48.3244 152.686 48.4302 153.208 47.7298 156.75C46.8312 161.269 46.2167 164.335 44.4789 168.663C44.1948 169.377 42.543 172.409 42.5166 172.634C42.4505 173.262 43.3425 174.55 42.9989 175.442C44.6111 174.2 47.7298 177.695 47.5976 179.07C47.5778 179.268 47.0889 180.51 47.0228 180.55C45.7806 181.309 45.0934 178.64 44.2279 178.138C43.6728 177.814 42.8205 177.748 42.1862 177.609C42.0607 177.708 44.0164 179.083 42.728 180.47C42.1532 181.085 41.4264 180.318 40.5476 180.431C37.9443 180.774 36.3453 183.596 35.4203 185.73C35.1031 186.457 35.1956 187.818 34.0723 188.313C33.5437 188.545 33.0812 187.659 32.9821 187.626C33.8081 183.847 35.4599 180.034 39.1204 178.197C40.3427 177.583 41.8823 177.96 41.9087 176.631C41.9483 174.259 35.5193 171.927 36.8012 168.623C36.854 168.478 37.4817 167.811 37.713 167.844C38.1293 167.903 40.0322 170.691 40.7193 171.088C41.3999 171.484 41.8228 170.024 41.8756 169.548C41.9219 169.125 38.8164 163.146 38.387 161.778C36.6228 156.109 37.6007 154.074 38.8693 148.702C39.0873 147.77 38.9486 145.431 39.7415 144.976C40.8581 144.328 41.0563 146.535 41.1092 147.407C41.2546 149.733 39.9199 151.768 39.7481 154.193C39.4375 158.593 40.977 162.346 42.7214 166.238C44.6243 163.615 44.73 159.902 45.2784 156.75C45.6947 154.378 46.633 151.054 45.9062 148.557C45.774 148.114 44.2939 146.119 43.9173 145.398C42.5959 142.828 41.6973 140.218 40.5079 137.707C39.0477 134.622 36.7946 132.415 37.2967 128.596C36.8606 128.702 36.7021 129.217 36.5237 129.58C31.9315 138.765 28.7666 148.735 25.2515 158.375C24.5181 160.384 23.342 162.353 22.6812 164.467C21.0558 169.661 22.0403 174.484 23.7714 179.499C24.8683 178.779 25.9519 177.966 26.9892 177.173C27.3791 176.876 27.6235 175.746 28.3768 176.413C29.5397 177.933 25.377 180.351 24.9674 181.653C24.5577 182.955 25.1259 184.157 25.1193 185.459C25.7536 185.598 25.5554 185.366 25.7272 185.109C26.3351 184.177 26.6523 182.809 27.2403 181.759C27.6698 180.999 30.1872 176.995 30.7686 179.162C31.0528 180.213 28.2843 184.012 27.9539 185.459C27.8416 185.948 28.1059 186.232 28.1059 186.542C28.1059 186.602 27.7689 186.82 27.8746 187.408C27.9473 187.805 28.3834 188.511 28.6477 188.842C28.7997 189.033 30.2401 190.48 30.3458 190.533C30.6696 190.712 31.1453 190.447 31.3897 190.758C32.0505 191.624 31.9051 194.511 32.7443 195.846C33.438 196.943 35.4797 197.425 36.7417 197.339C37.4884 194.775 38.4266 192.231 39.4772 189.787C39.5763 189.549 39.8472 189.351 39.7481 188.974C39.9331 188.815 39.9265 188.578 40.019 188.432C40.2502 188.049 40.2106 188.003 40.2899 187.62C40.3626 187.276 40.5872 187.098 40.2899 186.536C41.3801 186.635 40.9837 186.331 41.3735 185.723C41.7633 185.115 41.9087 184.501 42.1862 184.098C42.913 183.034 45.5031 180.51 46.8774 180.834C47.0889 180.887 48.5425 183.919 49.1107 184.62C49.5997 185.221 50.5842 185.769 50.822 186.159C51.1062 186.622 51.0665 187.507 51.1524 187.586C51.1987 187.633 52.421 187.943 52.4673 187.89C52.8968 187.461 53.313 182.737 54.238 181.666C55.1631 180.596 58.0571 179.915 58.8302 181.389C59.5372 182.743 57.2312 182.578 56.5374 182.882C55.2886 183.424 55.6124 185.076 55.3349 186.007C54.7336 188.016 53.8614 190.718 52.9826 192.588C52.0047 194.656 50.5577 196.533 49.7715 198.713C49.6723 198.984 49.494 199.07 49.5006 199.526L49.2296 200.339C48.2716 201.231 47.5712 206.484 48.5954 207.131L66.1247 211.426C66.6863 211.307 67.2281 207.138 67.3206 206.391C67.5519 204.521 67.433 202.618 67.6312 200.881L67.6246 200.894ZM60.852 113.987C58.5593 115.024 56.9471 117.515 54.0861 116.967L54.8988 120.482L61.3872 117.766C61.7771 116.029 59.5702 117.932 58.7839 118.282C57.9051 118.665 56.1542 119.59 55.4406 118.718C55.0838 116.967 61.4203 116.22 60.852 113.987ZM95.2302 146.204C95.2897 145.788 95.8579 145.207 95.9702 144.639C97.2851 138.038 98.263 131.331 99.6373 124.757C99.7563 124.189 100.78 121.169 100.648 121.03C100.615 120.997 100.034 121.03 99.6902 120.779C99.2871 120.475 99.0691 119.616 98.6264 119.127C96.7829 117.092 94.3382 115.156 91.7151 114.264C91.5433 114.449 92.4353 117.106 92.4948 117.674C92.7855 120.264 92.0587 128.847 91.3781 131.391C90.6777 134.007 88.2858 136.155 86.0195 137.436C86.7463 141.487 86.9842 145.636 87.3806 149.733C87.4203 150.162 87.6449 150.486 87.6516 150.546C87.6714 150.724 87.6317 150.909 87.6516 151.087C87.7044 151.623 87.6053 152.178 87.6516 152.713C88.0744 157.325 88.3519 161.917 88.7352 166.522C88.8012 167.335 88.94 168.128 89.0061 168.96C89.0193 169.139 88.9928 169.324 89.0061 169.502C89.0259 169.773 88.9862 170.044 89.0061 170.315C89.8848 181.422 92.1115 192.198 94.1466 203.074C94.4307 204.594 94.5166 206.642 94.6884 208.221C97.8864 208.743 100.225 206.913 103.08 206.047C102.994 204.448 102.393 202.968 101.996 201.449C100.371 195.238 96.8622 187.045 97.4305 180.768C97.6221 178.6 98.5603 176.123 98.7453 173.962C98.9303 171.801 98.6462 169.489 98.7453 167.335C98.7453 167.242 98.7453 167.156 98.7453 167.064C98.7651 166.634 98.7321 166.298 98.7453 165.98C98.7519 165.802 98.7387 165.617 98.7453 165.439C98.8312 163.787 98.97 160.007 99.5646 158.593C99.6241 158.448 100.595 158.256 100.1 157.86C99.8223 157.635 98.3357 157.906 97.8864 157.794C95.924 157.318 94.0475 155.052 94.1466 152.984C94.2061 151.669 95.0716 148.847 95.3756 147.301C95.4681 146.839 95.2038 146.409 95.2302 146.218V146.204ZM89.5479 116.689C89.3364 116.531 85.0218 116.689 84.2686 116.689C84.0505 116.689 82.9405 116.075 82.6432 115.877C82.4053 115.89 82.478 116.656 82.511 116.683C82.9008 117.092 87.2353 117.185 88.0612 117.231C88.4907 117.251 89.6007 117.661 89.8254 117.495C89.8584 117.469 89.5875 116.709 89.5545 116.683L89.5479 116.689ZM79.2602 121.024C79.9407 120.753 80.5618 121.037 80.3372 119.94C79.5972 120.376 78.7184 120.541 77.9057 120.753C75.005 121.499 69.8579 120.931 67.1555 119.458C66.2172 118.942 65.5697 117.78 64.3738 117.509C63.9707 117.938 67.0696 120.475 67.5255 120.713C68.9923 121.48 75.2231 122.332 76.8353 121.988C77.5026 121.843 78.5334 121.314 79.2536 121.024H79.2602ZM89.8188 119.94V118.857L87.9224 119.398C87.9224 119.967 89.7395 120.013 89.8188 119.934V119.94ZM255.472 122.372C255.631 122.16 253.754 119.947 253.16 119.927C246.625 121.546 240.216 123.171 233.397 122.927C228.587 122.755 223.843 122.715 219.072 122.636C214.262 122.557 209.478 122.292 204.714 121.836C198.365 121.222 192.035 120.218 185.745 119.22C185.09 119.326 183.392 125.101 183.485 125.471C183.663 126.191 185.831 126.065 186.438 126.442C186.637 126.184 184.707 121.87 187.099 122.385C188.91 122.775 189.121 127.03 189.861 127.228C193.852 126.845 198.021 128.814 202.012 129.138C207.595 129.6 213.747 129.937 219.337 129.937C228.349 129.937 242.443 127.915 250.808 124.347C252.4 123.667 253.523 122.398 255.466 122.372H255.472ZM61.9357 119.398L61.1361 119.544L55.4472 122.51C55.9362 123.786 59.0746 122.325 59.96 121.883C60.2441 121.744 62.1141 120.561 62.1867 120.449C62.2264 120.389 61.8233 119.696 61.9357 119.398ZM89.5479 121.836C89.3298 121.625 84.3743 121.612 83.5946 121.024C83.2048 123.746 87.7044 123.31 89.5479 123.462C89.495 123.125 89.6272 121.909 89.5479 121.836ZM80.8856 122.378C80.1192 122.88 78.4871 123.905 77.6546 124.149C75.5006 124.79 68.9857 123.938 66.9903 122.874C66.7062 122.722 65.6094 121.453 65.7349 122.497C67.585 130.512 68.2919 138.725 69.5473 146.845C71.2586 157.9 73.1417 166.582 73.0228 178.006C72.9633 183.49 72.9436 188.974 72.2233 194.399L83.8655 195.205L78.8571 190.877C78.0246 189.793 74.9191 186.655 77.9057 186.668L85.4909 193.579C85.6958 191.055 83.6937 187.857 81.9824 186.126C81.3944 185.532 80.2249 184.897 79.6302 184.283C79.3329 183.972 77.1128 181.25 77.0269 181.058C76.7956 180.51 76.7428 179.935 77.0798 179.42C78.0775 177.88 80.4363 181.699 81.1499 182.36C82.9074 183.992 84.5064 184.23 85.8742 186.569C87.3542 189.093 87.8035 192.04 87.6582 194.94C88.0084 194.597 89.2175 194.729 89.277 194.67C89.3959 194.551 89.0655 191.723 88.9863 191.306C85.3324 171.636 84.9756 151.642 82.7753 131.728C82.4251 128.55 81.3415 125.537 80.879 122.385L80.8856 122.378ZM57.066 125.087C56.8876 125.332 57.1321 126.244 57.7003 126.131C58.5328 125.272 63.3628 124.638 63.0192 123.052C62.9069 122.524 62.6493 122.762 62.3453 122.907C61.5656 123.283 60.852 123.786 60.0393 124.129C59.524 124.347 57.1585 124.962 57.066 125.087ZM231.118 145.663C231.527 145.597 232.043 145.716 232.472 145.663C231.104 144.645 228.97 140.099 232.089 141.044L235.723 145.544L237.342 145.392C237.619 145.147 234.56 141.487 234.309 140.978C234.018 140.37 233.886 138.976 233.813 138.903C233.602 138.698 229.994 139.353 229.32 139.399C220.942 139.954 212.63 140.905 204.245 139.637C202.184 139.326 196.653 138.467 194.982 137.8C194.096 137.45 193.198 136.241 194.07 135.686C194.942 135.131 203.373 137.291 205.018 137.516C213.515 138.646 225.409 138.104 233.945 136.994C234.639 136.901 235.095 135.791 235.776 137.344C236 137.853 235.921 138.461 236.119 138.897C236.925 140.707 238.452 142.313 239.773 143.766C239.905 141.599 238.273 139.663 238.96 137.542L236.8 138.084L236.82 136.485C237.421 135.963 237.989 136.789 238.273 136.729C238.491 136.683 238.564 136.095 238.894 135.917C240.051 135.296 241.339 135.745 242.33 135.652C245.746 135.335 254.382 133.888 257.342 132.507C257.732 132.322 258.161 131.794 258.604 131.582C258.036 129.091 257.091 126.448 256.146 123.997C249.07 128.199 240.632 129.924 232.525 130.968C231.071 131.153 229.459 131.397 227.966 131.556C215.749 132.858 204.338 131.087 192.458 128.688C191.638 128.523 190.812 128.298 189.967 128.338L191.718 141.883C192.108 142.551 201.787 144.843 203.228 145.127C211.282 146.707 223.109 147.004 231.111 145.669L231.118 145.663ZM89.0061 125.358C88.1669 125.312 87.2948 125.444 86.4556 125.332C85.2795 125.18 84.11 123.924 84.4007 125.893L88.9994 126.435V125.352L89.0061 125.358ZM63.561 126.171C62.1272 126.739 60.4886 126.97 59.0614 127.499C58.8037 127.591 58.5527 127.38 58.7046 127.915C58.817 128.325 59.5966 129.375 60.0525 129.303C60.9842 129.164 64.2746 127.558 63.561 126.171ZM187.8 135.104C187.529 133.677 187.714 128.014 186.26 127.578C185.969 127.492 183.313 127.142 183.201 127.255C183.604 128.49 182.249 132.428 182.785 133.221L187.8 135.104ZM88.7352 128.338L85.22 127.796C84.8434 130.578 87.0635 128.55 88.7352 129.422V128.345V128.338ZM64.6447 133.75C64.7306 133.128 64.572 129.812 63.9641 129.686C63.4488 129.587 61.9224 131.14 61.1295 131.047C60.8851 131.371 64.4464 133.981 64.6447 133.75ZM87.9224 131.311H85.4909L85.7619 134.014C86.1385 134.463 88.3783 131.741 87.9224 131.311ZM259.265 133.479C259.027 133.234 254.283 135.137 253.45 135.382C250.2 136.346 245.997 137.238 242.614 137.542C241.769 137.615 240.896 137.496 240.044 137.542C239.945 137.952 240.421 137.747 240.586 137.998C242.31 140.674 243.718 149.402 244.094 152.838C244.293 154.635 244.167 156.809 244.372 158.653C244.788 159.062 249.374 157.107 250.193 156.756C253.252 155.455 256.827 153.783 259.813 152.296C260.745 151.834 261.267 150.849 262.516 151.068C262.166 150.043 262.37 148.92 262.245 147.949C262.199 147.585 262.384 147.466 261.835 147.546C261.227 147.632 259.443 148.854 258.637 149.224C256.635 150.142 246.936 154.735 245.442 153.664C245.132 153.44 245.059 152.534 245.244 152.211C245.66 151.484 249.618 150.737 250.589 150.387C254.375 149.006 257.851 146.779 261.663 145.63C262.166 143.958 261.042 142.438 260.884 140.786C259.708 140.991 258.789 141.797 257.58 142.22C256.219 142.689 254.884 142.603 253.715 142.934C251.567 143.535 249.109 145.042 246.936 145.649C246.189 145.854 243.612 146.561 243.328 145.762C242.852 144.414 244.927 144.546 245.991 144.163C248.317 143.33 250.563 142.161 252.895 141.322C254.283 140.826 255.75 140.74 257.17 140.185C257.613 140.013 259.589 139.002 259.813 138.765C260.507 138.018 258.994 134.681 259.265 133.479ZM188.051 136.756L182.666 135.104C182.487 135.732 182.269 139.604 182.448 139.921C182.91 140.714 187.793 141.441 188.612 142.954L188.044 136.756H188.051ZM188.89 150.268V144.718C188.89 144.599 188.586 143.872 188.421 143.766C187.489 143.172 185.533 142.795 184.483 142.352C183.762 142.048 183.247 141.018 182.124 141.328C182.282 142.815 180.749 146.687 181.443 147.83C181.787 148.405 188.606 150.539 188.89 150.261V150.268ZM238.696 152.429C237.936 151.821 234.012 147.103 233.648 147.044C233.338 146.991 232.783 147.618 232.267 147.764C227.298 149.145 215.617 148.689 210.139 148.365C203.842 147.988 197.75 145.808 191.87 143.766C191.652 144.017 192.022 149.607 192.134 150.4C192.286 151.424 193.033 150.711 193.859 150.816C199.349 151.543 203.485 152.072 209.042 152.171C218.431 152.33 227.972 152.541 237.249 152.6C237.732 152.6 238.201 152.382 238.69 152.429H238.696ZM241.399 151.345C241.22 150.823 241.233 149.872 240.982 149.462C240.81 149.184 240.282 149.079 240.044 148.775C239.7 148.339 238.551 146.403 238.425 146.323C237.943 146.013 237.593 146.773 237.064 146.753C236.958 147.149 237.17 147.202 237.328 147.433C237.89 148.259 239.641 149.872 240.474 150.783C240.744 151.087 240.877 151.464 241.392 151.352L241.399 151.345ZM180.769 175.442C181.344 173.149 182.421 169.152 182.415 166.912C182.415 163.879 180.485 159.789 180.584 156.836C180.624 155.567 181.529 155.481 181.575 155.395C181.833 154.953 179.349 153.162 178.919 152.515C178.325 151.616 178.245 150.783 178.331 149.72C177.875 149.858 177.862 150.427 177.393 150.81C176.646 151.411 171.763 152.904 170.554 153.175C169.999 153.301 169.418 153.228 168.856 153.241C169.385 155.323 171.017 163.912 172.556 164.837C173.151 165.194 174.268 165.102 174.809 165.696C174.77 165.729 174.829 166.297 174.558 166.654C174.017 167.368 173.323 166.846 173.184 167.863C173.158 168.035 173.224 168.253 173.184 168.405C172.94 169.39 172.84 170.572 172.642 171.385C172.497 171.967 172.266 172.601 172.1 173.281C172.028 173.572 171.697 174.074 171.559 174.636C171.499 174.867 171.618 175.224 171.559 175.449C171.169 176.982 170.244 181.713 169.259 182.505C168.988 182.723 168.473 182.446 168.347 182.922C167.931 184.488 167.68 187.421 167.502 189.126C167.297 191.042 167.799 192.231 166.881 194.194C166.478 195.053 164.905 196.434 164.112 197.101C163.57 197.557 159.982 199.929 159.963 200.213C160.789 201.878 160.61 203.431 162.229 204.686C163.174 205.42 167.449 206.794 168.757 207.098C169.596 207.29 168.856 205.506 168.85 205.083C168.803 203.173 172.186 197.907 173.118 195.819C175.668 190.124 178.847 182.763 180.498 176.803C180.598 176.453 180.677 176.076 180.769 175.72C180.789 175.634 180.75 175.535 180.769 175.449V175.442ZM189.161 151.887C186.485 152.138 183.577 151.12 181.172 149.99C180.71 153.07 184.463 153.393 186.372 154.265C187.357 154.715 188.064 155.825 189.161 155.944V151.88V151.887ZM236.529 159.472C238.386 159.472 239.866 158.996 241.669 158.93V154.464C241.669 154.404 240.824 153.803 240.718 153.783C240.573 153.757 240.619 154.206 240.388 154.312C238.749 155.045 225.713 154.629 222.845 154.609C214.777 154.556 203.829 155.157 196.131 153.71C194.883 153.473 193.647 152.977 192.405 152.7L192.134 158.924C193.568 157.754 195.16 158.996 196.62 159.175C200.367 159.631 203.545 159.941 207.291 160.549C207.542 160.589 208.269 161.263 208.646 160.549C208.732 160.576 208.837 160.523 208.917 160.549C209.498 160.774 209.009 160.998 210.542 161.091C210.899 161.111 211.262 161.078 211.626 161.091C218.597 161.289 227.312 161.283 234.197 160.245C235.677 160.02 235.122 159.809 235.445 159.465H235.987L236.199 159.65L236.529 159.465V159.472ZM183.743 176.526L181.582 182.889C181.932 183.074 183.069 182.591 183.214 183.199C183.716 185.28 182.732 189.509 182.652 191.809C182.335 200.596 183.736 209.609 182.315 218.278C181.562 222.896 180.631 224.647 180.769 229.59C180.769 229.682 180.769 229.768 180.769 229.86C180.783 230.131 180.75 230.402 180.769 230.673C180.822 231.459 180.677 232.358 180.769 233.111C180.829 233.58 181.034 233.62 181.04 233.653C181.496 236.904 181.853 240.564 184.278 243.003C185.196 243.928 186.967 244.899 186.993 242.857C187.007 241.846 186.597 241.034 185.639 240.69C185.183 239.527 184.535 238.457 184.086 237.234C183.604 235.939 182.276 233.032 183.584 232.001C185.414 230.561 185.718 234.869 186.716 235.543C186.544 233.798 186.841 232.1 186.987 230.396C187.132 228.691 187.007 226.398 187.8 224.984C184.469 224.793 186.134 221.324 186.306 219.295C186.597 215.793 186.941 211.538 187 208.069C187.06 204.554 186.432 200.993 186.709 197.491C187.238 190.784 188.929 183.833 189.425 176.79C189.425 176.698 189.425 176.612 189.425 176.519C189.511 175.171 189.656 173.843 189.696 172.456C189.841 167.678 189.478 163.007 189.121 158.276C188.929 157.728 187.568 157.721 186.987 157.43C185.705 156.803 184.489 155.779 182.936 155.395L185.381 165.538C185.626 169.297 184.165 172.832 183.749 176.513L183.743 176.526ZM103.08 193.044C104.355 197.623 105.597 202.268 106.601 206.854C106.687 207.237 106.853 207.567 106.872 207.666C106.978 208.142 107.011 208.697 107.143 209.292C107.877 212.648 108.617 216.183 109.311 219.579C109.344 219.745 109.562 219.963 109.581 220.121C109.601 220.293 109.575 220.485 109.581 220.663C109.866 227.726 106.284 237.446 111.749 243.135C112.224 243.63 112.693 244.271 113.374 244.489C113.42 244.542 113.328 244.701 113.374 244.76C113.711 245.196 114.048 245.91 114.729 245.844C114.914 245.044 114.193 244.707 113.916 244.218C112.806 242.276 111.405 239.996 111.498 237.624C111.517 237.162 112.158 233.792 112.317 233.547C112.713 232.913 114.491 232.239 115.264 232.299C115.356 231.605 115.171 230.97 114.94 230.33C113.949 227.535 113.024 223.927 112.561 220.934C112.396 219.85 112.02 217.379 112.02 216.467V212.133C112.02 211.023 112.251 209.265 112.29 207.937C112.469 202.222 113.189 196.321 112.561 190.606C112.257 187.871 111.504 184.785 110.526 182.221C110.183 181.316 109.357 180.378 109.159 179.525C107.936 174.299 112.456 167.071 112.561 161.639C110.718 161.904 109.152 160.998 107.5 160.338C106.231 159.829 105.782 159.783 104.639 159.413C104.196 159.267 102.201 158.164 102.009 158.388C101.322 163.152 102.042 168.081 101.732 172.872C101.441 177.352 99.8289 181.151 100.78 185.743C101.296 188.221 102.412 190.632 103.086 193.044H103.08ZM192.947 170.572C192.94 173.506 192.616 175.746 192.405 178.561C191.665 188.472 190.152 197.042 189.967 207.124C189.96 207.574 189.973 208.03 189.967 208.479C189.967 208.657 189.967 208.842 189.967 209.021C189.934 210.732 190.02 212.457 189.967 214.168C189.967 214.26 189.967 214.346 189.967 214.439C189.934 215.364 190.02 216.296 189.967 217.148C189.967 217.174 189.716 217.168 189.689 217.531C189.57 219.163 189.841 220.67 189.154 222.288C190.971 222.136 192.722 223.306 194.447 223.379C197.545 223.504 200.446 222.15 203.327 221.443C205.785 220.841 207.926 220.663 210.337 219.791C212.749 218.919 215.167 217.591 216.766 215.529C216.013 215.774 214.844 215.185 214.255 215.311C213.443 215.483 210.707 217.505 209.644 218.013C205.732 219.883 199.296 221.363 194.975 221.198C194.03 221.165 191.031 220.927 190.647 220.134C190.489 219.804 190.383 218.813 190.555 218.542C190.852 218.073 195.246 218.674 196.112 218.668C201.946 218.621 207.628 216.514 212.98 214.432C213 213.93 212.835 213.137 212.438 212.813C213.423 208.651 217.143 207.283 220.559 205.492C219.687 203.603 221.55 202.328 222.997 201.442C223.341 201.231 224.266 201.158 224.352 200.629C223.552 200.398 222.977 200.999 222.455 201.171C217.374 202.83 213.529 204.898 209.326 208.208L211.196 208.221C212.135 208.671 213.687 208.38 213.225 209.668C213.013 210.27 210.02 210.54 209.373 210.329C208.395 210.012 209.624 208.948 208.791 208.486C208.434 208.453 205.051 210.448 204.166 210.62C203.657 210.719 202.673 210.435 202.078 210.494C198.959 210.792 196.29 211.122 193.105 210.633C192.511 210.54 191.87 210.197 191.724 209.569C191.52 208.723 192.491 209.331 192.808 209.298C195.596 209.008 198.431 208.525 201.239 208.505C201.827 208.505 203.796 209.041 204.067 208.882C204.245 208.776 204.424 208.228 204.774 207.97C206.353 206.807 208.23 206.087 209.743 204.819C208.983 204.561 208.104 204.693 207.305 204.686C205.369 204.667 203.419 204.66 201.483 204.686C201.028 204.686 200.281 204.515 199.997 204.964H199.726C199.6 204.885 199.567 204.521 199.25 204.435C197.763 204.026 192.213 204.303 191.658 202.612C191.275 201.429 191.942 201.158 193.066 201.204C195.332 201.29 198.715 202.301 201.219 202.526C203.723 202.75 207.569 202.367 209.842 203.656C210.218 203.867 210.284 204.475 210.423 204.422C214.361 200.887 219.211 200.008 224.034 198.541C225.818 198 228.362 196.672 230.1 196.473C230.781 196.394 231.164 196.553 231.474 197.187C232.247 198.766 229.248 198.343 228.693 199.275C229.347 198.898 230.483 199.863 230.701 199.817C231.184 199.711 235.274 193.388 234.917 193.051C231.395 193.877 228.124 194.63 224.497 194.94C215.346 195.72 205.963 196.387 197.017 194.273C195.418 193.897 191.315 193.223 191.341 191.425C191.883 190.897 199.211 192.767 200.486 192.971C209.617 194.438 219.878 193.718 229.03 192.43C230.417 192.231 231.871 191.61 233.192 191.452C233.833 191.372 235.313 191.63 235.478 191.551C236.02 191.313 240.183 182.182 240.83 180.953L243.857 176.4C241.742 177.167 239.502 177.497 237.302 177.966C232.274 179.03 226.975 179.77 221.801 180.325C213.833 181.184 207.688 180.675 199.944 178.898C198.913 178.66 193.198 177.299 192.993 176.638C192.497 175.019 196.515 175.924 197.36 176.063C202.032 176.849 206.842 178.799 211.546 178.937C218.63 179.136 227.979 177.788 234.996 176.46C237.745 175.938 240.394 174.517 243.321 174.907C242.68 172.878 242.125 170.837 241.967 168.683C238.756 169.41 235.386 170.335 232.082 170.572C222.376 171.266 209.293 171.319 199.739 169.766C199.21 169.68 198.642 169.595 198.114 169.495C197.585 169.396 196.515 169.106 195.946 168.954C195.53 168.841 193.343 168.233 193.264 168.115C193.105 167.896 193.343 166.786 193.581 166.582C194.546 165.742 199.521 167.11 200.988 167.295C210.925 168.557 222.885 168.861 232.888 168.134C234.93 167.989 239.397 166.621 241.009 166.78C241.451 166.826 241.597 167.216 241.96 167.322C241.689 165.174 242.449 163.212 242.502 161.098C238.538 161.507 234.705 162.611 230.728 162.987C222.634 163.76 212.524 164.143 204.595 162.597C202.58 162.201 201.186 161.93 199.092 161.6C196.819 161.243 194.209 160.906 192.154 160.007C192.352 161.421 192.748 162.822 192.861 164.249C193.013 166.132 192.967 168.597 192.967 170.566L192.947 170.572ZM168.585 163.258V175.171L171.017 167.447C169.761 166.198 169.834 164.375 168.585 163.258ZM113.367 180.318C114.022 176.744 113.949 173.116 113.909 169.489C113.519 169.423 113.546 169.958 113.453 170.242C112.845 172.119 111.676 176.361 112.145 178.158L113.367 180.312V180.318ZM45.9656 188.168L44.2081 185.465C43.7654 185.902 43.2434 186.41 43.2566 187.084L45.9656 188.168ZM47.3201 190.335C46.2696 191.445 42.7016 188.511 42.1796 188.981C41.8228 189.304 42.6223 189.701 42.8073 189.84C43.587 190.408 45.7674 191.386 46.6924 191.643C47.2739 191.809 47.2937 190.712 47.3135 190.329L47.3201 190.335ZM47.3201 199.268C47.3664 199.229 47.4985 198.429 47.6637 198.125C49.2957 195.192 50.9872 192.218 51.9189 188.981C51.4299 189.681 50.1877 189.212 50.0688 189.278C49.7384 189.463 49.3684 191.287 49.1437 191.756C48.3971 193.348 48.2914 193.447 47.7298 195.218C47.5184 195.899 46.5471 198.535 46.699 198.925C46.8246 199.242 46.9567 199.559 47.3135 199.268H47.3201ZM45.9656 193.579C44.7697 192.502 42.8073 192.456 41.4528 191.452C41.1158 191.234 40.8647 191.947 40.8317 192.099C40.7062 192.701 42.6751 192.687 43.0451 193.117L45.9656 193.579ZM45.4238 195.482C43.5605 195.396 41.618 194.927 40.2833 193.586L39.4706 196.559C41.1422 196.222 43.468 197.405 45.0009 197.121C45.2256 197.081 45.2916 195.813 45.4238 195.482ZM77.093 197.649L71.4238 197.114L70.8886 200.458C72.6991 201.581 74.9258 202.017 77.093 202.255C77.278 200.636 76.4587 199.222 77.093 197.656V197.649ZM89.8188 197.101C86.0856 197.075 85.4777 198.053 85.7619 201.706C87.3014 201.416 88.7616 200.966 90.3606 201.165C90.2945 199.751 89.5478 198.581 89.8188 197.101ZM82.7753 202.248C82.9273 202.09 83.2048 198.29 82.9273 197.901C82.6894 197.557 80.5288 197.537 80.3702 197.676C80.2777 197.755 79.5443 199.837 79.5377 199.962C79.5245 200.147 79.7161 202.169 79.7954 202.255C79.8945 202.361 82.6696 202.361 82.7687 202.255L82.7753 202.248ZM223.268 204.415C224.86 203.88 226.961 203.213 228.382 202.361C228.825 202.096 229.796 201.515 229.763 200.9C227.45 201.621 224.933 202.572 223.268 204.415ZM169.94 210.104C166.134 209.437 161.324 208.591 158.978 205.235C157.525 206.279 159.487 207.091 160.557 207.713C162.685 208.948 166.874 210.62 169.292 210.891C170.098 210.983 169.973 210.937 169.946 210.104H169.94ZM45.4238 214.432V209.966C45.4238 209.232 46.2629 209.206 44.6177 208.479C44.5913 209.715 44.4657 212.939 43.25 213.507C42.6223 213.798 42.0937 212.946 42.1796 213.758L45.4304 214.439L45.4238 214.432ZM102.809 208.75L101.725 209.186L102.815 214.009C103.02 214.545 104.434 212.985 104.441 212.681C104.441 212.483 104.011 212.622 103.813 212.212C103.357 211.267 103.047 209.8 102.809 208.756V208.75ZM49.4873 215.245V210.778C49.4873 210.692 49.7781 210.481 49.7384 210.27C49.6459 209.754 48.1196 209.748 47.5976 209.563C47.8553 211.551 47.928 213.164 47.3201 215.106L49.4873 215.245ZM100.371 209.827C100.225 209.675 99.373 209.88 99.3004 210.25C99.2211 210.646 100.833 215.086 100.78 216.051C101.857 215.397 100.893 214.201 100.721 213.137C100.628 212.576 100.49 209.946 100.377 209.827H100.371ZM95.2302 210.375C94.8404 209.979 94.7412 210.402 94.695 210.778C94.5562 211.829 95.0386 216.395 95.5011 217.234C95.6597 217.524 96.2477 217.485 96.3138 217.419C96.5715 217.168 95.5341 210.686 95.2302 210.382V210.375ZM99.0229 216.87C99.2343 216.666 98.1374 211.697 97.926 211.062C97.7807 210.62 97.7212 210.276 97.1265 210.375C97.2983 211.214 97.9657 216.646 98.2101 216.87C98.2366 216.897 98.9898 216.897 99.0162 216.87H99.0229ZM52.421 210.957C52.3616 210.864 51.4762 210.547 51.3837 210.646C51.7669 212.371 51.7669 214.062 51.3837 215.787C51.6612 215.562 52.4078 215.602 52.4805 215.351C52.5598 215.067 52.5333 211.142 52.421 210.957ZM56.5242 216.599C56.3987 216.884 55.4075 217.637 55.7115 217.954C56.1476 218.403 56.6299 217.108 56.7951 216.87C57.3765 216.011 57.74 215.192 57.8457 213.996C57.9052 213.296 58.11 211.71 57.066 212.133C57.1057 213.692 57.1717 215.146 56.5242 216.599ZM53.5509 217.412C55.3415 216.276 54.8657 214.102 54.8988 212.272L54.2314 215.522L53.5509 217.412ZM63.561 213.626L61.9357 213.355C62.636 214.36 60.6406 218.839 60.852 219.038C61.0635 219.236 61.5062 219.117 61.7308 218.701C62.4841 217.326 62.3915 215.014 63.5544 213.626H63.561ZM64.6381 219.573C64.8627 219.421 66.1974 214.776 65.0477 214.432C64.6116 215.681 64.3473 216.996 64.0302 218.284C63.9509 218.615 63.5611 219.117 63.5677 219.17C63.5743 219.447 64.4134 219.731 64.6381 219.573ZM58.6914 217.954C58.6452 217.987 57.5814 217.921 58.1496 218.496C58.7178 219.071 58.6518 217.994 58.6914 217.954C58.7244 217.914 59.1407 218.066 59.4513 217.505C59.709 217.042 59.775 216.322 59.7684 215.787C59.0945 215.919 58.8632 217.815 58.6914 217.954ZM52.4607 220.121V224.727L54.8856 221.872L56.2533 220.67C54.8723 220.789 53.6037 220.24 52.3087 219.87L52.4607 220.128V220.121Z" fill="#0067FF"/>
<path d="M196.74 230.951C197.896 228.83 202.488 233.653 202.964 233.118C202.732 232.153 203.188 231.083 203.208 230.25C203.235 229.233 202.389 227.739 203.671 226.927C205.554 225.724 205.6 228.275 205.673 229.748C205.726 230.852 204.999 232.318 205.944 232.854C205.93 231.869 206.241 231.01 206.234 230.012C206.221 228.75 205.475 227.019 206.34 226.074C206.941 225.414 207.443 225.453 207.965 226.101C209.934 228.572 207.708 233.726 209.611 235.556C210.476 236.382 216.363 236.851 217.659 236.587C218.471 236.422 219.145 235.596 220.017 235.569C220.771 236.402 217.883 238.668 217.315 238.82C215.901 239.19 210.298 238.06 210.007 238.278L210.727 239.586C214.057 240.353 216.885 242.89 220.295 243.148C219.951 247.866 211.421 241.635 211.091 242.064C211.718 246.762 213.417 251.215 215.412 255.484C215.795 256.336 214.137 256.501 213.456 256.369C211.818 256.052 209.816 250.456 209.327 248.837C208.97 247.647 207.998 241.919 207.714 241.516C207.265 240.882 205.95 241.463 205.316 241.423C204.1 241.344 201.299 241.04 200.863 239.712C200.783 239.481 200.744 238.615 200.803 238.549C201.021 238.324 206.142 239.534 207.027 239.091C206.968 236.58 204.53 237.611 203.036 236.99C201.913 236.521 202.349 235.642 202.105 235.351C202.045 235.278 201.153 235.113 200.79 234.908C200.129 234.525 198.378 233.329 197.823 232.867C197.268 232.404 197.11 232.074 196.74 231.512C196.673 231.413 196.806 231.03 196.74 230.97V230.951Z" fill="#0067FF"/>
<path d="M142.598 250.983C142.645 250.944 143.035 251.129 143.14 250.798C143.894 248.406 144.746 243.642 145.03 241.099C145.202 239.572 144.482 237.266 145.856 236.242C146.86 235.489 147.726 236.354 147.957 237.372C148.585 240.173 148.294 243.92 148.842 246.774C149.034 247.785 149.827 248.492 150.164 249.51C150.554 250.673 151.248 254.578 151.221 255.74C151.195 256.791 150.356 257.181 149.404 256.903L146.385 247.204C146.008 247.362 145.79 248.36 145.658 248.77C145.466 249.364 144.878 252.199 144.739 252.318C144.369 252.622 142.777 252.126 142.598 251.802C142.572 251.75 142.579 251.386 142.598 251.261C142.612 251.162 142.572 251.016 142.598 250.99V250.983Z" fill="#0067FF"/>
<path d="M136.645 211.724C136.5 211.757 136.282 211.704 136.104 211.724L135.879 210.296C138.912 207.164 143.207 204.812 146.391 201.846C147.891 200.445 149.094 198.575 150.719 197.24L141.508 200.749C140.372 201.667 134.121 201.826 136.5 199.526C136.877 199.163 143.114 197.24 144.303 196.771C150.66 194.254 156.54 190.91 162.507 187.6C163.782 187.567 163.98 189.397 163.584 190.329C163.095 191.472 156.844 195.047 155.331 196.421C152.695 198.813 150.554 202.064 147.878 204.403C145.565 206.424 139.467 211.03 136.659 211.724H136.645Z" fill="#0067FF"/>
<path d="M172.292 122.458C172.55 122.814 172.656 123.64 172.629 124.096C172.57 125.285 170.852 132.289 170.231 133.023C169.788 133.545 168.843 133.485 168.638 132.739C168.189 131.126 170.112 126.045 170.396 124.103C170.442 123.772 169.94 121.955 170.647 121.817C171.057 121.737 172.061 122.147 172.292 122.464V122.458Z" fill="#0067FF"/>
<path d="M238.657 183.873C238.749 184.012 238.749 184.785 238.657 184.89C238.267 185.379 231.124 185.591 229.895 185.73C219.997 186.859 210.793 188.115 200.69 187.044C198.503 186.813 195.986 185.809 193.687 185.657C192.927 185.373 192.286 183.86 193.218 183.424C194.665 182.75 199.845 184.468 201.748 184.633C212.954 185.63 223.063 183.774 233.952 183.549C234.798 183.529 238.068 182.974 238.657 183.86V183.873Z" fill="#0067FF"/>
<path d="M202.422 75.5388C201.662 75.6644 200.79 76.8603 199.448 75.8097C198.992 76.4308 200.618 77.9109 198.365 79.3315C195.015 80.1244 194.671 74.6667 197.433 74.2042C198.477 74.0258 202.21 74.1249 202.428 75.5388H202.422Z" fill="#0067FF"/>
<path d="M201.609 72.2876C201.114 72.3933 200.644 72.585 200.122 72.585C199.515 72.585 196.317 72.2348 196.046 72.0365C195.207 71.4287 196.019 70.8142 196.733 70.5301C198.193 69.9486 201.629 70.2327 201.609 72.2876Z" fill="#0067FF"/>
<path d="M216.106 79.1665C215.914 78.7899 215.167 78.519 215.927 77.5411C217.209 75.8959 219.323 78.6974 217.454 80.1576C216.614 80.8118 216.416 79.781 216.106 79.1731V79.1665Z" fill="#0067FF"/>
<path d="M67.8956 84.7428C67.8956 84.7032 68.1797 84.0094 68.2062 83.983C68.259 83.9235 69.6994 83.9103 69.7589 83.9565C69.9439 84.0821 70.3668 85.9586 70.3271 86.3682C70.1289 88.324 67.5256 87.6368 67.889 84.7428H67.8956Z" fill="#0067FF"/>
<path d="M147.475 77.1642C147.455 77.336 147.501 77.5408 147.475 77.706C147.475 77.739 147.25 78.1685 147.204 78.2478C146.001 80.2895 144.098 78.6377 144.369 76.6158C144.039 76.0277 143.755 77.0387 143.068 76.8669C141.951 76.5828 142.599 75.2349 143.147 74.7261C143.742 74.1777 146.576 73.583 147.224 74.0323C147.871 74.4816 147.323 76.1863 147.29 76.814C147.283 77.0188 147.475 77.1378 147.475 77.1576V77.1642Z" fill="#0067FF"/>
</svg>
