<svg width="292" height="307" viewBox="0 0 292 307" fill="none" xmlns="http://www.w3.org/2000/svg">
<path d="M0 0H292V307H0V0Z" fill="white"/>
<path d="M103.512 84.7951C104.678 80.0432 115.783 70.4435 120.092 67.8462C123.243 65.9425 130.931 62.9172 134.503 62.2974C135.181 62.1794 135.868 62.2015 136.547 62.2237C135.934 63.751 136.362 63.419 137.528 64.1864C138.052 68.8128 133.049 72.2365 131.64 76.2948V76.6195C130.525 76.9294 131.278 76.7745 130.983 77.2762C130.85 77.505 130.739 77.6378 130.658 77.9329C130.585 78.1986 130.334 78.2576 130.334 78.9143C130.334 82.5446 134.237 83.371 134.842 86.352C135.24 88.3148 134.864 89.8864 134.259 91.6795C132.96 95.5607 129.802 98.2391 127.64 101.589C126.932 102.696 125.132 105.308 125.478 106.496C125.825 107.684 128.371 108.4 128.29 111.056C128.201 113.971 124.571 119.291 122.807 121.777C122.697 121.932 122.129 122.109 122.018 122.441L120.527 124.721C121.59 124.05 122.328 123.024 123.139 122.102C126.371 118.42 133.167 110.879 135.078 106.725C136.989 102.57 135.727 104.209 133.787 104.098C132.805 104.039 131.389 102.718 132.001 101.847C132.473 101.161 137.771 100.327 138.162 102.984C138.745 106.99 136.569 110.126 134.399 113.24C132.23 116.354 127.043 122.987 124.298 125.717C122.675 127.333 119.037 129.842 119.384 125.71C117.458 127.57 115.451 130.263 112.492 130.307C111.444 130.322 111.112 129.687 110.544 129.636C109.555 129.547 109.105 130.263 107.585 129.658C106.213 129.104 104.966 126.433 104.014 126.691C103.276 126.891 103.851 128.02 103.719 128.654C103.571 129.37 103.128 130.344 102.752 130.993L94.0377 142.401C93.2556 142.666 84.6668 152.392 82.4163 154.17C81.3095 155.04 77.6349 158.272 76.5281 156.472C75.5246 154.849 78.69 154.007 79.3172 152.871C75.222 152.915 70.7062 150.207 67.098 148.237C64.9066 147.042 63.4087 144.482 60.8261 146.643C57.4393 149.477 51.2855 163.725 49.1752 168.359C48.5037 169.835 44.8881 175.826 45.6629 177.036C45.7514 177.177 48.1938 178.379 48.5701 178.549C54.3403 181.095 67.2014 185.382 73.3036 186.201C80.697 187.19 86.7993 183.817 94.2075 182.969C95.2995 182.843 96.7457 183.19 97.7345 182.895C98.2067 182.755 100.199 180.18 100.907 179.523C105.106 175.598 107.711 172.845 111.54 168.558C116.085 163.467 120.786 158.767 124.158 152.716C126.703 151.248 127.235 152.856 126.43 155.151C126.128 156.022 122.586 161.408 121.848 162.353C120.026 164.692 117.126 167.178 115.141 169.547C114.433 170.388 111.481 173.834 111.208 174.476C110.935 175.118 111.363 175.568 111.289 176.166C111.001 178.549 110.426 180.918 110.064 183.286C116.137 185.625 121.863 188.805 127.972 191.071C135.912 194.015 145.239 196.332 153.724 196.723C162.21 197.114 171.389 193.107 179.35 190.916C182.169 190.141 185.091 189.573 187.924 188.857C187.659 188.267 187.091 188.127 186.951 187.381C186.478 184.865 187.091 180.423 186.943 177.575C186.818 175.199 186.294 172.86 185.962 170.536C185.342 166.219 183.933 161.327 183.933 157.284C183.933 156.347 182.959 154.922 184.752 155.55C185.984 155.978 187.578 162.235 187.969 163.784C188.611 166.3 189.201 169.281 189.555 171.849C189.681 172.742 189.791 173.561 189.88 174.469C189.902 174.683 189.858 174.911 189.88 175.125C189.954 175.959 190.182 177.184 190.205 177.745C190.205 177.855 190.205 177.966 190.205 178.069C190.205 178.158 189.976 178.379 189.983 178.601C190.072 181.781 190.728 185.131 189.555 188.208C195.399 186.769 201.324 185.308 207.367 184.924C209.618 184.784 212.85 185.301 214.894 184.924C216.096 184.703 224.198 179.862 225.836 178.859C230.367 176.092 235.724 172.653 240.018 169.569C240.402 169.296 240.52 168.61 240.586 168.58C240.704 168.514 241.147 168.691 241.309 168.566C242.925 167.348 245.397 165.526 246.777 164.146C247.692 163.231 246.777 163.46 246.312 163.032C241.944 158.929 231.186 144.245 229.127 138.807C228.803 137.944 228.264 137.169 228.471 136.188C228.515 136.18 228.522 135.76 229.26 135.856C230.795 136.055 230.618 137.125 231.134 137.929C233.695 141.921 236.292 145.197 239.074 148.975C240.247 150.569 248.349 162.035 249.242 162.028C250.134 162.021 250.009 160.663 249.677 159.962C247.869 156.11 241.346 149.816 238.469 145.972C235.842 142.467 233.872 138.66 231.407 135.199C231.311 135.066 231.348 134.793 231.083 134.542C230.987 134.454 230.935 134.262 230.758 134.218C230.655 133.731 229.585 133.709 229.452 134.218C229.009 134.314 228.788 134.638 228.471 134.874C227.15 135.177 226.419 136.586 225.526 137.494C221.896 141.176 218.827 145.47 214.945 148.828C213.521 150.06 209.448 153.557 207.729 151.868C206.408 150.569 203.398 141.198 202.63 138.8C202.527 138.468 202.402 138.128 202.306 137.819C202.247 137.641 202.357 137.346 202.306 137.162C199.074 126.714 194.403 118.479 183.66 114.583C183.357 114.472 183.047 114.14 182.354 113.926L181.372 113.602C180.398 113.351 179.896 113.41 179.085 113.277C179.033 113.27 178.694 113.026 178.103 112.952C175.55 112.62 172.673 112.657 170.075 112.628C169.714 112.628 169.028 112.288 168.976 112.325C168.828 112.428 167.308 114.753 166.88 115.136C160.52 120.877 149.068 124.124 140.878 121.224C139.749 120.825 135.514 118.531 134.916 117.704C134.414 117.018 133.75 115.321 135.093 115.218C135.868 115.159 139.144 117.446 140.265 117.918C148.958 121.585 157.915 116.974 164.999 112.104C165.759 111.58 166.209 110.739 167.08 110.259C169.234 109.071 172.71 109.226 175.167 109.344C190.655 110.126 200.704 120.877 205.264 134.867C205.383 135.221 205.301 135.848 205.493 136.424C206.873 140.586 208.651 144.636 209.522 148.931C214.163 145.677 217.484 141.095 221.306 136.985C221.549 136.719 221.557 136.24 221.623 136.173C221.675 136.121 222.265 136.055 222.612 135.701C224.479 133.834 227.253 130.263 230.264 130.617C231.304 130.742 231.843 131.458 232.595 131.916C232.876 132.085 232.868 132.491 233.245 131.916C234.219 130.462 234.344 126.219 234.861 124.375C235.001 123.88 236.159 121.113 236.344 120.788C236.44 120.619 239.007 118.317 239.162 118.206C240.918 116.988 245.036 116.634 245.486 119.328C246.172 123.452 242.874 125.658 243.198 129.451C243.427 132.122 246.903 134.373 247.434 130.728C247.825 128.027 246.644 122.301 248.268 120.442C251.647 116.568 256.015 121.43 255.322 125.363C255.462 125.57 257.439 123.157 259.896 124.382C259.978 124.419 261.166 125.533 261.217 125.607C262.243 127.06 262.538 130.137 262.841 131.908C264.272 130.927 267.777 131.252 268.33 133.118C269.548 137.25 264.589 141.574 262.184 144.334C264.058 143.936 266.958 143.485 267.991 145.559C269.385 148.341 266.227 150.045 264.043 150.945C260.922 152.229 256.96 152.731 253.743 154.059C252.702 154.487 251.868 155.277 250.732 155.468C250.518 155.756 253.101 159.342 253.352 160.043C253.514 160.508 253.824 162.213 253.602 162.589C253.529 162.722 253.079 162.795 252.909 163.017C248.541 168.698 236.24 176.276 229.769 180.135C226.618 182.017 223.394 183.854 219.985 185.242L226.043 186.865C227.511 187.485 229.061 188.053 230.448 188.842C233.296 190.466 236.476 193.69 237.901 196.605C239.841 200.567 235.864 207.149 233.193 210.078C228.028 215.73 212.673 224.378 205.324 226.378C204.46 226.614 203.53 226.739 202.638 226.806C204.925 229.61 207.397 232.576 205.434 236.31C204.608 237.874 203.346 239.187 201.479 239.254C200.623 239.283 198.742 238.368 198.41 238.604C198.011 238.892 197.812 241.379 196.071 242.006C194.447 242.589 194.167 241.549 192.817 241.202C193.008 241.755 191.717 243.917 191.437 244.072C190.758 244.463 189.511 243.784 189.194 243.969C188.079 244.618 188.308 249.348 184.309 245.127C184.796 248.123 183.246 247.193 182.346 247.747C177.779 246.094 178.236 234.192 172.732 234.347C170.54 234.406 167.604 236 164.844 235.992C162.357 235.985 161.369 234.435 164.091 233.587C171.485 231.263 179.727 229.115 187.253 227.131C202.697 223.065 211.647 222.452 225.172 212.543C227.194 211.06 233.451 205.902 233.982 203.651C234.204 202.7 233.495 202.463 233.466 201.844C233.436 201.224 233.968 199.992 234.027 199.15C234.241 196.221 233.923 195.55 231.747 193.757C222.531 186.157 206.305 187.713 195.436 190.156C193.473 190.599 191.54 191.152 189.548 191.469C190.478 192.657 192.743 192.746 192.846 194.576C193.008 197.416 188.507 200.53 186.375 201.873C173.625 209.931 156.919 217.162 141.896 219.228C140.162 219.464 135.956 220.224 134.768 218.933C132.717 216.704 137.343 217.095 138.31 216.948C145.748 215.797 154.794 213.554 161.915 211.104C166.925 209.385 186.729 199.77 189.533 196.199C191.599 193.572 189.09 193.587 187.091 192.244C175.72 195.365 164.231 198.28 153.149 202.338C149.983 203.504 146.427 204.862 143.409 206.337C137.602 209.171 132.459 213.428 126.083 215.022C125.951 215.516 126.209 215.561 126.408 215.841C130.046 221.036 140.413 227.463 145.711 231.381C147.674 232.827 149.599 234.613 151.629 236.096C152.728 236.9 155.554 237.926 155.554 239.394C155.554 240.862 154.115 241.18 152.92 240.693L144.737 234.981C143.778 237.918 139.955 240.936 137.314 242.449C135.049 243.747 127.161 246.352 127.397 249.702H127.072L125.766 250.683C124.349 250.654 123.228 251.2 121.435 250.919C118.867 250.521 119.657 249.392 119.199 249.06C118.934 248.868 116.034 250.373 114.233 249.37C113.842 249.149 113.783 248.485 113.473 248.403C113.149 248.322 112.418 248.957 111.843 249.031C109.939 249.267 107.88 249.281 106.928 247.385C100.597 250.329 96.8491 244.758 103.195 241.025C103.409 240.899 104.397 240.766 103.837 240.213C103.187 239.571 88.7029 250.189 89.1014 241.025C89.153 239.748 89.6917 238.457 90.4296 237.431C95.4323 232.952 99.5054 226.85 106.456 225.323C98.9446 222.371 90.9166 220.873 83.2353 218.446C76.6535 216.365 64.6557 212.181 62.0436 205.282C59.4316 198.383 63.5046 193.72 69.0608 190.525L73.0896 188.51C69.8135 188.208 66.6111 187.418 63.4603 186.525C59.3578 185.36 46.9542 181.67 44.1503 179.339C43.3976 178.711 42.4089 177.693 42.7188 176.638C42.8369 176.24 43.4124 175.989 43.5748 175.502C46.4598 166.736 50.9313 156.339 55.8234 148.488C57.0556 146.511 60.0809 142.659 62.7077 143.087C66.766 144.791 70.7653 147.728 74.8384 149.307C76.5797 149.979 78.8671 150.119 80.2174 150.79C80.6897 151.026 80.6085 151.624 80.7856 151.543C81.3095 151.307 86.2016 146.201 87.0058 145.33C89.581 142.556 91.7282 139.324 94.0377 136.49C94.1189 136.387 94.2591 136.299 94.3624 136.166C94.8125 135.612 95.2774 135.022 95.6685 134.528C95.7939 134.365 96.244 134.196 96.4949 133.893C97.7788 132.292 99.1291 130.683 100.251 128.964C99.1291 129.185 98.797 130.064 97.4689 129.975C96.8638 129.931 94.6576 128.986 94.3403 128.499C93.3884 127.038 94.7682 124.67 95.6685 123.401C97.1516 121.32 100.044 118.265 101.874 116.361C104.803 113.321 108.397 110.613 111.201 107.367C112.13 105.352 109.88 104.135 109.076 102.637C107.74 100.15 108.817 98.8368 110.396 96.9036C110.92 96.2617 113.023 95.1475 112.536 93.9669C112.101 92.9191 109.555 92.683 108.412 92.1738C105.563 90.9047 102.663 88.2705 103.519 84.7951H103.512ZM115.62 75.6308C113.732 77.3795 111.916 78.6118 110.057 80.8697C109.039 82.0945 106.08 85.6068 106.508 87.1784C107.474 90.735 117.369 88.6025 115.296 95.9222C114.706 98.0178 111.717 99.6116 111.717 100.991C111.717 101.936 114.359 104.378 114.573 105.972C114.654 106.562 114.27 108.282 114.012 108.872C113.023 111.115 105.541 117.195 103.35 119.475C101.158 121.755 98.9151 124.345 97.3065 127.171L103.195 124.057C103.578 124.138 104.139 123.969 104.501 124.057C104.575 124.072 105.681 124.633 105.807 124.714C105.91 124.78 106.021 124.943 106.131 125.039C106.899 125.71 107.445 127.105 107.991 127.267C108.212 127.333 111.223 127.658 111.511 127.643C112.337 127.599 112.75 127.038 113.326 126.677C115.849 125.105 118.092 122.486 119.871 120.132C120.926 118.73 126.135 111.336 125.375 110.045C125.338 109.979 124.586 109.647 124.283 109.351C122.667 107.758 121.951 106.275 122.66 103.928C122.881 103.198 125.914 98.2096 126.526 97.3389C126.851 96.8815 127.722 96.1805 128.378 95.2655C129.699 93.4209 132.149 90.7719 132.178 88.2926C132.215 85.4297 129.699 84.1753 128.046 82.1831C128.423 81.091 126.851 79.3201 127.065 78.5822C127.094 78.4789 127.581 78.3388 127.626 78.1764C128.932 73.4983 130.23 72.7678 132.769 69.0711C133.182 68.466 135.477 64.8209 135.24 64.511C129.95 67.1526 124.49 68.3332 119.568 71.8971C118.063 72.9892 116.823 74.5166 115.613 75.6308H115.62ZM241.568 119.807L238.956 121.762C239.635 121.947 239.841 121.548 240.269 121.283C240.623 121.061 241.745 120.361 241.568 119.807ZM237.967 139.767C239.767 142.452 241.228 144.186 243.198 146.636C245.058 148.946 246.703 151.772 249.197 153.461C252.4 151.336 256.237 150.569 259.867 149.403C260.561 149.182 261.387 149.292 262.117 149.034C262.848 148.776 267.194 146.939 265.733 146.016C264.272 145.094 259.675 148.444 258.738 146.621C258.502 146.156 258.642 145.441 258.576 145.33C259.55 142.947 261.844 141.272 263.158 139.11C265.46 138.128 267.843 132.89 264.973 133.207C262.752 133.45 263.15 138.291 261.63 138.734C259.136 139.457 260.856 135.856 260.87 134.69C260.885 133.251 260.428 129.768 259.992 128.374C259.291 126.153 258.067 124.825 256.665 127.533C255.757 129.281 256.746 132.845 253.89 131.864C252.525 131.399 253.3 127.407 252.96 126.249C252.732 125.474 250.621 124.109 250.245 123.076C250.179 125.098 249.913 127.119 249.758 129.126C249.721 129.591 250.061 130.108 250.016 130.691C249.706 134.38 245.242 135.62 242.556 133.384C240.062 131.311 240.638 127.769 241.737 125.039C242.129 124.079 243.398 122.936 243.051 121.77C242.136 122.943 240.217 124.028 238.72 123.976C238.174 123.961 237.878 123.408 237.812 123.408C237.096 123.393 235.938 130.89 235.377 132.093C235.089 132.705 234.152 133.524 234.137 133.709C234.086 134.321 237.414 138.925 237.974 139.767H237.967ZM107.438 178.704L106.456 179.191L102.863 182.297H107.113L107.438 178.704ZM151.606 199.32C135.794 198.841 120.904 192.148 107.305 184.614C98.4724 185.559 89.8688 186.378 81.3463 189.086C75.0671 191.078 60.1252 196.31 65.4969 205.437C67.7105 209.2 77.4947 213.067 81.671 214.454C89.3744 217.014 98.856 219.848 106.714 221.803C108.987 222.364 111.474 222.393 113.429 222.88C113.695 222.947 113.643 223.515 113.857 223.544C114.587 223.648 117.797 222.224 118.535 221.707C119.738 220.866 122.298 217.487 123.147 217.132C124.563 216.542 124.623 217.848 124.003 218.999C119.007 228.252 105.453 225.337 98.738 232.672C98.2362 233.779 93.6688 237.446 93.6762 238.088C93.6762 239.549 96.1112 239.468 96.9745 239.704C97.4541 239.837 97.8894 240.567 98.369 240.486C98.6937 240.434 101.704 238.656 102.759 238.324C104.154 237.881 106.087 237.084 106.928 238.907C108.065 241.357 103.542 243.105 103.822 243.482C104.582 243.342 106.899 244.434 107.201 244.411C107.651 244.375 111.577 240.884 112.02 242.714C112.485 244.64 109.769 245.253 109.71 247.083C111.533 247.71 115.429 244.367 116.395 244.448C118.129 244.596 117.48 246.529 116.58 247.407C118.188 247.496 120.144 245.098 121.575 245.496C123.803 246.116 120.299 249.053 122.94 249.067C125.515 249.082 126.017 246.197 127.618 244.788C129.625 243.024 133.374 242.013 135.764 240.597C138.561 238.944 141.616 236.383 143.394 233.675C141.018 232.111 138.598 230.259 136.369 228.422C131.772 224.637 128.415 221.523 124.438 217.125C123.84 216.461 122.18 215.871 122.483 214.889C122.837 213.753 129.183 211.244 130.533 210.484C133.772 208.662 136.82 206.426 140.118 204.699C143.416 202.973 147.637 201.726 150.824 200.029C151.127 199.866 151.54 199.711 151.577 199.313L151.606 199.32ZM203.612 232.369C204.113 231.764 201.066 227.972 200.188 227.581L176.133 233.838C179.771 236.546 179.572 241.674 182.346 244.803L182.678 238.914C185.276 238.413 184.907 240.98 185.563 242.744C187.01 246.618 187.319 243.105 187.275 241.032C187.26 240.161 187.017 239.438 186.928 238.597C189.983 237.616 188.692 240.641 190.522 241.866C191.06 240.279 190.802 238.604 190.854 236.959C192.662 236.324 193.075 238.818 194.263 238.619C194.396 238.597 195.259 236.848 196.417 237.284C194.75 232.155 197.436 235.306 198.218 235.247C199.354 235.159 201.701 230.82 203.612 232.384V232.369ZM199.369 236.62C202.446 237.948 204.158 235.601 203.944 232.694C202.734 233.454 201.929 234.753 200.845 235.638C200.328 236.059 199.509 236.081 199.369 236.612V236.62ZM95.6611 241.534C93.964 241.903 93.0859 240.538 91.743 239.896L91.4109 242.515C92.2078 242.53 92.9974 242.552 93.7869 242.434C94.1706 242.375 95.5651 242.021 95.6611 241.534ZM104.825 246.109C104.508 245.186 103.335 245.481 102.538 245.459C102.855 246.382 104.029 246.086 104.825 246.109Z" fill="#0067FF"/>
<path d="M53.1374 131.916C53.2259 132.049 53.2849 132.573 53.462 132.897C53.949 133.79 54.0892 133.502 54.1188 133.554C54.2294 133.746 53.8826 134.388 53.9564 134.683C54.5098 137.037 55.2551 139.627 56.0667 141.907C56.3619 142.741 57.9409 144.991 57.3654 145.633C56.2364 146.887 54.3917 143.929 53.9564 143.043C53.3882 141.892 52.7316 138.756 52.1929 138.011C51.9568 137.686 49.9055 137.664 49.5218 136.683L47.9059 133.886C48.297 139.014 51.8387 141.862 49.6989 147.293C48.9315 149.241 48.3855 150.259 46.1055 150.267C40.5936 150.282 41.5454 142.342 42.0324 138.645C42.1505 137.767 42.9474 137.266 42.3423 136.174C41.9217 136.771 40.2099 137.066 40.0475 137.384C38.9481 139.464 40.1509 146.437 36.2992 146.673C34.1003 146.806 33.8716 144.903 33.0378 143.368L32.2187 140.756C30.9127 143.073 33.6354 149.861 30.9275 150.754C28.8024 151.455 28.2268 149.153 26.6625 148.275C26.2124 151.794 33.3034 157.992 32.4917 160.796C31.835 163.069 27.3709 161.608 28.4482 163.659C29.5255 165.711 34.152 165.334 35.9524 165.637C37.9225 165.969 41.1617 166.566 43.0212 167.076C45.1094 167.651 45.5226 169.046 42.8662 169.223C40.2099 169.4 37.5314 168.382 34.9636 167.939C33.4583 167.681 31.4513 167.88 29.9166 167.422C25.1056 165.991 23.1282 160.759 29.282 159.549C27.7694 155.757 23.5709 152.599 24.0357 148.098C24.3087 145.441 26.8765 144.497 28.9499 145.98C28.7138 143.427 29.341 137.361 32.4696 136.874C35.2735 136.439 35.0669 140.21 35.672 142.04C35.79 142.394 36.0261 143.368 36.4689 143.36C36.9559 140.269 36.646 136.565 38.4316 133.871C40.3132 131.045 43.1614 130.595 44.6666 134.012C46.0907 137.243 43.8255 141.102 44.3493 144.799C44.4748 145.663 45.3897 148.267 46.4449 147.943C50.2966 143.582 42.2759 133.606 46.1128 129.931C47.3893 128.706 49.5882 128.64 51.0271 129.606C51.2411 129.747 52.9898 131.658 53.1521 131.901L53.1374 131.916Z" fill="#0067FF"/>
<path d="M154.218 63.5228C155.554 63.9729 159.959 66.4669 160.557 66.4595C161.892 66.4448 164.881 65.1535 166.216 64.5632C168.813 63.4269 172.363 60.4237 175.174 61.3756C175.499 61.4863 176.76 62.7628 176.79 62.8661C177.218 64.3271 172.503 73.307 171.625 75.1885C172.673 77.4391 174.495 79.1804 175.476 81.5121C179.49 91.0454 176.067 98.8152 170.85 106.821C169.603 108.732 168.208 107.994 168.312 105.921C168.459 103.132 173.278 97.5018 174.134 93.7534C174.886 90.4699 174.134 86.323 173.182 83.1502C172.09 84.1832 171.514 85.7254 170.562 86.906C168.57 89.3778 162.667 92.927 159.627 93.9674C158.978 94.1887 155.488 95.0225 155.082 94.8897C154.58 94.72 154.418 94.0486 154.211 93.6206C154.248 93.5763 154.196 92.9122 154.521 92.4695C156.447 89.8648 161.509 90.0641 163.693 87.4003C165.456 86.4263 167.825 84.6702 169.064 83.1207C169.662 82.368 170.016 81.3055 170.555 80.6783C170.894 80.2799 171.514 80.2504 171.544 80.1987C171.817 79.8076 169.957 78.022 169.721 77.2694C168.784 74.1998 174.443 64.4968 173.831 63.8475C169.3 66.0758 164.799 68.2673 159.93 69.7209C153.237 65.6626 145.298 64.0393 137.52 63.8475C137.21 61.87 137.078 61.1469 139.697 61.014C143.158 60.837 150.832 62.3717 154.204 63.5154L154.218 63.5228Z" fill="#0067FF"/>
<path d="M40.7043 145.655C39.1105 150.186 37.5462 154.089 36.8157 158.937C36.6829 159.815 37.1404 161.674 36.2476 161.977C35.458 162.235 34.6537 162.095 34.4914 161.195C34.0044 158.546 35.5097 151.824 36.6238 149.256C37.4134 147.441 38.4021 145.338 40.7043 145.655Z" fill="#0067FF"/>
<path d="M169.92 114.901C169.669 115.839 168.931 117.263 169.92 116.864V117.189C169.16 117.425 168.053 119.358 167.633 119.808C165.877 121.66 163.021 124.191 160.763 125.372C160.291 125.615 158.026 126.523 157.494 126.678C155.738 127.202 152.484 127.755 150.625 127.984C145.445 128.633 138.981 128.773 134.156 126.626C133.263 126.228 129.869 124.479 131.632 123.217C132.554 122.553 137.085 124.575 138.524 124.877C143.586 125.94 153.901 124.877 158.705 122.804C162.63 121.107 163.973 118.96 166.91 116.517C167.625 115.927 168.85 115.706 169.61 114.887H169.935L169.92 114.901Z" fill="#0067FF"/>
<path d="M217.683 194.413C223.32 198.928 214.407 206.883 210.968 209.783C204.593 215.154 194.816 222.098 187.26 225.499C180.295 228.628 169.05 231.911 161.487 233.254C159.539 233.601 151.909 234.973 153.245 231.387C171.086 228.495 185.563 224.193 200.35 213.715C201.826 212.668 203.169 211.531 204.6 210.447C207.98 207.871 214.849 203.518 216.052 199.32C216.561 197.534 216.628 197.01 215.395 195.719C215.292 195.608 215.174 195.497 215.071 195.394C214.525 194.848 213.233 194.007 214.982 193.49C216.008 193.188 216.93 193.808 217.69 194.413H217.683Z" fill="#0067FF"/>
<path d="M147.681 79.2319C149.142 77.0847 148.286 77.3355 148.146 74.9596C150.964 73.6757 152.034 76.5608 151.532 78.9957C151.363 79.8148 149.518 82.5966 148.891 83.054C148.264 83.5115 145.179 84.4265 144.737 84.788C143.807 84.8471 142.597 85.3636 141.682 85.1275C141.431 85.061 140.848 83.7403 140.959 83.4746C141.446 82.3162 145.843 81.6226 147.341 80.0214C147.658 79.682 147.592 79.3499 147.681 79.2245V79.2319Z" fill="#0067FF"/>
<path d="M63.4899 147.33C65.6814 146.599 64.5598 149.58 64.2425 150.709C63.2907 154.125 61.505 157.889 59.8522 161.039C58.7897 163.061 50.9313 175.664 49.64 176.033C48.0684 176.483 48.002 175 48.4152 173.812C49.0719 171.923 52.9531 167.348 54.2591 165.26C55.7496 162.884 57.373 160.353 58.6421 157.866C59.4095 156.369 62.7668 147.573 63.4899 147.33Z" fill="#0067FF"/>
<path d="M140.074 203.164C139.513 203.718 137.55 203.615 136.724 203.563C127.906 203.061 109.467 196.952 100.649 193.838C98.7601 193.166 93.3147 191.24 93.75 188.761C93.8238 188.348 94.1632 187.566 94.7019 187.654C95.5504 187.795 98.7085 189.661 100.066 190.156C107.836 192.989 117.738 195.705 125.81 197.778C128.194 198.39 139.468 200.206 140.339 201.593C140.597 202.006 140.398 202.832 140.074 203.15V203.164Z" fill="#0067FF"/>
<path d="M118.86 218.919C118.247 219.804 110.891 218.063 109.467 217.746C98.62 215.325 83.7887 212.049 74.6244 205.807C73.7389 205.202 69.7913 201.394 69.3634 200.597C68.9354 199.8 68.537 198.022 69.5848 197.565C70.8465 197.019 71.0384 198.627 71.7984 199.468C81.5825 210.308 101.313 211.879 114.897 215.916C115.827 216.189 120.018 217.273 118.867 218.911L118.86 218.919Z" fill="#0067FF"/>
<path d="M82.5786 194.413C83.1541 194.347 83.6632 194.435 84.2166 194.575C89.4998 195.896 96.2956 199.409 101.807 201.194C107.725 203.113 116.366 204.574 121.686 207.164C124.63 208.595 122.756 210.698 120.121 210.041C107.592 206.418 95.1224 202.589 83.25 197.18C82.2539 196.619 82.6081 195.402 82.5786 194.42V194.413Z" fill="#0067FF"/>
<path d="M204.276 195.72C203.914 199.453 196.218 205.725 193.156 207.828C190.898 209.37 188.382 210.817 185.962 212.078C176.982 216.764 157.76 223.899 147.843 224.512C146.006 224.622 140.9 224.622 143.66 221.966C146.641 221.708 149.666 221.376 152.595 220.756C164.94 218.144 186.309 210.411 195.775 202.102C196.654 201.328 200.601 197.196 200.859 196.391C202.328 191.802 197.76 193.846 195.51 192.879C194.838 192.591 195.215 192.237 195.119 191.794C197.436 190.769 202.328 190.496 203.744 193.1C203.848 193.292 204.305 195.498 204.283 195.727L204.276 195.72Z" fill="#0067FF"/>
<path d="M106.788 231.713C109.238 231.314 110.197 233.727 111.916 234.923C113.997 236.376 118.137 238.051 120.631 239.291C121.479 239.711 124.165 240.014 123.774 241.327C123.457 242.397 121.066 242.22 120.18 242.036C118.919 241.77 112.787 238.782 111.466 237.992C109.326 236.716 106.847 234.332 106.788 231.713Z" fill="#0067FF"/>
<path d="M200.358 222.209C199.148 220.83 204.991 218.099 205.877 217.45C209.367 214.912 224.088 203.187 224.818 199.734C225.098 198.406 223.696 195.602 226.168 196.554C230.699 198.295 226.058 204.065 224.065 206.198C220.627 209.865 206.711 221.715 202.239 222.35C201.523 222.453 201.044 222.35 200.358 222.209Z" fill="#0067FF"/>
<path d="M255.956 139.768C256 140.72 255.904 141.48 255.631 142.387H254.65C254.621 142.018 253.861 140.882 253.669 140.1C253.588 139.76 253.72 139.222 253.595 138.72C253.388 137.923 250.356 130.293 253.861 132.876C254.68 133.481 255.904 138.572 255.963 139.775L255.956 139.768Z" fill="#0067FF"/>
<path d="M194.624 207.173C194.838 207.284 194.838 207.394 194.624 207.498V207.173Z" fill="#0067FF"/>
</svg>
