<svg width="292" height="307" viewBox="0 0 292 307" fill="none" xmlns="http://www.w3.org/2000/svg">
<path d="M0 0H292V307H0V0Z" fill="white"/>
<path d="M138.673 171.162C138.685 170.647 139.515 169.772 139.012 168.986C138.943 168.879 137.301 168.017 136.874 167.615C136.32 167.099 135.842 166.199 135.295 165.715C134.49 165.004 132.489 164.055 131.898 163.275C131.603 162.878 131.357 162.08 131.093 161.715C130.911 161.457 130.565 161.375 130.395 161.149C129.351 159.777 128.785 158.255 127.866 156.884C127.602 156.488 126.986 156.356 126.847 155.777C126.835 155.733 126.847 155.664 126.847 155.62C126.25 155.544 126.275 154.991 126.061 154.67C125.96 154.525 125.816 154.292 125.747 154.198C125.703 154.142 125.64 154.097 125.589 154.041C125.004 153.368 123.727 152.594 123.218 151.871C122.897 151.412 122.96 150.801 122.495 150.267C121.784 149.449 117.249 147.021 116.148 146.669C114.393 146.109 112.192 146.002 110.506 145.367C109.808 145.103 107.732 144.398 107.229 144.096C107.046 143.989 107.172 143.725 107.103 143.65C107.015 143.562 106.593 143.612 106.373 143.505C105.524 143.096 104.499 141.756 103.612 141.366C101.643 140.505 99.838 139.605 97.8189 138.794C97.5422 138.681 97.2591 138.555 96.9823 138.429C95.7432 138.429 94.8877 137.838 94.4097 137.02C93.8499 137.026 93.2838 137.045 92.7365 137.052V137.007C92.4409 136.995 92.1516 136.976 91.9 136.938C90.7992 136.787 90.1388 136.158 89.8368 135.36C89.6293 135.46 89.4721 135.523 89.4029 135.523C89.038 135.523 88.3524 135.209 87.9058 135.139C75.6906 133.158 63.2552 129.868 52.4427 123.729C48.9895 121.767 45.8004 119.421 43.0453 116.552C42.3472 115.823 40.9634 113.791 40.3847 113.376C39.9947 113.093 39.6739 113.2 39.5858 113.149C38.2901 113.879 38.202 114.653 38.3215 115.993C38.3341 116.093 38.3152 116.206 38.3215 116.307C38.8184 116.364 38.5668 116.628 38.787 116.861C39.7934 117.917 40.347 118.974 41.3597 119.93C42.0264 120.565 43.1334 121.559 43.5297 122.308C44.0266 122.446 45.5802 123.805 45.5802 124.201C46.3539 124.427 46.1589 124.641 46.2092 124.673C53.0025 128.887 59.9278 132.277 67.5198 134.844C74.2061 137.102 81.2447 137.894 87.8681 139.907C90.9753 140.851 93.7178 141.775 96.5923 143.335C97.0766 143.599 97.8504 143.675 98.2781 143.857C100.656 144.876 102.285 147.002 104.599 148.191C107.386 149.619 109.801 150.342 112.858 150.726C116.223 151.154 117.928 153.141 120.218 155.223C120.639 155.607 121.092 155.953 121.482 156.318C123.275 158.01 124.652 161.306 126.011 163.3C127.929 166.111 131.452 168.061 133.515 170.552C133.766 170.76 135.301 171.471 135.37 171.552C135.484 171.684 135.446 171.892 135.15 171.854C133.1 171.603 131.081 171.125 129.024 170.873C128.407 170.363 127.439 170.42 126.885 170.181C126.64 170.08 126.64 169.728 126.432 169.672C126.225 169.615 125.967 169.829 125.627 169.709C125.457 169.646 125.432 169.42 125.313 169.344C123.671 168.319 122.394 167.099 121.035 165.765L118.337 160.413C118.186 160.073 117.437 160.237 117.381 160.186C117.324 160.136 117.406 159.01 117.362 158.702C117.217 157.563 117.066 157.268 117.047 156.016C117.029 154.89 115.827 154.374 114.953 154.991C114.903 155.028 114.097 155.827 114.06 155.878C113.758 156.293 113.607 157.211 113.588 157.727C113.431 161.941 114.921 166.243 115.802 170.282C115.821 170.376 115.783 170.502 115.802 170.596C115.871 170.93 115.802 171.043 115.802 171.068C115.815 171.118 115.789 171.175 115.802 171.225C115.821 171.307 115.915 171.483 115.959 171.697C115.984 171.829 116.079 171.999 116.117 172.169C116.167 172.383 116.23 172.59 116.274 172.798C116.305 172.936 116.242 173.131 116.274 173.269C116.286 173.326 116.255 173.408 116.274 173.427C116.727 173.917 116.418 173.603 116.626 174.257C117.217 176.106 118.261 177.849 118.639 179.742C119.274 180.094 119.236 181.126 119.425 181.635C119.463 181.742 119.545 181.843 119.582 181.95C120.042 183.252 120.356 183.906 120.526 185.346C121.13 190.448 120.293 195.568 119.35 200.587L118.079 204.053C117.903 203.273 117.721 202.411 117.67 201.606C117.437 197.863 117.469 194.127 116.884 190.41C116.607 188.649 116.148 186.038 115.538 184.497C115.267 183.812 114.852 182.956 114.531 182.27C114.393 181.975 113.953 181.597 113.783 181.207C113.55 180.673 113.468 179.704 113.255 179.239C113.179 179.075 112.72 178.786 112.569 178.471C112.437 178.201 112.512 177.886 112.33 177.603C112.104 177.245 111.6 177.257 111.55 177.201C111.449 177.087 111.575 176.622 111.525 176.383C111.506 176.282 110.374 175.056 110.261 174.892C109.506 173.817 109.015 172.565 107.738 171.854C107.65 171.804 107.141 171.546 107.109 171.54C106.971 171.508 106.637 171.521 106.48 171.54C106.367 171.552 106.172 171.71 106.008 171.697C105.946 171.804 105.574 172.464 105.537 172.483C105.512 173.546 105.801 174.817 106.292 175.748C106.505 176.15 106.971 176.471 107.109 176.704C108.386 178.868 109.097 181.226 110.286 183.403C110.651 184.069 111.191 184.585 111.456 185.422C112.701 189.435 113.236 194.253 113.431 198.367C113.431 198.474 113.431 198.581 113.431 198.681C113.431 198.776 113.582 198.977 113.588 199.153C113.601 199.417 113.582 199.681 113.588 199.939C113.588 200.046 113.588 200.147 113.588 200.254C113.588 200.48 113.431 200.851 113.431 201.203C113.431 201.367 113.424 202.399 113.431 202.468C113.481 202.864 114.003 203.745 114.072 204.43C114.267 206.399 113.758 207.009 113.456 208.582C113.38 208.978 113.575 209.261 113.487 209.689C113.393 210.148 113.016 210.72 112.525 210.808C112.349 210.84 110.996 210.544 110.934 210.488C110.713 210.299 110.764 208.739 110.676 208.299C110.311 206.462 108.374 202.386 107.556 200.53C107.04 199.36 103.832 191.812 103.329 191.416C103.121 191.253 103.197 191.668 103.014 191.102C102.933 190.85 102.687 190.448 102.543 190.152C102.492 190.045 102.436 189.938 102.385 189.837C102.065 189.208 101.738 188.579 101.436 187.944C100.046 185 99.2279 182.503 98.19 179.427C97.4855 177.333 96.4728 175.339 96.2275 173.106C96.1898 173.081 96.0891 173.131 96.0703 173.106C95.7369 173.144 95.718 173.125 95.7558 172.791C95.5734 172.666 95.523 172.54 95.4413 172.477C95.2589 172.332 94.8374 172.188 94.8123 172.162C94.3342 172.32 92.8309 173.439 92.7931 173.848C92.7176 174.704 93.5794 177.867 93.8751 178.861C95.1142 182.981 96.8753 187.957 98.7749 191.794C101.109 196.505 103.75 200.694 105.235 205.858C105.291 206.059 105.631 206.449 105.543 206.575C105.512 206.619 104.857 206.739 104.587 207.009C103.669 207.953 103.725 211.091 101.7 209.393C101.002 208.814 100.196 207.487 99.6367 206.72C99.4543 206.468 99.0454 206.336 98.9637 206.21C98.3158 205.223 97.8818 202.141 97.454 200.858C97.3534 200.549 97.0641 200.291 96.9509 199.939C95.4979 195.593 94.4914 190.699 92.7239 186.642C91.1829 183.088 87.736 178.113 85.3898 174.955C85.2011 174.704 85.4087 174.377 84.7482 173.949C83.1254 172.911 82.1567 173.647 81.9114 175.44C81.8234 176.087 82.4964 176.792 82.8612 177.421C83.1254 177.874 84.8488 181.038 85.0375 181.157C86.0188 181.818 88.6732 186.585 89.2833 188.038C89.9501 189.617 90.6483 191.901 91.0383 193.467C91.9126 197.008 92.9945 199.971 94.1204 203.405C94.9003 205.776 95.1331 206.72 96.2275 209.028C96.3722 209.336 96.6678 210.601 96.7307 210.657C96.7999 210.72 97.1144 210.62 97.3031 210.714C97.8189 210.966 98.3913 212.274 98.6492 212.526C98.7498 212.626 100.983 213.5 101.209 213.526C102.555 213.67 104.964 212.544 105.235 211.066L106.732 209.412C107.342 209.682 107.222 212.047 107.594 212.658C107.877 213.123 108.342 212.953 108.701 213.136C109.273 213.425 109.512 214.029 110.147 214.368C111.751 215.23 113.613 215.142 115.022 214.148C115.022 213.356 115.758 213.375 116.129 212.972C116.525 212.544 117.4 211.179 117.57 210.626C117.714 210.167 117.752 208.846 117.84 208.701C118.255 208.041 119.041 208.45 119.639 208.28C119.696 208.267 120.545 207.739 120.62 207.682C122.124 206.462 123.495 200.606 123.834 198.587C123.916 198.084 123.79 197.536 123.866 197.039C123.966 196.379 124.413 195.907 124.489 195.058C124.545 194.372 124.583 193.655 124.646 193.008C124.728 192.133 124.746 191.202 124.803 190.322C124.828 189.976 124.954 189.554 124.96 189.372C124.96 189.265 124.96 189.164 124.96 189.057C124.96 188.9 124.96 188.743 124.96 188.586C124.96 188.479 124.96 188.372 124.96 188.271C124.96 188.246 124.816 188.057 124.803 187.799C124.753 186.957 124.684 186.114 124.646 185.271C124.633 184.975 124.602 184.868 124.646 184.485L124.514 184.264L124.646 184.17C123.507 180.516 122.62 177.119 120.998 173.565C120.608 172.71 120.13 171.609 119.847 170.577C119.771 170.307 119.702 170.093 119.752 169.804C119.847 169.69 120.45 170.168 120.576 170.275C121.312 170.898 122.01 171.911 122.652 172.427C123.998 173.502 125.438 174.131 127.118 174.641C129.055 175.226 131.552 175.647 133.634 175.647C134.433 175.647 135.1 175.521 135.842 175.49C135.892 175.49 135.949 175.49 135.999 175.49C135.886 174.811 136.396 174.886 136.628 174.704C136.811 174.559 137.025 174.446 137.1 174.389C137.22 174.295 137.371 174.27 137.415 174.232C137.823 173.892 137.622 173.867 138.364 173.446C138.377 173.439 138.345 173.257 138.421 173.194C138.735 172.924 139.232 172.722 139.314 172.257C139.478 171.288 138.666 171.276 138.673 171.15V171.162Z" fill="#0067FF"/>
<path d="M213.291 178.792C213.128 178.024 212.329 178.15 212.241 178.018C212.178 177.93 212.241 177.251 212.146 176.923C211.863 175.867 210.385 174.231 209.567 173.47C208.297 172.288 206.699 171.269 205.592 169.904C206.328 169.765 206.24 169.3 206.536 168.948C206.662 168.797 206.913 168.765 207.02 168.602C207.196 168.325 207.825 166.878 207.769 166.627C207.737 166.476 207.53 166.325 207.492 166.105C207.19 164.155 206.875 164.211 206.108 162.595C205.775 161.897 205.611 160.89 205.095 160.129C204.737 159.601 203.573 159.022 203.12 158.563C202.705 158.135 202.586 157.406 202.277 156.959C201.837 156.317 200.573 155.506 200.076 154.896C199.485 154.173 199.208 153.286 198.39 152.644C197.503 151.952 197.774 152.323 197 151.342C196.862 151.166 196.509 151.084 196.465 151.009C196.333 150.788 196.849 148.461 196.887 147.939C197.113 144.832 196.352 144.165 194.597 141.989C192.113 138.907 189.949 136.051 186.546 133.862C183.678 132.013 179.149 130.447 176.784 128.471C174.526 126.578 171.544 125.855 169.173 124.251C168.412 123.735 168.349 123.068 167.148 122.798C166.984 122.76 166.745 122.93 166.55 122.905C165.33 122.729 162.581 120.861 161.411 120.175C157.769 118.03 153.63 115.659 150.227 113.218C148.435 111.935 147.359 110.155 145.768 108.589C145.736 108.557 145.56 108.532 145.453 108.431C144.818 107.815 144.013 107.274 143.717 106.381C143.396 106.4 141.862 104.701 141.509 104.33C141.201 104.01 140.874 103.72 140.56 103.381C138.861 101.531 137.44 99.4745 135.823 97.5371C132.823 93.9518 129.646 90.5175 126.822 86.8378C124.218 83.4475 122.576 81.5479 119.224 78.7363C118.721 78.3148 117.733 77.0065 117.129 77.0002C116.186 76.9876 116.425 77.56 116.167 77.95C115.45 79.0256 115.255 78.8809 115.645 80.3905C116.349 83.1204 118.394 83.4852 119.884 85.2967C120.652 86.234 121.526 88.4732 122.023 89.0016C122.621 89.6369 123.74 90.3036 124.262 91.1842C125.64 93.5052 127.357 94.801 129.043 96.8201C132.37 100.808 135.597 104.859 139.031 108.677C140.233 110.01 141.566 111.306 142.761 112.646C144.428 114.514 144.459 114.778 146.579 116.206C149.768 118.345 152.907 120.584 156.184 122.622C157.19 123.251 158.178 123.804 159.184 124.515C161.908 126.446 167.179 128.377 170.418 129.899C174.677 131.906 177.079 135.686 179.602 139.687C179.765 139.944 179.96 140.63 180.061 140.731C180.218 140.894 180.589 140.85 180.797 141.02C181.118 141.284 181.583 141.92 181.917 142.19C182.929 143.039 183.703 143.215 184.439 144.555C184.577 144.637 184.728 144.429 184.911 144.951C184.332 144.989 184.508 144.681 184.439 144.555C183.627 144.102 183.388 143.706 182.747 143.127C182.514 142.92 181.885 142.926 181.917 142.341C181.288 142.278 180.954 141.85 180.256 141.857C178.482 141.863 178.249 144.385 179.231 145.543C179.545 145.914 180.426 146.266 180.847 146.612C183.074 148.467 184.936 151.449 186.917 153.688C190.616 157.877 194.409 162.022 197.642 166.633C198.453 167.784 199.145 169.174 199.937 170.338C200.359 170.961 200.963 171.432 201.328 172.099C201.353 172.219 201.183 172.193 201.089 172.181C200.409 172.068 198.812 171.2 197.893 170.954C197.648 170.891 197.377 170.954 197.157 170.904C195.692 170.552 195.434 170.08 193.855 170.948C193.635 171.067 193.603 171.388 193.497 171.401C192.962 171.464 192.452 170.149 192.163 169.74C191.358 168.583 190.609 167.363 189.71 166.193C189.024 165.3 187.747 164.249 187.219 163.457C187.005 163.136 187.018 162.714 186.923 162.582C186.854 162.482 186.445 162.425 186.244 162.236C185.357 161.381 184.508 160.192 183.646 159.311C180.13 155.732 176.476 152.594 173.129 148.757C171.299 146.662 169.142 143.347 166.959 141.876C166.198 141.36 164.902 140.718 164.399 141.869C164.116 142.511 164.141 143.794 164.606 144.347C164.877 144.668 165.625 144.832 165.506 145.505V145.662C166.047 145.643 165.915 145.807 166.135 145.977C166.292 146.096 166.336 146.165 166.449 146.291C166.701 146.562 166.751 146.7 166.921 146.92C167.141 147.197 167.173 147.467 167.236 147.549C167.456 147.838 167.745 148.134 168.022 148.499C168.066 148.556 168.135 148.6 168.179 148.656C168.33 148.851 168.412 149.021 168.494 149.128C168.89 149.65 169.374 150.411 169.758 150.864C169.852 150.977 170.022 151.097 170.23 151.336C176.268 158.425 184.011 164.054 188.88 172.068L192.006 176.276C190.735 176.037 189.553 175.621 188.376 175.093C185.961 173.999 183.382 172.539 181.074 171.231C176.281 166.903 172.406 161.343 166.795 158.248L165.493 156.865C164.185 156.166 162.958 155.217 161.707 154.5C161.619 154.449 161.505 154.405 161.392 154.342C161.298 154.292 161.191 154.248 161.078 154.185C160.732 153.984 159.945 153.72 159.656 153.556C159.266 153.336 159.033 153.021 158.87 152.927C158.511 152.713 157.983 152.499 157.606 152.298C157.461 152.216 157.348 152.153 157.291 151.984C156.958 152.002 156.429 151.757 156.027 151.669C155.417 151.531 155.832 151.436 155.712 151.355C155.643 151.311 154.523 151.141 154.133 151.04C152.165 150.512 149.34 149.782 147.447 150.914C147.089 151.128 147.347 151.531 146.718 151.273C146.56 151.21 145.183 150.059 145.133 149.971C144.956 149.637 145.026 149.084 144.881 148.688C144.491 147.65 143.799 146.706 143.396 145.675H143.239C143.044 145.7 143.013 145.675 142.925 145.517C142.579 145.48 142.151 145.574 141.818 145.517C141.528 146.178 141.075 147.398 141.189 148.109C141.245 148.48 142.66 151.009 142.962 151.562C143.768 153.04 144.346 153.147 145.378 154.355C147.183 156.468 150.724 161.739 150.498 164.538C150.46 165.048 150.089 166.822 149.919 167.281C149.749 167.746 149.51 167.696 149.341 167.979C149.076 168.413 149.076 169.03 148.8 169.47C148.699 169.633 148.8 169.747 148.447 169.671C148.699 168.967 148.177 168.916 148.083 168.69C146.642 165.111 144.315 162.343 141.585 159.563C138.289 156.198 133.446 153.273 131.804 148.518C131.175 146.7 131.559 144.819 131.508 142.945C131.496 142.599 131.414 142.31 131.401 141.894C131.401 141.687 131.401 141.473 131.401 141.265C131.401 141.026 131.401 140.812 131.401 140.636C131.232 130.925 128.464 122.798 121.381 116.005C116.035 110.878 109.518 107.117 104.09 102.204C102.562 100.821 101.134 99.2417 99.5927 97.8642C96.6176 95.2035 93.2335 92.8574 90.598 89.8067C90.4281 89.6117 90.2898 89.4167 90.208 89.1714C90.0822 89.1462 89.8243 89.228 89.7488 89.1588C89.6859 89.1022 89.7614 88.9009 89.7362 88.8569C89.6796 88.7688 88.4845 87.5926 88.3147 87.4354C88.1386 87.2718 87.9813 87.0894 87.8429 86.9636C87.8115 86.9385 87.585 86.8504 87.3712 86.6491C87.302 86.5862 87.1322 86.5611 87.0567 86.4919C85.2263 84.8124 83.4399 83.1707 81.5844 81.5416C80.861 80.9063 79.8169 78.9187 78.9174 80.6421C78.4394 81.5542 78.54 82.3341 78.8105 83.2965C80.0685 84.5734 81.1127 86.0578 82.3266 87.3662C83.5029 88.6368 84.9873 89.7375 86.2516 91.0081C88.906 93.6814 91.2521 96.2477 94.0764 98.8077C98.7561 103.047 103.335 107.702 108.436 111.438C113.418 115.093 118.809 119.2 122.501 124.207C122.57 124.301 122.715 124.44 122.878 124.603C123.35 124.848 123.778 125.213 124.105 125.723C125.646 128.094 126.722 130.063 126.571 132.661C126.577 132.692 126.583 132.724 126.59 132.742C127.942 137.642 127.495 142.108 127.615 146.952C127.653 148.467 127.785 150.298 128.263 151.713C128.313 151.851 128.533 151.851 128.552 151.952C128.615 152.241 128.495 152.575 128.552 152.839C128.577 152.94 129.741 153.978 129.974 154.292C130.609 155.166 130.911 156.078 131.716 156.896C131.804 156.984 131.936 157.116 132.03 157.211C132.074 157.255 132.162 157.355 132.188 157.368C132.282 157.406 132.515 157.299 132.634 157.393C132.722 157.462 132.716 157.796 132.861 157.959C134.792 160.135 137.93 162.199 140.006 164.469C142.422 167.124 143.818 170.149 145.762 172.999C145.856 173.143 146.019 173.326 146.076 173.47C147.158 173.225 147.34 174.332 148.441 174.42C148.617 174.433 148.957 174.389 149.07 174.263C149.095 174.231 148.982 173.986 149.171 173.942C149.441 173.873 149.869 173.999 150.177 173.948C150.221 173.885 150.297 173.841 150.334 173.791C150.636 173.389 150.46 173.3 150.963 173.162C150.894 172.879 151.095 172.835 151.278 172.69C151.297 172.294 151.121 171.961 151.592 172.061C151.605 171.91 151.567 171.728 151.592 171.59C151.731 170.866 152.196 170.545 152.221 170.483C152.253 170.407 152.19 170.237 152.221 170.168C152.492 169.589 152.655 168.476 153.171 168.275C153.171 168.168 153.171 168.061 153.171 167.96C153.228 166.985 154.052 165.721 154.278 164.96C154.297 164.891 154.278 164.74 154.278 164.645C154.266 164.306 154.171 163.752 154.121 163.381C154.096 163.186 154.152 162.941 154.121 162.752C154.102 162.664 153.838 161.544 153.806 161.488C153.775 161.437 153.725 161.488 153.492 161.016C153.46 160.953 153.309 160.821 153.177 160.544C152.97 160.098 152.756 159.374 152.548 158.965C152.467 158.802 151.825 157.456 151.762 157.387C150.976 156.588 151.095 156.166 150.498 155.298C150.341 155.066 148.793 153.858 149.076 153.6C149.454 153.606 149.85 153.55 150.227 153.632C151.089 153.82 152.316 154.405 153.184 154.701C153.492 154.808 153.888 154.77 154.133 155.015C155.87 154.89 156.19 155.927 157.31 156.657C158.008 157.11 159.052 157.619 159.82 158.016C159.933 158.072 160.191 157.928 160.134 158.33C161.002 158.292 161.694 159.129 162.342 159.594C162.751 159.884 162.99 160.161 163.292 160.381C163.487 160.532 163.72 160.702 163.921 160.852C164.286 161.129 164.525 161.375 164.871 161.639C165.059 161.783 165.305 161.96 165.5 162.11C165.758 162.305 165.795 162.412 165.814 162.425C165.852 162.456 165.997 162.482 166.129 162.582C166.317 162.727 166.569 162.909 166.758 163.054C167.016 163.255 167.053 163.356 167.072 163.369C167.355 163.551 167.405 163.475 167.858 163.84C170.544 166.01 172.563 168.69 174.953 171.181C175.966 172.237 178.193 174.596 179.325 175.332C182.168 177.181 186.672 178.836 189.88 179.93C190.71 180.213 191.968 181.069 192.855 181.037C193.408 181.018 194.358 180.383 195.056 180.427C195.478 179.911 195.358 179.131 195.503 178.628C195.578 178.377 195.893 178.257 196.013 178.031C196.327 177.427 196.503 176.835 196.421 176.15L198.057 177.119C199.183 179.131 201.12 178.905 202.894 179.54C203.919 179.905 205.416 181.106 206.448 181.352C207.215 181.534 209.7 181.446 210.542 181.364C210.8 181.339 211.882 181.1 212.09 181.018C212.398 180.899 212.329 180.528 212.505 180.333C212.933 179.855 213.48 179.811 213.266 178.804L213.291 178.792ZM189.76 144.467C187.804 142.454 185.86 140.58 183.816 138.73C183.256 138.221 183.112 137.623 182.829 137.347C182.583 137.108 182.068 137.158 181.923 136.441C182.483 136.542 183.061 136.869 183.552 137.145C183.69 137.221 183.646 137.46 183.659 137.466C183.848 137.623 184.766 137.818 185.187 138.07C186.533 138.85 187.49 140.102 188.546 141.184C189.219 141.876 189.961 142.039 190.289 143.152C190.892 142.97 191.119 143.926 191.396 144.259C191.616 144.524 191.811 144.782 192.025 145.046C192.188 145.253 192.075 144.8 192.339 145.517C192.339 145.53 192.465 145.643 192.496 145.675C192.522 145.694 192.704 145.643 192.761 145.719C193.383 146.511 194.056 147.48 193.597 148.511C193.094 148.581 193.1 148.103 192.968 147.882C192.861 147.706 192.716 147.448 192.654 147.253C192.32 147.291 192.301 147.272 192.339 146.939C191.528 146.65 190.395 145.121 189.76 144.467ZM201.567 164.463C199.793 162.456 198.176 160.123 196.44 158.066C195.113 156.494 193.798 154.927 192.421 153.405L192.339 152.933C192.371 152.889 192.817 153.248 192.905 153.317C195.472 155.424 197.654 157.833 199.912 160.274C201.793 162.312 201.831 161.771 202.95 164.501C202.988 164.595 203.535 165.092 203.642 165.3C203.774 165.551 203.894 166.042 204.02 166.344C203.605 166.734 201.862 164.777 201.573 164.45L201.567 164.463Z" fill="#0067FF"/>
<path d="M33.8933 145.36C34.1387 145.342 34.4028 145.115 34.6733 145.279C36.3276 146.7 38.2209 147.776 40.0953 148.87C41.6867 149.801 43.473 150.908 45.1965 151.657C48.9454 153.286 53.5119 153.613 57.4683 154.538C58.7641 154.84 60.2548 155.129 61.3367 155.877C61.733 156.148 62.9344 157.746 63.1985 157.815C64.0729 158.035 63.9345 156.764 64.3874 156.525C65.8215 155.764 66.5574 157.179 66.6895 158.437C66.8844 160.324 67.3374 162.023 67.3499 163.903C67.3499 163.966 67.8972 164.545 68.0607 164.948C69.2621 167.954 69.8722 170.502 71.6397 173.364C72.5329 174.804 74.9043 177.383 75.483 178.679C77.3134 182.799 80.4395 186.044 82.9052 189.718C83.8298 191.095 84.4399 192.303 85.1821 193.882C85.83 195.259 86.6289 196.656 87.0377 198.216C87.7674 201.027 88.0441 202.04 89.4468 204.493C89.9185 205.323 89.9877 204.883 90.5915 205.078C90.9123 205.185 91.2457 205.424 91.4596 205.474C92.4345 205.707 93.5919 205.279 93.6926 206.562C93.7806 207.625 92.9692 207.946 92.2836 208.443C92.1264 208.556 92.0006 208.808 91.9691 208.827C90.7614 209.538 90.579 209.041 89.5223 209.135C89.1386 209.166 88.8996 209.399 88.5662 209.45C87.2893 209.651 86.893 209.173 86.1319 208.273C84.0814 205.845 83.8549 203.493 82.8926 200.625C82.5529 199.612 82.1441 198.536 81.7415 197.517C80.1753 193.58 77.6908 190.661 75.244 187.208C75.0615 186.95 74.9042 186.334 74.7847 186.202C74.6212 186.013 74.3382 186.139 74.2942 186.101C74.2753 186.088 74.464 185.843 74.3759 185.635C74.0929 184.944 72.8789 183.937 72.4574 183.201C72.0675 182.516 71.7655 181.302 71.3567 180.585C70.9478 179.868 70.1239 179.062 69.7213 178.402C68.4822 176.37 66.658 172.961 65.8529 170.785C64.9786 168.42 64.2112 165.897 63.5696 163.438C63.5193 163.249 63.6011 162.778 63.5633 162.74C63.4627 162.633 61.7895 163.092 61.1228 161.626C61.0222 161.4 61.085 161.073 61.0284 160.966C60.8523 160.633 60.0912 159.651 59.7893 159.375C59.2672 158.903 59.2798 159.651 59.066 159.897C57.745 161.419 56.4116 161.45 55.0592 162.513C54.317 163.092 53.7447 164.092 53.1534 164.79C49.0397 169.621 46.184 173.345 43.0831 179.106C41.6741 181.723 39.9254 184.931 38.875 187.68C37.2836 191.831 38.8687 196.083 37.5856 200.436C37.2145 201.688 36.0759 204.575 34.3713 204.021C33.6605 203.788 33.7864 203.373 33.5725 202.958C33.5034 202.82 33.3272 202.807 33.2894 202.7C32.7862 201.09 33.4404 198.788 33.409 197.058C33.4027 196.712 33.1322 196.373 33.1196 195.957C32.8995 190.9 32.9372 189.856 34.8431 185.334C36.5854 181.188 38.8876 177.238 41.1394 173.351C43.0453 170.068 45.8444 167.143 48.266 164.218C48.8762 163.482 49.4108 162.457 50.0084 161.777C50.8072 160.859 52.7005 159.482 53.8453 158.909C54.2101 158.727 55.9713 158.381 55.531 157.834C54.9208 157.884 54.2164 157.437 53.7069 157.368C53.1723 157.293 52.776 157.507 52.3357 157.481C51.7129 157.444 50.694 157.028 50.0524 156.922C46.9703 156.412 45.165 156.142 42.2779 154.833C42.2528 154.821 42.0578 154.645 41.8062 154.519C41.4476 154.343 40.9256 154.248 40.5419 154.047C40.4412 153.997 40.3091 153.588 39.9129 153.732C39.6676 153.355 39.3593 153.28 39.1266 153.103C37.8938 152.154 34.6167 150.248 33.8808 149.116C33.7109 148.858 33.0127 147.361 33.0001 147.153C32.9876 146.92 33.8744 145.794 33.9185 145.367L33.8933 145.36Z" fill="#0067FF"/>
<path d="M186.024 123.893C186.024 123.893 186.231 124.05 186.496 124.05C187.232 124.056 187.968 124.05 188.703 124.05C189.005 124.05 189.207 124.062 189.49 124.05C189.748 124.037 190.024 124.075 190.276 124.05C190.408 124.301 190.811 124.201 191.062 124.207C191.219 124.207 191.377 124.207 191.534 124.207C195.849 124.239 199.126 125.528 203.089 127.094C212.341 130.755 219.833 136.775 226.884 143.467C227.104 143.675 227.318 143.75 227.356 143.782C227.437 143.857 227.576 144.008 227.67 144.096C227.853 144.272 228.129 144.562 228.299 144.725C230.872 147.235 232.929 149.55 235.092 152.386C237.81 155.947 240.212 160.394 243.37 163.513C243.672 163.809 243.867 164.683 244.32 165.092C248.314 168.709 252.006 171.099 256.46 174.112C257.12 174.559 257.397 174.729 258.29 175.037C258.221 175.395 258.636 175.49 258.875 175.634C260.674 176.697 262.775 177.641 264.448 178.83C264.769 179.056 265.108 179.213 265.209 179.742C265.297 180.195 264.171 180.918 263.775 181.075C261.932 181.786 261.68 181.528 259.938 181.05C254.472 179.553 249.283 176.226 244.804 172.665C242.181 170.583 240.791 168.369 238.564 166.199C238.47 165.633 238.149 165.105 237.841 164.633C237.332 163.866 236.715 163.098 236.042 162.564C236.004 162.532 235.891 162.425 235.885 162.406C235.665 161.865 235.596 161.507 235.224 160.935C234.853 160.362 234.13 159.142 233.671 158.934C233.633 158.827 233.545 158.72 233.514 158.62C233.01 156.833 228.802 152.682 227.362 151.198C227.312 151.141 227.255 151.091 227.205 151.04C227.186 151.021 227.073 150.776 226.89 150.569C226.708 150.361 226.651 150.078 226.261 150.097C225.657 149.109 225.129 148.675 224.211 148.046C224.154 148.009 224.11 147.927 224.053 147.889C224.066 147.568 223.89 147.405 223.582 147.417C223.292 146.845 223.179 147.021 222.764 146.618C218.745 142.75 215.059 139.511 210.379 136.397C206.737 133.969 202.818 132.164 198.837 130.541C197.805 130.12 196.371 129.428 195.365 129.151C191.383 128.05 187.301 128.805 183.149 127.799C182.042 127.528 181.438 127.038 181.294 125.855C181.13 124.566 182.055 124.358 183.024 124.213C183.332 124.169 183.715 124.088 183.973 124.056C184.269 124.018 184.615 124.081 184.923 124.056C185.068 124.044 185.213 123.899 185.238 123.899C185.502 123.893 185.766 123.899 186.024 123.899V123.893Z" fill="#0067FF"/>
<path d="M227.054 170.621C221.129 165.778 215.486 160.179 211.436 153.487C209.467 150.235 207.165 149.134 207.335 144.668C207.448 141.706 210.643 145.826 211.178 146.486C214.386 150.449 216.713 154.336 220.418 158.079C223.462 161.161 226.777 163.721 230.048 166.595C233.79 169.879 237.803 174.225 240.942 178.074C242.81 180.364 244.471 182.572 246.037 185.094C247.27 187.082 249.012 189.434 249.993 191.636C250.421 192.592 250.377 193.561 250.817 194.447C251.119 195.064 251.774 195.781 252.145 196.435C253.988 199.674 255.283 202.681 257.988 205.549C260.19 207.889 263.114 209.694 265.24 212.148C265.719 212.695 266.794 213.714 266.631 214.425C266.536 214.84 264.467 215.337 263.976 215.305C263.876 215.305 263.762 215.318 263.662 215.305C262.542 215.142 260.863 214.186 259.875 213.569C259.68 213.45 259.428 213.38 259.246 213.255C259.215 213.229 259.026 213.022 258.932 212.94C258.799 212.821 258.774 212.582 258.46 212.626C257.63 211.437 255.478 210.166 254.409 209.097C253.944 208.631 253.245 207.663 252.774 207.097C252.572 206.851 251.61 205.405 251.509 205.361C251.44 205.134 251.27 205.046 251.038 205.046C250.981 204.889 251 204.568 250.723 204.574V204.417C250.541 203.857 250.025 203.335 249.773 202.838C249.723 202.731 249.666 202.624 249.616 202.524C249.352 201.983 249.132 201.392 248.83 200.788C248.779 200.681 248.723 200.58 248.673 200.473C248.327 199.788 247.993 198.511 247.251 198.265C247.251 198.215 247.257 198.159 247.251 198.108C247.213 197.901 247.012 197.234 246.937 197.001C246.861 196.768 246.653 196.611 246.622 196.529C246.471 196.108 246.32 195.68 246.15 195.265C244.968 192.409 243.584 190.126 241.892 187.572C241.238 186.585 241.313 186.258 240.307 185.484C240.143 185.358 240.584 185.402 239.835 185.17C239.835 184.918 239.766 184.578 239.665 184.352C239.546 184.075 239.068 183.943 239.049 183.912C238.143 182.528 237.935 182.157 236.841 180.911C236.489 180.515 236.174 180.106 235.891 179.804C235.784 179.691 235.677 179.597 235.577 179.49C235.369 179.27 235.149 179.068 234.948 178.861C234.608 178.502 233.746 177.276 233.369 177.125C233.293 177.093 233.149 177.15 233.054 177.125C232.922 176.791 232.822 176.238 232.513 176.005C232.205 175.772 231.935 175.917 231.79 175.86C231.765 175.848 231.815 175.741 231.79 175.703C231.746 175.628 231.683 175.364 231.633 175.231C231.564 175.043 231.614 174.829 231.476 174.558C231.394 174.401 229.092 172.099 228.941 171.998C228.746 171.873 228.57 171.954 228.475 171.917C228.394 171.344 227.45 170.979 227.054 170.652V170.621Z" fill="#0067FF"/>
<path d="M149.888 174.879C150.145 174.879 150.523 174.697 150.913 174.71C154.008 174.779 161.015 182.427 163.455 184.755C166.323 187.491 169.362 190.108 172.148 192.951C172.456 193.265 172.595 193.693 172.827 193.932C172.897 194.007 173.06 193.957 173.091 193.976C173.23 194.07 173.154 194.228 173.563 194.29C173.651 194.529 173.783 194.731 173.953 194.926C174.934 196.052 176.255 196.926 177.35 197.92C178.136 198.631 178.872 199.411 179.715 200.128C180.275 200.606 180.35 201.121 181.294 201.235C181.281 201.386 181.25 201.763 181.319 201.838C181.363 201.889 182.394 202.342 182.558 202.493C182.571 202.505 182.646 202.706 182.715 202.807C183.005 203.247 182.847 202.952 183.03 203.122C183.288 203.367 184.319 204.556 184.609 204.543C184.841 205.449 185.646 205.751 186.288 206.336C188.144 208.022 189.225 208.229 191.276 209.443C192.308 210.053 192.867 210.795 194.239 211.255C197.824 212.456 201.774 213.267 205.479 213.745C207.693 214.029 208.989 214.991 207.649 217.255C206.202 217.589 205.265 218.142 203.705 217.966C203.51 217.941 203.271 217.865 203.076 217.809C202.321 217.601 201.856 217.243 200.868 217.18C200.396 216.878 199.812 216.853 199.289 216.708C198.805 216.576 198.837 216.419 198.025 216.394C197.811 216.343 197.604 216.287 197.396 216.236C195.975 215.909 194.767 215.576 193.295 215.287C193.157 215.261 192.974 215.305 192.823 215.287C192.352 214.645 192.131 214.821 191.402 214.5C191.301 214.456 191.2 214.393 191.087 214.343C190.993 214.299 190.886 214.236 190.773 214.186C190.326 213.985 189.911 213.733 189.508 213.557C189.408 213.513 189.1 213.601 189.037 213.557C188.993 213.525 189.162 213.054 188.25 213.242C187.986 212.783 187.71 212.412 187.288 212.072C185.848 210.902 183.873 210.034 182.262 208.739C181.42 208.059 180.055 207.109 179.344 206.449C178.91 206.046 178.331 204.996 177.759 204.405C176.174 202.744 174.205 201.48 172.525 199.933C170.418 197.989 168.5 195.693 166.556 193.674C164.191 191.215 161.669 189.321 159.31 186.874C158.769 186.308 158.53 185.981 157.951 185.472C157.373 184.962 157.153 184.799 156.53 184.365C156.373 184.252 156.203 184.182 156.058 184.05C154.832 182.937 154.209 181.962 152.662 180.742C152.334 180.484 152.064 179.754 151.485 179.792C151.466 179.691 151.51 179.559 151.485 179.477C151.391 179.138 151.051 179.207 151.014 179.163C150.592 178.66 150.429 177.905 149.749 177.584C149.592 176.848 149.183 176.886 149.127 176.697C149.038 176.395 149.34 176.106 149.428 175.848C149.491 175.666 149.353 175.571 149.586 175.219C149.63 175.15 149.875 175.068 149.9 174.905L149.888 174.879Z" fill="#0067FF"/>
<path d="M153.831 155.148C153.831 155.255 153.831 155.356 153.831 155.463C153.592 155.494 153.429 155.494 153.517 155.23C153.573 155.06 153.737 155.193 153.831 155.148Z" fill="#0067FF"/>
</svg>
