<svg width="292" height="307" viewBox="0 0 292 307" fill="none" xmlns="http://www.w3.org/2000/svg">
<path d="M0 0H292V307H0V0Z" fill="white"/>
<path d="M210.005 95.426C209.719 93.523 208.843 92.6722 209.059 90.5527C209.16 89.5558 209.683 88.4835 209.834 87.4716C209.93 86.8121 209.522 85.5182 210.418 85.3672C210.358 85.0954 210.036 85.1608 209.859 84.9946C209.18 84.3452 209.995 84.0079 210.111 83.6203C210.202 83.3232 210.101 83.0161 210.242 82.6537C210.781 81.2793 212.744 79.6581 213.862 78.7016C215.488 77.3171 219.299 77.6343 221.177 78.3945C221.449 78.5053 221.826 78.898 222.023 78.8778C222.219 78.8577 223.744 77.7703 224.288 77.5639C224.993 77.3021 225.622 77.287 226.287 77C227.888 77.5135 230.531 78.8275 231.362 80.3227C231.769 81.0577 232.439 83.1319 232.444 83.9374C232.444 84.4912 231.628 85.8757 231.256 86.3237C230.793 86.8826 230.214 87.24 229.685 87.7132C229.66 87.7384 229.433 87.6377 229.403 87.7988C229.323 88.9819 229.534 90.3261 229.398 91.4891C229.282 92.4607 228.824 93.9358 228.019 94.5198C226.72 95.4562 226.579 94.7564 226.961 96.8356C227.107 97.6361 227.535 98.3913 227.717 99.1112C227.797 99.4334 227.777 100.46 227.812 100.521C227.883 100.632 229.635 101.593 230.022 101.9C232.182 103.607 233.073 106.577 233.672 109.195C234.357 112.17 234.176 113.907 234.362 116.837C234.553 119.818 234.931 122.828 235.183 125.789C235.324 127.47 235.238 129.202 235.47 130.868C235.565 131.553 236.617 136.784 236.834 137.005L236.97 137.282C236.955 137.363 236.97 137.468 236.97 137.559C236.985 137.957 237.896 140.545 238.133 140.736C238.259 140.837 238.344 140.831 238.48 140.862C238.556 141.043 238.883 141.697 238.883 141.748C238.908 142.161 238.777 143.208 238.757 143.756C238.757 143.802 238.757 143.847 238.757 143.892C238.294 143.767 238.551 144.24 238.48 144.305C238.46 144.325 238.108 144.29 237.926 144.366C237.77 144.431 236.839 144.864 236.824 144.924C237.04 145.237 237.02 145.71 237.136 145.987C238.012 148.096 238.737 149.627 238.898 152.073C239.074 154.827 238.531 157.168 237.378 159.64C238.46 161.372 238.666 163.461 239.386 165.349C240.252 167.625 241.35 169.905 242.155 172.221C242.523 173.283 242.865 175.438 243.434 176.103C243.449 176.123 243.429 176.188 243.434 176.239C243.565 177.175 243.706 177.548 243.983 178.444C244.028 178.585 244.078 178.721 244.119 178.856C244.159 178.972 244.235 179.068 244.255 179.133C244.28 179.209 244.23 179.335 244.255 179.41C244.335 179.672 244.461 179.884 244.532 180.1C244.844 181.092 245.533 182.456 245.352 183.468C245.312 183.7 245.111 183.851 245.075 184.158C244.965 185.064 245.876 186.091 246.243 186.861C246.802 188.024 247.371 189.227 247.839 190.431C247.94 190.687 247.92 190.984 248.252 191.12C248.217 191.573 248.453 191.956 248.599 192.354C250.336 197.031 253.196 202.211 255.768 206.455C256.483 207.633 259.579 212.184 259.534 213.206C259.514 213.604 259.192 213.871 259.136 214.188C259.081 214.505 259.187 214.832 259.126 215.114C259.101 215.23 258.26 216.116 258.296 216.509C258.306 216.595 258.507 216.605 258.573 216.695C259.373 217.838 260.632 219.293 261.719 220.159C263.184 221.322 264.981 221.966 265.737 223.889V224.025C265.631 224.252 265.857 224.478 265.873 224.574C266.572 229.035 264.181 231.788 260.949 234.356C260.496 234.718 259.6 234.985 259.403 235.589C259.242 235.599 259.126 235.68 258.99 235.725C258.698 235.821 258.16 236.068 257.898 236.219C257.455 236.481 256.901 237.009 256.564 237.362C256.035 237.91 255.28 238.338 255.134 239.169C257.596 239.239 260.063 239.29 262.525 239.395C262.746 239.406 262.973 239.285 263.189 239.3C264.609 239.395 265.565 239.864 266.839 240.412C266.92 240.79 266.482 240.825 266.326 241.006C266.255 241.087 266.316 241.314 266.275 241.354C266.054 241.565 265.238 240.966 265.465 241.928C263.33 241.903 261.19 241.953 259.056 241.928C253.805 241.877 247.683 242.361 242.578 241.057C242.286 240.981 241.707 240.825 241.576 240.548C241.37 240.125 241.44 239.416 241.994 239.31C243.958 238.947 246.233 239.516 248.252 239.31C248.292 239.003 247.985 238.922 247.874 238.655C247.316 237.301 247.114 235.071 247.321 233.631C247.663 231.26 249.581 230.721 251.006 229.191C251.474 228.687 252.853 226.88 253.206 226.296C253.785 225.334 253.906 225.183 253.488 224.096C253.322 223.663 252.753 222.948 252.657 222.656C252.602 222.49 252.582 221.478 252.516 221.418C252.179 221.342 251.791 221.699 251.509 221.659C251.459 221.649 250.658 221.282 250.623 221.251C250.583 221.216 250.085 220.411 250.069 220.36C249.969 220.013 250.1 219.645 249.964 219.223C249.43 217.556 246.797 213.901 245.74 212.295C243.283 208.565 240.882 204.859 237.861 201.511C235.485 198.883 232.157 196.034 231.039 192.641C231.462 192.701 231.316 192.49 231.256 192.223C230.445 188.613 228.104 185.054 226.659 181.676L225.607 179.979C225.32 180.125 224.122 182.773 223.931 183.257C221.63 188.976 220.835 193.396 220.583 199.528C220.583 199.618 220.583 199.714 220.583 199.805C220.568 200.228 220.462 200.6 220.447 201.043C220.447 201.134 220.447 201.224 220.447 201.32C220.427 201.864 220.457 202.327 220.447 202.835C220.447 202.971 220.447 203.112 220.447 203.248C220.427 204.26 220.311 205.383 220.311 206.344V208.821C220.311 209.103 220.568 209.964 220.588 210.266C220.593 210.357 220.583 210.453 220.588 210.543C220.593 210.634 220.583 210.729 220.588 210.82C220.593 210.911 220.583 211.006 220.588 211.097C220.835 214.062 221.373 217.179 221.424 220.119C221.429 220.516 221.363 221.468 221.121 221.755C220.724 222.228 219.964 221.941 219.933 222.767C219.923 223.049 220.054 223.29 220.039 223.557C219.823 227.806 222.214 232.876 220.125 236.742C219.969 237.034 219.641 236.959 219.757 237.402C220.925 237.447 222.108 237.346 223.276 237.397C224.444 237.447 226.262 237.533 227.364 237.855C227.958 238.026 228.734 238.368 228.301 239.098C228.19 239.28 227.863 239.048 228.165 239.743C227.415 239.974 226.649 239.813 225.904 239.894C225.768 239.909 225.386 239.954 225.411 240.156H227.339C227.369 240.397 227.027 240.287 226.861 240.292C224.711 240.382 222.536 240.236 220.381 240.287C216.908 240.367 212.367 241.168 209.2 240.03C208.762 239.874 208.319 239.864 207.856 239.874C204.271 239.979 200.239 240.765 196.72 240.704C196.669 240.704 196.533 241.157 196.166 241.127C196.095 241.122 196.1 240.865 196 240.84C195.662 240.76 193.729 241.329 193.13 241.389C192.662 241.439 190.905 241.565 190.527 241.53C190.2 241.5 189.717 241.193 189.259 241.132C188.8 241.072 188.302 241.142 187.829 241.117C187.748 240.906 186.218 240.231 186.726 239.602C186.746 239.622 187.038 239.602 187.139 239.602C188.005 239.597 188.962 239.28 189.843 239.209C190.724 239.139 191.771 239.3 192.586 239.199C192.863 239.164 192.747 238.842 193.06 238.912C193.15 238.912 193.241 238.912 193.336 238.912C193.654 238.912 194.494 238.877 194.716 238.711C195.083 238.429 194.716 238.066 194.716 237.951C194.484 233.893 197.953 230.656 201.538 229.558C203.556 228.939 206.164 228.984 207.931 228.38C210.162 227.62 209.094 226.643 209.301 224.932C209.341 224.589 209.532 224.383 209.573 224.101C209.643 223.643 209.512 223.139 209.719 222.661C209.21 222.742 208.656 222.49 208.203 222.248C207.549 221.896 207.362 221.715 207.302 220.879C207.216 219.635 207.252 218.125 207.237 216.882C207.237 216.791 207.237 216.7 207.237 216.605C207.237 216.423 207.237 216.237 207.237 216.056C207.196 207.976 207.307 199.679 206.919 191.518C206.733 187.586 206.532 184.757 207.302 180.805C207.982 177.331 210.141 173.993 211.189 170.373C212.236 166.764 212.754 162.923 214.013 159.429C214.043 159.348 214.894 158.084 214.954 158.029C215.015 157.974 215.483 157.752 215.604 157.712C215.921 157.606 216.344 157.843 216.329 157.465C216.288 156.509 215.231 155.275 214.884 154.364C214.365 153.01 214.421 151.509 214.033 150.261C213.968 150.06 213.248 148.564 213.167 148.514C212.563 148.147 211.964 148.826 211.471 149.028C209.789 149.717 207.433 150.392 205.902 151.172C205.756 151.248 205.646 151.318 205.595 151.479C203.869 151.922 202.056 152.677 200.4 153.377C200.214 153.458 200.113 153.669 200.088 153.679C199.559 153.906 198.935 154.163 198.436 154.369C198.22 154.46 197.963 154.555 197.747 154.646C197.505 154.747 197.062 154.646 196.921 155.059C196.916 155.049 196.83 155.059 196.785 155.059C196.518 155.034 196.483 155.164 196.372 155.195C196.246 155.23 196.166 155.31 196.095 155.331C195.813 155.426 195.597 155.537 195.406 155.608C195.109 155.713 194.877 155.789 194.58 155.884C194.283 155.98 193.85 155.98 193.563 156.146C193.402 156.237 193.498 156.418 193.477 156.433C193.462 156.448 193.196 156.519 193.065 156.569C191.856 157.032 190.532 157.48 189.374 157.933C188.916 158.115 188.342 158.125 187.97 158.497C187.713 158.538 187.607 158.593 187.421 158.633C185.82 159.006 184.4 159.685 182.845 160.184C177.503 161.901 172.212 163.597 167.067 165.636C165.038 166.442 163.024 167.282 160.98 168.058L160.844 168.959C160.663 168.959 160.477 168.959 160.296 168.959L160.16 168.481C158.156 169.12 156.283 170.087 154.33 170.917C153.831 171.129 153.841 171.209 153.685 171.3C153.429 171.451 152.205 171.32 152.447 171.99C150.947 172.307 149.451 172.79 147.966 173.364C146.823 173.802 146.38 174.326 145.011 174.472C144.774 174.497 144.523 174.396 144.321 174.607C144.251 174.597 144.1 174.592 144.044 174.607C143.843 174.668 143.768 174.814 143.768 175.02C143.722 175.02 143.677 175.02 143.632 175.02C143.566 175.02 143.314 174.804 143.219 174.884C143.178 174.92 143.244 175.126 143.219 175.156C143.199 175.181 142.7 175.554 142.67 175.569C142.348 175.71 141.034 176.168 140.676 176.259C140.319 176.349 140.752 175.7 140.399 175.982C140.243 176.108 140.198 176.354 140.047 176.455C139.815 176.606 138.34 177.009 138.079 176.948C137.973 176.923 137.988 176.667 137.918 176.661C137.102 176.641 133.819 178.096 132.833 178.464C132.586 178.554 131.7 178.695 131.66 178.736C131.373 179.018 132.007 178.962 131.937 179.143L131.176 179.42L131.383 179.013L130.285 179.289C130.22 179.496 130.819 179.385 130.557 179.697C130.517 179.748 129.913 179.798 129.797 179.969L130.003 179.627C129.656 179.627 128.986 179.848 128.629 180.04C128.226 180.251 129.122 180.316 128.629 180.452C128.347 180.528 128.176 180.488 127.939 180.518C127.934 180.518 127.924 180.493 127.803 180.518C126.132 180.855 124.939 181.58 123.564 182.159C117.266 184.807 110.822 187.012 104.534 189.675L98.8906 191.12C98.1858 191.13 97.4105 191.468 96.6906 191.604C96.3231 191.674 95.9103 191.528 95.4169 191.709C95.2357 191.775 93.9569 192.913 93.9368 193.008C93.8713 193.33 94.1533 194.332 94.2439 194.73C94.8128 197.162 95.6686 198.561 96.6453 200.726C97.0279 201.567 97.0329 202.151 96.6906 203.032C96.1318 204.477 94.9839 204.99 93.6548 205.574C93.4585 205.66 93.0406 205.625 92.7889 205.745C92.502 205.886 92.2754 206.581 91.7367 206.339C91.6914 206.319 90.9262 205.801 90.896 205.76C90.609 205.353 90.2818 203.696 90.0401 203.409C89.9747 203.334 89.8236 203.394 89.8035 203.379C89.7783 203.359 89.7582 203.153 89.6676 203.102C89.5971 202.463 88.6657 200.59 88.3888 199.77C88.0566 198.798 88.0213 198.375 87.5582 197.423C87.2913 196.875 86.949 196.401 86.8332 195.792C86.2492 195.737 85.4739 195.903 84.9201 195.792C84.6533 195.742 84.5727 195.485 84.2958 195.52L83.4702 202.131C83.3947 202.131 83.2436 202.392 83.2235 202.498C82.7805 204.598 82.4432 207.22 82.3626 209.355C82.2066 213.524 82.0153 217.491 82.3626 221.624C82.4482 222.676 82.3928 224.68 82.6798 225.576C82.8812 226.21 83.6363 225.974 82.7654 227.232C82.5388 227.56 82.0152 227.857 81.9901 227.902C81.8189 228.194 82.1562 228.541 82.2066 228.803C82.2921 229.251 82.2519 229.634 82.418 230.102C83.0624 231.929 85.8867 232.81 87.6085 233.379C87.533 233.686 87.8552 233.747 88.0666 233.822C89.5518 234.336 93.8109 235.579 94.6869 236.692C95.6686 237.935 95.2407 238.58 95.0393 239.99C96.2929 240.04 97.5716 239.919 98.8252 239.99C100.401 240.08 102.47 240.327 104.041 240.558C104.423 240.614 105.999 240.855 106.196 241.022C106.462 241.248 106.241 242.421 106.07 242.663C105.974 242.794 104.444 243.161 104.187 243.161C103.86 243.161 103.563 243.015 103.235 243.015C96.8819 243.025 90.1408 243.665 83.883 243.02C83.4652 242.975 82.8761 242.945 82.5086 242.884C82.4885 242.884 82.1763 242.774 82.0958 242.748C81.9901 242.713 81.8692 242.552 81.683 242.612C81.4715 242.426 81.2248 242.391 80.9933 242.336C79.3973 241.973 77.7259 242.522 76.1048 242.607C75.0677 242.663 73.9803 242.597 72.9331 242.607C72.037 242.617 71.1207 242.965 70.2548 242.472C70.2246 242.456 69.7967 242.079 69.7766 242.054C69.6507 241.893 69.8118 241.54 69.4292 241.646C69.4695 241.52 69.3537 241.208 69.4493 241.112C69.4946 241.067 69.7111 241.122 69.7917 241.057C70.723 240.246 70.5468 240.422 71.7702 240.271C71.9464 240.251 72.1427 240.287 72.3189 240.271C72.7368 240.236 73.1093 240.161 73.5574 240.136C73.9602 240.11 74.4133 240.211 74.7959 240.065C73.6933 239.708 73.3711 239.063 73.1798 237.966C73.1295 237.664 73.0137 236.793 73.0087 236.556C73.0087 236.465 73.0087 236.375 73.0087 236.279C73.0087 235.927 73.1144 235.101 73.1446 234.628C73.1597 234.376 73.2604 234.019 73.2805 233.666C73.356 232.559 73.21 231.501 73.2755 230.57C73.3057 230.172 73.7387 229.191 73.6732 228.924C73.5826 228.556 72.5958 228.707 72.47 228.345C72.2686 227.771 72.7569 227.262 72.8375 226.814C73.0439 225.712 71.1711 220.375 70.8388 218.825C70.2297 216.006 69.9729 213.02 69.4141 210.201C68.9711 207.976 68.1303 205.378 67.8182 203.148C67.5211 201.038 67.6369 197.952 67.496 195.666C67.4758 195.324 67.355 194.861 67.355 194.644C67.355 194.594 68.0397 194.116 68.0447 193.879C66.2223 193.622 65.1902 192.636 64.1481 191.226C63.8057 190.763 62.2451 187.999 62.0537 187.959C61.6762 187.878 61.2382 189.681 61.0871 190.023C60.337 191.775 59.7832 193.391 59.0935 195.118C58.3383 197.011 57.0193 199.382 56.4706 201.24C55.4536 204.683 55.0609 206.43 53.0673 209.541C50.8522 213 48.2745 216.388 45.6919 219.585C45.0877 220.33 44.2873 220.99 43.8795 221.971C43.7284 222.339 43.7335 222.787 43.5573 223.164C42.9682 224.423 41.8758 226.845 40.6272 227.393C39.3132 227.972 39.575 227.278 38.5782 226.925L37.6317 230.067C37.9187 230.203 38.2359 230.434 38.4624 230.651C40.0936 232.191 41.8204 233.425 43.6328 234.764C43.9449 234.995 44.3879 235.081 44.7706 235.383C45.4502 235.922 45.853 236.727 46.145 237.523C46.4571 238.373 46.6736 239.068 46.5578 240C48.7327 239.859 50.8169 240.231 52.9515 240.558C53.4247 240.629 53.908 240.76 54.4568 240.84C55.4284 240.981 56.2893 241.339 57.2962 241.102L57.0193 241.928H57.5731C57.704 242.92 56.7475 242.733 56.0275 242.935C55.0962 243.196 55.1113 243.347 53.9232 243.307C52.1007 243.242 50.3487 242.799 48.4809 242.758L48.3148 242.668L48.204 242.758C48.0228 242.758 47.8365 242.758 47.6553 242.758C47.1418 242.774 46.6786 242.869 46.2809 242.894C45.8832 242.92 45.5157 243.01 45.1784 243.03C45.0877 243.035 44.9921 243.025 44.9015 243.03C44.7202 243.045 44.5339 243.015 44.3527 243.03C44.1262 243.045 43.8895 243.015 43.663 243.03C43.3458 243.05 43.0186 243.01 42.7014 243.03C39.4643 243.232 36.1365 243.519 32.849 243.574C31.5048 243.599 29.6723 243.428 28.4439 243.574C27.6535 243.67 27.2558 244.037 26.2388 243.997C25.821 243.982 23.5202 243.584 23.2484 243.443C23.0722 243.353 22.9866 243 23.0017 242.824C23.0319 242.492 23.5152 242.336 23.8022 242.24C26.1583 241.47 29.4256 241.439 31.8824 241.369C32.7332 241.344 33.5891 241.399 34.4349 241.369L33.5086 240.261C31.8925 239.174 28.9625 237.049 27.7693 235.574C27.1903 234.859 26.4654 233.747 26.8631 232.831L26.4503 233.243C26.2439 232.81 26.7121 232.659 26.7221 232.599C26.8631 231.874 26.7775 230.807 26.8983 230.042C27.1551 228.41 29.5666 225.979 30.7849 224.841C31.2783 224.383 32.0385 224.197 32.3053 223.331C32.552 222.545 31.9579 222.414 31.9428 221.886C31.9428 221.81 32.2197 220.511 32.26 220.396C32.3406 220.154 32.6074 220.063 32.698 219.872C34.5054 216.141 36.9823 212.834 38.7242 209.103C41.1055 204.008 42.3792 198.667 43.9298 193.31C45.1028 189.248 46.4823 185.029 47.3683 181.102C47.469 180.664 47.8164 177.834 47.7862 177.477C47.9221 177.437 47.912 177.316 47.9221 177.2C47.9372 177.069 47.902 176.918 47.9221 176.787C47.9221 176.772 48.0379 176.757 48.058 176.51C48.0933 176.103 48.0228 175.68 48.058 175.272C48.0832 174.99 48.1688 174.728 48.194 174.446C48.2342 174.049 48.1487 173.601 48.194 173.208C48.2242 172.921 48.4457 172.579 48.4709 171.969C48.4809 171.692 48.4608 171.416 48.4709 171.144V171.008C48.5766 170.912 48.5665 170.791 48.6068 170.731C48.8082 170.454 48.9542 170.313 48.8837 169.905C48.934 169.87 48.9693 169.805 49.0196 169.769C49.3368 169.558 49.6238 169.523 49.5432 168.908C49.5231 168.757 48.491 166.175 48.3954 166.054C48.2695 165.898 48.194 165.948 48.058 165.918C48.0077 164.327 47.5445 162.646 47.5043 161.025C47.4841 160.315 47.7963 159.212 47.7207 158.477C47.6352 157.646 46.301 157.198 46.291 155.94C46.2859 155.361 46.7038 153.483 46.8599 152.813C47.1569 151.535 47.8818 149.939 47.9221 148.635C47.9523 147.643 47.6654 146.349 47.6402 145.342C47.5798 142.775 47.5999 140.147 47.6402 137.559C47.6402 137.423 47.6402 137.282 47.6402 137.146C47.6654 135.943 47.7107 134.644 47.7761 133.431C47.7761 133.34 47.7711 133.245 47.7761 133.154C48.0883 128.86 48.7478 124.611 50.0215 120.598C50.7565 118.272 51.4966 116.465 52.7199 114.35C52.9968 113.872 52.9012 113.545 53.4801 113.046C54.1598 112.468 55.363 111.853 56.1735 112.437C55.2573 114.063 54.3712 115.654 53.6865 117.386C52.7401 119.783 51.9698 122.622 51.4915 125.169C50.2732 131.649 50.5249 139.105 50.6659 145.685C50.7263 148.504 50.827 151.338 50.9478 154.148C50.9629 154.525 50.7464 155.859 50.9629 155.995L59.2043 156.7C59.2747 156.04 58.6656 155.678 58.4038 155.23C57.5127 153.725 57.271 151.358 56.7978 149.672C56.1182 147.23 55.1566 145.086 54.93 142.437C54.8545 141.572 55.4536 141.622 54.2454 141.139C54.195 140.766 53.8476 140.489 53.7016 140.101C53.3392 139.14 53.5355 138.405 53.4096 137.499C53.3492 137.041 52.9616 136.311 52.876 135.832C52.4128 133.29 52.3222 129.484 52.4481 126.886C52.4883 126.071 52.6645 123.87 52.876 123.181C52.9364 122.979 54.2907 121.066 54.4618 120.91C54.93 120.477 56.5763 119.647 57.2056 119.647C57.7946 119.647 59.894 120.643 60.3723 121.036C60.5837 121.207 61.2533 122.008 61.3993 122.239C62.678 124.238 63.1462 126.71 63.8812 128.885C63.9417 129.066 64.1229 130.682 64.2286 131.221C64.5659 132.872 64.7119 134.755 65.16 136.351C65.3664 137.086 66.2877 138.506 65.9454 139.105C65.8396 139.291 65.5376 139.266 65.5325 139.548C65.5225 139.799 65.9806 140.273 66.0561 140.69C66.1719 141.335 66.0209 142.06 66.1014 142.714C66.2827 144.295 66.5797 146.374 67.0529 147.89C67.0831 147.99 67.1133 148.086 67.1889 148.167C67.1687 148.499 67.2946 148.725 67.6017 148.856C67.7779 149.581 68.1857 150.08 68.5884 150.694C69.3637 151.872 70.3354 152.919 71.1107 154.092C71.2114 154.092 71.2516 153.694 71.3876 153.543C72.3693 152.441 76.271 150.92 77.7511 150.543C78.5415 150.341 79.8706 150.311 80.5754 150.065C80.9278 149.944 81.25 149.481 81.5068 149.274C82.0757 148.806 82.6244 148.242 83.2134 147.814C83.3896 147.683 83.9434 147.568 83.9887 147.386C84.1801 146.621 83.3745 146.153 83.0221 145.559C82.6899 144.995 82.3223 144.189 82.0606 143.631C82.0152 143.54 81.9649 143.444 81.9246 143.354C81.6981 142.865 81.4212 142.332 81.2349 141.838C81.1846 141.702 81.1795 141.501 81.099 141.29C80.9127 140.801 80.7315 140.273 80.5502 139.774C80.51 139.658 80.4395 139.573 80.4143 139.497C80.1878 138.883 79.6289 137.665 79.5887 137.156C79.5786 137.066 79.5887 136.97 79.5887 136.879C79.5685 135.933 79.7195 135.117 80.1374 134.262C80.1777 134.176 80.2331 134.065 80.2733 133.985C80.2935 133.944 80.5301 133.592 80.5502 133.572C80.6056 133.506 80.9026 133.209 80.9631 133.159C82.6496 131.734 84.5727 130.707 86.6066 129.786C91.6612 127.495 96.892 125.376 102.168 123.594C103.547 123.125 105.143 123.01 106.427 122.204C106.724 122.018 106.865 121.675 107.258 121.519C112.046 119.652 117.145 118.539 121.888 116.626C124.521 115.564 128.664 114.642 131.005 116.777C131.126 116.888 131.161 116.958 131.353 116.913C131.217 116.047 131.599 115.347 132.047 114.647C133.804 111.904 138.824 111.033 141.814 109.955C152.205 106.22 162.118 101.301 172.413 97.324C174.206 96.6292 176.391 95.8992 178.168 95.3001C179.487 94.8571 182.427 94.8017 183.675 95.4361C183.746 95.4713 184.4 96.1308 184.541 96.2214C184.667 96.302 184.899 96.2214 185.01 96.302C187.688 98.1899 189.45 102.801 190.724 105.802C190.98 106.411 191.152 107.186 191.388 107.826C191.761 107.796 191.882 107.483 192.289 107.418C193.11 107.287 196.116 107.655 196.493 107.212C196.589 107.096 196.579 106.859 196.664 106.769C197.666 105.721 201.91 103.476 203.295 103.446C204.171 103.426 206.517 103.99 207.347 104.327C210.247 105.51 211.35 109.432 212.427 112.191C212.603 112.639 213.162 114.909 213.489 114.985C213.786 115.05 213.812 114.562 213.837 114.365C214.018 112.825 213.791 111.345 214.013 109.86C214.33 107.695 215.302 105.706 216.737 104.08C217.079 103.693 218.519 102.59 218.519 102.253C218.519 101.971 217.673 101.19 217.441 100.848C216.782 99.8664 217.341 99.5894 215.871 99.8764C215.216 100.007 214.068 100.158 213.394 100.088C213.298 100.078 211.773 99.5492 211.637 99.4888C211.385 99.378 210.68 98.4617 210.534 98.1848C210.277 97.7015 210.217 97.3189 210.121 96.8105C210.026 96.302 210.051 95.8741 209.985 95.4361L210.005 95.426ZM216.198 80.5543C215.266 80.8664 215.221 81.1081 214.536 81.5763C213.852 82.0445 212.79 82.4875 212.533 83.439C212.447 83.7562 213.278 84.2747 213.575 84.6171C214.048 85.1608 214.239 85.7901 214.597 86.2784C214.919 86.7215 215.921 88.1512 216.258 88.403C217.119 89.0272 217.623 88.4231 218.337 88.2721C220.331 87.8542 222.405 87.6025 223.669 89.5307C224.077 90.1499 224.389 91.2726 224.807 91.8264C224.862 91.8968 225.607 92.6319 225.663 92.6571C225.829 92.7376 226.398 92.798 226.564 92.6772C226.604 92.647 227.052 91.8314 227.067 91.7659C227.279 90.7037 227.002 89.7018 226.931 88.7403C226.815 87.1393 227.017 86.3942 228.034 85.1658C228.819 84.2143 230.264 83.8015 229.403 82.3113C229.141 81.8582 228.713 81.9841 228.613 81.9035C228.557 81.8582 228.567 81.5813 228.457 81.4454C228.18 81.1081 226.69 80.076 226.297 80.0408C225.512 79.9653 224.691 80.6701 224.177 81.1685C223.79 81.5461 223.543 82.2106 222.944 82.2056C223.035 81.5008 221.927 81.4051 221.982 81.9287C221.62 81.9287 221.237 82.0747 221.021 82.0646C221.031 80.0156 217.567 80.0911 216.203 80.5493L216.198 80.5543ZM224.187 97.767C224.162 97.1629 224.107 96.1812 224.177 95.6223C224.213 95.3253 224.52 95.5166 224.464 95.2196C222.743 94.3385 222.627 92.5362 221.751 91.192C221.182 90.316 219.979 90.3261 219.022 90.457C218.413 90.5376 217.658 90.9907 216.691 91.0158C216.55 91.0158 215.609 90.9806 215.523 90.9605C214.26 90.6634 212.951 87.9448 212.085 87.0235C212.447 88.7101 211.591 90.0039 211.803 91.776C211.924 92.7779 212.92 93.4726 212.633 94.5953C213.655 94.3587 213.872 93.1252 215.246 93.4928C215.261 93.528 215.528 93.5582 215.533 93.966C215.533 94.6104 214.718 95.8791 214.179 96.2416C213.822 96.4832 212.654 96.6745 213.379 97.2233C213.514 97.324 214.647 97.6059 214.899 97.6311C216.721 97.8123 218.64 97.1679 220.482 97.3491C220.719 98.4769 219.692 98.21 219.777 99.3478C219.792 99.5139 220.87 100.697 220.618 101.2C221.182 101.029 222.35 100.375 222.889 100.375H225.159C225.144 100.063 224.555 98.8343 224.333 98.7235C224.354 98.5222 224.208 98.1798 224.198 98.0338C224.192 97.9432 224.198 97.8475 224.198 97.7569L224.187 97.767ZM189.762 110.846C189.556 109.945 188.67 107.836 188.272 106.894C186.887 103.597 185.256 98.5977 181.153 98.3208C178.465 98.1395 172.177 100.949 169.448 102.031C168.678 102.338 167.968 102.771 167.298 103.048C163.246 104.699 159.248 106.356 155.271 108.093C150.176 110.318 144.915 112.342 139.816 114.139C139.378 114.295 138.622 114.27 138.572 114.305C138.522 114.34 138.527 114.582 138.315 114.673C137.54 115.01 136.609 115.09 135.672 115.609C134.816 116.082 134.645 116.374 134.373 117.341C133.754 119.571 134.434 119.561 135.103 121.308C135.813 123.161 136.261 124.616 137.188 126.423C138.058 128.13 138.496 128.915 139.096 130.808C139.196 131.125 139.418 131.362 139.508 131.77C139.574 132.056 139.599 132.54 139.644 132.872C139.664 133.003 139.629 133.154 139.644 133.285C139.675 133.542 139.539 133.602 139.921 133.562C139.916 133.647 139.911 133.753 139.921 133.839C140.042 134.846 140.913 136.059 141.296 137.005C141.421 137.312 141.391 137.74 141.708 137.967C141.739 138.339 142.207 141.42 142.469 141.41C143.551 140.917 144.85 140.736 145.947 140.348C150.715 138.667 155.593 136.884 160.291 135.072C160.658 134.931 161.031 134.805 161.393 134.659C161.499 134.614 161.584 134.559 161.67 134.523C161.851 134.448 162.088 134.473 162.219 134.246C162.893 134.267 162.999 133.884 163.145 133.839C163.261 133.803 163.392 133.854 163.457 133.839C167.52 132.525 171.502 131.583 175.55 130.169C181.299 128.155 186.918 126.66 192.053 123.402C192.32 123.236 193.543 122.738 193.588 122.667C193.85 122.244 192.788 120.11 192.586 119.516C192.002 117.794 191.504 115.992 190.995 114.29C190.89 113.943 190.87 113.731 190.719 113.328C190.568 112.926 190.235 111.984 190.029 111.677C189.989 111.617 189.994 111.466 189.893 111.4C189.918 111.068 189.792 111.018 189.757 110.851L189.762 110.846ZM231.895 122.134C231.754 119.702 231.674 117.301 231.618 114.904C231.538 111.4 230.913 104.045 226.559 103.169C226.327 103.124 226.085 103.28 225.753 103.164C225.557 103.093 225.562 102.892 225.461 102.867C225.285 102.827 224.983 102.922 224.892 102.847C224.807 102.776 224.938 102.328 224.56 102.338C224.464 102.338 222.868 102.771 222.707 102.837C221.207 103.406 218.499 106.623 217.925 108.103C217.064 110.303 217.487 111.848 217.3 114.018C217.295 114.104 217.18 114.275 217.164 114.431C217.124 114.748 217.079 115.267 217.028 115.533C216.877 116.269 216.621 117.734 215.871 118.02C215.538 118.146 214.818 118.066 214.849 118.464C214.899 119.188 215.644 120.638 215.891 121.419C215.961 121.635 215.916 121.902 215.991 122.144C216.883 124.862 218.272 127.344 219.133 130.018C219.279 130.476 219.067 130.793 219.641 130.677C219.772 129.429 219.898 128.16 220.074 126.911C220.678 122.708 220.865 118.977 220.88 114.708C220.89 111.914 220.553 109.809 221.957 107.181C223.16 104.921 225.557 104.916 227.535 106.195C228.185 106.618 229.871 108.858 230.173 109.618C231.447 112.835 229.65 120.679 229.156 124.293C228.759 127.218 228.547 130.123 228.316 133.023C228.301 133.204 228.331 133.391 228.316 133.572C228.301 133.753 228.326 133.939 228.316 134.121C228.275 134.71 228.079 135.183 228.039 135.772C228.034 135.863 228.044 135.958 228.039 136.049C228.029 136.185 228.049 136.326 228.039 136.462C227.993 137.242 227.973 137.896 228.039 138.667C228.039 138.712 228.039 138.757 228.039 138.803C227.48 138.732 227.893 139.095 227.903 139.215C227.918 139.392 227.913 139.588 227.903 139.764C227.43 139.719 227.646 139.9 227.767 140.177C227.792 140.242 227.737 140.424 227.767 140.454C227.545 140.539 227.53 140.66 227.49 140.867C227.46 141.033 227.525 141.264 227.49 141.415C227.445 141.612 227.294 141.904 227.213 142.241C227.188 142.352 227.223 142.513 227.183 142.684C227.143 142.845 226.649 143.233 227.143 143.203C227.676 143.172 228.019 142.86 228.391 142.795C229.448 142.614 230.999 142.674 232.097 142.508C233.129 142.357 234.065 142.004 235.057 141.959C234.83 140.64 234.342 139.407 234.025 138.108C232.731 132.832 232.232 128.407 231.89 122.959C231.885 122.869 231.895 122.773 231.89 122.682C231.88 122.501 231.9 122.315 231.89 122.134H231.895ZM208.349 111.949C207.67 110.353 207.78 109.16 206.013 108.294C205.379 107.982 203.577 107.418 202.902 107.403C201.799 107.373 200.214 108.485 199.247 108.999L201.875 114.703C201.875 114.793 201.875 114.889 201.875 114.98C201.875 115.78 202.106 115.458 202.152 115.528C202.167 115.554 202.197 115.856 202.288 116.077C202.328 116.178 202.403 116.289 202.424 116.354C202.464 116.47 202.544 116.576 202.56 116.631C202.59 116.742 202.524 116.938 202.56 117.044C202.605 117.185 202.65 117.321 202.696 117.457C203.944 121.248 205.505 124.988 206.788 128.578C208.274 132.731 210.182 136.738 211.929 140.786C212.049 141.068 212.019 141.395 212.14 141.677C212.508 142.558 213.313 143.288 213.751 144.124C214.104 144.507 214.944 144.502 215.428 144.431C216.591 144.26 217.361 143.928 218.393 143.409C218.791 143.208 219.42 143.213 219.656 142.599C220.251 141.068 218.358 137.685 217.779 136.18C215.402 130.038 213.016 123.855 210.685 117.734C209.945 115.79 209.18 113.907 208.344 111.949H208.349ZM223.085 110.71C223.181 111.42 222.984 112.095 222.949 112.775C222.939 112.956 222.954 113.142 222.949 113.323C222.949 113.414 222.949 113.51 222.949 113.6C222.949 113.691 222.949 113.782 222.949 113.877C222.929 114.652 222.969 115.488 222.949 116.218C222.949 116.354 222.949 116.495 222.949 116.631C222.934 117.316 222.969 118.01 222.949 118.695C222.949 118.876 222.954 119.063 222.949 119.244C222.949 119.319 222.823 119.626 222.813 119.934C222.813 120.024 222.813 120.12 222.813 120.21C222.773 121.429 222.934 122.904 222.813 124.067C222.743 124.782 222.38 125.748 222.274 126.488C222.028 128.245 222.078 129.997 221.348 131.618C221.076 132.223 220.663 132.781 220.336 133.35C220.321 133.889 221.887 136.149 222.159 136.9C222.4 137.569 222.561 138.445 222.813 139.205C222.873 139.387 222.758 139.679 223.09 139.754C223.09 139.799 223.09 139.845 223.09 139.89C223.241 141.395 223.533 142.206 222.979 143.701C222.456 145.116 221.464 145.488 220.326 146.309L221.091 149.526C221.252 149.526 221.197 148.534 221.262 148.328C221.419 147.855 221.922 147.427 222.154 147.004C223.246 144.99 224.238 142.15 224.605 139.885C224.661 139.558 224.787 139.291 224.741 138.923C224.731 138.848 224.63 138.737 224.605 138.647C224.686 138.636 224.857 138.677 224.877 138.647C224.958 138.536 225.24 136.295 225.275 135.943C225.763 131.251 225.97 126.569 226.82 121.932C226.926 121.348 227.329 121.006 227.223 120.2C227.218 120.155 227.238 120.07 227.223 120.064C227.354 118.816 227.621 117.582 227.772 116.349C227.777 116.304 227.767 116.258 227.772 116.213C227.953 114.663 228.084 113.369 228.049 111.808C228.044 111.546 228.16 111.627 228.049 111.118C227.883 110.358 227.576 109.729 227.082 109.125C226.418 108.309 224.887 107.081 223.996 108.234L223.09 110.7L223.085 110.71ZM196.599 111.033C196.493 110.912 195.899 110.469 195.748 110.439C195.375 110.368 192.838 110.373 192.778 110.66C193.251 112.296 193.885 113.877 194.404 115.498C194.973 117.29 195.471 118.781 196.08 120.457C196.337 121.162 196.528 121.827 196.533 122.592L200.516 125.079L202.152 125.713C202.343 125.502 201.613 124.137 201.492 123.825C200.667 121.6 199.932 119.334 199.131 117.099C198.552 115.483 197.716 112.296 196.594 111.033H196.599ZM138.27 137.972C136.407 132.958 134.509 127.999 132.38 123.14C132.022 122.325 131.448 121.338 130.839 120.689C130.597 120.437 130.024 119.833 129.732 119.732C129.44 119.631 129.213 119.702 128.991 119.647C124.959 118.63 119.547 121.615 115.63 122.964C113.999 123.528 111.638 123.906 110.143 124.777C109.946 124.892 109.926 125.124 109.891 125.144C109.805 125.189 109.518 125.008 109.226 125.079C107.585 125.466 104.771 127.178 103.064 127.878C101.126 128.673 98.9813 129.202 97.0178 129.952C92.6882 131.608 88.3888 133.426 84.2153 135.324C84.0038 135.419 82.7301 136.124 82.6848 136.2C82.277 136.9 83.1329 138.395 83.3443 139.064C84.0693 141.35 84.7187 142.553 85.7206 144.607C86.3751 145.946 86.5815 147.029 87.095 148.323C87.7293 149.929 88.5449 151.474 89.1289 153.105C89.3101 154.429 90.5788 156.363 91.1225 157.651C91.2786 158.024 91.8072 159.897 91.9079 159.962C92.215 160.164 94.3345 159.907 94.843 159.847C97.5666 159.514 100.607 158.885 103.039 157.646C103.084 157.646 103.13 157.646 103.175 157.646C103.653 157.646 103.688 157.425 103.865 157.37C106.704 156.494 109.574 155.532 112.287 154.324C114.412 153.377 116.556 152.008 118.756 151.122C120.373 150.472 122.165 150.15 123.786 149.546C126.016 148.715 128.261 147.411 130.482 146.47C133.195 145.317 136.75 144.32 139.277 143.042C139.398 142.981 140.062 142.448 140.057 142.322C139.81 141.657 139.332 141.295 139.146 140.61C139.04 140.217 138.945 139.84 138.839 139.472C138.653 138.848 138.663 138.913 138.426 138.511C138.411 138.485 138.361 138.158 138.29 137.962L138.27 137.972ZM57.0395 121.862C56.7626 121.942 56.4353 122.088 56.2138 122.275C55.9369 122.506 56.0074 122.602 55.9369 122.687C54.9904 123.83 55.4133 123.664 55.2472 124.958C54.7035 129.252 55.2925 134.161 55.9722 138.42C56.0326 138.803 56.2994 139.215 56.3598 139.618C58.0312 139.533 59.5617 138.853 61.1425 138.425C61.9833 138.198 62.9096 138.068 63.7856 137.831C63.8611 137.811 63.9719 137.846 64.0625 137.831C64.1128 137.358 63.841 136.94 63.6245 136.542C63.5188 136.351 63.5741 136.104 63.2368 136.18C63.2519 136.094 63.2217 135.988 63.2368 135.903C63.2519 135.817 63.4281 135.737 63.3778 135.44C63.3426 135.223 63.0204 134.493 62.824 134.387C62.824 134.342 62.824 134.297 62.824 134.251C62.7485 132.555 61.1627 126.624 60.4629 124.978C59.9494 123.775 59.1287 122.471 57.9054 121.897C57.4271 121.67 57.4422 121.741 57.0445 121.862H57.0395ZM198.3 127.093C196.649 126.509 196.05 125.451 194.112 126C192.692 126.398 192.269 127.465 191.242 127.953C185.881 130.496 179.185 133.094 173.516 135.007C170.571 135.998 167.444 136.467 164.363 137.554C158.654 139.568 152.885 141.592 147.277 143.867C146.949 144.003 146.249 144.436 145.882 144.542C145.142 144.758 144.095 144.723 143.37 145.196C143.848 145.594 144.457 145.982 144.88 146.445C145.036 146.611 144.981 146.913 145.092 146.928C145.374 146.963 146.632 146.269 147.06 146.138C147.604 145.977 148.334 145.946 148.903 145.78C160.26 142.508 170.666 137.01 181.737 133.043C185.85 131.568 190.069 130.365 194.172 128.819C195.33 128.386 197.087 127.974 198.124 127.4C198.285 127.314 198.356 127.405 198.3 127.093ZM203.254 128.331C202.368 128.417 201.885 129.313 201.19 129.71L201.603 129.982C200.536 130.023 199.72 131.095 198.577 130.878L198.99 130.395C198.587 130.44 198.18 130.516 197.792 130.642C197.389 130.773 195.657 131.402 195.411 131.563C195.35 131.603 195.265 131.689 195.275 131.77C195.456 131.905 196.367 131.377 196.513 131.77C195.32 132.258 194.112 132.701 192.914 133.164C190.975 133.914 189.017 134.503 187.013 135.143C179.401 137.574 172.147 141.048 164.716 143.958C159.269 146.092 154.31 147.427 148.701 148.871C146.939 149.325 147.402 149.375 147.709 150.628C148.107 152.245 148.57 153.83 148.943 155.451C152.266 156.237 155.865 154.772 159.002 153.664C161.615 152.743 164.353 151.721 166.916 150.699C170.621 149.224 173.647 147.552 177.136 145.775C184.652 141.954 193.342 140.127 201.155 136.89C202.101 136.497 203.133 135.792 203.994 135.46C204.543 135.248 205.671 135.349 205.585 134.76L203.264 128.326L203.254 128.331ZM153.001 167.846C158 165.807 162.858 163.406 167.918 161.488C172.293 159.831 176.814 158.573 181.224 157.032C189.017 154.319 196.614 151.031 204.246 147.975C206.094 147.235 207.921 146.42 209.774 145.69C209.945 145.589 209.87 145.388 209.829 145.232C209.502 143.852 208.47 141.914 207.931 140.514C207.78 140.127 207.091 137.776 206.97 137.69C206.753 137.539 205.238 138.752 204.86 138.954C203.828 139.507 202.041 140.212 200.908 140.645C193.135 143.621 184.733 145.433 177.362 149.32C176.325 149.863 175.218 150.749 174.155 151.207C171.316 152.426 168.26 153.297 165.36 154.389C160.542 156.207 155.437 158.668 150.166 158.618C149.225 158.608 148.898 158.437 147.861 158.779C147.483 158.905 146.531 160.144 146.098 160.451C145.666 160.758 144.8 161.211 144.316 161.498C140.067 164.02 134.927 165.626 130.27 167.282C123.403 169.724 115.952 172.483 109.518 175.816C106.593 177.331 102.239 179.481 99.1273 180.402C98.3922 180.619 96.0412 181.213 95.3766 181.192C95.0947 181.182 94.1281 180.991 93.9922 180.775C93.9267 180.674 93.7455 179.717 93.7857 179.677C93.8109 179.657 94.0274 179.712 94.1432 179.632C95.3363 178.786 97.1588 178.57 98.6238 177.975C103.673 175.937 108.265 172.916 113.209 170.671C116.073 169.367 120.941 167.967 123.247 166.457C123.287 166.432 123.439 166.477 123.524 166.457C124.199 166.301 124.44 166.14 125.039 165.908C125.306 165.802 125.513 165.661 125.588 165.631C131.413 163.371 138.829 161.377 143.863 157.687C144.518 157.208 145.404 155.93 145.963 155.577C146.003 155.552 146.149 155.608 146.234 155.577L145.001 150.352C144.528 150.417 144.231 150.558 144.452 151.041C143.184 150.946 142.167 151.827 141.049 152.25C139.322 152.904 137.615 153.256 135.914 153.795C134.67 154.188 133.427 154.601 132.198 155.034C131.68 155.164 132.274 154.641 131.856 154.757C130.829 155.039 129.515 155.703 128.483 156.045C128.367 156.086 128.251 156.035 128.141 155.995L128.342 156.408C127.964 156.564 127.229 157.062 127.179 156.544L121.671 158.749C120.247 159.323 117.573 160.058 116.365 160.949C115.967 160.949 115.399 160.808 115.404 161.362C115.318 161.377 115.212 161.347 115.127 161.362C114.316 161.533 113.893 161.82 113.088 162.142C108.34 164.055 103.613 166.004 98.7446 167.489C97.6572 167.821 92.7386 169.004 92.2754 169.487C92.1848 169.497 92.0841 169.472 91.9985 169.487C91.7971 169.528 91.6511 169.528 91.5857 169.764C90.7449 169.82 90.1559 170.64 89.2447 170.454C89.1188 170.58 89.7985 172.282 89.8992 172.624C90.2566 173.842 90.2163 173.817 90.76 174.859C91.334 175.962 91.9582 178.247 92.5624 179.571C93.3578 181.308 94.5761 183.171 95.3011 185.049C95.6585 185.98 95.8901 187.42 96.1318 188.397C96.1469 188.467 96.6 188.593 96.4036 189.046C97.3098 188.699 98.2311 188.382 99.1575 188.08C112.625 183.75 125.82 177.537 139.221 172.795C143.813 171.169 148.455 169.689 152.991 167.836L153.001 167.846ZM63.9215 142.1C63.9014 141.843 64.1732 141.491 64.1883 141.194C64.2034 140.872 63.9668 140.454 64.0524 140.107C64.0977 139.92 64.6062 140.217 64.4753 139.759C61.6409 139.658 59.0482 141.285 56.2138 141.275C56.234 141.506 56.5562 141.415 56.7777 141.602C57.2106 141.969 57.9155 144.899 58.142 145.68C58.1621 145.755 58.1219 145.881 58.142 145.957C58.1521 145.997 58.1269 146.052 58.142 146.092C58.434 147.064 58.9425 147.99 59.2043 148.952C59.6876 150.699 59.8487 152.345 60.6995 154.067C61.9581 156.599 64.2488 158.381 65.7641 160.707C67.0781 162.736 68.0649 164.911 69.2882 166.955C69.7615 167.746 70.4864 168.35 70.9496 169.15C72.1075 171.159 72.1931 172.07 74.2169 173.631C74.3428 173.726 75.1332 174.26 75.2137 174.18C74.2975 171.003 73.4769 167.771 72.4498 164.624C71.7249 162.409 70.7381 160.662 70.4159 158.261C70.3555 157.813 70.4965 157.133 70.3757 156.786C70.3052 156.574 69.6255 156.277 69.3738 155.995C68.9962 155.577 68.9207 155.024 68.664 154.641C68.3971 154.238 67.8685 153.921 67.5815 153.518C64.8277 149.652 64.3897 148.413 64.1984 143.615C64.1984 143.525 64.1984 143.429 64.1984 143.339C64.1783 142.795 63.9467 142.377 63.9215 142.1ZM234.372 145.544C232.912 145.896 231.417 145.936 229.932 146.128C229.187 146.223 228.452 146.284 227.696 146.369C227.082 146.44 226.513 146.727 225.859 146.666C225.683 147.331 223.89 150.362 223.407 150.462C223.276 150.488 223.095 150.331 222.944 150.427C222.848 150.488 222.853 150.759 222.717 150.79C222.456 150.845 221.872 150.417 221.731 151.011C221.69 151.182 222.219 152.954 222.33 153.256C222.853 154.686 223.538 154.878 223.014 156.695C222.692 157.818 221.474 158.976 220.507 159.585C219.923 159.957 219.314 159.847 219.254 159.877C219.193 159.907 219.062 160.446 218.72 160.531C218.332 160.627 217.592 159.846 217.169 159.726C215.785 164.534 214.954 169.372 213.318 174.119C212.593 176.213 211.546 178.202 211.043 180.377C209.96 185.049 210.569 190.36 210.695 195.183C210.871 202.126 211.108 209.194 211.239 216.227C211.249 216.786 211.073 217.496 211.108 218.175C211.133 218.649 211.335 219.117 211.249 219.615C213.348 219.323 215.448 218.951 217.582 219.061C217.346 218.09 217.522 217.088 217.441 216.101C217.391 215.457 217.094 214.707 217.039 214.163C216.721 210.775 216.752 207.397 216.747 203.978C216.742 200.152 216.651 196.472 217.315 192.847C219.818 179.239 226.735 171.617 233.531 160.32C236.164 155.945 236.668 153.372 235.168 148.398C234.891 147.482 234.171 146.606 234.377 145.539L234.372 145.544ZM130.149 152.149C132.697 151.238 135.199 150.185 137.852 149.596C138.904 148.977 140.661 148.801 141.628 148.136C142.177 147.759 141.708 147.799 141.583 147.638C141.371 147.381 141.145 147.155 140.953 146.918C140.676 146.581 140.717 146.052 140.148 146.082C139.75 146.108 139.574 146.48 139.272 146.596C136.624 147.633 133.85 148.479 131.202 149.541C130.441 149.843 129.535 150.528 128.775 150.704C127.073 151.097 127.114 151.419 125.704 152.028C124.471 152.562 122.17 153.387 120.931 153.795C120.171 154.042 119.104 154.072 118.354 154.314C116.707 154.852 114.84 156.282 113.249 157.057C111.396 157.964 109.317 158.583 107.439 159.439C107.177 159.56 107.278 159.439 107.026 159.716H106.89C103.467 160.481 100.255 162.137 96.7661 162.6C95.5025 162.766 92.8191 162.49 92.0438 163.522L90.6493 166.734C93.3024 165.994 95.9002 165.042 98.5282 164.216C102.143 163.084 104.927 161.911 108.411 160.536C113.314 158.603 118.223 156.645 123.141 154.752C123.252 154.711 123.343 154.641 123.418 154.616C124.34 154.263 125.256 153.856 126.172 153.513C126.283 153.473 126.374 153.402 126.449 153.377C126.625 153.312 126.822 153.297 126.998 153.241C127.038 153.226 127.094 153.256 127.134 153.241C127.521 153.12 127.622 153.045 128.095 152.964C128.342 152.924 128.413 153.08 128.372 152.688C128.851 152.733 129.666 152.315 130.165 152.139L130.149 152.149ZM217.985 147.336C217.472 147.487 215.861 147.583 215.926 148.217C216.631 149.747 216.721 151.389 217.416 152.934C217.799 153.785 218.388 154.661 218.801 155.542C219.108 156.207 219.138 157.516 219.979 156.408C220.14 156.197 220.341 155.834 220.311 155.557L218.327 149.808C218.544 148.846 218.207 148.237 217.99 147.331L217.985 147.336ZM221.429 150.085C221.429 150.085 221.137 150.034 221.157 150.15C221.373 150.528 221.585 150.241 221.429 150.085ZM87.6639 155.668C86.7677 153.926 86.1737 152.023 85.2675 150.281C84.9453 150.05 83.143 151.172 83.2134 151.64C83.2386 151.817 83.6464 152.124 83.7119 152.385C83.8881 153.04 83.8881 154.137 84.0542 154.797C84.6734 157.254 85.5998 159.721 86.1233 162.228L88.2881 168.118L88.4644 166.437L90.4983 160.778C89.7028 160.43 89.7934 159.781 89.4863 159.137C88.9225 157.959 88.2378 156.791 87.6588 155.668H87.6639ZM85.5393 170.736C84.8647 168.058 83.5457 165.279 82.7201 162.61C81.8944 159.942 81.542 157.405 80.6509 154.903C80.5804 154.706 80.0921 153.508 80.0418 153.448C79.7498 153.09 78.2948 153.352 77.8518 153.483C77.0614 153.715 75.2742 154.369 74.5794 154.762C74.4837 154.817 74.0558 155.159 74.0206 155.22C73.9803 155.295 73.5927 156.312 73.5826 156.373C73.3409 158.15 74.6096 160.536 75.1684 162.167C76.1199 164.941 76.8952 167.786 77.8266 170.595C78.0431 171.249 78.2948 171.874 78.5163 172.523C78.5616 172.659 78.6069 172.8 78.6523 172.936C79.7145 176.047 80.7919 179.184 81.8189 182.3C82.0152 182.904 82.559 185.009 83.0574 185.19C83.0624 185.28 83.0473 185.376 83.0574 185.467C83.0825 185.688 83.1832 185.814 83.1933 185.88C83.4199 187.279 83.9787 188.86 84.6533 190.134C84.8899 190.577 86.1334 192.449 86.4858 192.565C86.8181 192.676 87.1554 192.641 87.4927 192.59C88.4341 192.454 90.3019 191.619 91.1074 191.115C91.2987 191 92.4768 190.159 92.5473 190.078C92.7688 189.816 92.6681 189.605 92.6882 189.323C92.7285 188.689 92.4667 188.286 92.2754 187.672C92.22 187.491 92.1949 187.299 92.1395 187.123C92.0539 186.861 91.8928 186.655 91.8626 186.574C91.7669 186.272 91.782 186.005 91.7267 185.749C91.6813 185.552 91.6914 185.401 91.4498 185.336C91.4498 185.29 91.4498 185.245 91.4498 185.2C91.3994 184.198 90.4983 183.398 90.1106 182.617C89.723 181.837 89.5065 180.568 89.1792 179.833C89.0634 179.571 88.6506 179.491 88.5499 179.325C88.1925 178.716 88.0314 177.759 87.4575 176.943C87.4172 176.883 87.4172 176.732 87.3215 176.667V176.531C87.3115 176.44 87.3316 176.344 87.3215 176.254C87.2007 175.287 86.7677 174.804 86.4959 174.049C86.4808 174.008 86.506 173.958 86.4959 173.913C86.7879 173.636 86.4355 172.855 86.3146 172.513C86.1233 171.974 85.6501 171.426 85.5343 171.159C85.4991 171.078 85.5645 170.862 85.5343 170.746L85.5393 170.736ZM70.9445 174.044C69.2228 172.307 69.4191 171.607 68.3065 169.865C67.9893 169.367 67.2896 168.843 66.9724 168.309C65.6886 166.155 64.6767 163.768 63.3224 161.634C63.0153 161.15 60.9764 158.633 60.624 158.533C60.342 158.457 60.2263 158.724 59.9947 158.754C59.0583 158.87 57.8148 158.845 56.8582 158.845C54.8193 158.845 52.7652 158.588 50.7213 158.633C49.9057 161.004 50.4393 162.978 51.2599 165.228C52.292 168.063 53.5707 170.308 55.2472 172.594C58.0312 176.38 60.3118 180.573 63.0405 184.354C63.6547 185.205 64.435 185.869 64.9989 186.66C65.4822 187.339 65.7591 188.276 66.1719 188.86C66.4689 189.288 67.939 190.869 68.372 191.135C69.9326 192.102 71.8658 192.032 73.5574 192.56C73.9199 192.671 76.0948 193.577 76.1652 193.809C76.3364 194.347 75.7121 194.196 75.5208 194.317C75.4201 194.383 75.395 194.68 75.2137 194.765C74.2773 195.228 72.621 194.619 71.6594 194.458C71.005 194.352 70.3555 194.347 69.7061 194.282C69.8319 194.952 70.1592 195.445 70.2397 196.16C70.3102 196.794 70.3505 197.499 70.3958 198.138C70.4965 199.513 70.3757 201.063 70.567 202.438C70.6979 203.354 71.1359 204.346 71.3221 205.262C72.1528 209.375 72.7418 213.579 73.6279 217.687C74.0357 219.585 74.7304 221.564 75.1483 223.462C75.254 223.95 75.3346 225.581 75.5208 225.772L75.843 225.898L79.6189 225.667C79.8303 224.051 79.3017 222.48 79.201 220.924C78.7731 214.269 79.9713 206.36 80.9983 199.785C81.1493 198.803 81.6981 195.571 82.3677 194.926C82.5539 194.745 82.9214 194.79 83.0322 194.483C82.0958 192.606 80.958 190.743 80.2431 188.764C79.8303 187.621 79.4527 186.237 79.0701 185.049C78.8788 184.465 78.7429 183.674 78.5214 182.985C78.4811 182.864 78.4056 182.768 78.3854 182.708C78.3351 182.557 78.3703 182.29 78.2898 182.048C77.887 180.83 77.298 179.647 77.0211 178.383C76.9657 178.252 76.8449 178.298 76.7341 178.303C76.7392 177.965 76.6183 177.89 76.5982 177.754C76.5831 177.668 76.6183 177.558 76.5982 177.477C76.4623 176.918 76.2206 176.495 76.0444 175.962C75.6618 175.851 75.7021 176.309 75.6316 176.375C75.5611 176.44 74.9268 176.571 74.806 176.651C74.5089 176.531 74.2673 176.495 73.9803 176.651C74.1011 176.022 73.6933 176.309 73.5675 176.239C73.5524 176.229 73.5675 176.002 73.4215 175.906C72.9583 175.599 72.2837 175.267 71.7752 175C71.7803 174.96 71.7853 174.899 71.7752 174.864C71.6947 174.512 71.2315 174.461 71.0855 174.315C71.0553 174.285 71.0402 174.134 70.9496 174.039L70.9445 174.044ZM246.49 195.385C246.027 194.146 245.604 192.852 245.07 191.639C244.844 191.12 243.092 187.541 242.885 187.42C242.316 187.083 241.395 188.633 240.635 187.949C240.595 187.913 240.061 187.088 240.051 187.037C240.021 186.866 240.182 186.594 240.167 186.368C240.147 185.995 239.955 185.713 240.071 185.331C240.363 184.359 242.538 183.831 242.211 182.527C240.922 179.461 240.484 176.128 239.512 172.966C238.596 169.981 237.101 167.459 236.341 164.438L235.752 163.033C234.931 164.146 234.483 165.48 233.798 166.653C233.476 167.207 232.983 167.574 232.681 168.022C231.346 169.996 230.118 172.085 228.89 174.134C228.653 174.532 227.319 176.913 227.344 177.125C227.842 177.381 227.933 178.041 228.18 178.489C230.299 182.365 231.996 185.628 233.592 189.902C235.102 193.935 237.967 196.034 240.705 199.105C240.927 199.352 241.068 199.598 241.395 199.931C241.546 200.087 241.42 200.489 241.944 200.343C241.934 200.832 243.374 202.191 243.726 202.654C245.322 204.738 246.651 207.054 248.081 209.149C248.408 209.627 250.608 212.461 250.613 212.688C250.638 213.408 251.258 213.795 251.696 214.485C252.073 215.084 252.4 215.834 252.783 216.423C252.848 216.524 252.758 216.665 253.01 216.579C253.604 216.368 254.827 214.893 255.406 214.4C255.874 213.997 256.136 214.329 255.924 213.423C255.653 212.245 254.464 210.825 253.875 209.818C251.706 206.108 249.707 202.312 247.864 198.42C247.824 198.34 247.809 198.179 247.728 198.007C247.557 197.645 247.648 197.328 247.18 197.046C247.134 196.895 247.059 196.824 247.044 196.769C246.878 196.301 246.666 195.858 246.495 195.395L246.49 195.385ZM50.7011 172.805C50.6105 176.802 50.4393 181.847 49.3116 185.663C48.3802 188.81 47.3281 191.926 46.437 195.108C44.5994 201.662 42.8575 207.492 39.6052 213.539C38.5681 215.467 36.5242 218.18 35.8747 220.134C35.7589 220.476 35.5878 221.191 35.8395 221.473C36.7004 221.876 39.0867 223.915 39.9073 223.874C40.2043 223.859 40.8336 222.988 40.9444 222.721C41.7147 220.869 41.8657 220.542 43.1394 218.956C45.8429 215.593 48.4205 212.562 50.6256 208.716C51.0485 207.981 51.9849 206.365 52.2316 205.64C52.7703 204.044 52.9968 202.287 53.6161 200.716C53.8225 200.192 54.3662 199.518 54.5323 198.853C54.5927 198.612 54.5122 198.088 54.5827 198.007C54.6229 197.962 54.9401 197.997 55.1818 197.71C55.3932 197.464 56.1232 195.974 56.1886 195.677C56.2893 195.223 56.0628 194.911 56.3548 194.272C56.3951 194.181 56.4504 194.091 56.4907 193.995C56.531 193.909 56.8179 193.819 56.8784 193.482C56.9186 193.245 56.7626 193.084 56.7626 193.033C56.7626 192.988 56.7626 192.943 56.7626 192.897C57.3264 192.892 57.2006 192.354 57.3113 192.072C58.0161 190.32 58.8921 188.623 59.6121 186.866C59.7027 186.65 59.6574 186.257 59.7782 186.091C59.9242 185.885 60.2967 186.237 60.2061 185.668C59.5365 184.45 58.6303 183.362 57.8903 182.199C57.2157 181.142 55.9671 178.575 55.1113 177.89C54.5625 177.009 54.0943 176.012 53.5003 175.171C52.7854 174.159 51.7332 173.268 51.1089 172.186C50.9931 171.984 50.9629 171.783 50.983 171.557C50.6206 171.073 50.7112 172.669 50.7062 172.795L50.7011 172.805ZM231.618 193.179C231.659 192.988 231.543 192.812 231.346 192.767V193.179H231.618ZM91.777 195.344C91.6511 195.052 91.8525 194.579 91.3843 194.549C91.2887 194.544 89.5971 195.047 89.5417 195.123C89.4863 195.198 89.5266 195.339 89.5316 195.44L92.6278 202.825C92.9802 202.639 94.0526 202.433 94.0425 201.954C94.0375 201.516 92.8342 199.281 92.6228 198.556C92.2754 197.348 92.2754 196.537 91.772 195.349L91.777 195.344ZM258.114 220.657C257.702 220.169 256.503 218.034 255.879 218.402C255.804 218.447 255.028 219.56 254.777 219.701C255.602 221.674 257.324 223.562 256.952 225.868C256.931 225.984 256.076 227.932 256.005 228.053C255.924 228.184 255.466 228.425 255.25 228.707C253.976 230.374 253.045 231.829 251.524 233.384C251.394 233.52 250.789 233.691 250.638 234.039C250.306 234.794 250.628 236.244 250.94 236.989C251.006 237.15 251.565 238.006 251.665 238.056C252.239 237.054 253.035 235.892 253.845 235.076C255.93 232.982 261.82 230.248 262.817 227.731C263.008 227.242 263.018 226.628 263.305 226.15C263.315 225.843 263.033 225.193 262.862 224.927C262.364 224.161 260.083 222.767 259.217 221.896C258.885 221.559 258.447 221.025 258.125 220.647L258.114 220.657ZM212.498 222.797C212.568 225.319 213.384 227.716 211.385 229.739C208.213 232.951 202.011 231.215 199.403 234.416C198.94 234.985 197.414 237.477 199.051 237.236C200.687 236.994 202.57 236.39 204.296 236.279C205.449 236.204 205.681 236.279 206.834 236.063C209.109 235.635 211.209 236.173 213.384 236.274C214.552 236.33 217.663 235.861 217.854 234.406C217.904 234.014 217.748 233.757 217.748 233.455C217.733 230.636 216.807 227.776 217.034 224.921C217.079 224.368 217.557 222.752 217.436 222.324C217.406 222.208 217.27 222.087 217.134 222.127C215.579 222.294 214.018 222.389 212.503 222.802L212.498 222.797ZM36.4285 226.819C36.5644 226.633 37.37 226.346 37.1535 225.949C36.9924 225.651 34.9635 224.645 34.5406 224.307C34.0422 225.027 33.5035 225.752 32.8742 226.361C32.6426 226.588 32.2852 226.699 32.0486 226.92C31.5955 227.343 30.0751 229.085 29.8737 229.573C29.5716 230.298 30.5483 230.59 30.946 230.907C33.4179 232.896 35.7438 235.383 38.3215 237.165C39.7663 238.167 41.1307 238.509 42.8575 238.756C43.1998 238.459 41.2263 237.286 41.1156 237.195C39.2428 235.63 37.4203 234.059 35.5676 232.483C35.3864 232.327 35.0793 232.312 34.9987 232.196C34.8175 231.945 34.9383 231.532 34.8678 231.28C34.8376 231.164 34.601 231.189 34.596 231.104C34.591 231.018 34.7571 230.082 34.7974 229.936C34.9232 229.468 36.1315 227.222 36.4336 226.819H36.4285ZM79.342 228.425L76.0344 228.561V236.546C76.5378 236.576 77.0664 236.642 77.5547 236.747C82.131 237.764 84.5425 238.484 89.3202 238.061C90.0049 238.001 90.76 238.107 91.4548 238.061C91.4196 237.825 91.1779 237.825 91.0118 237.749C89.29 236.954 87.3769 236.526 85.5746 235.751C85.3732 235.665 85.2272 235.438 85.0158 235.343C83.9938 234.875 81.542 234.472 80.7566 233.616C80.5804 233.425 80.4596 232.982 80.218 232.71C79.926 232.377 79.1507 232.075 79.201 231.542C79.2111 231.416 79.3369 231.295 79.3369 231.25V228.425H79.342ZM92.5573 238.756C92.1042 238.655 92.361 239.119 92.215 239.441C92.1445 239.592 91.5605 239.924 92.0791 240.13C92.6782 240.367 92.5624 239.068 92.5573 238.756ZM224.182 239.859H223.498V239.995H224.182V239.859ZM57.0344 241.369H56.4857V241.505H57.0344V241.369Z" fill="#0067FF"/>
<path d="M127.944 180.513C128.136 180.87 127.617 180.87 127.808 180.513C127.808 180.508 127.944 180.508 127.944 180.513Z" fill="#0067FF"/>
<path d="M153.69 171.291C153.756 171.226 153.911 171.416 153.761 171.426C153.715 171.426 153.66 171.321 153.69 171.291Z" fill="#0067FF"/>
<path d="M68.327 137.006C68.337 135.395 67.6826 133.709 67.5013 131.982C66.8368 125.548 67.4258 121.666 64.1081 115.686C63.7054 114.956 63.5795 114.502 62.7488 114.15C62.4115 114.009 61.2838 113.657 60.9465 113.611C60.3323 113.526 58.1927 113.908 58.2833 112.846C58.2934 112.735 58.5652 112.131 58.6458 112.086C58.7263 112.041 60.2769 111.749 60.4682 111.734C61.2939 111.678 62.1397 111.995 62.9452 112.081C63.0308 111.155 64.3045 110.002 65.2207 110.017C66.58 110.047 68.1105 110.309 69.3792 109.629C69.8877 109.357 70.5019 108.844 70.527 108.23C70.1746 108.189 69.8625 108.386 69.5101 108.36C68.5988 108.3 66.6102 107.041 67.7833 106.1C68.5284 105.506 69.792 106.447 70.1142 106.16C70.1595 106.12 69.9632 105.783 70.0034 105.576C70.079 105.209 70.527 104.62 70.5321 104.559C70.5522 104.363 70.3559 104.142 70.4062 103.915C70.4565 103.704 71.0405 103.22 71.1463 102.863C71.4584 101.836 70.8492 101.957 70.381 101.413C69.3741 100.255 70.1293 98.634 69.5151 97.9443C69.4497 97.8687 69.1476 97.6774 69.057 97.6674L67.3553 97.6976L64.4706 102.113C62.2655 102.767 62.4971 105.541 60.3726 106.548C60.0856 106.684 58.9781 106.85 58.8421 107.011C58.8069 107.052 58.8018 107.787 58.7263 108.068C58.6055 108.506 57.8252 110.49 57.5835 110.782C57.1808 111.26 56.491 111.542 55.902 111.255C55.1066 110.868 55.9524 109.951 56.1336 109.468C56.3249 108.955 56.8485 107.515 56.7579 107.062C56.6622 106.583 55.1015 106.055 54.6938 105.541C54.2407 104.972 53.9235 102.239 53.8631 101.413C53.6365 98.1758 54.1098 95.563 56.1487 92.9602C58.8975 89.4512 60.9818 90.9011 64.6871 91.0068C66.872 91.0672 67.1741 90.6242 69.3188 91.6109C70.084 91.9633 71.5289 92.6782 71.7353 93.5995C71.8108 93.9469 71.6648 95.0797 71.5641 95.4321C71.3778 96.0563 70.7284 96.4843 70.527 97.0783C70.7939 97.0682 71.106 97.1639 71.1916 97.4509C71.4685 98.3974 71.0456 99.4747 71.5339 100.416C71.6799 100.693 72.1884 100.935 72.2589 101.202C72.3596 101.599 72.3696 102.455 72.3193 102.868C72.3193 102.883 72.2337 102.964 72.1834 103.145C72.1582 103.225 72.2085 103.361 72.1834 103.422C72.1028 103.588 71.7756 103.804 71.7051 103.981C71.3174 104.937 72.5509 107.288 72.4502 108.295C72.3243 109.619 71.0909 109.831 70.8039 110.722C70.6277 110.757 70.517 110.918 70.3911 110.999C70.2753 111.069 70.0034 111.265 69.9783 111.275C69.5705 111.442 68.1508 111.784 67.7027 111.824C67.2546 111.864 65.6436 111.608 65.5731 111.688C65.5429 111.723 65.6134 112 65.5731 112.131C65.5329 112.262 65.2661 112.323 65.1553 112.564C64.7827 113.4 65.1654 113.178 65.3919 113.586C69.1325 120.287 69.208 125.508 69.7064 132.959C69.7266 133.261 69.8021 133.744 69.9783 133.996C70.0085 136.015 70.3861 138.159 70.4012 140.123C70.4112 141.487 70.0488 143.279 70.2451 144.674C70.2904 145.006 70.5321 145.202 70.5421 145.494C70.5522 145.761 70.235 145.575 70.235 146.043C70.235 146.511 70.522 146.164 70.3861 147.211C70.376 147.302 70.4012 147.402 70.3861 147.488C70.376 147.533 70.3961 147.584 70.3861 147.624C69.7366 147.674 70.1142 148.002 70.1092 148.037C70.1041 148.127 70.1243 148.228 70.1092 148.314C70.0387 148.737 69.6963 150.242 69.3238 150.358C68.1759 150.705 68.1659 148.621 68.181 147.901C68.181 147.856 68.181 147.81 68.181 147.765C68.181 147.554 68.3169 147.075 68.3169 146.662C68.3169 146.204 68.3119 145.741 68.3169 145.288C68.3169 145.197 68.3169 145.107 68.3169 145.011C68.332 143.818 68.3068 142.625 68.3169 141.432C68.3169 141.386 68.3169 141.341 68.3169 141.296C68.3219 140.661 68.4377 140.541 68.3169 139.78C68.2817 139.564 68.3975 139.292 68.181 139.091C68.2062 138.773 68.1558 138.441 68.181 138.129C68.1911 137.988 68.3068 137.777 68.3169 137.439C68.3219 137.303 68.3169 137.162 68.3169 137.027L68.327 137.006ZM65.3567 96.3081C65.7191 95.9909 66.3988 95.281 66.8116 95.2005C67.4711 95.0696 68.1055 95.9708 69.0519 95.5277C70.1041 95.0344 68.9412 94.3497 68.332 94.1181C67.1338 93.665 64.1585 93.6146 62.7136 93.5391C60.2014 93.4133 59.9195 93.4888 58.3538 95.2961C56.6471 97.2646 56.5615 100.502 57.07 103.034C57.1002 103.19 57.6339 104.252 57.7245 104.308C57.9661 104.459 58.2531 104.323 58.4897 104.237C60.3021 103.588 59.9346 101.619 61.2335 100.648C61.6664 100.326 62.2202 100.23 62.6179 99.8322C63.6903 98.7548 64.0578 97.4559 65.3567 96.303V96.3081Z" fill="#0067FF"/>
<path d="M155.754 170.6C155.84 170.535 155.865 170.263 156.097 170.323C156.273 170.343 156.046 170.509 156.031 170.6H155.754Z" fill="#0067FF"/>
<path d="M130.149 155.869C129.676 156.056 129.122 156.312 128.634 156.282C129.042 156.121 129.787 155.638 130.149 155.869Z" fill="#0067FF"/>
<path d="M130.975 155.457L130.285 155.734C130.497 155.653 130.733 155.548 130.975 155.457Z" fill="#0067FF"/>
</svg>
