<svg width="54" height="55" viewBox="0 0 54 55" fill="none" xmlns="http://www.w3.org/2000/svg">
<path d="M3.53333 16.9745H46.4667M3.53333 31.949H46.4667M23.7222 2C19.417 8.73755 17.1345 16.5199 17.1345 24.4617C17.1345 32.4035 19.417 40.1859 23.7222 46.9235M26.2778 2C30.583 8.73755 32.8655 16.5199 32.8655 24.4617C32.8655 32.4035 30.583 40.1859 26.2778 46.9235M2 24.4617C2 27.4114 2.59491 30.3323 3.75077 33.0575C4.90663 35.7826 6.6008 38.2588 8.73654 40.3446C10.8723 42.4303 13.4078 44.0848 16.1983 45.2137C18.9888 46.3425 21.9796 46.9235 25 46.9235C28.0204 46.9235 31.0112 46.3425 33.8017 45.2137C36.5922 44.0848 39.1277 42.4303 41.2635 40.3446C43.3992 38.2588 45.0934 35.7826 46.2492 33.0575C47.4051 30.3323 48 27.4114 48 24.4617C48 18.5045 45.5768 12.7913 41.2635 8.57889C36.9501 4.3665 31.1 2 25 2C18.9 2 13.0499 4.3665 8.73654 8.57889C4.42321 12.7913 2 18.5045 2 24.4617Z" stroke="#0067FF" stroke-width="3" stroke-linecap="round" stroke-linejoin="round"/>
<ellipse cx="39" cy="41.5" rx="15" ry="13.5" fill="white"/>
<path d="M30.2068 49.107L31.5516 45.057C30.3893 43.3314 29.9688 41.2878 30.3684 39.3063C30.7679 37.3248 31.9603 35.5402 33.7238 34.2843C35.4873 33.0284 37.7019 32.3866 39.9558 32.4784C42.2098 32.5701 44.3497 33.3891 45.9778 34.783C47.6058 36.177 48.6111 38.0511 48.8069 40.0568C49.0026 42.0625 48.3754 44.0634 47.0418 45.6875C45.7083 47.3115 43.7592 48.4482 41.5569 48.8862C39.3546 49.3241 37.0491 49.0336 35.0689 48.0685L30.2068 49.107Z" stroke="#0067FF" stroke-width="2" stroke-linecap="round" stroke-linejoin="round"/>
</svg>
