<svg width="41" height="47" viewBox="0 0 41 47" fill="none" xmlns="http://www.w3.org/2000/svg">
<path d="M13.1875 20.4748C13.1875 22.4117 13.9579 24.2694 15.3293 25.639C16.7006 27.0086 18.5606 27.7781 20.5 27.7781C22.4394 27.7781 24.2993 27.0086 25.6707 25.639C27.0421 24.2694 27.8125 22.4117 27.8125 20.4748C27.8125 18.5378 27.0421 16.6802 25.6707 15.3106C24.2993 13.9409 22.4394 13.1715 20.5 13.1715C18.5606 13.1715 16.7006 13.9409 15.3293 15.3106C13.9579 16.6802 13.1875 18.5378 13.1875 20.4748Z" stroke="#0067FF" stroke-width="2" stroke-linecap="round" stroke-linejoin="round"/>
<path d="M34.2889 34.2464L23.9466 44.5757C23.0325 45.4877 21.7933 46 20.5012 46C19.2091 46 17.9699 45.4877 17.0558 44.5757L6.71107 34.2464C3.98405 31.5226 2.12695 28.0524 1.37462 24.2746C0.622292 20.4967 1.00852 16.5809 2.48445 13.0223C3.96039 9.46369 6.45975 6.42209 9.66649 4.28214C12.8732 2.14219 16.6433 1 20.5 1C24.3567 1 28.1268 2.14219 31.3335 4.28214C34.5402 6.42209 37.0396 9.46369 38.5155 13.0223C39.9915 16.5809 40.3777 20.4967 39.6254 24.2746C38.873 28.0524 37.016 31.5226 34.2889 34.2464Z" stroke="#0067FF" stroke-width="2" stroke-linecap="round" stroke-linejoin="round"/>
</svg>
