<svg width="46" height="44" viewBox="0 0 46 44" fill="none" xmlns="http://www.w3.org/2000/svg">
<path d="M18.1567 41.7062C16.1115 41.2641 14.1473 40.5327 12.3294 39.5364M27.5556 2.39819C32.2272 3.41498 36.3982 5.91314 39.3856 9.48367C42.3731 13.0542 44 17.4855 44 22.0522C44 26.6188 42.3731 31.0502 39.3856 34.6207C36.3982 38.1912 32.2272 40.6894 27.5556 41.7062M5.41885 33.4568C4.13708 31.6821 3.16358 29.7223 2.53574 27.6526M2 18.6933C2.37596 16.566 3.09967 14.5507 4.11475 12.7033L4.51185 12.0203M10.889 5.43463C13.0875 3.99232 15.554 2.96185 18.1567 2.39819M22.8562 13.0952V22.0522L29.9053 28.77" stroke="#0067FF" stroke-width="3" stroke-linecap="round" stroke-linejoin="round"/>
</svg>
